<svg xmlns="http://www.w3.org/2000/svg" width="245.108" height="256.637" viewBox="0 0 245.108 256.637">
    <g opacity="0.03">
        <path d="M1709.1 2454.952a22.711 22.711 0 0 1-21.364 0 3.759 3.759 0 0 0-3.616 6.592 30.222 30.222 0 0 0 28.606 0 3.76 3.76 0 1 0-3.626-6.588z" transform="translate(-1652.557 -2281.776)"/>
        <path d="M1695 2442.411a3.76 3.76 0 1 1-3.759-3.759 3.76 3.76 0 0 1 3.759 3.759z" transform="translate(-1652.557 -2281.776)"/>
        <path d="M1709.356 2442.411a3.759 3.759 0 1 1-3.759-3.759 3.759 3.759 0 0 1 3.759 3.759z" transform="translate(-1652.557 -2281.776)"/>
        <path d="M1892.488 2498.429a3.759 3.759 0 0 0-6.667 3.475 37.9 37.9 0 0 1 4.325 17.712v.061a11.23 11.23 0 0 1-11.219 11.217h-54.254a11.21 11.21 0 0 1-6.2-1.876 18.618 18.618 0 0 0 2.5-9.341v-.061a45.6 45.6 0 0 0-3.4-17.31 38.353 38.353 0 0 1 59.234-11.756 3.76 3.76 0 0 0 4.909-5.7 45.769 45.769 0 0 0-13.686-8.127 31.328 31.328 0 1 0-32.462 0 46.051 46.051 0 0 0-22.129 17.738 46.1 46.1 0 0 0-22.1-17.745 31.33 31.33 0 1 0-32.477 0 46.109 46.109 0 0 0-22.1 17.747 45.872 45.872 0 0 0-22.1-17.757 31.328 31.328 0 1 0-32.5 0 45.745 45.745 0 0 0-15.787 10.076 3.759 3.759 0 1 0 5.252 5.38 38.354 38.354 0 0 1 61 10.129 45.612 45.612 0 0 0-3.4 17.312v.061a18.61 18.61 0 0 0 2.505 9.341 11.215 11.215 0 0 1-6.2 1.876h-54.256a11.23 11.23 0 0 1-11.217-11.217v-.061a38.1 38.1 0 0 1 3.134-15.211 3.759 3.759 0 1 0-6.9-2.984 45.556 45.556 0 0 0-3.753 18.2v.061a18.759 18.759 0 0 0 18.736 18.736h54.256a18.732 18.732 0 0 0 11.219-3.738 18.634 18.634 0 0 0 11.215 3.738h54.256a18.62 18.62 0 0 0 11.215-3.738 18.733 18.733 0 0 0 11.219 3.738h54.256a18.759 18.759 0 0 0 18.736-18.736v-.061a45.975 45.975 0 0 0-5.16-21.179zm-64.5-48.486a23.809 23.809 0 1 1 23.809 23.809 23.836 23.836 0 0 1-23.805-23.809zm-153.38 0a23.809 23.809 0 1 1 23.809 23.809 23.836 23.836 0 0 1-23.805-23.809zm76.69 0a23.809 23.809 0 1 1 23.809 23.809 23.836 23.836 0 0 1-23.807-23.809zm-3.319 80.951a11.23 11.23 0 0 1-11.217-11.217v-.061a38.345 38.345 0 0 1 76.69 0v.061a11.23 11.23 0 0 1-11.217 11.217z" transform="translate(-1652.557 -2281.776)"/>
        <path d="M1862.478 2454.952a22.709 22.709 0 0 1-21.363 0 3.76 3.76 0 0 0-3.617 6.592 30.222 30.222 0 0 0 28.606 0 3.76 3.76 0 1 0-3.626-6.588z" transform="translate(-1652.557 -2281.776)"/>
        <path d="M1848.385 2442.411a3.76 3.76 0 1 1-3.76-3.759 3.76 3.76 0 0 1 3.76 3.759z" transform="translate(-1652.557 -2281.776)"/>
        <path d="M1862.737 2442.411a3.76 3.76 0 1 1-3.76-3.759 3.759 3.759 0 0 1 3.76 3.759z" transform="translate(-1652.557 -2281.776)"/>
        <path d="M1785.788 2454.952a22.711 22.711 0 0 1-21.364 0 3.759 3.759 0 0 0-3.616 6.592 30.222 30.222 0 0 0 28.606 0 3.76 3.76 0 1 0-3.626-6.588z" transform="translate(-1652.557 -2281.776)"/>
        <path d="M1771.694 2442.411a3.759 3.759 0 1 1-3.759-3.759 3.76 3.76 0 0 1 3.759 3.759z" transform="translate(-1652.557 -2281.776)"/>
        <path d="M1786.046 2442.411a3.759 3.759 0 1 1-3.759-3.759 3.759 3.759 0 0 1 3.759 3.759z" transform="translate(-1652.557 -2281.776)"/>
        <path d="M1800.173 2334.536h53.132a3.759 3.759 0 0 0 0-7.519h-53.132a3.759 3.759 0 0 0 0 7.519z" transform="translate(-1652.557 -2281.776)"/>
        <path d="M1800.173 2349.573h53.132a3.759 3.759 0 0 0 0-7.518h-53.132a3.759 3.759 0 1 0 0 7.518z" transform="translate(-1652.557 -2281.776)"/>
        <path d="M1800.173 2364.611h53.132a3.76 3.76 0 0 0 0-7.519h-53.132a3.76 3.76 0 0 0 0 7.519z" transform="translate(-1652.557 -2281.776)"/>
        <path d="M1689.586 2386.162h18c1.163 9.786 4.652 16.943 10.4 21.3a24.265 24.265 0 0 0 14.881 4.635 35.352 35.352 0 0 0 7.414-.815 4.328 4.328 0 0 0-.154-8.49 6.722 6.722 0 0 1-4.909-3.109c-2.24-3.616-1.776-9.641-1.057-13.52h23.214a25.608 25.608 0 0 0 11.4-2.669 25.942 25.942 0 0 0 24.063 16.581h23.212c.721 3.882 1.185 9.907-1.057 13.521a6.722 6.722 0 0 1-4.911 3.11 4.34 4.34 0 0 0-3.561 4.176 4.3 4.3 0 0 0 3.411 4.315 35.334 35.334 0 0 0 7.413.815 24.272 24.272 0 0 0 14.886-4.639c5.745-4.358 9.232-11.512 10.393-21.3h18a25.774 25.774 0 0 0 25.753-25.734v-52.915a25.772 25.772 0 0 0-25.753-25.733h-67.79a25.886 25.886 0 0 0-11.4 2.662 25.793 25.793 0 0 0-24.061-16.578h-46.428a3.76 3.76 0 0 0 0 7.519h46.428a18.244 18.244 0 0 1 18.232 18.215v52.918a18.243 18.243 0 0 1-18.232 18.215h-26.2a3.759 3.759 0 0 0-3.6 2.695c-.415 1.4-3.9 13.956 1.241 22.285q.209.339.435.662a15.291 15.291 0 0 1-6.72-2.815c-4.589-3.48-7.195-9.97-7.747-19.29a3.763 3.763 0 0 0-3.754-3.537h-21.446a18.243 18.243 0 0 1-18.232-18.215v-52.917a18.244 18.244 0 0 1 18.232-18.215h5.326a3.76 3.76 0 0 0 0-7.519h-5.326a25.772 25.772 0 0 0-25.751 25.734v52.918a25.772 25.772 0 0 0 25.755 25.734zm93.545-25.734v-52.918c0-.5-.018-.987-.045-1.474a18.022 18.022 0 0 1 9.758-2.826h67.79a18.245 18.245 0 0 1 18.234 18.215v52.917a18.246 18.246 0 0 1-18.234 18.215h-21.444a3.763 3.763 0 0 0-3.754 3.536c-.552 9.32-3.156 15.811-7.743 19.29a15.306 15.306 0 0 1-6.726 2.818c.151-.218.3-.437.435-.664 5.145-8.329 1.658-20.882 1.243-22.286a3.758 3.758 0 0 0-3.6-2.694h-26.2a18.347 18.347 0 0 1-17.635-13.587 25.646 25.646 0 0 0 7.921-18.542z" transform="translate(-1652.557 -2281.776)"/>
        <path d="M1688.647 2326.587c0 7.894 4.1 23.307 31.57 37.838a6.989 6.989 0 0 0 6.532 0c27.468-14.531 31.57-29.944 31.57-37.838 0-12.058-8.476-21.5-19.3-21.5a22.9 22.9 0 0 0-15.539 6.127 22.9 22.9 0 0 0-15.539-6.127c-10.818-.003-19.294 9.442-19.294 21.5zm19.3-13.984a15.334 15.334 0 0 1 11.083 4.75 6.265 6.265 0 0 0 8.912 0 15.327 15.327 0 0 1 11.083-4.752c7.651 0 11.779 7.205 11.779 13.984 0 10.506-9.953 21.817-27.318 31.059-17.365-9.242-27.318-20.553-27.318-31.059-.003-6.777 4.125-13.985 11.776-13.985z" transform="translate(-1652.557 -2281.776)"/>
    </g>
</svg>
