<svg xmlns="http://www.w3.org/2000/svg" width="33.068" height="32.949" viewBox="0 0 33.068 32.949">
    <defs>
        <linearGradient id="linear-gradient" x2="1" y1=".5" y2=".5" gradientUnits="objectBoundingBox">
            <stop offset="0" stop-color="#00b7ff"/>
            <stop offset="1" stop-color="#1328bf"/>
        </linearGradient>
        <style>
            .cls-2{fill:#d3e8fd}
        </style>
    </defs>
    <g id="Group_35868" transform="translate(-2303.412 -733.115)">
        <path id="Path_232552" fill="url(#linear-gradient)" d="M2336.48 749.295a16.024 16.024 0 0 1-16.16 15.91 15.256 15.256 0 0 1-3.87-.48 15.2 15.2 0 0 0-10.46 1.16 1.812 1.812 0 0 1-1.59-.01 1.783 1.783 0 0 1-.8-2.39 15.241 15.241 0 0 0 1.15-10.47 15.616 15.616 0 0 1-.48-3.85 16.094 16.094 0 0 1 16.05-16.05v.01h.25a16.039 16.039 0 0 1 15.91 16.17z"/>
        <g id="Group_35880">
            <path id="Path_232553" d="M2322.1 756.295a1.785 1.785 0 1 1-1.78-1.79 1.784 1.784 0 0 1 1.78 1.79z" class="cls-2"/>
            <path id="Path_232554" d="M2325.66 745.6a5.339 5.339 0 0 1-3.54 5.03 1.935 1.935 0 0 1-1.79 1.94 1.668 1.668 0 0 1-1.79-1.53.375.375 0 0 1-.01-.1 3.73 3.73 0 0 1 2.39-3.67 1.781 1.781 0 1 0-2.39-1.68 1.78 1.78 0 0 1-3.56 0 5.345 5.345 0 1 1 10.69.01z" class="cls-2"/>
        </g>
    </g>
</svg>
