<svg xmlns="http://www.w3.org/2000/svg" width="30.582" height="30.582" viewBox="0 0 30.582 30.582">
    <g>
        <g>
            <path fill="#006cff" d="M1018.548 1631.71a15.29 15.29 0 0 1 15.291 15.29 15.291 15.291 0 0 1-15.291 15.291 15.291 15.291 0 0 1-15.291-15.291 15.29 15.29 0 0 1 15.291-15.29z" transform="translate(-1003.257 -1631.71)"/>
        </g>
        <g>
            <path fill="none" d="M1018.548 1631.71a15.29 15.29 0 0 1 15.291 15.29 15.291 15.291 0 0 1-15.291 15.291 15.291 15.291 0 0 1-15.291-15.291 15.29 15.29 0 0 1 15.291-15.29z" transform="translate(-1003.257 -1631.71)"/>
        </g>
    </g>
    <path fill="#fff" d="M1013.007 1652.378l13.251-6.5-13.251-6.5v5.059l9.493 1.445-9.493 1.448z" transform="translate(-1002.303 -1630.96)"/>
</svg>
