<svg xmlns="http://www.w3.org/2000/svg" width="263.263" height="239.967" viewBox="0 0 263.263 239.967"><defs><style>.a{fill:#d5f7f7;mix-blend-mode:multiply;isolation:isolate;}</style></defs><g transform="translate(1.13 -0.198)"><path class="a" d="M-1.13,240.165a51.242,51.242,0,0,1,12.37-10.959c7.643-4.7,16.531-6.851,25.147-9.365,17.2-5.022,34.274-11.992,47.641-23.93s22.594-29.566,20.915-47.409c-.654-6.953-2.907-13.794-2.449-20.763.935-14.243,13.266-25.626,26.792-30.184s28.178-3.764,42.443-3.309c18.752.6,38.06.425,55.49-6.515s32.762-22.1,34.693-40.764c1.4-13.472-4.137-26.544-7.853-39.568-.669-2.343-1.267-4.756-1.754-7.2H-1.13Z"/><path class="a" d="M-1.13.2V194.847c15.028.808,30.287-.975,42.363-9.539,12.788-9.069,19.887-24.3,31.916-34.356,21.647-18.1,53.037-15.517,81.027-19.083,14.087-1.795,29.033-6.078,37.659-17.359,9.686-12.665,8.638-30.579,4.117-45.869-6.891-25.27-15.1-42.333-12.04-68.443Z"/></g></svg>