<svg xmlns="http://www.w3.org/2000/svg" width="21.224" height="21.224" viewBox="0 0 21.224 21.224">
    <defs>
        <linearGradient id="5en5bsvy3a" x2="1" y1=".5" y2=".5" gradientUnits="objectBoundingBox">
            <stop offset="0" stop-color="#00f99f"/>
            <stop offset="1" stop-color="#00d8fc"/>
        </linearGradient>
    </defs>
    <g>
        <path fill="url(#5en5bsvy3a)" d="M-146.8-1770.82a10.608 10.608 0 0 0-10.612 10.612A10.608 10.608 0 0 0-146.8-1749.6a10.612 10.612 0 0 0 10.612-10.612 10.612 10.612 0 0 0-10.612-10.608zm5.943 8.6l-6.658 6.658a1.241 1.241 0 0 1-1.765 0l-2.8-2.8a1.321 1.321 0 0 1-.146-1.74 1.263 1.263 0 0 1 1.88-.1l1.947 1.953 5.706-5.706a1.315 1.315 0 0 1 1.746-.146 1.276 1.276 0 0 1 .092 1.88z" transform="translate(157.41 1770.82)"/>
        <path fill="#fff" d="M-137.661-1758.034l-6.658 6.658a1.241 1.241 0 0 1-1.765 0l-2.8-2.8a1.321 1.321 0 0 1-.146-1.741 1.263 1.263 0 0 1 1.88-.1l1.947 1.953 5.706-5.706a1.315 1.315 0 0 1 1.746-.146 1.276 1.276 0 0 1 .09 1.882z" transform="translate(154.215 1766.633)"/>
    </g>
</svg>
