<svg xmlns="http://www.w3.org/2000/svg" xmlns:xlink="http://www.w3.org/1999/xlink" width="39.672" height="36.942" viewBox="0 0 39.672 36.942"><defs><style>.a{fill:url(#a);}</style><linearGradient id="a" y1="0.5" x2="1" y2="0.5" gradientUnits="objectBoundingBox"><stop offset="0" stop-color="#6211c1"/><stop offset="1" stop-color="#a507a5"/></linearGradient></defs><g transform="translate(-674.259 -24.787)"><path class="a" d="M713.265,41.482l-6.012-6.013V28.524a2.274,2.274,0,1,0-4.548,0v2.4l-4.477-4.477a5.983,5.983,0,0,0-8.27,0L674.925,41.482a2.274,2.274,0,0,0,3.217,3.215l15.032-15.033a1.343,1.343,0,0,1,1.84,0L710.048,44.7a2.274,2.274,0,0,0,3.217-3.215Z"/><path class="a" d="M694.885,33.98a1.116,1.116,0,0,0-1.58,0L680.082,47.2a1.119,1.119,0,0,0-.327.791v9.642a4.1,4.1,0,0,0,4.1,4.1H690.4V51.59h7.391V61.729h6.547a4.1,4.1,0,0,0,4.1-4.1V47.99a1.115,1.115,0,0,0-.327-.791Z"/></g></svg>