<svg xmlns="http://www.w3.org/2000/svg" width="40.482" height="40.482" viewBox="0 0 40.482 40.482">
    <defs>
        <linearGradient id="1v3b552r4b" x2="1" y1=".5" y2=".5" gradientUnits="objectBoundingBox">
            <stop offset="0" stop-color="#f8d224"/>
            <stop offset="1" stop-color="#e151ab"/>
        </linearGradient>
        <filter id="6wyns1ngaa" width="40.482" height="40.482" x="0" y="0" filterUnits="userSpaceOnUse">
            <feOffset dx="3" dy="3"/>
            <feGaussianBlur result="blur" stdDeviation="2.5"/>
            <feFlood flood-opacity=".49"/>
            <feComposite in2="blur" operator="in"/>
            <feComposite in="SourceGraphic"/>
        </filter>
    </defs>
    <g>
        <g filter="url(#6wyns1ngaa)" transform="translate(-121.626 -471.68) translate(121.63 471.68)">
            <circle cx="11.741" cy="11.741" r="11.741" fill="#f7f7f7" stroke="#00d8fc" stroke-miterlimit="10" stroke-width="2px" transform="translate(5.5 5.5)"/>
        </g>
        <path fill="url(#1v3b552r4b)" d="M142.475 486.166h-.441V484.4a3.534 3.534 0 1 0-7.068 0v1.767h-.441a1.327 1.327 0 0 0-1.326 1.325v6.184a1.327 1.327 0 0 0 1.326 1.324h7.95a1.327 1.327 0 0 0 1.326-1.325v-6.184a1.327 1.327 0 0 0-1.326-1.325zm-6.331-1.767a2.356 2.356 0 0 1 4.712 0v1.767h-4.712zm2.945 6.315v1.341a.589.589 0 1 1-1.178 0v-1.341a1.178 1.178 0 1 1 1.178 0z" transform="translate(-121.626 -471.68)"/>
    </g>
</svg>
