<svg xmlns="http://www.w3.org/2000/svg" width="234.89" height="162.052" viewBox="0 0 234.89 162.052"><defs><style>.a{mix-blend-mode:multiply;isolation:isolate;}.b{fill:#f7d260;}</style></defs><g class="a" transform="translate(-1205.11 0.234)"><path class="b" d="M1217.859,57.832c12,6.572,28,1.325,39.814,8.228C1268.186,72.2,1271.647,85.938,1271,98.1s-4.368,24.092-4.01,36.264c.2,6.651,1.777,13.571,6.191,18.551,5.338,6.021,13.825,8.156,21.853,8.714,21.56,1.5,42.664-6.054,62.549-14.52s39.692-18.074,61.1-21.057a84.293,84.293,0,0,1,21.321-.27V-.234H1223.34c-7.291,6.473-13.52,14.069-16.564,23.228C1202.6,35.55,1206.254,51.476,1217.859,57.832Z"/></g></svg>