<svg xmlns="http://www.w3.org/2000/svg" width="17.3" height="17.3" viewBox="0 0 17.3 17.3">
    <defs>
        <linearGradient id="7tb29730xa" x2="1" y1=".5" y2=".5" gradientUnits="objectBoundingBox">
            <stop offset="0" stop-color="#ff8109"/>
            <stop offset="1" stop-color="#ffc837"/>
        </linearGradient>
    </defs>
    <g>
        <path fill="url(#7tb29730xa)" stroke="#870565" stroke-miterlimit="10" stroke-width="0.5px" d="M836.18 439.9a8.4 8.4 0 1 1-8.4-8.4 8.4 8.4 0 0 1 8.4 8.4z" transform="translate(-819.13 -431.25)"/>
        <g>
            <g>
                <path fill="#870565" d="M824.5 437.311c-.129.17-.221.2-.221.057v-.26a.677.677 0 1 0-1.353 0v2.32a.677.677 0 0 0 .677.677h2.32a.677.677 0 0 0 0-1.354h-.25c-.139 0-.178-.158-.06-.336a2.906 2.906 0 1 1 2.43 4.5.773.773 0 1 0 0 1.547 4.454 4.454 0 1 0-3.543-7.15z" transform="translate(-819.13 -431.25)"/>
            </g>
        </g>
    </g>
</svg>
