<svg xmlns="http://www.w3.org/2000/svg" xmlns:xlink="http://www.w3.org/1999/xlink" width="94" height="94" viewBox="0 0 94 94">
    <defs>
        <linearGradient id="linear-gradient" x1="-2.817" x2="-3.472" y1=".123" y2=".868" gradientUnits="objectBoundingBox">
            <stop offset="0" stop-color="#fff"/>
            <stop offset=".997" stop-color="#a0b3b8"/>
        </linearGradient>
        <linearGradient id="linear-gradient-2" x1="-982.182" x2="-982.044" y1="-109.59" y2="-109.59" gradientUnits="objectBoundingBox">
            <stop offset="0" stop-color="#434343"/>
            <stop offset="1"/>
        </linearGradient>
        <linearGradient id="linear-gradient-3" x1="-907.904" x2="-907.778" y1="-97.488" y2="-97.488" xlink:href="#linear-gradient-2"/>
        <linearGradient id="linear-gradient-4" x1=".5" x2=".5" y2="1" gradientUnits="objectBoundingBox">
            <stop offset="0" stop-color="#5b268d"/>
            <stop offset="1" stop-color="#4386a1"/>
        </linearGradient>
        <linearGradient id="linear-gradient-6" x1=".5" x2=".5" y2="1" gradientUnits="objectBoundingBox">
            <stop offset="0" stop-color="#6211c1"/>
            <stop offset="1" stop-color="#a507a5"/>
        </linearGradient>
        <linearGradient id="linear-gradient-8" x1="-331.457" x2="-331.414" y1="-22.972" y2="-22.972" xlink:href="#linear-gradient-2"/>
        <linearGradient id="linear-gradient-9" x1="-319.106" x2="-319.065" y1="-20.995" y2="-20.995" xlink:href="#linear-gradient-2"/>
        <linearGradient id="linear-gradient-10" x1="-1.336" x2="1.604" y1="1.14" y2=".012" gradientUnits="objectBoundingBox">
            <stop offset="0" stop-color="#ff1717"/>
            <stop offset="1" stop-color="#ffc522"/>
        </linearGradient>
        <linearGradient id="linear-gradient-11" x1="-1.531" x2="1.565" y1="2.041" y2="-.447" xlink:href="#linear-gradient-10"/>
        <linearGradient id="linear-gradient-12" x1="-2.824" x2="5.273" y1="1.997" y2="-1.575" xlink:href="#linear-gradient-10"/>
        <linearGradient id="linear-gradient-13" x1="-2.106" x2="6.837" y1="2.307" y2="-3.753" xlink:href="#linear-gradient-10"/>
        <linearGradient id="linear-gradient-14" x1="-.258" x2="2.12" y1="1.833" y2="-2.673" xlink:href="#linear-gradient-10"/>
        <linearGradient id="linear-gradient-15" x1="-1.576" x2="3.088" y1="1.234" y2="-.554" xlink:href="#linear-gradient-10"/>
        <linearGradient id="linear-gradient-16" x1="-4.803" x2="3.07" y1="5.709" y2="-2.04" xlink:href="#linear-gradient-10"/>
        <linearGradient id="linear-gradient-18" x1="3.413" x2="16.339" y1=".5" y2=".5" gradientUnits="objectBoundingBox">
            <stop offset="0" stop-color="#c31600"/>
            <stop offset="1" stop-color="#ffc500"/>
        </linearGradient>
        <linearGradient id="linear-gradient-19" x1="1.464" x2="8.917" y1=".5" y2=".5" xlink:href="#linear-gradient-18"/>
        <linearGradient id="linear-gradient-20" x1=".746" x2="11.073" y1=".501" y2=".501" xlink:href="#linear-gradient-18"/>
        <linearGradient id="linear-gradient-21" x1="-.277" x2="10.858" y1=".5" y2=".5" xlink:href="#linear-gradient-18"/>
        <linearGradient id="linear-gradient-22" x1="-1.112" x2="7.563" y1=".499" y2=".499" xlink:href="#linear-gradient-18"/>
        <linearGradient id="linear-gradient-23" x1="-1.539" x2="4.541" y1=".498" y2=".498" xlink:href="#linear-gradient-18"/>
        <linearGradient id="linear-gradient-24" x1="-4.562" x2="6.032" y1=".501" y2=".501" xlink:href="#linear-gradient-18"/>
        <linearGradient id="linear-gradient-25" x1=".5" x2=".5" y2="1" gradientUnits="objectBoundingBox">
            <stop offset="0" stop-color="#00f99f"/>
            <stop offset="1" stop-color="#00d8fc"/>
        </linearGradient>
        <radialGradient id="radial-gradient" cx=".741" cy=".69" r=".81" gradientTransform="matrix(-1 0 0 1 -7.037 0)" gradientUnits="objectBoundingBox">
            <stop offset=".262" stop-color="#f1f4f6"/>
            <stop offset=".579" stop-color="#e0e6eb"/>
            <stop offset=".997" stop-color="#ced8e0"/>
        </radialGradient>
        <style>
            .cls-5{fill:url(#linear-gradient-4)}.cls-6{fill:url(#linear-gradient-6)}.cls-23{fill:url(#linear-gradient-25)}
        </style>
    </defs>
    <g id="Group_30907" transform="translate(-116.56 -10.611)">
        <g id="Group_35498" transform="translate(116.56 10.611)">
            <path id="Path_191911" fill="url(#linear-gradient)" d="M1122.436 848.1a47 47 0 1 0 47-47 47 47 0 0 0-47 47z" transform="translate(-1122.436 -801.097)"/>
            <path id="Path_191912" fill="url(#radial-gradient)" d="M1123.631 847.686a45.394 45.394 0 1 0 45.393-45.4 45.391 45.391 0 0 0-45.393 45.4z" transform="translate(-1122.025 -800.686)"/>
        </g>
        <g id="Layer_2" transform="translate(130.934 26.26)">
            <g id="Layer_1">
                <g id="Group_30907-2">
                    <g id="Group_30799">
                        <g id="Group_30778" transform="translate(15.69)">
                            <g id="Group_30759" transform="translate(5.642 16.147)">
                                <g id="Group_30758">
                                    <path id="Path_191920" fill="url(#linear-gradient-2)" d="M19.886 18.56a2.883 2.883 0 0 0 2.808-2.808l-.1-.749a2.709 2.709 0 0 0-.724-1.248l-.562-.437a2.8 2.8 0 0 0-4.219 2.421l.1.749a2.771 2.771 0 0 0 .724 1.248l.562.437a2.821 2.821 0 0 0 1.411.387z" transform="translate(-17.09 -12.928)"/>
                                </g>
                            </g>
                            <g id="Group_30761" transform="translate(29.32 15.55)">
                                <g id="Group_30760">
                                    <path id="Path_191921" fill="url(#linear-gradient-3)" d="M39.168 18.616a3.158 3.158 0 0 0 3.058-3.083l-.1-.824a3.283 3.283 0 0 0-.8-1.361l-.624-.474a3.12 3.12 0 0 0-1.56-.424 3.17 3.17 0 0 0-3.083 3.083l.112.824a3.145 3.145 0 0 0 .8 1.361l.624.474a3.108 3.108 0 0 0 1.548.424z" transform="translate(-36.06 -12.45)"/>
                                </g>
                            </g>
                            <g id="Group_30763" transform="translate(15.509 7.765)">
                                <g id="Group_30762">
                                    <path id="Path_191922" d="M25.775 8.88c1.361 0 2.634-.4 4.019-.349a36.409 36.409 0 0 0 4.369.1c.6-.062.961-.9.337-1.248-2.3-1.248-7.264-1.9-9.274.137a.8.8 0 0 0 0 1.123.849.849 0 0 0 .524.212z" class="cls-5" transform="translate(-24.995 -6.213)"/>
                                </g>
                            </g>
                            <g id="Group_30765" transform="translate(2.138 21.437)">
                                <g id="Group_30764">
                                    <path id="Path_191923" d="M14.3 21.627c1.9 9.062 12.844 10.56 20.47 9.836 4.406-.424 9.274-1.41 12.919-4.069 2.5-1.847 6.241-6.428 4.369-9.723a1 1 0 0 0-1.735 0c-.774 1.248-.786 2.858-1.535 4.194a11.146 11.146 0 0 1-3.853 3.835 24.964 24.964 0 0 1-10.847 3.283c-6.715.67-15.715-.341-18.088-7.883a.882.882 0 0 0-1.7.474z" class="cls-5" transform="translate(-14.283 -17.166)"/>
                                </g>
                            </g>
                            <g id="Group_30767" transform="translate(14.261 24.913)">
                                <g id="Group_30766">
                                    <path id="Path_191924" d="M24.675 22.509c-1.024 1.61 2.222 2.109 3.12 2.109A8.538 8.538 0 0 0 33.9 22h-1.623c1.373 1.495-.787 3-2.16 3a5.093 5.093 0 0 1-4.094-2 1.086 1.086 0 0 0-2.01.537c-.374 3.645 5.105 4.855 7.764 3.745s4.344-4.581 2.122-7a1.148 1.148 0 0 0-1.623 0 6.765 6.765 0 0 1-4.992 2.218c-.462 0-2.334-.562-2.646-.075z" transform="translate(-23.995 -19.951)"/>
                                </g>
                            </g>
                            <g id="Group_30769" transform="translate(17.148 26.751)">
                                <g id="Group_30768">
                                    <path id="Path_191925" d="M27.072 25.288c1.061 0 1.81-1.011 2.846-1.248a18.136 18.136 0 0 1 3.4 0 1.036 1.036 0 0 0 1-1.061 1.061 1.061 0 0 0-.287-.674c-1.123-1.111-3.133-1.011-4.556-.574-1.248.374-3.233 1.323-3.158 2.8a.774.774 0 0 0 .761.774z" transform="translate(-26.308 -21.424)"/>
                                </g>
                            </g>
                            <g id="Group_30771" transform="translate(7.202)">
                                <g id="Group_30770">
                                    <path id="Path_191926" d="M24.157 1.5A3.158 3.158 0 0 0 21.323 0C20.3-.073 18.69.252 18.365 1.375a.824.824 0 0 0 .587 1 .549.549 0 0 0 .2 0c.749 0 1.385-.549 2.172-.587s1.385.412 2.147.487a.637.637 0 0 0 .687-.6.424.424 0 0 0-.001-.175z" class="cls-6" transform="translate(-18.34 .008)"/>
                                </g>
                            </g>
                            <g id="Group_30773" transform="translate(29.994 .553)">
                                <g id="Group_30772">
                                    <path id="Path_191927" d="M37.511 2.576a5.4 5.4 0 0 1 2.322-.187 18.724 18.724 0 0 0 2.035.524.437.437 0 0 0 .424-.437A2.322 2.322 0 0 0 40.07.516a3.745 3.745 0 0 0-3.258.861.724.724 0 0 0 0 1.024.749.749 0 0 0 .662.175z" class="cls-6" transform="translate(-36.6 -.435)"/>
                                </g>
                            </g>
                            <g id="Group_30775" transform="translate(23.252 4.938)">
                                <g id="Group_30774">
                                    <path id="Path_191928" fill="url(#linear-gradient-8)" d="M35.544 5.66c-1.7-.062-2.958 2.1-3.557 3.408a11.134 11.134 0 0 0-.474 6.74c.874 4.181 3.532 8.5 8.138 8.974a8.9 8.9 0 0 0 9.7-7.04A13.318 13.318 0 0 0 44.456 5.81C41.3 3.364 34.57 2.765 33.2 7.52a.387.387 0 0 0 .287.462.362.362 0 0 0 .275 0c3.62-1.548 7.14-1.648 9.985 1.373s4.566 8.525 1.034 11.545a6.9 6.9 0 0 1-6.316 1.4 7.489 7.489 0 0 1-4.181-4.281 11.383 11.383 0 0 1-1.011-7.165 7.751 7.751 0 0 1 1.248-2.9A6.715 6.715 0 0 0 35.769 6.1a.337.337 0 0 0-.225-.387z" transform="translate(-31.198 -3.948)"/>
                                </g>
                            </g>
                            <g id="Group_30777" transform="translate(0 5.128)">
                                <g id="Group_30776">
                                    <path id="Path_191929" fill="url(#linear-gradient-9)" d="M22.818 5.71c-1.6-.824-3.47.362-4.718 1.348a14.379 14.379 0 0 0-3.982 5.3c-1.947 4.169-2.646 9.861 1.473 13.019 3.745 2.883 9.361.924 12.357-2.159a13.056 13.056 0 0 0 2.633-13.639 8.612 8.612 0 0 0-4.993-5.068C23.5 3.775 20.7 3.888 19.5 6.01a.6.6 0 0 0 .237.811.624.624 0 0 0 .424 0c2.3-.562 4.456-1.024 6.416.711a8.912 8.912 0 0 1 2.609 6.154 10.36 10.36 0 0 1-7.489 10.647 5.492 5.492 0 0 1-6.466-2.172 8.912 8.912 0 0 1-.374-7.4 14.978 14.978 0 0 1 3.433-5.792c1.361-1.4 3.12-1.66 4.581-2.783a.275.275 0 0 0 0-.374z" transform="translate(-12.57 -4.1)"/>
                                </g>
                            </g>
                        </g>
                        <g id="Group_30796" transform="translate(0 14.348)">
                            <g id="Group_30793">
                                <g id="Group_30780" transform="translate(5.167 1.379)">
                                    <g id="Group_30779">
                                        <path id="Path_191930" fill="url(#linear-gradient-10)" d="M4.914 12.614c-1.548 1.4-.474 3.894.6 5.267s2.2 2.259 1.9 4.082c-.237 1.448-1.248 2.5-1.747 3.869a.574.574 0 0 0 .7.7c2.347-.8 3.632-3.982 2.946-6.3A7.327 7.327 0 0 0 7.2 17.308a5.542 5.542 0 0 1-1.66-2.958 7.589 7.589 0 0 0-.44-1.723.112.112 0 0 0-.162 0z" transform="translate(-4.139 -12.592)"/>
                                    </g>
                                </g>
                                <g id="Group_30782" transform="translate(1.431)">
                                    <g id="Group_30781">
                                        <path id="Path_191931" fill="url(#linear-gradient-11)" d="M6.231 13.076c0-2.347-2.971-1.71-4.032-.537a4.069 4.069 0 0 0-.462 4.843c.674 1.036 2.372 0 1.648-.974a2.147 2.147 0 0 1-.362-2.01 2.359 2.359 0 0 1 .462-.874c.25-.275 1.311-1.1 1.535-.287a.624.624 0 0 0 .774.412.612.612 0 0 0 .437-.573z" transform="translate(-1.147 -11.487)"/>
                                    </g>
                                </g>
                                <g id="Group_30784" transform="translate(.895 5.87)">
                                    <g id="Group_30783">
                                        <path id="Path_191932" fill="url(#linear-gradient-12)" d="M2.243 16.19a1.161 1.161 0 0 0-.861 1.4 1.148 1.148 0 0 0 .936.861v-.537c-.662.262-1.336.349-1.548 1.161a1.248 1.248 0 0 0 .711 1.51c.187.075.3-.2.187-.325s-.512-.449-.549-.761.462-1.585 1.073-1.111a.275.275 0 0 0 .387 0 .287.287 0 0 0 0-.4h-.086a.936.936 0 0 1-.587-1.248 1.036 1.036 0 0 1 .374-.487s0-.062 0 0z" transform="translate(-.717 -16.19)"/>
                                    </g>
                                </g>
                                <g id="Group_30786" transform="translate(0 9.564)">
                                    <g id="Group_30785">
                                        <path id="Path_191933" fill="url(#linear-gradient-13)" d="M1.76 19.462a.25.25 0 0 1-.125-.1.449.449 0 0 0-.487-.2A1.373 1.373 0 0 0 0 20.348c0 .574.275 1.435.961 1.4a.537.537 0 0 0 .524-.524 1.148 1.148 0 0 0-.175-.487.462.462 0 0 1-.125-.287.524.524 0 0 1 .287-.5.412.412 0 0 0 .212-.374v.075a.087.087 0 0 0 .062-.125.112.112 0 0 0 0-.062z" transform="translate(0 -19.15)"/>
                                    </g>
                                </g>
                                <g id="Group_30788" transform="translate(.796 11.961)">
                                    <g id="Group_30787">
                                        <path id="Path_191934" fill="url(#linear-gradient-14)" d="M.778 21.07a2.259 2.259 0 0 0 1.348 2.908 4.993 4.993 0 0 0 4.993-.178.275.275 0 0 0 .125-.325.25.25 0 0 0-.15-.125c-2.01-.632-5.394.45-6.241-2.205a.075.075 0 0 0-.125 0z" transform="translate(-.637 -21.07)"/>
                                    </g>
                                </g>
                                <g id="Group_30790" transform="translate(2.921 6.016)">
                                    <g id="Group_30789">
                                        <path id="Path_191935" fill="url(#linear-gradient-15)" d="M2.515 16.76c.512.612 1.086 1.161 1.573 1.785s.574.6.449 1.373c-.2 1.136-.075.362-.574.824-.275.25-.512.3-.674.674-.062.15 0 1.248-.075 1.248a.874.874 0 0 0-.587 1.086.974.974 0 0 0 .2.349 6.141 6.141 0 0 0 .911.8l-.15-1.248a3.745 3.745 0 0 1-1.1.874c-.2.125-.2.5 0 .549a4.768 4.768 0 0 0 1.785-.112.774.774 0 0 0 .549-.974.524.524 0 0 0-.075-.175 6.241 6.241 0 0 0-.761-.949l-.175 1.361a1.847 1.847 0 0 0 1.123-1.772 2.721 2.721 0 0 1 .125-1c.125-.337.449-.574.562-.949.549-1.747-1.485-3.52-2.858-4.169a.275.275 0 0 0-.362.112.262.262 0 0 0 0 .3z" transform="translate(-2.34 -16.307)"/>
                                    </g>
                                </g>
                                <g id="Group_30792" transform="translate(3.973 2.05)">
                                    <g id="Group_30791">
                                        <path id="Path_191936" fill="url(#linear-gradient-16)" d="M4.64 14.865c.075-.075.162-.15.237-.237a.911.911 0 0 0 .287-.574.786.786 0 0 0-.137-.637.7.7 0 0 0-.574-.287h-.125a1.024 1.024 0 0 0-.637.275l-.25.25A.883.883 0 1 0 4.69 14.9z" transform="translate(-3.183 -13.13)"/>
                                    </g>
                                </g>
                            </g>
                            <g id="Group_30795" transform="translate(6.313 11.355)">
                                <g id="Group_30794">
                                    <path id="Path_191937" d="M9.629 21.615a2.134 2.134 0 0 1-.612 2.134 5.654 5.654 0 0 1-1.248.8c-.349.15-.349.162-.262.137-.112 0-1.248.15-.574.137a1.885 1.885 0 0 0-1.773 1.348 2.634 2.634 0 0 0 .662 2.584 2.421 2.421 0 0 0 2.322.612 7.489 7.489 0 0 0 4.643-4.643c.474-1.56-.212-4.93-2.5-3.969a.924.924 0 0 0-.662.861z" class="cls-6" transform="translate(-5.058 -20.584)"/>
                                </g>
                            </g>
                        </g>
                        <g id="Group_30797" transform="translate(16.626 40.027)">
                            <path id="Path_191938" fill="url(#linear-gradient-18)" d="M14.78 32.06c.312.15.8 1.248 1.448 3.17l.137.137h.125l-.125.662.524 2.122v.262l-.262.262c-.3 0-.612-.749-.924-2.247-1.148.162-1.722.6-1.722 1.323s-.087.924-.262.924-.337-.574-.4-1.722a19.971 19.971 0 0 1 1.323-4.893zm-.137 1.46a11.121 11.121 0 0 0-.4 2.646l1.061-.4v-.536c-.262-1.135-.486-1.71-.661-1.71z" transform="translate(-13.32 -32.06)"/>
                            <path id="Path_191939" fill="url(#linear-gradient-19)" d="M21.562 32.23l.225.225h.225l-1.112 5.08h-.212l-2-2.659c-.15 2.5-.437 3.745-.886 3.745q-.874-.824-1.985-5.742l.225-.225h.225c.437 0 .8 1.248 1.1 3.532.3 0 .587-1.1.886-3.308h.437l1.336 2.422h.437c.3-2.046.662-3.07 1.099-3.07z" transform="translate(-12.7 -32.018)"/>
                            <path id="Path_191940" fill="url(#linear-gradient-20)" d="M24.454 32.1l.424.424v.424a12.757 12.757 0 0 0-3.27 1.1l-.112.811v.212l2.5-.849.424.424v.424l-2.958.849v1.535l2.5-.686.424.412v.42l-3.507 1.123-.3-.25-.162-.562.162-.312-.079-1.68c.125-2.334.462-3.258 1.011-2.758l.749-.212z" transform="translate(-11.56 -32.05)"/>
                            <path id="Path_191941" fill="url(#linear-gradient-21)" d="M26.309 32.48h.637c.275 0 .412.212.4.624-1.8.175-2.671.824-2.609 1.935 2.272 0 3.408.325 3.408.986v.412A2.334 2.334 0 0 1 25.71 38.5l-.549-.749c1.323 0 2.1-.5 2.3-1.585l-1.573-.225h-1.251l-.637-.59V34.1c.824-1.071 1.573-1.62 2.309-1.62z" transform="translate(-10.669 -31.956)"/>
                            <path id="Path_191942" fill="url(#linear-gradient-22)" d="M31.165 32.54h.774a3.457 3.457 0 0 1 1.186 2.933 4.369 4.369 0 0 1-4.319 2.758 2.821 2.821 0 0 1-.986-1.772v-.187c.936-2.496 2.047-3.732 3.345-3.732zm-2.758 4.319l.6.387h.187a3.745 3.745 0 0 0 3.145-1.772V34.7c0-.924-.387-1.373-1.173-1.373a4.993 4.993 0 0 0-2.759 3.532z" transform="translate(-9.721 -31.941)"/>
                            <path id="Path_191943" fill="url(#linear-gradient-23)" d="M33.638 32.39h.2c.412 0 1.011 1.136 1.8 3.4.2 0 .811-.861 1.8-2.6l.6-.387h.2c.487 0 1.1 1.66 1.8 4.993v.2l-.4.412h-.25c-.3 0-.761-1.336-1.4-4.007a9.573 9.573 0 0 0-2 3.2h-.35c-.4 0-.874-.924-1.4-2.783h-.4c-.262 2-.6 3-1 3l-.4-.412v-.786a8.063 8.063 0 0 1 1.2-4.23z" transform="translate(-8.575 -31.978)"/>
                            <path id="Path_191944" fill="url(#linear-gradient-24)" d="M42.932 32.1l.424.424v.424a12.757 12.757 0 0 0-3.27 1.1l-.125.811v.212l2.5-.849.424.424v.424l-2.971.849v1.535l2.5-.686.424.412v.42l-3.507 1.123-.312-.25-.019-.556.15-.312-.15-1.686c.125-2.334.462-3.258 1-2.758l.761-.212z" transform="translate(-6.947 -32.05)"/>
                        </g>
                        <g id="Group_30798" transform="translate(23.89 47.677)">
                            <path id="Path_191945" d="M20.863 52.46a2.321 2.321 0 0 1-.587-.112 2.209 2.209 0 0 1-.562-.225 1.822 1.822 0 0 1-.424-.325.686.686 0 0 1-.15-.437.424.424 0 0 1 .237-.275.662.662 0 0 1 .437 0 3.407 3.407 0 0 0 1.123.112 1.61 1.61 0 0 0 1.048-.4 2.234 2.234 0 0 0 .7-1.161 5.292 5.292 0 0 0 .125-1.537 10.4 10.4 0 0 0-.275-1.635c-.137-.549-.3-1.061-.462-1.523a1.5 1.5 0 0 0-.25-.512 4.381 4.381 0 0 0-.424-.412.7.7 0 0 1-.287-.936.263.263 0 0 1 0-.075.5.5 0 0 1 .412-.262.786.786 0 0 1 .5.112 2.2 2.2 0 0 1 .624.5 3.744 3.744 0 0 1 .387.6 13.855 13.855 0 0 1 .974 3.058 7.389 7.389 0 0 1 0 2.771 4.993 4.993 0 0 1-.374 1.173 2.946 2.946 0 0 1-.662.9 2.6 2.6 0 0 1-.949.549 3.008 3.008 0 0 1-1.161.052zm2.384-12.195a1.71 1.71 0 0 1 .424.087.225.225 0 0 1 .175.25.549.549 0 0 1-.287.574 1.585 1.585 0 0 1-.674.137 7.626 7.626 0 0 0-.924 0H20.95a1.123 1.123 0 0 1-.349 0 .412.412 0 0 1-.25-.287.861.861 0 0 1-.125-.6.29.29 0 0 1 .237-.3 6.453 6.453 0 0 1 1.473 0 8.037 8.037 0 0 1 1.311.237z" class="cls-23" transform="translate(-19.14 -37.718)"/>
                            <path id="Path_191946" d="M30.011 41.707a2.921 2.921 0 0 1 1.136.749 3.557 3.557 0 0 1 .7 1.111 3.944 3.944 0 0 1 .287 1.248 3.3 3.3 0 0 1-.15 1.248 7.165 7.165 0 0 1-.624 1.248 5.655 5.655 0 0 1-.874 1.086 4.569 4.569 0 0 1-1.123.761 3.158 3.158 0 0 1-1.4.287 2.646 2.646 0 0 1-1.548-.424 3.1 3.1 0 0 1-.986-1.1 4.294 4.294 0 0 1-.449-1.523 6.516 6.516 0 0 1 .3-2.983 4.168 4.168 0 0 1 .537-1.048 2.946 2.946 0 0 1 .774-.749 1.8 1.8 0 0 1 1-.3 3.232 3.232 0 0 1 .786.125 3.556 3.556 0 0 1 .874.349.624.624 0 0 1 .76-.085zm-.886 1.71l-.574-.424a1 1 0 0 0-.574-.25.811.811 0 0 0-.524.237 2.846 2.846 0 0 0-.449.574 4.631 4.631 0 0 0-.325.662 4.567 4.567 0 0 0-.187.537 5.966 5.966 0 0 0-.087.811 3.956 3.956 0 0 0 .075.936 2.172 2.172 0 0 0 .337.824 1.51 1.51 0 0 0 .774.537 1.685 1.685 0 0 0 .749 0 2.5 2.5 0 0 0 .836-.374 3.333 3.333 0 0 0 .786-.724 3.183 3.183 0 0 0 .574-1.024 2.209 2.209 0 0 0 0-1.361 1.635 1.635 0 0 0-.861-1.024.512.512 0 0 1-.325.112.611.611 0 0 1-.25 0z" class="cls-23" transform="translate(-17.704 -37.412)"/>
                            <path id="Path_191947" d="M33.449 38.927v2a8.533 8.533 0 0 0 .062 1.248c.062.437.075.8.137 1.173a2.7 2.7 0 0 1 .774-.861 2.2 2.2 0 0 1 .886-.349 2.11 2.11 0 0 1 1.248.15 2.4 2.4 0 0 1 .849.687 2.833 2.833 0 0 1 .5.961 3.569 3.569 0 0 1 .15 1.024 3.5 3.5 0 0 1-.549 1.947 7.489 7.489 0 0 1-1.248 1.6 10.622 10.622 0 0 1-1.435 1.161l-1.024.674a1.4 1.4 0 0 1-.874.087.849.849 0 0 1-.549-.262.749.749 0 0 1-.076-.467 1.148 1.148 0 0 1 .175-.349 1.8 1.8 0 0 1 .337-.275l.325-.237c-.362-1.648-.637-3.308-.836-4.993a39.019 39.019 0 0 1-.25-5.13c0-.3 0-.462.2-.512a.937.937 0 0 1 .325 0 1.248 1.248 0 0 1 .562.237.924.924 0 0 1 .311.486zm3.283 5.941a1.248 1.248 0 0 0-.387-1.061 1.011 1.011 0 0 0-.786-.262 1.248 1.248 0 0 0-.6.25 2.147 2.147 0 0 0-.849 1.835c0 .374.075.774.125 1.248a10.563 10.563 0 0 0 .187 1.173l.761-.574a5.216 5.216 0 0 0 .749-.736 3.981 3.981 0 0 0 .574-.861 2.184 2.184 0 0 0 .225-.974z" class="cls-23" transform="translate(-15.937 -38.189)"/>
                        </g>
                    </g>
                </g>
            </g>
        </g>
    </g>
</svg>
