<svg xmlns="http://www.w3.org/2000/svg" xmlns:xlink="http://www.w3.org/1999/xlink" viewBox="0 0 69.92 69.92"><defs><linearGradient id="linear-gradient" x1="-404.11" y1="8.6" x2="-449.93" y2="60.72" gradientTransform="matrix(-1, 0, 0, 1, -392.32, 0)" gradientUnits="userSpaceOnUse"><stop offset="0" stop-color="#fff"/><stop offset="1" stop-color="#a0b3b8"/></linearGradient><radialGradient id="radial-gradient" cx="-443.57" cy="47.77" r="54.7" gradientTransform="matrix(-1, 0, 0, 1, -392.32, 0)" gradientUnits="userSpaceOnUse"><stop offset="0.26" stop-color="#f1f4f6"/><stop offset="0.58" stop-color="#e0e7eb"/><stop offset="1" stop-color="#ced8e0"/></radialGradient><linearGradient id="linear-gradient-2" x1="37.52" y1="26.16" x2="37.52" y2="51.18" gradientUnits="userSpaceOnUse"><stop offset="0" stop-color="#00b7ff"/><stop offset="1" stop-color="#1328bf"/></linearGradient><linearGradient id="linear-gradient-3" x1="-2619.34" y1="1185.67" x2="-2616.86" y2="1183.19" gradientTransform="translate(-2594.51 1216.13) rotate(180)" gradientUnits="userSpaceOnUse"><stop offset="0" stop-color="#eef4ff"/><stop offset="1" stop-color="#cfe7fd"/></linearGradient><linearGradient id="linear-gradient-4" x1="-2614.48" y1="1185.67" x2="-2612" y2="1183.19" xlink:href="#linear-gradient-3"/><linearGradient id="linear-gradient-5" x1="-2609.62" y1="1185.67" x2="-2607.14" y2="1183.19" xlink:href="#linear-gradient-3"/><linearGradient id="linear-gradient-6" x1="-2627.58" y1="1172.61" x2="-2625.1" y2="1170.13" xlink:href="#linear-gradient-3"/><linearGradient id="linear-gradient-7" x1="-2622.72" y1="1172.61" x2="-2620.24" y2="1170.13" xlink:href="#linear-gradient-3"/><linearGradient id="linear-gradient-8" x1="-2617.85" y1="1172.61" x2="-2615.37" y2="1170.13" xlink:href="#linear-gradient-3"/></defs><g id="Layer_2" data-name="Layer 2"><g id="Layer_1-2" data-name="Layer 1"><path d="M0,35A35,35,0,1,0,35,0,35,35,0,0,0,0,35Z" fill="url(#linear-gradient)"/><path d="M1.2,35A33.77,33.77,0,1,0,35,1.19,33.75,33.75,0,0,0,1.2,35Z" fill="url(#radial-gradient)"/><path d="M35,29.49a10.31,10.31,0,0,0-9.6,7.07,8.33,8.33,0,0,0-.4,2.8,10,10,0,0,0,10,10h5.12a10.76,10.76,0,0,0,1.71-.14l3,1.5a1.06,1.06,0,0,0,1.52-1.07L46,47.38a10,10,0,0,0-5.68-18Z" fill="url(#linear-gradient-2)"/><path d="M27,18.72h4.6a9,9,0,0,1,9,9,9.38,9.38,0,0,1-.16,1.68,8.91,8.91,0,0,1-8.81,7.22H27a8.63,8.63,0,0,1-1.53-.07l-2.71,1.35a.94.94,0,0,1-1.35-1l.24-2A9,9,0,0,1,27,18.72Z" fill="#38b1f4"/><circle cx="34.13" cy="26.78" r="1.75" fill="url(#linear-gradient-3)"/><circle cx="29.25" cy="26.78" r="1.75" fill="url(#linear-gradient-4)"/><circle cx="24.37" cy="26.78" r="1.75" fill="url(#linear-gradient-5)"/><circle cx="42.4" cy="39.89" r="1.75" fill="url(#linear-gradient-6)"/><circle cx="37.52" cy="39.89" r="1.75" fill="url(#linear-gradient-7)"/><circle cx="32.64" cy="39.89" r="1.75" fill="url(#linear-gradient-8)"/></g></g></svg>