<svg xmlns="http://www.w3.org/2000/svg" xmlns:xlink="http://www.w3.org/1999/xlink" width="58.379" height="28.577" viewBox="0 0 58.379 28.577">
    <defs>
        <linearGradient id="25zt6621oa" x1="6.771" x2=".252" y1=".5" y2=".5" gradientUnits="objectBoundingBox">
            <stop offset="0" stop-color="#a9076b"/>
            <stop offset="1" stop-color="#62045f"/>
        </linearGradient>
        <linearGradient id="mkhdoqkg8b" x1="25.967" x2="-4.348" y1=".5" y2=".5" xlink:href="#25zt6621oa"/>
        <linearGradient id="czovml9xzc" x1="5.674" x2="-1.453" y1=".5" y2=".5" xlink:href="#25zt6621oa"/>
        <linearGradient id="krwoxbs53d" x1="4.417" x2="-2.534" y1=".5" y2=".5" xlink:href="#25zt6621oa"/>
        <linearGradient id="tz6a2wyswe" x1="4.748" x2="-5.669" y1=".5" y2=".5" xlink:href="#25zt6621oa"/>
        <linearGradient id="tpamqi7olf" x1="1.612" x2="-4.261" y1=".5" y2=".5" xlink:href="#25zt6621oa"/>
        <linearGradient id="gn20ry2djg" x1="2.45" x2="-27.849" y1=".5" y2=".5" xlink:href="#25zt6621oa"/>
        <linearGradient id="n5elf2h4gh" x1=".199" x2="-30.117" y1=".5" y2=".5" xlink:href="#25zt6621oa"/>
        <linearGradient id="hrqh1y8tyi" x2="1" y1=".5" y2=".5" gradientUnits="objectBoundingBox">
            <stop offset="0" stop-color="#ff5030"/>
            <stop offset="1" stop-color="#dd2475"/>
        </linearGradient>
    </defs>
    <g>
        <g>
            <path fill="url(#25zt6621oa)" d="M803.869 563.541a.8.8 0 0 1 .461.619.936.936 0 0 1-.22.769.683.683 0 0 1-.5.3 1.159 1.159 0 0 1-.626-.12 3.924 3.924 0 0 0-.762-.256 3.794 3.794 0 0 0-.837-.09 3.915 3.915 0 0 0-1.455.255 3.049 3.049 0 0 0-1.092.732 3.146 3.146 0 0 0-.687 1.124 4.19 4.19 0 0 0-.234 1.432 4.418 4.418 0 0 0 .264 1.6 3.117 3.117 0 0 0 .732 1.131 2.946 2.946 0 0 0 1.1.671 4.173 4.173 0 0 0 1.372.218 4.4 4.4 0 0 0 .815-.075 2.818 2.818 0 0 0 .784-.271 1.06 1.06 0 0 1 .626-.1.789.789 0 0 1 .52.316.915.915 0 0 1 .218.777.793.793 0 0 1-.46.58 5.426 5.426 0 0 1-.806.324 6.187 6.187 0 0 1-.837.2 5.564 5.564 0 0 1-.86.067 6.059 6.059 0 0 1-2.058-.347 5.211 5.211 0 0 1-1.734-1.025 4.72 4.72 0 0 1-1.2-1.7 5.924 5.924 0 0 1-.437-2.359 5.609 5.609 0 0 1 .4-2.142 4.964 4.964 0 0 1 1.131-1.7 5.213 5.213 0 0 1 1.726-1.116 5.778 5.778 0 0 1 2.171-.4 5.605 5.605 0 0 1 1.3.151 5.325 5.325 0 0 1 1.185.435z" transform="translate(-795.954 -562.426)"/>
            <path fill="url(#mkhdoqkg8b)" d="M807.744 572.663a.9.9 0 0 1-.919.92.851.851 0 0 1-.634-.264.9.9 0 0 1-.255-.656v-9.318a.9.9 0 0 1 .919-.919.838.838 0 0 1 .64.264.913.913 0 0 1 .249.655z" transform="translate(-795.954 -562.426)"/>
            <path fill="url(#czovml9xzc)" d="M813.428 573.734a4.431 4.431 0 0 1-2.225-.535 3.691 3.691 0 0 1-1.446-1.455 4.24 4.24 0 0 1-.506-2.081 4.558 4.558 0 0 1 .551-2.314 3.887 3.887 0 0 1 1.439-1.47 3.7 3.7 0 0 1 1.885-.513 3.429 3.429 0 0 1 1.455.316 3.972 3.972 0 0 1 1.214.868 4.213 4.213 0 0 1 .837 1.273 3.881 3.881 0 0 1 .309 1.538.775.775 0 0 1-.287.589.963.963 0 0 1-.633.226h-5.76l-.452-1.508h5.533l-.331.3v-.407a1.377 1.377 0 0 0-.309-.784 2.017 2.017 0 0 0-.694-.55 1.968 1.968 0 0 0-.882-.2 2.864 2.864 0 0 0-.844.12 1.633 1.633 0 0 0-.679.407 1.976 1.976 0 0 0-.452.768 3.811 3.811 0 0 0-.166 1.222 2.629 2.629 0 0 0 .34 1.38 2.309 2.309 0 0 0 2.012 1.153 3.427 3.427 0 0 0 .89-.091 1.963 1.963 0 0 0 .535-.218q.2-.127.369-.219a1.159 1.159 0 0 1 .513-.135.758.758 0 0 1 .769.754.943.943 0 0 1-.422.739 3.523 3.523 0 0 1-1.1.58 4.388 4.388 0 0 1-1.463.247z" transform="translate(-795.954 -562.426)"/>
            <path fill="url(#krwoxbs53d)" d="M825.037 565.366a.886.886 0 0 1 .649.256.9.9 0 0 1 .256.664v6.377a.905.905 0 0 1-.256.656.928.928 0 0 1-1.3 0 .9.9 0 0 1-.256-.656v-.739l.331.136a.849.849 0 0 1-.211.475 2.825 2.825 0 0 1-.572.55 3.471 3.471 0 0 1-.853.46 2.924 2.924 0 0 1-1.062.189 3.445 3.445 0 0 1-1.885-.535 3.768 3.768 0 0 1-1.335-1.479 4.609 4.609 0 0 1-.49-2.163 4.656 4.656 0 0 1 .49-2.179 3.817 3.817 0 0 1 1.32-1.477 3.325 3.325 0 0 1 1.839-.535 3.483 3.483 0 0 1 1.192.2 3.589 3.589 0 0 1 .942.5 2.881 2.881 0 0 1 .617.611.972.972 0 0 1 .22.52l-.543.2v-1.1a.909.909 0 0 1 .256-.657.867.867 0 0 1 .651-.274zm-3.046 6.709a2.041 2.041 0 0 0 1.161-.331 2.224 2.224 0 0 0 .777-.905 2.889 2.889 0 0 0 .28-1.282 2.931 2.931 0 0 0-.28-1.3 2.228 2.228 0 0 0-.777-.9 2.175 2.175 0 0 0-2.307 0 2.238 2.238 0 0 0-.775.9 2.916 2.916 0 0 0-.28 1.3 2.875 2.875 0 0 0 .28 1.282 2.234 2.234 0 0 0 .775.905 2.022 2.022 0 0 0 1.146.331z" transform="translate(-795.954 -562.426)"/>
            <path fill="url(#tz6a2wyswe)" d="M828.808 573.583a.862.862 0 0 1-.648-.264.9.9 0 0 1-.257-.656v-6.227a.9.9 0 0 1 .257-.656.929.929 0 0 1 1.3 0 .9.9 0 0 1 .257.656v1.418l-.106-1.011a2.371 2.371 0 0 1 .43-.64 2.568 2.568 0 0 1 .6-.468 2.765 2.765 0 0 1 .708-.279 3.245 3.245 0 0 1 .755-.09 1.153 1.153 0 0 1 .76.256.763.763 0 0 1 .31.6.89.89 0 0 1-.257.716.84.84 0 0 1-.557.219 1.24 1.24 0 0 1-.52-.106 1.325 1.325 0 0 0-1.086.023 1.512 1.512 0 0 0-.513.4 2.127 2.127 0 0 0-.377.671 2.814 2.814 0 0 0-.143.943v3.573a.9.9 0 0 1-.257.656.862.862 0 0 1-.656.266z" transform="translate(-795.954 -562.426)"/>
            <path fill="url(#tpamqi7olf)" d="M842.694 565.4l-3.258 7.659a.921.921 0 0 1-.324.445.8.8 0 0 1-.475.158.752.752 0 0 1-.6-.226.815.815 0 0 1-.2-.558.975.975 0 0 1 .046-.286l3.753-9.016a.987.987 0 0 1 .371-.468.792.792 0 0 1 .535-.136.886.886 0 0 1 .5.158.9.9 0 0 1 .34.446l3.709 8.836a.989.989 0 0 1 .075.36.863.863 0 0 1-.844.89.788.788 0 0 1-.49-.166 1.078 1.078 0 0 1-.339-.451l-3.242-7.555zm-2.79 5.82l.829-1.734h4.067l.286 1.734z" transform="translate(-795.954 -562.426)"/>
            <path fill="url(#gn20ry2djg)" d="M850.262 572.663a.9.9 0 0 1-.919.92.848.848 0 0 1-.634-.264.9.9 0 0 1-.256-.656v-9.318a.9.9 0 0 1 .919-.919.841.841 0 0 1 .641.264.913.913 0 0 1 .249.655z" transform="translate(-795.954 -562.426)"/>
            <path fill="url(#n5elf2h4gh)" d="M854.333 572.663a.9.9 0 0 1-.919.92.851.851 0 0 1-.634-.264.9.9 0 0 1-.255-.656v-9.318a.9.9 0 0 1 .919-.919.838.838 0 0 1 .64.264.913.913 0 0 1 .249.655z" transform="translate(-795.954 -562.426)"/>
        </g>
        <g>
            <path fill="url(#hrqh1y8tyi)" d="M820.019 590.474a1.647 1.647 0 0 1 0-2.4l3.148-3.148-3.148-3.149a1.613 1.613 0 0 1-.505-1.21 1.7 1.7 0 0 1 .529-1.209 1.646 1.646 0 0 1 2.4 0l3.148 3.148 3.149-3.148a1.6 1.6 0 0 1 1.209-.482 1.726 1.726 0 0 1 1.716 1.691 1.678 1.678 0 0 1-.529 1.187l-3.148 3.148 3.148 3.148a1.687 1.687 0 0 1 .505 1.21 1.644 1.644 0 0 1-.505 1.234 1.608 1.608 0 0 1-1.21.482 1.688 1.688 0 0 1-1.21-.506l-3.148-3.148-3.148 3.148a1.678 1.678 0 0 1-1.187.529 1.626 1.626 0 0 1-1.214-.525z" transform="translate(-795.954 -562.426)"/>
        </g>
    </g>
</svg>
