<svg xmlns="http://www.w3.org/2000/svg" xmlns:xlink="http://www.w3.org/1999/xlink" width="25.549" height="25.618" viewBox="0 0 25.549 25.618"><defs><style>.a{fill:url(#a);}.b{fill:url(#b);}</style><linearGradient id="a" y1="0.5" x2="1" y2="0.5" gradientUnits="objectBoundingBox"><stop offset="0" stop-color="#7d4295"/><stop offset="1" stop-color="#da2432"/></linearGradient><linearGradient id="b" x1="-57.02" y1="94.372" x2="-56.972" y2="94.372" gradientUnits="objectBoundingBox"><stop offset="0" stop-color="#a9076b"/><stop offset="1" stop-color="#62045f"/></linearGradient></defs><g transform="translate(-602.191 -22.279)"><path class="a" d="M625.284,52.2a.582.582,0,0,0,.363-1.036l-2.691-2.153V45.8a.582.582,0,0,0-1.164,0v3.212L619.1,51.164a.582.582,0,0,0,.726.909l2.546-2.037,2.546,2.037A.58.58,0,0,0,625.284,52.2Z" transform="translate(-7.376 -10.135)"/><g transform="translate(609.763 22.279)"><circle class="b" cx="2.889" cy="2.889" r="2.889" transform="translate(2.315)"/><path class="a" d="M971.5,61.907h7.925a1.291,1.291,0,0,0,1.238-1.336V60.2a2.654,2.654,0,0,0-1.25-2.3,7.147,7.147,0,0,0-7.9,0,2.655,2.655,0,0,0-1.25,2.3v.373A1.291,1.291,0,0,0,971.5,61.907Z" transform="translate(-970.263 -50.351)"/></g><g transform="translate(602.191 36.341)"><circle class="b" cx="2.889" cy="2.889" r="2.889" transform="translate(2.315)"/><path class="a" d="M971.5,61.907h7.925a1.291,1.291,0,0,0,1.238-1.336V60.2a2.654,2.654,0,0,0-1.25-2.3,7.147,7.147,0,0,0-7.9,0,2.655,2.655,0,0,0-1.25,2.3v.373A1.291,1.291,0,0,0,971.5,61.907Z" transform="translate(-970.263 -50.351)"/></g><g transform="translate(617.334 36.341)"><circle class="b" cx="2.889" cy="2.889" r="2.889" transform="translate(2.315)"/><path class="a" d="M971.5,61.907h7.925a1.291,1.291,0,0,0,1.238-1.336V60.2a2.654,2.654,0,0,0-1.25-2.3,7.147,7.147,0,0,0-7.9,0,2.655,2.655,0,0,0-1.25,2.3v.373A1.291,1.291,0,0,0,971.5,61.907Z" transform="translate(-970.263 -50.351)"/></g></g></svg>