<svg xmlns="http://www.w3.org/2000/svg" xmlns:xlink="http://www.w3.org/1999/xlink" width="38.602" height="38.6" viewBox="0 0 38.602 38.6">
    <defs>
        <linearGradient id="botire00fb" x2="1" y1=".5" y2=".5" gradientUnits="objectBoundingBox">
            <stop offset="0" stop-color="#ff5030"/>
            <stop offset="1" stop-color="#dd2475"/>
        </linearGradient>
        <linearGradient id="rganb6f8hc" x2="1" y1=".5" y2=".5" gradientUnits="objectBoundingBox">
            <stop offset="0" stop-color="#ff1717"/>
            <stop offset="1" stop-color="#ffc522"/>
        </linearGradient>
        <linearGradient id="geftu9xprd" x2="1" y1=".5" y2=".5" gradientUnits="objectBoundingBox">
            <stop offset="0" stop-color="#f46b45"/>
            <stop offset="1" stop-color="#eea749"/>
        </linearGradient>
        <linearGradient id="yfisaonnue" x2="1" y1=".5" y2=".5" gradientUnits="objectBoundingBox">
            <stop offset="0" stop-color="#ff8109"/>
            <stop offset="1" stop-color="#ffc837"/>
        </linearGradient>
        <linearGradient id="w14nhmy5na" x2="1" y1=".5" y2=".5" gradientUnits="objectBoundingBox">
            <stop offset="0" stop-color="#a9076b"/>
            <stop offset="1" stop-color="#62045f"/>
        </linearGradient>
        <linearGradient id="8ib638og5f" x1="0" x2="1" y1=".5" y2=".5" xlink:href="#w14nhmy5na"/>
        <linearGradient id="xet7ta58tg" x1="0" x2="1" y1=".5" y2=".5" xlink:href="#w14nhmy5na"/>
    </defs>
    <g>
        <g>
            <path fill="url(#botire00fb)" d="M558.691 40.663a1.131 1.131 0 1 0 1.131 1.131 1.133 1.133 0 0 0-1.131-1.131z" transform="translate(6.791 18.162) translate(-557.56 -40.663)"/>
        </g>
    </g>
    <g>
        <g>
            <path fill="url(#rganb6f8hc)" d="M571.316 39.562a2.314 2.314 0 0 0-3.2 0 2.212 2.212 0 0 0-.569.953 5.426 5.426 0 0 1-2.471 3.1 5.325 5.325 0 0 0 6.24-.854 2.26 2.26 0 0 0 0-3.199z" transform="translate(15.506 16.142) translate(-565.077 -38.921)"/>
        </g>
    </g>
    <g>
        <g>
            <path fill="url(#geftu9xprd)" d="M560.643 48.47a1.131 1.131 0 1 0 1.131 1.131 1.132 1.132 0 0 0-1.131-1.131z" transform="translate(9.054 27.213) translate(-559.512 -48.47)"/>
        </g>
    </g>
    <g>
        <g>
            <path fill="url(#yfisaonnue)" d="M562.594 34.808a1.131 1.131 0 1 0 1.131 1.131 1.132 1.132 0 0 0-1.131-1.131z" transform="translate(11.317 11.375) translate(-561.464 -34.808)"/>
        </g>
    </g>
    <g>
        <g>
            <path fill="url(#w14nhmy5na)" d="M585.238 42.251a16.374 16.374 0 0 0-1.844-4.74c-2.142 1.873-4.973 3.977-7.158 4.249a4.458 4.458 0 0 1-1.189 4.256 7.464 7.464 0 0 1-10.559 0c-.45-.452-.818-.783-.6-1.47a1.134 1.134 0 0 1 .9-.767 3.338 3.338 0 0 0 2.721-2.251 4.52 4.52 0 0 1 1.141-1.912 4.6 4.6 0 0 1 4.25-1.15c.25-2.184 2.43-5.089 4.259-7.192a16.983 16.983 0 1 0-12.221 31.28 17.693 17.693 0 0 0 3.735.4c2.9 0 5.43-.549 6.393-3.478a4.979 4.979 0 0 0-1.2-5.1 2.261 2.261 0 0 1 0-3.2 2.315 2.315 0 0 1 3.2 0 4.977 4.977 0 0 0 5.1 1.2 4.817 4.817 0 0 0 3.289-3.866 17.261 17.261 0 0 0-.217-6.259zm-21.089-8.706a3.394 3.394 0 1 1-3.393 3.393 3.4 3.4 0 0 1 3.393-3.393zm-7.918 10.181a3.394 3.394 0 1 1 3.393 3.394 3.4 3.4 0 0 1-3.393-3.394zm5.656 12.445a3.394 3.394 0 1 1 3.393-3.394 3.4 3.4 0 0 1-3.393 3.394z" transform="translate(0 4.651) translate(-551.702 -29.008)"/>
        </g>
    </g>
    <g>
        <g>
            <path fill="url(#8ib638og5f)" d="M585.822 25.118c-.037-.036-.122-.122-.4-.122-1.406 0-3.969 1.706-6.531 3.959L581.938 32c3.129-3.56 4.521-6.244 3.884-6.882z" transform="translate(31.518) translate(-578.89 -24.996)"/>
        </g>
    </g>
    <g>
        <g>
            <path fill="url(#xet7ta58tg)" d="M578.345 29.737c-.231.223-.467.444-.69.668-3.355 3.355-5.785 6.84-5.778 8.286a.692.692 0 0 0 .991.661c1.843-.308 5.36-3.123 7.985-5.748.237-.236.441-.461.665-.694z" transform="translate(23.388 5.496) translate(-571.877 -29.737)"/>
        </g>
    </g>
</svg>
