<svg xmlns="http://www.w3.org/2000/svg" xmlns:xlink="http://www.w3.org/1999/xlink" viewBox="0 0 36.18 36.23"><defs><linearGradient id="linear-gradient" x1="-2012.02" y1="4.5" x2="-2035.73" y2="31.47" gradientTransform="matrix(-1, 0, 0, 1, -2005.92, 0)" gradientUnits="userSpaceOnUse"><stop offset="0" stop-color="#fff"/><stop offset="1" stop-color="#a0b3b8"/></linearGradient><radialGradient id="radial-gradient" cx="-2032.44" cy="24.77" r="28.31" gradientTransform="matrix(-1, 0, 0, 1, -2005.92, 0)" gradientUnits="userSpaceOnUse"><stop offset="0.26" stop-color="#f1f4f6"/><stop offset="0.58" stop-color="#e0e7eb"/><stop offset="1" stop-color="#ced8e0"/></radialGradient><linearGradient id="linear-gradient-2" x1="11.93" y1="26.07" x2="10.34" y2="26.07" gradientUnits="userSpaceOnUse"><stop offset="0" stop-color="#350335"/><stop offset="1" stop-color="#0c8290"/></linearGradient><linearGradient id="linear-gradient-3" x1="25.26" y1="13.7" x2="20.51" y2="13.7" gradientUnits="userSpaceOnUse"><stop offset="0" stop-color="#72e1f3"/><stop offset="1" stop-color="#f8d299"/></linearGradient><linearGradient id="linear-gradient-4" x1="24.82" y1="13.82" x2="24.82" y2="10.74" gradientUnits="userSpaceOnUse"><stop offset="0" stop-color="#ec018c"/><stop offset="1" stop-color="#fc6667"/></linearGradient><linearGradient id="linear-gradient-5" x1="16.91" y1="18.29" x2="19.81" y2="21.19" gradientUnits="userSpaceOnUse"><stop offset="0" stop-color="#ffe259"/><stop offset="1" stop-color="#ffa751"/></linearGradient><linearGradient id="linear-gradient-6" x1="19.74" y1="21.12" x2="18.05" y2="19.44" gradientUnits="userSpaceOnUse"><stop offset="0" stop-color="#ff4f50"/><stop offset="1" stop-color="#f9d323"/></linearGradient><linearGradient id="linear-gradient-7" x1="24.39" y1="25.78" x2="17.12" y2="18.5" gradientUnits="userSpaceOnUse"><stop offset="0" stop-color="#ff8109"/><stop offset="1" stop-color="#ffc837"/></linearGradient><linearGradient id="linear-gradient-8" x1="-2012.02" y1="4.45" x2="-2035.73" y2="31.42" xlink:href="#linear-gradient"/><radialGradient id="radial-gradient-2" cx="18.09" cy="18.09" r="17.47" gradientUnits="userSpaceOnUse"><stop offset="0.26" stop-color="#f1f4f6"/><stop offset="0.58" stop-color="#e0e6eb"/><stop offset="1" stop-color="#ced8e0"/></radialGradient><linearGradient id="linear-gradient-9" x1="9.15" y1="18.84" x2="26.68" y2="18.84" gradientUnits="userSpaceOnUse"><stop offset="0" stop-color="#ff5030"/><stop offset="1" stop-color="#dd2475"/></linearGradient></defs><g id="Layer_2" data-name="Layer 2"><g id="Layer_1-2" data-name="Layer 1"><path d="M0,18.14A18.09,18.09,0,1,0,18.09.05,18.09,18.09,0,0,0,0,18.14Z" fill="url(#linear-gradient)"/><path d="M.62,18.14A17.47,17.47,0,1,0,18.09.66,17.47,17.47,0,0,0,.62,18.14Z" fill="url(#radial-gradient)"/><path d="M10.86,25.14l-.36.71a.77.77,0,0,0,.14.91.79.79,0,0,0,.92.14l.7-.36Z" fill="url(#linear-gradient-2)"/><path d="M22.52,11.65l3.23,3.23-.86.87-3.24-3.24Z" fill="url(#linear-gradient-3)"/><path d="M14.94,25.65l-.09,0a.77.77,0,0,1-.19.08h0l-2.39.77-1.4-1.4.77-2.39h0a1.54,1.54,0,0,1,.08-.19.59.59,0,0,1,0-.08Z" fill="#f1d59d"/><path d="M25.75,14.88l-3.23-3.23,1-1a1.14,1.14,0,0,1,1.62,0l1.62,1.62a1.14,1.14,0,0,1,0,1.62Z" fill="url(#linear-gradient-4)"/><path d="M22.73,13.59l-9.92,9.93-.16.15a.32.32,0,0,0-.27-.08l-.45.07a.3.3,0,0,1-.35-.35l.13-.76a.59.59,0,0,1,0-.08,1.33,1.33,0,0,1,.21-.26l9.69-9.7Z" fill="url(#linear-gradient-5)"/><path d="M24.89,15.75l-9.7,9.69a1.27,1.27,0,0,1-.25.21l-.09,0-.76.13a.3.3,0,0,1-.35-.35l.07-.45a.29.29,0,0,0-.08-.27l.15-.15,9.93-9.93Z" fill="url(#linear-gradient-6)"/><path d="M22.73,13.59,12.65,23.67a.32.32,0,0,1,.09.27l-.08.45a.3.3,0,0,0,.35.35l.45-.07a.29.29,0,0,1,.27.08L23.81,14.67Z" fill="url(#linear-gradient-7)"/><path d="M0,18.09A18.09,18.09,0,1,0,18.09,0,18.09,18.09,0,0,0,0,18.09Z" fill="url(#linear-gradient-8)"/><path d="M.62,18.09A17.47,17.47,0,1,0,18.09.62,17.47,17.47,0,0,0,.62,18.09Z" fill="url(#radial-gradient-2)"/><path d="M9.9,26.84a2.37,2.37,0,0,1,0-3.46l4.54-4.54L9.9,14.31a2.34,2.34,0,0,1-.73-1.75,2.46,2.46,0,0,1,.76-1.74,2.37,2.37,0,0,1,3.46,0l4.54,4.54,4.53-4.54a2.32,2.32,0,0,1,1.75-.7,2.38,2.38,0,0,1,1.71.7,2.35,2.35,0,0,1,.76,1.74,2.41,2.41,0,0,1-.76,1.71l-4.54,4.54,4.54,4.54a2.47,2.47,0,0,1,.73,1.74,2.41,2.41,0,0,1-.73,1.78,2.35,2.35,0,0,1-1.75.69,2.42,2.42,0,0,1-1.74-.72L17.89,22.3l-4.54,4.54a2.41,2.41,0,0,1-1.71.76A2.35,2.35,0,0,1,9.9,26.84Z" fill="url(#linear-gradient-9)"/></g></g></svg>