<svg xmlns="http://www.w3.org/2000/svg" xmlns:xlink="http://www.w3.org/1999/xlink" viewBox="0 0 17.53 17.53"><defs><linearGradient id="linear-gradient" y1="8.76" x2="17.53" y2="8.76" gradientUnits="userSpaceOnUse"><stop offset="0" stop-color="#ff5030"/><stop offset="1" stop-color="#dd2475"/></linearGradient></defs><g id="Layer_2" data-name="Layer 2"><g id="Layer_1-2" data-name="Layer 1"><path d="M.74,16.76a2.37,2.37,0,0,1,0-3.45L5.28,8.77.75,4.23A2.31,2.31,0,0,1,0,2.49,2.4,2.4,0,0,1,.78.75a2.36,2.36,0,0,1,3.45,0L8.77,5.28,13.31.75a2.29,2.29,0,0,1,1.74-.7,2.34,2.34,0,0,1,1.71.7,2.34,2.34,0,0,1,.77,1.74,2.46,2.46,0,0,1-.77,1.71L12.23,8.74l4.53,4.53A2.43,2.43,0,0,1,17.49,15a2.37,2.37,0,0,1-.73,1.78,2.31,2.31,0,0,1-1.74.69,2.39,2.39,0,0,1-1.74-.73L8.74,12.23,4.2,16.76a2.41,2.41,0,0,1-1.71.76A2.32,2.32,0,0,1,.74,16.76Z" fill="url(#linear-gradient)"/></g></g></svg>