<svg xmlns="http://www.w3.org/2000/svg" xmlns:xlink="http://www.w3.org/1999/xlink" width="94" height="94" viewBox="0 0 94 94">
    <defs>
        <linearGradient id="linear-gradient" x1="-2.817" x2="-3.472" y1=".123" y2=".868" gradientUnits="objectBoundingBox">
            <stop offset="0" stop-color="#fff"/>
            <stop offset=".997" stop-color="#a0b3b8"/>
        </linearGradient>
        <linearGradient id="linear-gradient-2" x1=".5" x2=".5" y2="1" gradientUnits="objectBoundingBox">
            <stop offset="0" stop-color="#5b268d"/>
            <stop offset="1" stop-color="#4386a1"/>
        </linearGradient>
        <linearGradient id="linear-gradient-3" x1="-324.785" x2="-324.716" y1="-44.545" y2="-44.545" gradientUnits="objectBoundingBox">
            <stop offset="0" stop-color="#434343"/>
            <stop offset="1"/>
        </linearGradient>
        <linearGradient id="linear-gradient-4" x1="-324.771" x2="-324.702" y1="-44.774" y2="-44.774" xlink:href="#linear-gradient-3"/>
        <linearGradient id="linear-gradient-5" x1="-585.646" x2="-585.514" y1="-200.575" y2="-200.575" gradientUnits="objectBoundingBox">
            <stop offset="0" stop-color="#6211c1"/>
            <stop offset="1" stop-color="#a507a5"/>
        </linearGradient>
        <linearGradient id="linear-gradient-6" x1="-635.031" x2="-634.888" y1="-178.812" y2="-178.812" xlink:href="#linear-gradient-5"/>
        <linearGradient id="linear-gradient-7" x1=".255" x2="1.576" y1=".5" y2=".5" gradientUnits="objectBoundingBox">
            <stop offset="0" stop-color="#ff1717"/>
            <stop offset="1" stop-color="#ffc522"/>
        </linearGradient>
        <linearGradient id="linear-gradient-8" x1="-977.254" x2="-977.011" y1="-322.567" y2="-322.567" gradientUnits="objectBoundingBox">
            <stop offset="0" stop-color="#ff616d"/>
            <stop offset="1" stop-color="#ffc171"/>
        </linearGradient>
        <linearGradient id="linear-gradient-9" x1="-819.237" x2="-819.041" y1="-378.781" y2="-378.781" gradientUnits="objectBoundingBox">
            <stop offset="0" stop-color="#ff4f50"/>
            <stop offset="1" stop-color="#f9d323"/>
        </linearGradient>
        <linearGradient id="linear-gradient-10" x1="-670.255" x2="-670.102" y1="-135.568" y2="-135.568" xlink:href="#linear-gradient-3"/>
        <linearGradient id="linear-gradient-11" x1="-701.252" x2="-701.091" y1="-143.295" y2="-143.295" xlink:href="#linear-gradient-3"/>
        <linearGradient id="linear-gradient-12" x1="-.003" x2="1.956" y1=".501" y2=".501" xlink:href="#linear-gradient-7"/>
        <linearGradient id="linear-gradient-13" x1=".354" x2="7.948" y1=".5" y2=".5" gradientUnits="objectBoundingBox">
            <stop offset="0" stop-color="#c31600"/>
            <stop offset="1" stop-color="#ffc500"/>
        </linearGradient>
        <linearGradient id="linear-gradient-14" x1="-1.284" x2="10.906" y1=".5" y2=".5" xlink:href="#linear-gradient-13"/>
        <linearGradient id="linear-gradient-15" x1="-2.491" x2="10.608" y1=".5" y2=".637" xlink:href="#linear-gradient-13"/>
        <linearGradient id="linear-gradient-16" x1="1" x2="11.159" y1=".787" y2=".634" xlink:href="#linear-gradient-13"/>
        <linearGradient id="linear-gradient-17" x1="1.97" x2="8.693" y1=".748" y2=".661" xlink:href="#linear-gradient-13"/>
        <linearGradient id="linear-gradient-18" x1="-5.785" x2="12.235" y1=".502" y2=".502" xlink:href="#linear-gradient-13"/>
        <linearGradient id="linear-gradient-19" x1="-9.681" x2="15.171" y1=".5" y2=".5" xlink:href="#linear-gradient-13"/>
        <linearGradient id="linear-gradient-20" x1=".5" x2=".5" y2="1" gradientUnits="objectBoundingBox">
            <stop offset="0" stop-color="#00f99f"/>
            <stop offset="1" stop-color="#00d8fc"/>
        </linearGradient>
        <radialGradient id="radial-gradient" cx=".741" cy=".69" r=".81" gradientTransform="matrix(-1 0 0 1 -7.037 0)" gradientUnits="objectBoundingBox">
            <stop offset=".262" stop-color="#f1f4f6"/>
            <stop offset=".579" stop-color="#e0e6eb"/>
            <stop offset=".997" stop-color="#ced8e0"/>
        </radialGradient>
        <style>
            .cls-21{fill:url(#linear-gradient-20)}
        </style>
    </defs>
    <g id="Group_30908" transform="translate(-168.24 -10.292)">
        <g id="Group_35498" transform="translate(168.24 10.292)">
            <path id="Path_191911" fill="url(#linear-gradient)" d="M1122.436 848.1a47 47 0 1 0 47-47 47 47 0 0 0-47 47z" transform="translate(-1122.436 -801.097)"/>
            <path id="Path_191912" fill="url(#radial-gradient)" d="M1123.631 847.686a45.394 45.394 0 1 0 45.393-45.4 45.391 45.391 0 0 0-45.393 45.4z" transform="translate(-1122.025 -800.686)"/>
        </g>
        <g id="Layer_2" transform="translate(193.237 24.218)">
            <g id="Layer_1">
                <g id="Group_30908-2">
                    <g id="Group_30757">
                        <g id="Group_30752" transform="translate(0 9.011)">
                            <g id="Group_30733">
                                <g id="Group_30732">
                                    <path id="Path_191897" fill="url(#linear-gradient-2)" d="M23.72 14.215C15.531 10.648 4.81 15.7 1.318 23.67a14.372 14.372 0 0 0 .305 12.656c2.01 3.566 5.666 5.733 9.44 7.021 7.594 2.59 17.124 2.911 24.037-1.647a16.793 16.793 0 0 0 7.341-10.013 13.662 13.662 0 0 0-3.395-11.711 23.64 23.64 0 0 0-13.155-7.244A24.568 24.568 0 0 0 9.969 14.4c-.67.305-.186 1.31.484 1.147 7.892-1.861 16.84-1.176 23.615 3.588 2.978 2.122 5.606 5.316 6.008 9.083.395 3.909-1.578 7.631-4.393 10.244-5.316 4.9-13.4 5.211-20.1 3.879-3.373-.685-6.857-1.787-9.552-4.02a11.272 11.272 0 0 1-3.939-10.549 15.049 15.049 0 0 1 7.587-10.535c4.355-2.472 8.934-2.509 13.728-1.973a.566.566 0 0 0 .283-1.05z" transform="translate(-.001 -12.101)"/>
                                </g>
                            </g>
                            <g id="Group_30735" transform="translate(9.739 6.863)">
                                <g id="Group_30734">
                                    <path id="Path_191898" fill="url(#linear-gradient-3)" d="M18.91 21.7a6.8 6.8 0 0 0-5.822 7c.275 3.261 3.477 5.956 6.767 4.973s4.713-4.728 3.722-7.817a7.043 7.043 0 0 0-3.447-4.229 2.6 2.6 0 0 0-3.566.99.424.424 0 0 0 .164.588.4.4 0 0 0 .2.052c1.117 0 2.092-.134 3.038.6a5.5 5.5 0 0 1 1.839 3.038 4.05 4.05 0 0 1-2.874 4.951H18.9c-2.621.536-4.273-2.174-4.132-4.467.164-2.65 2.233-4.1 4.206-5.487.082-.06.067-.223-.052-.208z" transform="translate(-13.083 -21.319)"/>
                                </g>
                            </g>
                            <g id="Group_30737" transform="translate(22.068 6.908)">
                                <g id="Group_30736">
                                    <path id="Path_191899" fill="url(#linear-gradient-4)" d="M36.11 21.789a6.812 6.812 0 0 0-6.462 6.224c-.149 3.32 2.792 6.432 6.209 5.777 3.544-.677 5.286-4.467 4.407-7.765a6.842 6.842 0 0 0-2.978-4.244 2.58 2.58 0 0 0-3.588.744.439.439 0 0 0 .171.588.447.447 0 0 0 .2.052c1.281.156 2.233.074 3.179 1.169A5.5 5.5 0 0 1 38.56 27.6c.119 2.233-1.608 4.549-4 4.3-2.531-.275-3.544-2.978-3.023-5.211.573-2.42 2.658-3.559 4.661-4.675a.119.119 0 0 0 .037-.156.127.127 0 0 0-.1-.052z" transform="translate(-29.643 -21.379)"/>
                                </g>
                            </g>
                            <g id="Group_30739" transform="translate(8.75 5.01)">
                                <g id="Group_30738">
                                    <path id="Path_191900" fill="url(#linear-gradient-5)" d="M17.208 18.86a6.025 6.025 0 0 0-5.42 3.075.275.275 0 0 0 .119.38.283.283 0 0 0 .328-.037 19.8 19.8 0 0 1 2.278-1.906 11.83 11.83 0 0 1 2.747-1.139.2.2 0 0 0 .141-.253.223.223 0 0 0-.194-.149z" transform="translate(-11.754 -18.83)"/>
                                </g>
                            </g>
                            <g id="Group_30741" transform="translate(28.031 5.589)">
                                <g id="Group_30740">
                                    <path id="Path_191901" fill="url(#linear-gradient-6)" d="M37.732 20.19a4.281 4.281 0 0 1 3.179.744 5.3 5.3 0 0 1 1.422 2.366.231.231 0 0 0 .439 0c.618-2.6-2.881-4.541-5.092-3.32a.112.112 0 0 0 0 .149.1.1 0 0 0 .052.06z" transform="translate(-37.652 -19.608)"/>
                                </g>
                            </g>
                            <g id="Group_30743" transform="translate(7.56 19.106)">
                                <g id="Group_30742">
                                    <path id="Path_191902" fill="url(#linear-gradient-7)" d="M10.241 38c-.64 2.181 2.487 4.467 4.1 5.323a18.523 18.523 0 0 0 8.286 2c5.465.164 12.239-1.69 15.136-6.7a.551.551 0 0 0-.864-.67c-3.99 3.373-8.189 5.628-13.535 5.725a19.476 19.476 0 0 1-7.147-1.147 10.281 10.281 0 0 1-3.291-1.913c-.886-.819-1.251-2.055-2.144-2.762a.313.313 0 0 0-.447 0 .238.238 0 0 0-.074.127z" transform="translate(-10.156 -37.764)"/>
                                </g>
                            </g>
                            <g id="Group_30745" transform="translate(33.293 18.537)">
                                <g id="Group_30744">
                                    <path id="Path_191903" fill="url(#linear-gradient-8)" d="M44.928 37.692a5.256 5.256 0 0 1 2 1.638c.3.35.834.045.856-.357A2.062 2.062 0 0 0 45.673 37a2.025 2.025 0 0 0-.812.186.305.305 0 0 0-.1.417.358.358 0 0 0 .171.127z" transform="translate(-44.72 -36.999)"/>
                                </g>
                            </g>
                            <g id="Group_30747" transform="translate(5.075 18.349)">
                                <g id="Group_30746">
                                    <path id="Path_191904" fill="url(#linear-gradient-9)" d="M10.259 36.935a3.075 3.075 0 0 0-2.367.1A1.869 1.869 0 0 0 6.82 38.8c0 .179.238.208.372.149s.38-.328.61-.432a4.8 4.8 0 0 0 .6-.261 2.166 2.166 0 0 1 1.586-.29.522.522 0 0 0 .275-1.005z" transform="translate(-6.818 -36.747)"/>
                                </g>
                            </g>
                            <g id="Group_30749" transform="translate(12.767 12.433)">
                                <g id="Group_30748">
                                    <path id="Path_191905" fill="url(#linear-gradient-10)" d="M19.577 33.647A2.494 2.494 0 0 0 22 31.22l-.089-.64a2.36 2.36 0 0 0-.618-1.072l-.491-.38a2.442 2.442 0 0 0-1.221-.328 2.494 2.494 0 0 0-2.427 2.42l.089.648a2.434 2.434 0 0 0 .618 1.072l.491.38a2.449 2.449 0 0 0 1.225.327z" transform="translate(-17.15 -28.8)"/>
                                </g>
                            </g>
                            <g id="Group_30751" transform="translate(24.694 12.582)">
                                <g id="Group_30750">
                                    <path id="Path_191906" fill="url(#linear-gradient-11)" d="M35.478 33.638a2.368 2.368 0 0 0 2.308-2.308l-.082-.618a2.286 2.286 0 0 0-.6-1.02l-.469-.357A2.271 2.271 0 0 0 35.478 29a2.375 2.375 0 0 0-2.308 2.308l.082.618a2.285 2.285 0 0 0 .6 1.02l.469.357a2.271 2.271 0 0 0 1.157.335z" transform="translate(-33.17 -29)"/>
                                </g>
                            </g>
                        </g>
                        <g id="Group_30754" transform="translate(8.62)">
                            <g id="Group_30753">
                                <path id="Path_191907" fill="url(#linear-gradient-12)" d="M25.986.141a46.829 46.829 0 0 0-9.559.893c-1.444.3-4.534.841-4.824 2.688s2.233 2.74 3.566 3.075a36.309 36.309 0 0 0 8.837.744 34.589 34.589 0 0 0 8.569-.916c1.34-.342 4.467-1.072 4.43-2.978S33.423.937 31.994.632A39.153 39.153 0 0 0 23.06.044a.357.357 0 0 0-.342.38.365.365 0 0 0 .342.32c1.988.1 3.983.216 5.956.417a23.3 23.3 0 0 1 3.2.514c.744.186 2.3.424 2.829 1.02l.685 1.489a3.343 3.343 0 0 1-.759.581 9.962 9.962 0 0 1-1.571.648 21.509 21.509 0 0 1-2.732.67 37.969 37.969 0 0 1-6.358.566c-2.01 0-4.035 0-6.038-.2a16.193 16.193 0 0 1-3.4-.558 6.023 6.023 0 0 1-1.377-.566 1.541 1.541 0 0 1-.566-2.092 2.107 2.107 0 0 1 .149-.208c1.139-1.221 4.117-1.437 5.666-1.69 2.4-.4 4.847-.744 7.281-.946a.125.125 0 0 0-.037-.246z" transform="translate(-11.579 .003)"/>
                            </g>
                        </g>
                        <g id="Group_30755" transform="translate(2.214 45.11)">
                            <path id="Path_191908" fill="url(#linear-gradient-13)" d="M6.857 60.59a6.216 6.216 0 0 1 1.951.342.506.506 0 0 1 .238.4.462.462 0 0 1-.216.38.812.812 0 0 1-.5.171A5.01 5.01 0 0 0 7 61.7a2.717 2.717 0 0 0-2.166.841 3.722 3.722 0 0 0-.744 2.509 3.648 3.648 0 0 0 .871 2.606 1.407 1.407 0 0 0 1.072.491 5.375 5.375 0 0 0 1.98-.663 1.891 1.891 0 0 1 .633-.223c.231 0 .342.119.342.357a.7.7 0 0 1-.328.6 13.069 13.069 0 0 1-1.772.8 3.893 3.893 0 0 1-1.094.2 2.189 2.189 0 0 1-1.63-.7 4.973 4.973 0 0 1-1.169-3.536 4.37 4.37 0 0 1 1.115-3.343 3.849 3.849 0 0 1 2.747-1.049z" transform="translate(-2.975 -60.588)"/>
                            <path id="Path_191909" fill="url(#linear-gradient-14)" d="M13.678 69.605a.432.432 0 0 1-.186.342.633.633 0 0 1-.409.149c-.194 0-.29-.082-.29-.261-.037-.417-.052-2.055-.052-4.929a.745.745 0 0 1 .506-.655A3.157 3.157 0 0 1 14.6 64a2.636 2.636 0 0 1 1.489.417 1.228 1.228 0 0 1 .64 1.072 1.146 1.146 0 0 1-.253.648 2.234 2.234 0 0 1-.536.558 6.977 6.977 0 0 1-.811.5 3.253 3.253 0 0 1-.648.313 9.307 9.307 0 0 1 1.489 1.154c.432.409.648.745.648.975a.439.439 0 0 1-.313.462.909.909 0 0 1-.238 0c-.1 0-.223-.1-.372-.283a6.782 6.782 0 0 0-.849-.819 15.156 15.156 0 0 0-1.228-.96c0 .745.037 1.228.052 1.571zm-.052-2.755a3.372 3.372 0 0 0 1.3-.432c.581-.283.886-.551.916-.8a.573.573 0 0 0-.4-.536 1.987 1.987 0 0 0-.826-.179 3.945 3.945 0 0 0-.983.119v1.824z" transform="translate(-5.47 -61.459)"/>
                            <path id="Path_191910" fill="url(#linear-gradient-15)" d="M23.247 63.94a.307.307 0 0 1 .342.32 1.928 1.928 0 0 1-.357.908l-.342.521-.313.476-.275.4a5.609 5.609 0 0 0-.328.491v1.146a8.785 8.785 0 0 1-.074 1.538.447.447 0 0 1-.491.342.238.238 0 0 1-.171-.052 1.534 1.534 0 0 1-.149-.871v-1.43a5.52 5.52 0 0 0-.045-.7 20.383 20.383 0 0 1-1.489-2.406.29.29 0 0 1-.045-.156.4.4 0 0 1 .082-.2.536.536 0 0 1 .447-.275c.134 0 .454.447.968 1.333q.35.6.514.849c.149-.223.32-.476.506-.744l.409-.655a2.412 2.412 0 0 1 .6-.744.313.313 0 0 1 .208-.089z" transform="translate(-7.2 -61.445)"/>
                            <path id="Path_191911-2" fill="url(#linear-gradient-16)" d="M26.49 65.487a1.3 1.3 0 0 1 .64-1.065A2.591 2.591 0 0 1 28.679 64a3.171 3.171 0 0 1 1.392.231c.32.164.476.365.476.61a.372.372 0 0 1-.112.283.38.38 0 0 1-.268.112 1.921 1.921 0 0 1-.633-.208 2.062 2.062 0 0 0-.841-.208 1.757 1.757 0 0 0-.8.2c-.275.134-.409.305-.409.506s.164.387.5.544a6.091 6.091 0 0 0 1.191.409 3.075 3.075 0 0 1 .916.335 2.331 2.331 0 0 1 .328.268 1.05 1.05 0 0 1 .208.38 2.234 2.234 0 0 1 .1.744 1.66 1.66 0 0 1-.625 1.429 2.383 2.383 0 0 1-1.489.469 3.626 3.626 0 0 1-1.489-.275c-.417-.186-.625-.417-.618-.685a.521.521 0 0 1 .171-.38.342.342 0 0 1 .38-.089 6.409 6.409 0 0 0 1.556.491 1.251 1.251 0 0 0 .879-.283.968.968 0 0 0 .3-.744.745.745 0 0 0-.342-.67 2.36 2.36 0 0 0-.826-.335c-.32-.067-.64-.149-.968-.238a1.943 1.943 0 0 1-.789-.462 1.266 1.266 0 0 1-.377-.947z" transform="translate(-8.983 -61.458)"/>
                            <path id="Path_191912-2" fill="url(#linear-gradient-17)" d="M36.174 64.781v4.839a.357.357 0 0 1-.164.328.625.625 0 0 1-.365.119c-.231 0-.342-.119-.342-.372v-2.74a17.866 17.866 0 0 1 .074-2.144q-.8.067-1.608.067c-.275 0-.409-.112-.409-.342a.477.477 0 0 1 .149-.32.521.521 0 0 1 .335-.171l4.125-.134c.231.052.35.171.35.35 0 .357-.409.536-1.236.536z" transform="translate(-10.738 -61.437)"/>
                            <path id="Path_191913" fill="url(#linear-gradient-18)" d="M42.156 69.737c-.037.223-.194.328-.469.328s-.417-.112-.417-.342a14.026 14.026 0 0 1 .744-3.164 9.171 9.171 0 0 1 .744-1.824c.283-.484.558-.744.819-.744a.439.439 0 0 1 .372.253c.1.164.3.551.573 1.139a12.27 12.27 0 0 1 .7 1.891c.179.663.387 1.489.6 2.435a.328.328 0 0 1-.119.275.454.454 0 0 1-.29.1.491.491 0 0 1-.529-.372l-.457-1.812a7.445 7.445 0 0 1-1.861-.186 14.512 14.512 0 0 0-.41 2.023zm1.429-4.519a7.549 7.549 0 0 0-.744 1.653 5.322 5.322 0 0 0 1.377.156 12.255 12.255 0 0 0-.633-1.809z" transform="translate(-12.759 -61.457)"/>
                            <path id="Path_191914" fill="url(#linear-gradient-19)" d="M50.534 70.115h-1.258c-.216 0-.342-.067-.372-.194a13.468 13.468 0 0 1-.074-1.735l.127-3.842c0-.223.171-.335.506-.335a.678.678 0 0 1 .409.119.4.4 0 0 1 .156.335 12.887 12.887 0 0 1-.149 1.489 17.55 17.55 0 0 0-.149 1.869v1.407l1.958-.119a.4.4 0 0 1 .439.342.454.454 0 0 1 0 .1c0 .253-.089.395-.275.424a8.556 8.556 0 0 1-1.318.14z" transform="translate(-14.69 -61.462)"/>
                        </g>
                        <g id="Group_30756" transform="translate(6.694 55.897)">
                            <path id="Path_191915" d="M13.2 79.818l-1.065-.141a1.891 1.891 0 0 0-2.135 1.6 2.151 2.151 0 0 0 0 .536 2.308 2.308 0 0 0 .648 1.72.945.945 0 0 0 .663.328 4.363 4.363 0 0 0 1.2-.305c.305-.119.618-.216.931-.305s.357.112.357.335a.566.566 0 0 1-.305.469 7.124 7.124 0 0 1-2.39.7 1.489 1.489 0 0 1-.886-.29 2.04 2.04 0 0 1-.692-.745A3.976 3.976 0 0 1 9 81.776a2.866 2.866 0 0 1 3.015-3.038 4.8 4.8 0 0 1 1.489.246.4.4 0 0 1 .238.328.454.454 0 0 1-.194.342.633.633 0 0 1-.342.164z" class="cls-21" transform="translate(-8.993 -76.012)"/>
                            <path id="Path_191916" d="M18.522 84.79h-1.258c-.223 0-.342-.067-.372-.194a14.958 14.958 0 0 1-.082-1.735l.1-3.827c0-.223.164-.335.5-.335a.662.662 0 0 1 .409.119.394.394 0 0 1 .156.335 12.886 12.886 0 0 1-.149 1.489 14.406 14.406 0 0 0-.127 1.891q0 .6.045 1.407l1.951-.119a.4.4 0 0 1 .439.342.246.246 0 0 1 0 .1c0 .253-.1.395-.275.424a8.623 8.623 0 0 1-1.333.1z" class="cls-21" transform="translate(-10.99 -76.003)"/>
                            <path id="Path_191917" d="M23.4 81.8v1.735a2.108 2.108 0 0 1 0 .372l2.286-.045q.38.045.38.335c0 .365-.171.551-.514.551H22.96a.4.4 0 0 1-.35-.171.7.7 0 0 1-.119-.35 3.5 3.5 0 0 1 0-.409v-2.163a.283.283 0 0 1-.171-.275.454.454 0 0 1 .149-.335q-.045-1.027-.045-1.876c0-.32.2-.491.6-.5H25.7a.423.423 0 0 1 .268.752 4.289 4.289 0 0 1-1.653.238h-.975v1.333h2.025c.275.037.409.156.409.372a.476.476 0 0 1-.134.305.5.5 0 0 1-.283.164 6.281 6.281 0 0 1-.648 0z" class="cls-21" transform="translate(-12.398 -75.996)"/>
                            <path id="Path_191918" d="M30.016 84.407q-.06.335-.469.335c-.275 0-.417-.119-.417-.342a13.6 13.6 0 0 1 .744-3.172 9.105 9.105 0 0 1 .745-1.824c.283-.484.551-.744.819-.744a.477.477 0 0 1 .372.253c.1.171.3.551.573 1.147a11.912 11.912 0 0 1 .692 1.884c.186.67.387 1.489.61 2.442a.335.335 0 0 1-.119.268.417.417 0 0 1-.29.1.491.491 0 0 1-.529-.372l-.462-1.809a7.444 7.444 0 0 1-1.861-.186 14.511 14.511 0 0 0-.408 2.02zm1.429-4.507a7.4 7.4 0 0 0-.744 1.653 5.3 5.3 0 0 0 1.37.156 11.912 11.912 0 0 0-.655-1.809z" class="cls-21" transform="translate(-14.138 -75.993)"/>
                            <path id="Path_191919" d="M37.7 83.716a.64.64 0 0 1-.454.186q-.246 0-.335-.313c0-1.161-.045-2.323-.045-3.477l-.037-3.328a1.355 1.355 0 0 1 .871-1.37 3.879 3.879 0 0 1 1.69-.335 2.718 2.718 0 0 1 1.08.246 3.083 3.083 0 0 1 1.027.744 1.422 1.422 0 0 1 .454 1.013 1.913 1.913 0 0 1-.5 1.176 5.04 5.04 0 0 1-1.243 1.109 6.5 6.5 0 0 1-1.437.744 13.259 13.259 0 0 1 2.137 1.846 2.717 2.717 0 0 1 .908 1.489.424.424 0 0 1-.171.328.633.633 0 0 1-.417.149.521.521 0 0 1-.409-.208 4.467 4.467 0 0 0-1.109-1.489 12.515 12.515 0 0 0-1.891-1.489l.074 2.539a.558.558 0 0 1-.193.44zm2.144-5.137c.744-.462 1.1-.886 1.1-1.258a.931.931 0 0 0-.551-.864 2.606 2.606 0 0 0-1.318-.305 3.171 3.171 0 0 0-1.206.186v2.978a4.184 4.184 0 0 0 1.988-.745z" class="cls-21" transform="translate(-16.104 -75.078)"/>
                        </g>
                    </g>
                </g>
            </g>
        </g>
    </g>
</svg>
