<svg xmlns="http://www.w3.org/2000/svg" xmlns:xlink="http://www.w3.org/1999/xlink" width="100.809" height="100.422" viewBox="0 0 140.809 131.422"><defs><style>.a{opacity:0.52;}.b{fill:url(#a);}.c{fill:url(#b);}.d{fill:#25b1fa;}.e{fill:url(#d);}.f{fill:url(#e);}.g{fill:url(#f);}.h{fill:url(#g);}.i{fill:url(#h);}.j{fill:url(#j);}</style><linearGradient id="a" y1="0.5" x2="1" y2="0.5" gradientUnits="objectBoundingBox"><stop offset="0" stop-color="#00f99f"/><stop offset="1" stop-color="#00d8fc"/></linearGradient><linearGradient id="b" y1="0.5" x2="1" y2="0.5" gradientUnits="objectBoundingBox"><stop offset="0" stop-color="#ffe259"/><stop offset="1" stop-color="#ffa751"/></linearGradient><linearGradient id="d" y1="0.5" x2="1" y2="0.5" gradientUnits="objectBoundingBox"><stop offset="0" stop-color="#ff5030"/><stop offset="1" stop-color="#dd2475"/></linearGradient><linearGradient id="e" y1="0.5" x2="1" y2="0.5" gradientUnits="objectBoundingBox"><stop offset="0" stop-color="#ff8109"/><stop offset="1" stop-color="#ffc837"/></linearGradient><linearGradient id="f" y1="0.5" x2="1" y2="0.5" gradientUnits="objectBoundingBox"><stop offset="0" stop-color="#a9076b"/><stop offset="1" stop-color="#62045f"/></linearGradient><linearGradient id="g" x1="0" y1="0.5" x2="1" y2="0.5" xlink:href="#f"/><linearGradient id="h" x1="0" y1="0.5" x2="1" y2="0.5" xlink:href="#f"/><linearGradient id="j" x1="0" y1="0.5" x2="1" y2="0.5" xlink:href="#f"/></defs><g class="a" transform="translate(-358.135 -295.682)"><path class="b" d="M360.482,298.029H496.6V415.37H360.482Z"/><rect class="c" width="25.815" height="25.815" rx="2.934" transform="translate(454.355 330.884)"/><rect class="c" width="25.815" height="25.815" rx="2.934" transform="translate(454.355 370.78)"/><path class="d" d="M360.482,298.029H496.6V316.8H360.482Z"/><path class="d" d="M490.73,424.757H366.349a5.867,5.867,0,0,1-5.867-5.867v-8.214h44.59l4.693,4.694h37.549l4.694-4.694H496.6v8.214A5.867,5.867,0,0,1,490.73,424.757Z"/><path class="e" d="M386.3,387.208h56.324l-28.162-56.324Z"/><circle class="f" cx="19.948" cy="19.948" r="19.948" transform="translate(372.216 361.393)"/><path class="g" d="M496.6,295.682H484.863v4.694h9.388v14.081H362.829V300.376H480.17v-4.694H360.482a2.347,2.347,0,0,0-2.347,2.347V403.636h4.694V319.15H494.251v84.486h4.693V298.029A2.347,2.347,0,0,0,496.6,295.682Z"/><path class="h" d="M484.863,305.069h4.694v4.694h-4.694Z"/><path class="i" d="M386.3,305.069h4.694v4.694H386.3Z"/><path class="h" d="M367.522,305.069h4.694v4.694h-4.694Z"/><path class="j" d="M376.91,305.069H381.6v4.694H376.91Z"/><path class="g" d="M496.6,408.329H452.008a2.35,2.35,0,0,0-1.66.688l-4.006,4.006H410.737l-4.006-4.006a2.347,2.347,0,0,0-1.659-.688h-44.59a2.347,2.347,0,0,0-2.347,2.347v8.214a8.224,8.224,0,0,0,8.214,8.214h8.214V422.41h-8.214a3.524,3.524,0,0,1-3.52-3.52v-5.867H404.1l4.006,4.006a2.347,2.347,0,0,0,1.659.688h37.549a2.348,2.348,0,0,0,1.66-.688l4.006-4.006h41.271v5.867a3.525,3.525,0,0,1-3.521,3.52H379.257V427.1H490.73a8.223,8.223,0,0,0,8.214-8.214v-8.214A2.347,2.347,0,0,0,496.6,408.329Z"/><path class="g" d="M463.055,378.508l-3.319,3.319,7.04,7.04a2.347,2.347,0,0,0,3.319,0h0l16.428-16.427-3.319-3.319-14.768,14.768Z"/><path class="g" d="M452.008,393.662a5.285,5.285,0,0,0,5.28,5.28h20.535v-4.694H457.288a.586.586,0,0,1-.587-.586V373.714a.587.587,0,0,1,.587-.587h15.841v-4.694H457.288a5.287,5.287,0,0,0-5.28,5.281Z"/><path class="g" d="M483.2,329.225l-14.768,14.768-5.381-5.381-3.319,3.319,7.04,7.041a2.348,2.348,0,0,0,3.319,0h0l16.428-16.428Z"/><path class="g" d="M452.008,333.818v19.948a5.285,5.285,0,0,0,5.28,5.28h20.535v-4.693H457.288a.587.587,0,0,1-.587-.587V333.818a.587.587,0,0,1,.587-.587h15.841v-4.693H457.288A5.285,5.285,0,0,0,452.008,333.818Z"/><path class="g" d="M412.891,389.555h29.73a2.349,2.349,0,0,0,2.1-3.4l-28.162-56.323a2.347,2.347,0,0,0-4.2,0l-14.921,29.842a22.295,22.295,0,1,0,15.452,29.878Zm1.568-53.423,24.364,48.729H414.182a22.311,22.311,0,0,0-12.3-23.582Zm-39.9,45.209a17.6,17.6,0,1,1,17.6,17.6A17.6,17.6,0,0,1,374.563,381.341Z"/></g></svg>