<svg xmlns="http://www.w3.org/2000/svg" xmlns:xlink="http://www.w3.org/1999/xlink" width="62.661" height="41.447" viewBox="0 0 62.661 41.447">
    <defs>
        <linearGradient id="0qf2qc3e4b" x1="72.478" x2="73.198" y1="-193.347" y2="-193.347" gradientUnits="objectBoundingBox">
            <stop offset="0" stop-color="#ffe177"/>
            <stop offset=".572" stop-color="#feb137"/>
            <stop offset="1" stop-color="#fe646f"/>
        </linearGradient>
        <linearGradient id="7o151oyg8a" x1="-.437" x2=".69" y1="-36.236" y2="-36.236" gradientUnits="objectBoundingBox">
            <stop offset="0" stop-color="#537983"/>
            <stop offset="1" stop-color="#384949"/>
        </linearGradient>
        <linearGradient id="u3ioe11ccc" x1="-.222" x2=".843" y1="-17.748" y2="-17.748" xlink:href="#7o151oyg8a"/>
        <linearGradient id="sbq2dor2pd" x1="-.365" x2=".859" y1=".5" y2=".5" xlink:href="#0qf2qc3e4b"/>
        <linearGradient id="4kfn0a0pde" x1="-.348" x2=".952" y1="-13.016" y2="-13.016" xlink:href="#7o151oyg8a"/>
        <linearGradient id="mi8cso41gf" x1="-.222" x2=".845" y1="-15.324" y2="-15.324" xlink:href="#7o151oyg8a"/>
        <linearGradient id="ky3ji3ycdg" x1="-147.69" x2="-146.697" y1="-21219.346" y2="-21219.346" gradientUnits="objectBoundingBox">
            <stop offset="0" stop-color="#cdbfba"/>
            <stop offset="1" stop-color="#766e6e"/>
        </linearGradient>
    </defs>
    <g>
        <g>
            <path fill="#ffd15b" d="M511.138 589.346a5.957 5.957 0 0 1-2.473-.554 3.675 3.675 0 0 1-2.1-2.188c-.665-1.994.584-4.261 1.792-6.455.747-1.356 1.77-3.215 1.557-3.938-.013-.045-.043-.148-.3-.289-1.146-.622-3.461 1.812-5.321 3.764-2.739 2.876-6.148 6.458-9.323 3.722-3.055-2.629-.313-6.509 1.892-9.626 2.108-2.981 3.518-5.172 2.467-6.191-1.138-1.1-5.083 1.394-7.375 3.545a1.5 1.5 0 0 1-2.054-2.187c1.283-1.207 7.872-7.051 11.518-3.511 2.975 2.886.157 6.872-2.107 10.075-1.91 2.7-3.3 4.834-2.384 5.622.941.8 2.826-1.031 5.193-3.517 2.7-2.833 5.753-6.042 8.918-4.337a3.459 3.459 0 0 1 1.759 2.082c.566 1.924-.64 4.114-1.807 6.233-.77 1.4-1.824 3.311-1.574 4.06.047.141.212.276.49.4 3.633 1.644 6.658-4.608 6.687-4.671a1.5 1.5 0 0 1 2.713 1.281c-1.227 2.59-4.274 6.68-8.168 6.68z" transform="translate(-489.421 -547.899)"/>
        </g>
        <g>
            <g>
                <path fill="url(#0qf2qc3e4b)" d="M521.409 581.022l-2.45-2.45-3.019 3.018a.6.6 0 0 0 .427 1.03h2.923a1.256 1.256 0 0 0 .889-.368z" transform="translate(-489.421 -547.899)"/>
                <g>
                    <path fill="url(#7o151oyg8a)" d="M521.067 581.59l-2.676-2.676a1.212 1.212 0 0 1 0-1.712l2.145-2.145 4.387 4.388-2.145 2.145a1.211 1.211 0 0 1-1.711 0z" transform="translate(-489.421 -547.899)"/>
                    <path fill="url(#u3ioe11ccc)" d="M531.91 577.054l-8.983-8.983-2.5 2.5a1.549 1.549 0 0 0-.455 1.121 1.771 1.771 0 0 1-.765 1.506 2.112 2.112 0 0 0-.3.247 1.555 1.555 0 0 0 0 2.2l5.433 5.433a1.554 1.554 0 0 0 2.2 0 1.988 1.988 0 0 0 .247-.3 1.773 1.773 0 0 1 1.507-.765 1.549 1.549 0 0 0 1.121-.455l2.5-2.5z" transform="translate(-489.421 -547.899)"/>
                    <path fill="url(#sbq2dor2pd)" d="M528.461 578.438l-6.918-6.918a2.373 2.373 0 0 1 0-3.355l18.282-18.282a5.3 5.3 0 0 1 7.49 0l2.783 2.783a5.3 5.3 0 0 1 0 7.49l-18.282 18.282a2.373 2.373 0 0 1-3.355 0z" transform="translate(-489.421 -547.899)"/>
                </g>
                <path fill="url(#4kfn0a0pde)" d="M548.153 562.8l2.272-2.273a5.656 5.656 0 0 0 0-8l-2.972-2.972a5.657 5.657 0 0 0-8 0l-2.272 2.272a1.473 1.473 0 0 0 0 2.081l8.891 8.891a1.473 1.473 0 0 0 2.081.001z" transform="translate(-489.421 -547.899)"/>
                <path fill="url(#mi8cso41gf)" d="M534.5 567.112l-1.632-1.632a1.093 1.093 0 0 1 0-1.546l9.908-9.908a1.093 1.093 0 0 1 1.546 0l1.632 1.632a1.093 1.093 0 0 1 0 1.546l-9.908 9.908a1.093 1.093 0 0 1-1.546 0z" transform="translate(-489.421 -547.899)"/>
            </g>
            <g/>
            <path fill="url(#ky3ji3ycdg)" d="M529.384 579.58l.01-.011z" transform="translate(-489.421 -547.899)"/>
        </g>
    </g>
</svg>
