<svg xmlns="http://www.w3.org/2000/svg" xmlns:xlink="http://www.w3.org/1999/xlink" width="40.123" height="40.123" viewBox="0 0 40.123 40.123"><defs><style>.a{fill:url(#a);}.b{fill:url(#b);}.c{fill:url(#c);}</style><radialGradient id="a" cx="1.082" cy="0.34" r="1.026" gradientUnits="objectBoundingBox"><stop offset="0" stop-color="#656d78"/><stop offset="1" stop-color="#3f4045"/></radialGradient><radialGradient id="b" cx="1.157" cy="-0.091" r="1.574" gradientTransform="translate(0)" gradientUnits="objectBoundingBox"><stop offset="0" stop-color="#656d78"/><stop offset="1" stop-color="#aab2bd"/></radialGradient><radialGradient id="c" cx="-0.144" cy="-0.11" r="1.347" gradientTransform="translate(0.089) scale(0.822 1)" gradientUnits="objectBoundingBox"><stop offset="0" stop-color="#656d78"/><stop offset="1" stop-color="#545c66"/></radialGradient></defs><g transform="translate(0 0)"><path class="a" d="M52.423,39.179a15.725,15.725,0,0,0,8.468,0A15.842,15.842,0,0,0,72.485,24.492c.011-.19.011-.38.011-.57a15.777,15.777,0,0,0-2.439-8.447h-.011a15.821,15.821,0,0,0-26.777,0h-.011a15.777,15.777,0,0,0-2.439,8.447c0,.19,0,.38.011.57A15.842,15.842,0,0,0,52.423,39.179ZM56.657,3.861a20.059,20.059,0,0,1,7.391,38.708,20.012,20.012,0,0,1-14.782,0A20.059,20.059,0,0,1,56.657,3.861Z" transform="translate(-36.596 -3.861)"/></g><g transform="translate(14.994 15.736)"><circle class="b" cx="5" cy="5" r="5" transform="translate(-0.202 -0.381)"/></g><g transform="translate(4.223 9.848)"><path class="c" d="M97.833,80.244a15.777,15.777,0,0,1,2.439,8.447c0,.19,0,.38-.011.57a15.832,15.832,0,0,0-11.593,14.687,15.725,15.725,0,0,1-8.468,0A15.833,15.833,0,0,0,68.607,89.261c-.011-.19-.011-.38-.011-.57a15.777,15.777,0,0,1,2.439-8.447h.012a52.331,52.331,0,0,1,12.564-1.766,66.28,66.28,0,0,1,14.211,1.766Zm-9.175,8.447a4.223,4.223,0,1,0-4.223,4.223A4.222,4.222,0,0,0,88.657,88.691Z" transform="translate(-68.596 -78.478)"/></g></svg>