<svg xmlns="http://www.w3.org/2000/svg" width="15.202" height="14.683" viewBox="0 0 15.202 14.683">
    <defs>
        <style>
            .cls-1{fill:#870565}
        </style>
    </defs>
    <g id="edit_2_" transform="translate(0 -.501)">
        <path id="Path_232686" d="M12.956 91.271a.682.682 0 0 0-.682.682v5.455a.683.683 0 0 1-.682.682H2.046a.682.682 0 0 1-.682-.682v-9.546a.682.682 0 0 1 .682-.682H7.5a.682.682 0 0 0 0-1.364H2.046A2.048 2.048 0 0 0 0 87.862v9.546a2.048 2.048 0 0 0 2.046 2.046h9.546a2.048 2.048 0 0 0 2.046-2.046v-5.455a.681.681 0 0 0-.682-.682zm0 0" class="cls-1" transform="translate(0 -84.269)"/>
        <path id="Path_232687" d="M182.391 73.657a.345.345 0 0 0-.093.174l-.482 2.411a.341.341 0 0 0 .335.408.324.324 0 0 0 .067-.007l2.41-.482a.339.339 0 0 0 .175-.094l5.4-5.4-2.41-2.41zm0 0" class="cls-1" transform="translate(-177.161 -65.595)"/>
        <path id="Path_232688" d="M394.8 1a1.706 1.706 0 0 0-2.41 0l-.944.944 2.41 2.41.944-.944a1.7 1.7 0 0 0 0-2.41zm0 0" class="cls-1" transform="translate(-380.097)"/>
    </g>
</svg>
