<svg xmlns="http://www.w3.org/2000/svg" xmlns:xlink="http://www.w3.org/1999/xlink" width="35.423" height="31.535" viewBox="0 0 35.423 31.535"><defs><style>.a{fill:url(#a);}.b{fill:url(#b);}.c{fill:url(#c);}.d{fill:url(#d);}.e{fill:url(#e);}.f{fill:url(#f);}.g{fill:url(#g);}</style><linearGradient id="a" y1="0.5" x2="1" y2="0.5" gradientUnits="objectBoundingBox"><stop offset="0" stop-color="#f8d224"/><stop offset="1" stop-color="#e151ab"/></linearGradient><linearGradient id="b" y1="0.5" x2="1" y2="0.5" gradientUnits="objectBoundingBox"><stop offset="0" stop-color="#f411a8"/><stop offset="1" stop-color="#ff1717"/></linearGradient><linearGradient id="c" y1="0.5" x2="1" y2="0.5" gradientUnits="objectBoundingBox"><stop offset="0" stop-color="#ffe259"/><stop offset="1" stop-color="#ffa751"/></linearGradient><linearGradient id="d" x1="0.128" y1="-0.538" x2="0.877" y2="0.961" gradientUnits="objectBoundingBox"><stop offset="0" stop-color="#ff1717"/><stop offset="1" stop-color="#ffc522"/></linearGradient><linearGradient id="e" x1="0.747" y1="0.736" x2="3.402" y2="3.275" xlink:href="#d"/><linearGradient id="f" x1="-0.517" y1="-0.473" x2="2.138" y2="2.067" xlink:href="#d"/><linearGradient id="g" y1="0.5" x2="1" y2="0.5" gradientUnits="objectBoundingBox"><stop offset="0" stop-color="#6211c1"/><stop offset="1" stop-color="#a507a5"/></linearGradient></defs><g transform="translate(-901.68 -545.72)"><path class="a" d="M925.91,575.18l-1.52,2.07H903.75a2.075,2.075,0,0,1,0-4.15h20.64Z"/><path class="b" d="M924.4,550.54a4.787,4.787,0,0,1-1.41,3.41l-7.65,7.64-7.64-7.64a4.822,4.822,0,0,1,6.82-6.82l.82.82.82-.82a4.825,4.825,0,0,1,8.24,3.41Z"/><path class="c" d="M932.5,558.62a8.116,8.116,0,0,1-5.77,7.76l-2.33,3.99-2.33-3.99a8.1,8.1,0,1,1,10.43-7.76Z"/><path class="d" d="M927.92,559.52a3.52,3.52,0,0,1-7.04,0h2.07a1.445,1.445,0,1,0,2.89,0Z"/><path class="e" d="M920.89,555.5h1.987v2.078H920.89Z"/><path class="f" d="M925.913,555.5H927.9v2.078h-1.987Z"/><path class="g" d="M935.028,573.1H924.4v4.151h10.63a2.076,2.076,0,0,0,0-4.151Z"/></g></svg>