<svg xmlns="http://www.w3.org/2000/svg" width="27.064" height="16.686" viewBox="0 0 27.064 16.686">
    <defs>
        <style>
            .cls-1{fill:#0a3f6e}
        </style>
    </defs>
    <g id="graduate-cap" transform="translate(-2118.362 -448.169)">
        <g id="Group_36003" transform="translate(2118.362 448.169)">
            <path id="Path_232672" d="M2145.425 460.269a1.014 1.014 0 0 0-.389-.792.517.517 0 0 1-.187-.412V453.1a.193.193 0 0 0 0-.361l-12.741-4.492a1.324 1.324 0 0 0-.881 0l-12.737 4.493a.192.192 0 0 0 0 .361l12.9 5.026a.779.779 0 0 0 .558 0l11.253-4.383a.556.556 0 0 1 .757.518v4.807a.506.506 0 0 1-.178.407 1.012 1.012 0 0 0 .224 1.737 8.422 8.422 0 0 0-.621 2.624 1.022 1.022 0 0 0 2.044 0 8.451 8.451 0 0 0-.466-2.221.581.581 0 0 1 .159-.614 1.026 1.026 0 0 0 .305-.733z" class="cls-1" transform="translate(-2118.362 -448.17)"/>
            <path id="Path_232673" d="M2124.052 457.285a.588.588 0 0 0-.8.548v2.555c0 2.685 4.032 4.871 9.11 5.016h.059c5.077-.145 9.11-2.329 9.11-5.016v-2.555a.588.588 0 0 0-.8-.548l-7.846 3.056a1.363 1.363 0 0 1-.985 0z" class="cls-1" transform="translate(-2119.086 -449.515)"/>
        </g>
    </g>
</svg>
