<svg xmlns="http://www.w3.org/2000/svg" xmlns:xlink="http://www.w3.org/1999/xlink" width="94" height="94" viewBox="0 0 94 94">
    <defs>
        <linearGradient id="linear-gradient" x1="-2.817" x2="-3.472" y1=".123" y2=".868" gradientUnits="objectBoundingBox">
            <stop offset="0" stop-color="#fff"/>
            <stop offset=".997" stop-color="#a0b3b8"/>
        </linearGradient>
        <linearGradient id="linear-gradient-2" x1=".469" x2=".5" y1="1.308" y2="-.022" gradientUnits="objectBoundingBox">
            <stop offset="0" stop-color="#5b268d"/>
            <stop offset="1" stop-color="#4386a1"/>
        </linearGradient>
        <linearGradient id="linear-gradient-3" x1="-514.035" x2="-513.977" y1="-27.483" y2="-27.483" gradientUnits="objectBoundingBox">
            <stop offset="0" stop-color="#434343"/>
            <stop offset="1"/>
        </linearGradient>
        <linearGradient id="linear-gradient-4" x1="-517.261" x2="-517.202" y1="-30.399" y2="-30.399" xlink:href="#linear-gradient-3"/>
        <linearGradient id="linear-gradient-5" x1="-1732.757" x2="-1732.519" y1="-186.853" y2="-186.853" xlink:href="#linear-gradient-3"/>
        <linearGradient id="linear-gradient-6" x1="-1648.233" x2="-1648.012" y1="-166.228" y2="-166.228" xlink:href="#linear-gradient-3"/>
        <linearGradient id="linear-gradient-7" x1="-1353.715" x2="-1353.542" y1="-739.444" y2="-739.444" xlink:href="#linear-gradient-3"/>
        <linearGradient id="linear-gradient-8" x1=".5" x2=".5" y2="1" gradientUnits="objectBoundingBox">
            <stop offset="0" stop-color="#6211c1"/>
            <stop offset="1" stop-color="#a507a5"/>
        </linearGradient>
        <linearGradient id="linear-gradient-9" x2="1.76" y2=".813" xlink:href="#linear-gradient-8"/>
        <linearGradient id="linear-gradient-10" x1=".184" x2=".5" y1=".756" y2="-.572" gradientUnits="objectBoundingBox">
            <stop offset="0" stop-color="#ff1717"/>
            <stop offset="1" stop-color="#ffc522"/>
        </linearGradient>
        <linearGradient id="linear-gradient-11" x1=".5" x2=".5" y1="0" y2="1" xlink:href="#linear-gradient-10"/>
        <linearGradient id="linear-gradient-19" x1="-1389.021" x2="-1388.423" y1="-62.726" y2="-62.726" gradientUnits="objectBoundingBox">
            <stop offset="0" stop-color="#a9076b"/>
            <stop offset="1" stop-color="#62045f"/>
        </linearGradient>
        <linearGradient id="linear-gradient-20" x1="-1855.369" x2="-1854.165" y1="-100.135" y2="-100.135" xlink:href="#linear-gradient-19"/>
        <linearGradient id="linear-gradient-21" x1="-1901.843" x2="-1900.533" y1="-99.581" y2="-99.581" xlink:href="#linear-gradient-19"/>
        <linearGradient id="linear-gradient-22" x1="-1664.726" x2="-1663.808" y1="-100.218" y2="-100.218" xlink:href="#linear-gradient-19"/>
        <linearGradient id="linear-gradient-23" x1="-1556.107" x2="-1555.322" y1="-97.608" y2="-97.608" xlink:href="#linear-gradient-19"/>
        <linearGradient id="linear-gradient-24" x1="1.154" x2="7.788" y1=".657" y2="2.196" xlink:href="#linear-gradient-10"/>
        <linearGradient id="linear-gradient-25" x1=".25" x2="3.234" y1=".519" y2="2.63" xlink:href="#linear-gradient-10"/>
        <linearGradient id="linear-gradient-26" x1="-.176" x2="2.802" y1=".211" y2="2.14" xlink:href="#linear-gradient-10"/>
        <linearGradient id="linear-gradient-27" x1="-.592" x2="2.176" y1="-.258" y2="1.908" xlink:href="#linear-gradient-10"/>
        <linearGradient id="linear-gradient-28" x1="-.003" x2="1" y1=".502" y2=".502" xlink:href="#linear-gradient-19"/>
        <linearGradient id="linear-gradient-29" x1=".002" x2="1.003" y1=".5" y2=".5" xlink:href="#linear-gradient-10"/>
        <linearGradient id="linear-gradient-30" x1="-.053" x2=".939" y1=".483" y2=".483" xlink:href="#linear-gradient-10"/>
        <linearGradient id="linear-gradient-31" x1="0" x2="1.009" y1=".495" y2=".495" xlink:href="#linear-gradient-10"/>
        <radialGradient id="radial-gradient" cx=".741" cy=".69" r=".81" gradientTransform="matrix(-1 0 0 1 -7.037 0)" gradientUnits="objectBoundingBox">
            <stop offset=".262" stop-color="#f1f4f6"/>
            <stop offset=".579" stop-color="#e0e6eb"/>
            <stop offset=".997" stop-color="#ced8e0"/>
        </radialGradient>
        <style>
            .cls-12{fill:url(#linear-gradient-11)}.cls-26{fill:#fff}
        </style>
    </defs>
    <g id="Group_30909" transform="translate(-54 12.868)">
        <g id="Group_35498" transform="translate(54 -12.868)">
            <path id="Path_191911" fill="url(#linear-gradient)" d="M1122.436 848.1a47 47 0 1 0 47-47 47 47 0 0 0-47 47z" transform="translate(-1122.436 -801.097)"/>
            <path id="Path_191912" fill="url(#radial-gradient)" d="M1123.631 847.686a45.394 45.394 0 1 0 45.393-45.4 45.391 45.391 0 0 0-45.393 45.4z" transform="translate(-1122.025 -800.686)"/>
        </g>
        <g id="Layer_2" transform="translate(66.334 4.797)">
            <g id="Layer_1">
                <g id="Group_30912">
                    <g id="Group_30909-2">
                        <g id="Group_30906">
                            <g id="Group_30877" transform="translate(10.452 11.765)">
                                <g id="Group_30862" transform="translate(0 2.303)">
                                    <g id="Group_30861">
                                        <path id="Path_191986" fill="url(#linear-gradient-2)" d="M32.664 9.431c-7.153-3.434-17.114.733-22.3 5.812A13.072 13.072 0 0 0 5.876 25.7a12.715 12.715 0 0 0 5.6 8.637c3.684 2.682 8.19 3.308 12.518 3.684a53.326 53.326 0 0 0 12.858-.161c7.493-1.162 16.989-7.153 15.057-15.987-1-4.578-5.025-8.083-8.941-10.408a23.015 23.015 0 0 0-13.54-3.572c-.84 0-1.2 1.431-.215 1.609 6.76 1.305 13.537 3.809 17.74 9.621 5.2 7.153-2.611 13.287-9.245 14.736a39.342 39.342 0 0 1-9.728.59A48.284 48.284 0 0 1 17.589 33.3c-3.183-.84-6.474-2.253-8.208-5.526a8.548 8.548 0 0 1 1.431-9.585 22.014 22.014 0 0 1 9.853-6.509c3.934-1.395 7.69-1.18 11.767-1.323a.465.465 0 0 0 .232-.858z" transform="translate(-5.863 -7.863)"/>
                                    </g>
                                </g>
                                <g id="Group_30864" transform="translate(5.366 7.771)">
                                    <g id="Group_30863">
                                        <path id="Path_191987" fill="url(#linear-gradient-3)" d="M20.964 12.1c-5.007-2-10.6 2.5-11.749 7.26a7.153 7.153 0 0 0 1.305 6.8 7.672 7.672 0 0 0 7.153 1.788c5.15-1.2 8.333-6.992 7.511-12.053a5.794 5.794 0 0 0-4.328-4.828 4.346 4.346 0 0 0-5.2 2.79.608.608 0 0 0 .447.733.59.59 0 0 0 .429 0 3.988 3.988 0 0 1 4.882-.5 5.222 5.222 0 0 1 1.037 5.24 7.439 7.439 0 0 1-6.366 6.044 4.042 4.042 0 0 1-4.65-2.843 7.01 7.01 0 0 1 .912-4.739C14.133 14.5 17.28 14 20.732 13.709a.858.858 0 0 0 .894-.858.894.894 0 0 0-.59-.769z" transform="translate(-8.863 -10.921)"/>
                                    </g>
                                </g>
                                <g id="Group_30866" transform="translate(24.044 7.634)">
                                    <g id="Group_30865">
                                        <path id="Path_191988" fill="url(#linear-gradient-4)" d="M24.533 12.571c-1.305-1.431-3.469.179-4.274 1.395a7.8 7.8 0 0 0-.161 7.153 9.621 9.621 0 0 0 12.715 4.721c4.989-2.629 2.682-9.3-.733-12.25-3.04-2.647-10.1-4.632-12.2.179a.8.8 0 0 0 .322 1.109.769.769 0 0 0 .787 0 8.029 8.029 0 0 1 7.922 0c2.2 1.252 6.027 6.027 3 8.316-2.682 2.039-7.278.358-9.031-2.11a6.491 6.491 0 0 1-1.252-4.292c.215-2.289 1.7-2.253 2.879-3.577a.358.358 0 0 0 0-.536z" transform="translate(-19.308 -10.844)"/>
                                    </g>
                                </g>
                                <g id="Group_30868" transform="translate(11.405 15.588)">
                                    <g id="Group_30867">
                                        <path id="Path_191989" fill="url(#linear-gradient-5)" d="M14.261 19.348a2.2 2.2 0 0 0 1.449-.608 2.235 2.235 0 0 0 .59-1.431 2.039 2.039 0 0 0-3.469-1.431 2.235 2.235 0 0 0-.59 1.431 2.039 2.039 0 0 0 .59 1.431 2.164 2.164 0 0 0 1.43.608z" transform="translate(-12.24 -15.292)"/>
                                    </g>
                                </g>
                                <g id="Group_30870" transform="translate(30.075 14.887)">
                                    <g id="Group_30869">
                                        <path id="Path_191990" fill="url(#linear-gradient-6)" d="M24.862 19.264a2.253 2.253 0 0 0 2.182-2.182l-.089-.59a2.11 2.11 0 0 0-.554-.966l-.447-.34a2.11 2.11 0 0 0-1.091-.286 2.217 2.217 0 0 0-2.182 2.182v.572a2.021 2.021 0 0 0 .572 1L23.7 19a2.2 2.2 0 0 0 1.109.3z" transform="translate(-22.68 -14.9)"/>
                                    </g>
                                </g>
                                <g id="Group_30872" transform="translate(20.239 25.879)">
                                    <g id="Group_30871">
                                        <path id="Path_191991" fill="url(#linear-gradient-7)" d="M17.252 21.2c0 .912 1.5 1.288 2.235 1.449a4.22 4.22 0 0 0 3.237-.662.127.127 0 0 0-.161-.2 8.28 8.28 0 0 1-3.183-.087c-.68-.143-1.395-.823-2.074-.608a.2.2 0 0 0-.125.161z" transform="translate(-17.18 -21.047)"/>
                                    </g>
                                </g>
                                <g id="Group_30874" transform="translate(7.739)">
                                    <g id="Group_30873">
                                        <path id="Path_191992" fill="url(#linear-gradient-8)" d="M18.2 6.87c-2.629-.823-7.851 0-8.012 3.469a.554.554 0 0 0 .536.554h.143c1.055-.411 1.788-1.18 2.843-1.681a5.848 5.848 0 0 1 3.97-.393.984.984 0 0 0 1.2-.733 1.019 1.019 0 0 0-.662-1.18z" transform="translate(-10.19 -6.575)"/>
                                    </g>
                                </g>
                                <g id="Group_30876" transform="translate(29.678 .039)">
                                    <g id="Group_30875">
                                        <path id="Path_191993" fill="url(#linear-gradient-9)" d="M23.087 8.891a6.134 6.134 0 0 0 1.9 0 8.047 8.047 0 0 1 2.611.393 9.353 9.353 0 0 0 3.577.894.322.322 0 0 0 .25-.322c-.107-3.29-6.813-4.149-8.727-2.307a.769.769 0 0 0 0 1.109.751.751 0 0 0 .322.2z" transform="translate(-22.458 -6.597)"/>
                                    </g>
                                </g>
                            </g>
                            <g id="Group_30903" transform="translate(49.519)">
                                <g id="Group_30879" transform="translate(3.258 5.402)">
                                    <g id="Group_30878">
                                        <path id="Path_191994" fill="url(#linear-gradient-10)" d="M30.764 10.479c0-1.109-.536-2-.161-3.165a4.453 4.453 0 0 1 2.307-2.683c2.45-1.2 6.6-.2 6.921 2.915.3 2.825-2.468 3.755-4.56 4.614a5.955 5.955 0 0 0-1.95 1.14c-.572.572-1.788 3.29-2.629 1.377a.572.572 0 0 0-.733-.393.59.59 0 0 0-.411.7 1.967 1.967 0 0 0 2.361 1.466h.161a2.235 2.235 0 0 0 1.27-1.18 4.2 4.2 0 0 1 2.4-2.164 9.3 9.3 0 0 0 4.149-2.378 4.185 4.185 0 0 0 .769-4.167A6.027 6.027 0 0 0 32.373 3.7a5.186 5.186 0 0 0-2.79 3.72c-.161 1.019 0 2.754 1.109 3.112z" transform="translate(-29.53 -3.018)"/>
                                    </g>
                                </g>
                                <g id="Group_30881" transform="translate(4.084 15.8)">
                                    <g id="Group_30880">
                                        <path id="Path_191995" d="M30.006 9.311a1.413 1.413 0 0 0 .358.59 1.109 1.109 0 0 0 .322.25h.322a.519.519 0 0 0 .536-.232.483.483 0 0 0 0-.59l-.161-.161a1.019 1.019 0 0 0-.3-.036 2.7 2.7 0 0 0-.5-.268.413.413 0 0 0-.572.483z" transform="translate(-29.992 -8.832)"/>
                                    </g>
                                </g>
                                <g id="Group_30883" transform="translate(4.516 14.244)">
                                    <g id="Group_30882">
                                        <path id="Path_191996" d="M30.3 8.835a2.432 2.432 0 0 0 1.395 1.127 1.556 1.556 0 0 0 1.538-.447.322.322 0 0 0-.107-.465 1.109 1.109 0 0 0-.465-.107 2.969 2.969 0 0 1-.554-.215 2.307 2.307 0 0 1-.894-.59c-.465-.483-1.2.125-.912.7z" transform="translate(-30.234 -7.962)"/>
                                    </g>
                                </g>
                                <g id="Group_30885" transform="translate(5.886 9.959)">
                                    <g id="Group_30884">
                                        <path id="Path_191997" d="M31.751 9.275c.358-.376.268-.876.3-1.395s0-1.323 0-1.967l-.447.25c.751.358 0 1.931 1.019 2.057a1.055 1.055 0 0 0 .823-.411c.3-.286.751-1.162 1.234-1.055V6.5c-.465.376-.894.84-1.323 1.252s0 .948.5.876a2.271 2.271 0 0 0 1.5-.536.34.34 0 0 0 0-.5 2.235 2.235 0 0 0-1.7 0l.5.894a3.076 3.076 0 0 0 .841-1.913.161.161 0 0 0-.143-.143 2.11 2.11 0 0 0-1 0 4.22 4.22 0 0 0-.966.715c-.322.25-.107.125-.107-.232a2.45 2.45 0 0 0-.268-.572 1.162 1.162 0 0 0-.59-.733.3.3 0 0 0-.429.125A5.526 5.526 0 0 0 31 7.755a2.008 2.008 0 0 0 .393 1.52.268.268 0 0 0 .376 0z" transform="translate(-31 -5.566)"/>
                                    </g>
                                </g>
                                <g id="Group_30902">
                                    <g id="Group_30887" transform="translate(13.751 2.328)">
                                        <g id="Group_30886">
                                            <path id="Path_191998" d="M36.117 3.089a1.27 1.27 0 0 0 .358-.215l.232-.322c0-.089.179-.179.25-.286a.733.733 0 0 0 .107-.608v.268a.429.429 0 0 0-.179-.59.5.5 0 0 0-.322 0h.143c-.483-.161-.787.215-1.019.572a1.681 1.681 0 0 0-.25.465.984.984 0 0 0 0 .554.429.429 0 0 0 .536.286z" class="cls-12" transform="translate(-35.398 -1.299)"/>
                                        </g>
                                    </g>
                                    <g id="Group_30889" transform="translate(16.389 7.302)">
                                        <g id="Group_30888">
                                            <path id="Path_191999" d="M37.3 5.547a1.788 1.788 0 0 0 .823 0 4.65 4.65 0 0 0 .769-.376.59.59 0 0 0 .286-.5.84.84 0 0 0 0-.3.572.572 0 0 0-.519-.286 3.577 3.577 0 0 0-.858.125 2.11 2.11 0 0 0-.769.465.465.465 0 0 0-.107.554.5.5 0 0 0 .465.322z" class="cls-12" transform="translate(-36.873 -4.08)"/>
                                        </g>
                                    </g>
                                    <g id="Group_30891" transform="translate(16.182 12.756)">
                                        <g id="Group_30890">
                                            <path id="Path_192000" d="M37.191 8.292a2.378 2.378 0 0 0 1.162.232.572.572 0 0 0 .536-.411.554.554 0 0 0-.25-.626 2.951 2.951 0 0 0-1.288-.358.592.592 0 0 0-.161 1.162z" class="cls-12" transform="translate(-36.757 -7.13)"/>
                                        </g>
                                    </g>
                                    <g id="Group_30893" transform="translate(12.795 16.263)">
                                        <g id="Group_30892">
                                            <path id="Path_192001" d="M35 10.126a2.271 2.271 0 0 0 .322.483l.143.143.089.125a.8.8 0 1 0 1.341-.84 1.788 1.788 0 0 0-1.127-.93.733.733 0 0 0-.858.519.679.679 0 0 0 0 .5z" class="cls-12" transform="translate(-34.863 -9.091)"/>
                                        </g>
                                    </g>
                                    <g id="Group_30895" transform="translate(8.944 18.568)">
                                        <g id="Group_30894">
                                            <path id="Path_192002" d="M32.764 10.756a1.217 1.217 0 0 0 0 .25.733.733 0 0 0 .089.376.662.662 0 0 0 0 .25v-.143a1.2 1.2 0 0 0 0 .34.536.536 0 0 0 .68.215.93.93 0 0 0 .519-.84.8.8 0 0 0-.787-.823.554.554 0 0 0-.554.411z" class="cls-12" transform="translate(-32.71 -10.38)"/>
                                        </g>
                                    </g>
                                    <g id="Group_30897" transform="translate(8.375)">
                                        <g id="Group_30896">
                                            <path id="Path_192003" d="M33.587 2.757c.876-.536.662-1.931 0-2.611a.483.483 0 0 0-.7 0v.089a3.379 3.379 0 0 0-.411.984 1.574 1.574 0 0 0 .107 1.27.751.751 0 0 0 1 .268z" class="cls-12" transform="translate(-32.392 .003)"/>
                                        </g>
                                    </g>
                                    <g id="Group_30899" transform="translate(2.523 2.268)">
                                        <g id="Group_30898">
                                            <path id="Path_192004" d="M30.694 2.58a1.788 1.788 0 0 0-.2-.536 2.826 2.826 0 0 0-.411-.393c-.2-.215-.465-.536-.787-.3s-.143.608 0 .894a1.18 1.18 0 0 0 .68.948.536.536 0 0 0 .715-.286.519.519 0 0 0 0-.322z" class="cls-12" transform="translate(-29.119 -1.265)"/>
                                        </g>
                                    </g>
                                    <g id="Group_30901" transform="translate(0 7.999)">
                                        <g id="Group_30900">
                                            <path id="Path_192005" d="M27.979 5.418a1.663 1.663 0 0 0 1.019 0 .393.393 0 0 0 .376-.268.411.411 0 0 0-.174-.43 2.235 2.235 0 0 0-.966-.25.536.536 0 0 0-.5.393.519.519 0 0 0 .232.59z" class="cls-12" transform="translate(-27.708 -4.47)"/>
                                        </g>
                                    </g>
                                </g>
                            </g>
                            <g id="Group_30904" transform="translate(9.462 48.612)">
                                <path id="Path_192006" fill="url(#linear-gradient-19)" d="M9.084 27.18a2.7 2.7 0 0 1 1.252.3c.429.215.626.447.626.715a.559.559 0 0 1-.5.608 2.146 2.146 0 0 1-.644-.161 1.681 1.681 0 0 0-.769-.232 2.307 2.307 0 0 0-1.9 1 4.256 4.256 0 0 0-.749 2.581 3.952 3.952 0 0 0 .519 2.021 1.431 1.431 0 0 0 1.216.876 1.4 1.4 0 0 0 1.109-.465 1.609 1.609 0 0 0 .393-1.055 2.915 2.915 0 0 0 0-.554.715.715 0 0 0-.215-.393.7.7 0 0 0-.483-.179 1.18 1.18 0 0 1-.608-.161.429.429 0 0 1-.286-.358.876.876 0 0 1 .143-.411.536.536 0 0 1 .358-.25 2.736 2.736 0 0 1 1.2.2 5.365 5.365 0 0 1 .465.3.787.787 0 0 1 .268.393c0 .179.125.322.161.447a3.362 3.362 0 0 1 .089.59V34.6a2.7 2.7 0 0 1-.125 1.127.536.536 0 0 1-.393.179.465.465 0 0 1-.376-.107.912.912 0 0 1-.143-.519 2.682 2.682 0 0 1-.787.465 2.307 2.307 0 0 1-.858.179 2.218 2.218 0 0 1-1.931-1.216 5.454 5.454 0 0 1-.8-2.969 5.544 5.544 0 0 1 .3-1.788 4.739 4.739 0 0 1 .823-1.5 3.362 3.362 0 0 1 2.647-1.27z" transform="translate(-5.309 -27.18)"/>
                                <path id="Path_192007" fill="url(#linear-gradient-20)" d="M9.747 34.251a.429.429 0 0 1-.179.34.644.644 0 0 1-.411.143.25.25 0 0 1-.286-.268v-4.9a.733.733 0 0 1 .519-.662 3.13 3.13 0 0 1 1.341-.232 2.539 2.539 0 0 1 1.484.429 1.037 1.037 0 0 1 .393 1.645 1.985 1.985 0 0 1-.536.554 6.08 6.08 0 0 1-.8.5 3.577 3.577 0 0 1-.644.322 9.12 9.12 0 0 1 1.484 1.145q.644.626.644.966a.465.465 0 0 1-.322.465h-.286c-.107 0-.232 0-.376-.286a7.154 7.154 0 0 0-.84-.8 14.879 14.879 0 0 0-1.216-.948v1.556zm0-2.754a3.308 3.308 0 0 0 1.305-.429c.59-.286.894-.554.912-.787a.554.554 0 0 0-.393-.536 1.913 1.913 0 0 0-.84-.179 3.577 3.577 0 0 0-.966.125v1.788z" transform="translate(-2.503 -26.007)"/>
                                <path id="Path_192008" fill="url(#linear-gradient-21)" d="M12.823 31.75v1.788a2.629 2.629 0 0 1 0 .376h2.271a.33.33 0 0 1 .376.34.571.571 0 0 1-.519.554h-2.557a.376.376 0 0 1-.34-.161.662.662 0 0 1-.125-.358 2.646 2.646 0 0 1 0-.393v-2.289a.322.322 0 0 1-.179-.286.465.465 0 0 1 .161-.321v-1.789c0-.322.2-.483.59-.5h2.682a.377.377 0 0 1 .429.393.429.429 0 0 1-.161.358 4.667 4.667 0 0 1-1.645.179h-.966v1.323h2c.268 0 .411.143.411.358a.376.376 0 0 1-.143.3.429.429 0 0 1-.268.161h-1.963z" transform="translate(-.232 -25.974)"/>
                                <path id="Path_192009" fill="url(#linear-gradient-22)" d="M15.446 34.359c0 .215-.179.34-.465.34s-.411-.125-.411-.358a12.858 12.858 0 0 1 .769-3.147 8.941 8.941 0 0 1 .751-1.788c.286-.483.554-.715.823-.715a.411.411 0 0 1 .358.25 9.711 9.711 0 0 1 .572 1.127 11.428 11.428 0 0 1 .7 1.9c.179.662.393 1.466.608 2.414a.3.3 0 0 1-.125.268.411.411 0 0 1-.286.107.483.483 0 0 1-.519-.376l-.465-1.788a7.153 7.153 0 0 1-1.788-.179 15.415 15.415 0 0 0-.519 1.949zm1.431-4.489a7.153 7.153 0 0 0-.715 1.645 5.025 5.025 0 0 0 1.359.143 10.73 10.73 0 0 0-.644-1.788z" transform="translate(1.991 -25.99)"/>
                                <path id="Path_192010" fill="url(#linear-gradient-23)" d="M20.485 29.488v4.9a.34.34 0 0 1-.161.322.662.662 0 0 1-.358.125c-.232 0-.34-.125-.34-.376v-2.717a14.548 14.548 0 0 1 .089-2.146h-1.608c-.536 0-.411-.107-.411-.34a.554.554 0 0 1 .161-.322.429.429 0 0 1 .322-.161l4.113-.143a.343.343 0 0 1 .358.34c0 .161-.411.554-1.234.554z" transform="translate(4.445 -26.037)"/>
                            </g>
                            <g id="Group_30905" transform="translate(38.874 46.591)">
                                <path id="Path_192011" fill="url(#linear-gradient-24)" d="M23.641 35.832a.644.644 0 0 1 0 .2 1.5 1.5 0 0 0 0 .179 2.521 2.521 0 0 1-.465.93 1.055 1.055 0 0 1-.876.429.608.608 0 0 1-.34-.161 1.216 1.216 0 0 1-.2-.751 3.164 3.164 0 0 1 0-.411V36.1a19.359 19.359 0 0 1 .286-2.557v-.411c.089-.608.143-1.055.179-1.359l-.036-.447v-.143a1.18 1.18 0 0 0 0-.25.519.519 0 0 1 0-.286 3.468 3.468 0 0 1 0-.429.268.268 0 0 0 0-.125 1.788 1.788 0 0 1 .519-1.037 1.27 1.27 0 0 1 .823-.447.572.572 0 0 1 .286 0 .769.769 0 0 1 .322.733v1.627a7.5 7.5 0 0 1-.089 1.395 11.069 11.069 0 0 1-.161 1.788v.68l-.089.715v.161a.232.232 0 0 1 0 .107zM22.3 27.749a.876.876 0 0 1 0-.215 1.788 1.788 0 0 1 .376-.751 1.914 1.914 0 0 1 .626-.572 1.18 1.18 0 0 1 .554-.161.59.59 0 0 1 .447.2.644.644 0 0 1 .125.393 1.592 1.592 0 0 1-.125.5 2.325 2.325 0 0 1-.322.608 1.967 1.967 0 0 1-.626.465.894.894 0 0 1-.483 0 .644.644 0 0 1-.3-.125.572.572 0 0 1-.215-.5z" transform="translate(-21.756 -26.05)"/>
                                <path id="Path_192012" fill="url(#linear-gradient-25)" d="M28.919 31.034a.3.3 0 0 1 0 .179 8.727 8.727 0 0 1-1.788 2.4 19.672 19.672 0 0 1-2.79 2.092l-.358.179a1.4 1.4 0 0 1-.393 0 .59.59 0 0 1-.34-.107.393.393 0 0 1-.25-.232.537.537 0 0 1 .25-.411h.089v-6.746a.3.3 0 0 1 0-.125v-.143a.554.554 0 0 1 .34-.429 1.413 1.413 0 0 1 .715-.179.644.644 0 0 1 .393.089.322.322 0 0 1 .161.286v.143a6.492 6.492 0 0 0 3.487 2.7.626.626 0 0 1 .25.107.2.2 0 0 1 .232.2zm-1.788.554a5.6 5.6 0 0 1-2.146-1.288v3.577a9.764 9.764 0 0 0 2.182-2.271z" transform="translate(-20.776 -24.9)"/>
                                <path id="Path_192013" fill="url(#linear-gradient-26)" d="M31.86 35.106a.68.68 0 0 1-.25.465.984.984 0 0 1-.715.286 1.144 1.144 0 0 1-.358 0 4.417 4.417 0 0 0-1.27-.232 3.773 3.773 0 0 0-2.039.644 1.681 1.681 0 0 1-.411.179 1.985 1.985 0 0 1-.447.089.662.662 0 0 1-.322-.089.25.25 0 0 1-.125-.232.519.519 0 0 1 0-.161c.25-.715.465-1.359.608-1.931a9.568 9.568 0 0 0 .322-1.788c0-.8.107-1.377.107-1.788a3.738 3.738 0 0 0-.572-2.253.376.376 0 0 1 0-.215c0-.179.125-.34.376-.5a1.341 1.341 0 0 1 .715-.215.393.393 0 0 1 .34.107.358.358 0 0 1 .232.2 4.113 4.113 0 0 0 .912 1.484 2.359 2.359 0 0 0 1.806.608h.25a.537.537 0 0 1 .322.107.322.322 0 0 1 .125.268.715.715 0 0 1-.161.376.858.858 0 0 1-.393.268 3.773 3.773 0 0 1-1.091.179 3.022 3.022 0 0 1-1.252-.268V31.8l-.089.84a6.709 6.709 0 0 0 1.019-.161h.143c.34 0 .519.125.519.358a.5.5 0 0 1-.268.429 1.2 1.2 0 0 1-.536.232l-1.127.179a10.928 10.928 0 0 1-.322 1.216 5.1 5.1 0 0 1 1.788-.322 5.365 5.365 0 0 1 1.985.376.25.25 0 0 1 .179.159z" transform="translate(-18.477 -25.02)"/>
                                <path id="Path_192014" fill="url(#linear-gradient-27)" d="M34.439 30.359c.2.787.429 1.788.7 2.718s.429 1.609.5 1.931a.3.3 0 0 1 0 .125.662.662 0 0 1-.358.554 1.359 1.359 0 0 1-.751.215.59.59 0 0 1-.483-.161 11.175 11.175 0 0 0-.8-.787l-1.109-.912-.447-.358-.858 1.788a.984.984 0 0 1-.483.358 1.663 1.663 0 0 1-.715.161c-.25 0-.376 0-.376-.232a.519.519 0 0 1 0-.161c.268-.662.59-1.413.948-2.253l.268-.68-.322-.322a.268.268 0 0 1-.089-.215.554.554 0 0 1 .286-.429 1.466 1.466 0 0 1 .644-.268c.429-1.019.823-2.057 1.2-3.112a.554.554 0 0 1 .34-.322 2.181 2.181 0 0 1 .608-.179h.376c.25 0 .376.107.411.286a19.005 19.005 0 0 1 .51 2.255zm-2.057 1.52l-.089.268.912.787-.089-.393a13.761 13.761 0 0 0-.376-1.574z" transform="translate(-15.852 -24.655)"/>
                            </g>
                            <path id="Path_220240" fill="url(#linear-gradient-28)" d="M8.283 17.046a5.365 5.365 0 0 1-3.29-.25 5.365 5.365 0 0 1-2.468-2.217 7.833 7.833 0 0 1-1.109-6.188A3.273 3.273 0 0 1 5.726 6.3a4.542 4.542 0 0 1 3.058 4.56 7.708 7.708 0 0 1-.948 3.577 7.958 7.958 0 0 0-1.574 3.684.536.536 0 0 0 .536.536 5.544 5.544 0 0 0 1.037-.268.25.25 0 0 0 0-.483 5.866 5.866 0 0 0-.894-.3l.376.662a7.922 7.922 0 0 1 .769-1.931c.358-.608.733-1.2 1.037-1.788a8.476 8.476 0 0 0 .84-3.809 5.758 5.758 0 0 0-3.808-5.55A4.506 4.506 0 0 0 .5 7.425a8.6 8.6 0 0 0 .751 7.3c1.341 2.432 4.56 4.524 7.153 2.718a.215.215 0 0 0-.161-.393z" transform="translate(-.018 3.865)"/>
                            <path id="Path_220241" fill="url(#linear-gradient-29)" d="M6.66 12.556c.125-.7-.626-.876-1.18-.787a4.31 4.31 0 0 0-2.128 1.162 2.021 2.021 0 0 0-.447 2.074 1.574 1.574 0 0 0 2 .769 3.577 3.577 0 0 0 2.074-1.538 1.323 1.323 0 0 0-.779-1.787 2.629 2.629 0 0 0-2.521.715 3.791 3.791 0 0 0-1.466 2.128 2.271 2.271 0 0 0 .751 2.271 1.788 1.788 0 0 0 2.253.232l-.554-.715A4.292 4.292 0 0 0 3.1 20.1a2.325 2.325 0 0 0 .59 1.431 1.788 1.788 0 0 0 .608.393c.161 0 .7 0 .787.2s-.715 1.019-.876 1.288a2.307 2.307 0 0 0-.3 1.645 1.913 1.913 0 0 0 .93 1.341 1.788 1.788 0 0 0 1.571.102.161.161 0 0 0 0-.3 1.609 1.609 0 0 1-1.31-2.217c.215-.411.644-.644.876-1.055a1.341 1.341 0 0 0 0-1.27 1.27 1.27 0 0 0-1.055-.519.948.948 0 0 1-.8-.733c-.34-1.019.554-1.931 1.18-2.611.358-.358-.107-1.019-.554-.715a1 1 0 0 1-1.27-.215 1.377 1.377 0 0 1-.322-1.5 3.255 3.255 0 0 1 1.163-1.485c.376-.268 1.592-.984 1.788-.179.143.483-.93 1.037-1.288 1.2s-1.2.179-1.18-.554.59-1.058 1.091-1.347 1.2-.751 1.52-.322c0 .125.322.143.358 0z" transform="translate(1.659 9.267)"/>
                            <path id="Path_220242" fill="url(#linear-gradient-30)" d="M4.145 10.556a11.105 11.105 0 0 0-.393-1.788.519.519 0 0 0-.483-.358h-.161a.519.519 0 0 0-.232.554c0 .572.143 1.145.179 1.788a3.9 3.9 0 0 0 .089 1c.089.322.3.787.7.68s.483-.59.483-.912a7.153 7.153 0 0 0-.179-.966z" transform="translate(2.225 6.635)"/>
                            <path id="Path_220243" fill="url(#linear-gradient-31)" d="M4.926 8.467A1.788 1.788 0 0 0 3.961 6.5a2.343 2.343 0 0 0-2.629.662.626.626 0 0 0 .125.948 3.845 3.845 0 0 0 .823.39 1.145 1.145 0 0 0 .894.894 1.484 1.484 0 0 0 1.752-.927zm-1.305-.858zm.125.143zm-.411.519zm.536-.161v.107h-.322z" transform="translate(.889 5.004)"/>
                            <path id="Path_220248" d="M2.4 7.458V7.44z" class="cls-26" transform="translate(1.86 5.871)"/>
                        </g>
                    </g>
                </g>
            </g>
        </g>
    </g>
</svg>
