<svg xmlns="http://www.w3.org/2000/svg" xmlns:xlink="http://www.w3.org/1999/xlink" width="94" height="94" viewBox="0 0 94 94">
    <defs>
        <linearGradient id="linear-gradient" x1="-2.817" x2="-3.472" y1=".123" y2=".868" gradientUnits="objectBoundingBox">
            <stop offset="0" stop-color="#fff"/>
            <stop offset=".997" stop-color="#a0b3b8"/>
        </linearGradient>
        <linearGradient id="linear-gradient-2" x1=".5" x2=".5" y2="1" gradientUnits="objectBoundingBox">
            <stop offset="0" stop-color="#00f99f"/>
            <stop offset="1" stop-color="#00d8fc"/>
        </linearGradient>
        <linearGradient id="linear-gradient-7" x1=".5" x2=".5" y2="1" gradientUnits="objectBoundingBox">
            <stop offset="0" stop-color="#5b268d"/>
            <stop offset="1" stop-color="#4386a1"/>
        </linearGradient>
        <linearGradient id="linear-gradient-8" x1=".5" x2=".5" y2="1" gradientUnits="objectBoundingBox">
            <stop offset="0" stop-color="#6211c1"/>
            <stop offset="1" stop-color="#a507a5"/>
        </linearGradient>
        <linearGradient id="linear-gradient-10" x1="-1632.414" x2="-1632.135" y1="-242.474" y2="-242.474" xlink:href="#linear-gradient-8"/>
        <linearGradient id="linear-gradient-13" x1=".5" x2=".5" y2="1" gradientUnits="objectBoundingBox">
            <stop offset="0" stop-color="#ff1717"/>
            <stop offset="1" stop-color="#ffc522"/>
        </linearGradient>
        <linearGradient id="linear-gradient-20" x1="-1120.113" x2="-1119.947" y1="-93.936" y2="-93.936" gradientUnits="objectBoundingBox">
            <stop offset="0" stop-color="#a9076b"/>
            <stop offset="1" stop-color="#62045f"/>
        </linearGradient>
        <linearGradient id="linear-gradient-21" x1="-971.541" x2="-971.401" y1="-69.482" y2="-69.482" xlink:href="#linear-gradient-20"/>
        <linearGradient id="linear-gradient-23" x1="-998.677" x2="-998.532" y1="-75.832" y2="-75.832" xlink:href="#linear-gradient-20"/>
        <linearGradient id="linear-gradient-24" x1="-809.398" x2="-808.788" y1="-53.788" y2="-53.788" xlink:href="#linear-gradient-7"/>
        <linearGradient id="linear-gradient-25" x1="-1108.667" x2="-1107.38" y1="-79.858" y2="-79.858" xlink:href="#linear-gradient-7"/>
        <linearGradient id="linear-gradient-26" x1="-1201.211" x2="-1199.639" y1="-101.336" y2="-101.336" xlink:href="#linear-gradient-7"/>
        <linearGradient id="linear-gradient-27" x1="-1135.618" x2="-1134.266" y1="-63.548" y2="-63.548" xlink:href="#linear-gradient-7"/>
        <linearGradient id="linear-gradient-28" x1="-920.689" x2="-919.857" y1="-53.82" y2="-53.82" xlink:href="#linear-gradient-7"/>
        <linearGradient id="linear-gradient-29" x1=".31" x2="11.202" y1=".496" y2=".496" gradientUnits="objectBoundingBox">
            <stop offset="0" stop-color="#c31600"/>
            <stop offset="1" stop-color="#ffc500"/>
        </linearGradient>
        <linearGradient id="linear-gradient-30" x1="-.675" x2="9.532" y1=".503" y2=".503" xlink:href="#linear-gradient-29"/>
        <linearGradient id="linear-gradient-31" x1="-1.681" x2="8.748" y1=".506" y2=".506" xlink:href="#linear-gradient-29"/>
        <linearGradient id="linear-gradient-32" x1="-3.452" x2="10.149" y1=".504" y2=".504" xlink:href="#linear-gradient-29"/>
        <linearGradient id="linear-gradient-33" x1="-3.405" x2="7.502" y1=".496" y2=".496" xlink:href="#linear-gradient-29"/>
        <linearGradient id="linear-gradient-34" x1="-4.242" x2="6.149" y1=".5" y2=".5" xlink:href="#linear-gradient-29"/>
        <radialGradient id="radial-gradient" cx=".741" cy=".69" r=".81" gradientTransform="matrix(-1 0 0 1 -7.037 0)" gradientUnits="objectBoundingBox">
            <stop offset=".262" stop-color="#f1f4f6"/>
            <stop offset=".579" stop-color="#e0e6eb"/>
            <stop offset=".997" stop-color="#ced8e0"/>
        </radialGradient>
        <style>
            .cls-3{fill:url(#linear-gradient-2)}.cls-5{fill:url(#linear-gradient-8)}.cls-7{fill:url(#linear-gradient-13)}
        </style>
    </defs>
    <g id="Group_30910" transform="translate(-15.79 -12.626)">
        <g id="Group_35498" transform="translate(15.79 12.626)">
            <path id="Path_191911" fill="url(#linear-gradient)" d="M1122.436 848.1a47 47 0 1 0 47-47 47 47 0 0 0-47 47z" transform="translate(-1122.436 -801.097)"/>
            <path id="Path_191912" fill="url(#radial-gradient)" d="M1123.631 847.686a45.394 45.394 0 1 0 45.393-45.4 45.391 45.391 0 0 0-45.393 45.4z" transform="translate(-1122.025 -800.686)"/>
        </g>
        <g id="Layer_2" transform="translate(26.038 25.987)">
            <g id="Layer_1">
                <g id="Group_30910-2">
                    <g id="Group_30860">
                        <g id="Group_30810" transform="translate(0 6.349)">
                            <g id="Group_30801">
                                <g id="Group_30800">
                                    <path id="Path_191948" d="M17.364 18.262c4.208-1.29 9.215-5.61 6.227-10.351S13.17 4.265 8.7 6.06C4.867 7.6-1.795 11.179.449 16.411c2.118 4.881 10.337 4.755 14.025 2.118a.323.323 0 0 0 .112-.435.3.3 0 0 0-.266-.154c-3.8 0-9.467 2.426-12.272-1.4-3.225-4.421 4.04-8.11 7.265-9.372 3.59-1.4 9.088-2.595 12.272.309a4.558 4.558 0 0 1 .477 6.424l-.084.084c-1.332 1.627-3.24 2.328-4.993 3.366a.491.491 0 0 0-.154.687.5.5 0 0 0 .533.224z" class="cls-3" transform="translate(.002 -4.527)"/>
                                </g>
                            </g>
                            <g id="Group_30803" transform="translate(13.351 10.97)">
                                <g id="Group_30802">
                                    <path id="Path_191949" d="M14.542 13.361a3.128 3.128 0 0 0-1.753 4.109 2.973 2.973 0 0 0 .547.9l.6-1.4a2.553 2.553 0 0 1-2.216-1.4 4.376 4.376 0 0 1-.463-.968 3.31 3.31 0 0 1 .168-1.655.477.477 0 0 0-.351-.575.449.449 0 0 0-.435.112 3.717 3.717 0 0 0-.729 4.334 4.123 4.123 0 0 0 4.011 1.865.856.856 0 0 0 .842-.884.926.926 0 0 0-.238-.561 1.851 1.851 0 0 1 .168-2.609.87.87 0 0 1 .252-.2c.491-.295.168-1.192-.407-.968z" class="cls-3" transform="translate(-9.518 -12.348)"/>
                                </g>
                            </g>
                            <g id="Group_30805" transform="translate(6.338 7.411)">
                                <g id="Group_30804">
                                    <path id="Path_191950" d="M7.1 13.021l-.407.182h-.21a.856.856 0 0 0 .421-.112 1.122 1.122 0 0 0 .533-.337l.252-.337.168-.393a1.781 1.781 0 0 0 0-.94l-.168-.407a1.22 1.22 0 0 0-.449-.477 1.767 1.767 0 0 0-.813-.351 1.4 1.4 0 0 0-.673 0l-.379.224-.351.266a1.15 1.15 0 0 0-.351.547.827.827 0 0 0-.126.435.87.87 0 0 0 0 .463 1.248 1.248 0 0 0 .21.631l.266.351.351.266.407.168a1.22 1.22 0 0 0 .673 0 1.206 1.206 0 0 0 .645-.2z" class="cls-3" transform="translate(-4.518 -9.811)"/>
                                </g>
                            </g>
                            <g id="Group_30807" transform="translate(11.868 6.653)">
                                <g id="Group_30806">
                                    <path id="Path_191951" d="M9.428 11.3a1.052 1.052 0 0 0 1.024-1.01v-.281a.884.884 0 0 0-.266-.435l-.2-.168a1.108 1.108 0 0 0-.519-.14 1.052 1.052 0 0 0-1.01 1.024v.266a.954.954 0 0 0 .252.449l.21.154a.912.912 0 0 0 .509.141z" class="cls-3" transform="translate(-8.46 -9.27)"/>
                                </g>
                            </g>
                            <g id="Group_30809" transform="translate(16.496 5.615)">
                                <g id="Group_30808">
                                    <path id="Path_191952" d="M11.886 9.666a.757.757 0 0 0 .365.224.7.7 0 0 0 .856-.477.715.715 0 0 0 0-.421.575.575 0 0 0-.224-.323.6.6 0 0 0-.379-.14h-.028a.659.659 0 0 0-.491.21l-.112.14a.729.729 0 0 0-.1.351v-.181l.07-.154.084-.112a.617.617 0 0 0-.168.393.659.659 0 0 0 .168.393z" class="cls-3" transform="translate(-11.76 -8.53)"/>
                                </g>
                            </g>
                        </g>
                        <g id="Group_30823" transform="translate(21.617 14.281)">
                            <g id="Group_30812" transform="translate(5.802 4.628)">
                                <g id="Group_30811">
                                    <path id="Path_191953" d="M27.685 13.9c-2.482-.982-5.849 1.276-7.279 3.184a3.366 3.366 0 0 0 2.412 5.61 7.013 7.013 0 0 0 6.69-4.558c.533-1.865-1.178-5.849-3.6-4.306a.589.589 0 0 0-.182.8.561.561 0 0 0 .182.182c.547.351 1.178.5 1.571 1.066a2.3 2.3 0 0 1-.2 2.679 5.61 5.61 0 0 1-4.46 2.384c-3.212-.323-1.038-3.857.393-4.909s2.917-1 4.474-1.557a.3.3 0 0 0 .2-.365.28.28 0 0 0-.2-.182z" transform="translate(-19.548 -13.482)"/>
                                </g>
                            </g>
                            <g id="Group_30814" transform="translate(18.385 8.075)">
                                <g id="Group_30813">
                                    <path id="Path_191954" d="M33.05 16.389l-.084-.182a.561.561 0 0 0-.6-.252c-6.185.9-4.348 10.281 1.557 9.818a4.081 4.081 0 0 0 3.338-5.217 5.806 5.806 0 0 0-5.764-4.544c-.7.07-.968 1.122-.182 1.3a5.175 5.175 0 0 1 4.208 3.254 2.553 2.553 0 0 1-3.857 3.057 3.675 3.675 0 0 1-.884-5.61 3.731 3.731 0 0 1 1.4-.842c.2-.084.491 0 .659-.224s.224-.323.168-.463z" transform="translate(-28.52 -15.94)"/>
                                </g>
                            </g>
                            <g id="Group_30816" transform="translate(9.867 7.388)">
                                <g id="Group_30815">
                                    <path id="Path_191955" d="M22.634 16.081a1.4 1.4 0 0 0 0 1.4l.21.281a1.318 1.318 0 0 0 .6.351 1.038 1.038 0 0 0 .547 0 1 1 0 0 0 .519-.168 1.4 1.4 0 0 0 .673-1.178V16.4a1.01 1.01 0 0 0-.252-.463.814.814 0 0 0-.238-.252 1.22 1.22 0 0 0-.463-.238h-.73a1.613 1.613 0 0 0-.827.631z" transform="translate(-22.446 -15.45)"/>
                                </g>
                            </g>
                            <g id="Group_30818" transform="translate(20.649 11.046)">
                                <g id="Group_30817">
                                    <path id="Path_191956" d="M30.339 18.692a1.08 1.08 0 0 0-.168.519 1.038 1.038 0 0 0 0 .547 1.4 1.4 0 0 0 .631.827 1.389 1.389 0 0 0 2.09-1.192v-.379a1.122 1.122 0 0 0-.238-.463.729.729 0 0 0-.254-.251.912.912 0 0 0-.477-.238h-.365a.94.94 0 0 0-.519.112.631.631 0 0 0-.309.182 1.01 1.01 0 0 0-.351.379z" transform="translate(-30.134 -18.058)"/>
                                </g>
                            </g>
                            <g id="Group_30820" transform="translate(12.56 15.525)">
                                <g id="Group_30819">
                                    <path id="Path_191957" d="M27.036 21.894c-.337-.533-1.122-.238-1.543 0a2.216 2.216 0 0 0 2.02 3.941 2.314 2.314 0 0 0 1.725-3.226 2.623 2.623 0 0 0-4.109-.631.266.266 0 0 0 0 .379l.112.07c.842.21 1.95-.182 2.637.491s-.084 1.6-.9 1.739c-1.136.182-1.907-.926-1.024-1.8.14-.14 1.262-.631 1.066-.982z" transform="translate(-24.366 -21.252)"/>
                                </g>
                            </g>
                            <g id="Group_30822">
                                <g id="Group_30821">
                                    <path id="Path_191958" fill="url(#linear-gradient-7)" d="M34.33 10.375c-6.2-.968-14.67 1.725-17.8 7.574-3.506 6.564 1.823 13.45 7.588 16.325 6.508 3.268 15.554 5.989 22.595 2.987 6.241-2.651 9.818-9.243 6.732-15.652-3.478-7.139-12.623-11.6-20.309-10.407a.589.589 0 0 0 0 1.136c5.877.94 11.753 2.959 15.863 7.475a9.705 9.705 0 0 1 2.917 8.05 9.327 9.327 0 0 1-4.53 5.989c-5.68 3.422-12.9 1.4-18.682-.715-5.2-1.865-12.16-5.442-11.5-12.062.351-3.492 3.3-6.059 6.213-7.616a23.268 23.268 0 0 1 10.813-2.4c.379 0 .5-.617.1-.687z" transform="translate(-15.411 -10.182)"/>
                                </g>
                            </g>
                        </g>
                        <g id="Group_30834" transform="translate(12.145 29.724)">
                            <g id="Group_30825" transform="translate(0 .907)">
                                <g id="Group_30824">
                                    <path id="Path_191959" d="M9.965 21.91c-2.047 2.118-1.318 6.634-.322 9.09.87 2.174 2.805 5.386 5.4 5.708a.365.365 0 0 0 .365-.365.393.393 0 0 0 0-.182 15.428 15.428 0 0 0-2.2-2.174 12.09 12.09 0 0 1-2.272-3.226 11.22 11.22 0 0 1-1.122-4.488c0-1.4.449-2.917.281-4.362a.084.084 0 0 0-.084-.07z" class="cls-5" transform="translate(-8.658 -21.84)"/>
                                </g>
                            </g>
                            <g id="Group_30827" transform="translate(3.037 2.194)">
                                <g id="Group_30826">
                                    <path id="Path_191960" d="M11.239 22.789c-1.206 1.6.491 4.741 1.515 6.059a7.84 7.84 0 0 0 6.536 3.226.463.463 0 0 0 .463-.491.477.477 0 0 0-.337-.449 10.14 10.14 0 0 1-5.778-3.057 7.728 7.728 0 0 1-1.529-2.931 6.7 6.7 0 0 0-.659-2.356.126.126 0 0 0-.168 0z" class="cls-5" transform="translate(-10.823 -22.757)"/>
                                </g>
                            </g>
                            <g id="Group_30829" transform="translate(.985)">
                                <g id="Group_30828">
                                    <path id="Path_191961" fill="url(#linear-gradient-10)" d="M11.758 23.84a.7.7 0 0 0 .5-.813 1.29 1.29 0 0 0-1.29-1.29 1.3 1.3 0 0 0-1.262 1h.547a4.011 4.011 0 0 0-.379-1.4.3.3 0 0 0-.393-.1.309.309 0 0 0-.126.238 4.516 4.516 0 0 0 .323 1.4.309.309 0 0 0 .379.2.28.28 0 0 0 .2-.2.715.715 0 0 1 .926-.365l.168.112a.771.771 0 0 1 .224.547v.266c0 .1.07.168 0 .281a.1.1 0 0 0 .1.1z" transform="translate(-9.36 -21.193)"/>
                                </g>
                            </g>
                            <g id="Group_30831" transform="translate(4.312 8.582)">
                                <g id="Group_30830">
                                    <path id="Path_191962" d="M34.071 30.24c-.687-2.09-4.011-2.468-5.849-2.735a21.753 21.753 0 0 0-7.966.407 12.412 12.412 0 0 0-6.3 3.464c-1.192 1.234-2.805 3.661-2.02 5.428a.252.252 0 0 0 .351.1c1.4-.659 2.4-2.637 3.464-3.745a15.9 15.9 0 0 1 4.649-3.353 14.432 14.432 0 0 1 7.009-1.106 18.879 18.879 0 0 1 3.422.533c1.066.295 1.95.884 2.959 1.262a.21.21 0 0 0 .252-.154.126.126 0 0 0 0-.1z" class="cls-5" transform="translate(-11.732 -27.312)"/>
                                </g>
                            </g>
                            <g id="Group_30833" transform="translate(30.411 11.416)">
                                <g id="Group_30832">
                                    <path id="Path_191963" d="M30.648 30.269a14.937 14.937 0 0 1 6.928 2.412 17.9 17.9 0 0 1 5.148 6.119 35.824 35.824 0 0 1 1.781 3.955c.266.673 1.669 3.436 1.052 4.081-1.248 1.29-2.4-1.122-2.581-2.048-.266-1.4 0-2.707-.379-4.039a.309.309 0 0 0-.365-.2.281.281 0 0 0-.182.2c-1.05 2.633-1.65 7.43 2.077 8.328a3.142 3.142 0 0 0 3.3-1.136c.982-1.4.112-3.184-.547-4.558-1.781-3.675-3.745-7.5-6.774-10.309-2.384-2.2-6.087-4.334-9.453-3.59a.449.449 0 0 0-.295.533.421.421 0 0 0 .295.281z" class="cls-5" transform="translate(-30.341 -29.332)"/>
                                </g>
                            </g>
                        </g>
                        <g id="Group_30857" transform="translate(37.699)">
                            <g id="Group_30836" transform="translate(.704 12.097)">
                                <g id="Group_30835">
                                    <path id="Path_191964" d="M27.38 9.614c-.07 3.969 3.058 6.227 6.41 7.574a14.572 14.572 0 0 0 5.764 1.178c1.641 0 3.829-.589 4.712-2.09a1.276 1.276 0 0 0-.449-1.7 9.046 9.046 0 0 0-3.338-.87c-1.318-.252-2.623-.365-3.927-.687-2.048-.519-6.48-1.4-7.195-3.675a1.01 1.01 0 0 0-1.978.266z" class="cls-7" transform="translate(-27.379 -8.625)"/>
                                </g>
                            </g>
                            <g id="Group_30838" transform="translate(.954 5.94)">
                                <g id="Group_30837">
                                    <path id="Path_191965" d="M28.529 12.18c1.22-.449 1.3-1.95 1.529-3.086a12.623 12.623 0 0 0 .084-4.46.561.561 0 0 0-.687-.379.533.533 0 0 0-.323.252 16.592 16.592 0 0 0-1.262 4.209c-.182 1.052-.687 2.454.182 3.282a.463.463 0 0 0 .477.126z" class="cls-7" transform="translate(-27.558 -4.235)"/>
                                </g>
                            </g>
                            <g id="Group_30840" transform="translate(2.142 6.483)">
                                <g id="Group_30839">
                                    <path id="Path_191966" d="M28.763 4.675c-.884.87.1 2.721.5 3.647.6 1.4 1.4 3.394 2.805 4.208a.547.547 0 0 0 .757-.21.477.477 0 0 0 .07-.266C32.788 10.3 31.357 8.588 30.656 7c-.126-.252-1.136-2.987-1.893-2.258z" class="cls-7" transform="translate(-28.405 -4.622)"/>
                                </g>
                            </g>
                            <g id="Group_30842" transform="translate(4.709 2.88)">
                                <g id="Group_30841">
                                    <path id="Path_191967" d="M31.041 12.006c1.865-.589 3.31-2.651 4.586-4.067a21.725 21.725 0 0 0 3.843-5.372c.126-.266-.154-.673-.449-.449a35.806 35.806 0 0 0-4.755 4.46c-1.4 1.4-3.352 2.805-4.011 4.642a.645.645 0 0 0 .463.785.631.631 0 0 0 .323 0z" class="cls-7" transform="translate(-30.235 -2.054)"/>
                                </g>
                            </g>
                            <g id="Group_30844" transform="translate(12.157 3.775)">
                                <g id="Group_30843">
                                    <path id="Path_191968" d="M36.183 2.886a11.22 11.22 0 0 0-.435 5.849 11.669 11.669 0 0 0 1.613 5.778c.126.2.5.21.547-.07a20.449 20.449 0 0 0-.323-5.708 21.543 21.543 0 0 0-.8-5.792c-.1-.238-.477-.379-.617-.084z" class="cls-7" transform="translate(-35.546 -2.691)"/>
                                </g>
                            </g>
                            <g id="Group_30846" transform="translate(12.667 8.631)">
                                <g id="Group_30845">
                                    <path id="Path_191969" d="M36.5 13.582c2.02 0 4.208-1.641 5.863-2.623s4.011-2.146 5.077-3.913a.659.659 0 0 0-.182-.856.715.715 0 0 0-.449 0c-2.062.309-4.067 1.95-5.82 3.015s-3.913 1.8-4.993 3.436a.673.673 0 0 0 .252.912.645.645 0 0 0 .323.084z" class="cls-7" transform="translate(-35.909 -6.154)"/>
                                </g>
                            </g>
                            <g id="Group_30848" transform="translate(14.339 8.297)">
                                <g id="Group_30847">
                                    <path id="Path_191970" d="M38.642 17.254a13.436 13.436 0 0 0 5.33-4.614 25.245 25.245 0 0 0 3.618-5.779.751.751 0 0 0-1.108-.842 45.638 45.638 0 0 0-5.063 4.681 17.938 17.938 0 0 0-4.208 5.133 1.066 1.066 0 0 0 .435 1.4 1.024 1.024 0 0 0 1.024 0z" class="cls-7" transform="translate(-37.101 -5.916)"/>
                                </g>
                            </g>
                            <g id="Group_30850" transform="translate(21.336 6.297)">
                                <g id="Group_30849">
                                    <path id="Path_191971" fill="url(#linear-gradient-20)" d="M44.544 9.329A2.511 2.511 0 0 0 47 6.874l-.084-.645a2.4 2.4 0 0 0-.631-1.024l-.491-.379a2.454 2.454 0 0 0-1.248-.337 2.525 2.525 0 0 0-2.456 2.455l.084.659a2.482 2.482 0 0 0 .631 1.08l.561.309a2.4 2.4 0 0 0 1.178.337z" transform="translate(-42.09 -4.49)"/>
                                </g>
                            </g>
                            <g id="Group_30852" transform="translate(0 2.426)">
                                <g id="Group_30851">
                                    <path id="Path_191972" fill="url(#linear-gradient-21)" d="M29.77 7.719c3.857 0 3.857-5.989 0-5.989s-3.857 5.989 0 5.989z" transform="translate(-26.878 -1.73)"/>
                                </g>
                            </g>
                            <g id="Group_30854" transform="translate(7.626 12.086)">
                                <g id="Group_30853">
                                    <path id="Path_191973" d="M33.584 14.357c1.108-.2 1.585-1.529 1.739-2.5a3.7 3.7 0 0 0 0-1.4 6.492 6.492 0 0 0-.2-1.4.631.631 0 0 0-.8-.407.6.6 0 0 0-.337.252c-.2.309-.252.771-.421 1.038s-.323.323-.435.477a6.168 6.168 0 0 0-.295.7 3.043 3.043 0 0 0-.323 2.805 1.01 1.01 0 0 0 1.122.463z" class="cls-7" transform="translate(-32.315 -8.617)"/>
                                </g>
                            </g>
                            <g id="Group_30856" transform="translate(10.326)">
                                <g id="Group_30855">
                                    <path id="Path_191974" fill="url(#linear-gradient-23)" d="M37.045 5.61a2.805 2.805 0 0 0 2.805-2.805l-.1-.743a2.889 2.889 0 0 0-.713-1.235l-.589-.448A2.8 2.8 0 0 0 37.045 0a2.875 2.875 0 0 0-2.805 2.805l.112.743a2.679 2.679 0 0 0 .715 1.234l.561.435a2.805 2.805 0 0 0 1.4.379z" transform="translate(-34.24)"/>
                                </g>
                            </g>
                        </g>
                        <g id="Group_30858" transform="translate(22.035 47.225)">
                            <path id="Path_191975" fill="url(#linear-gradient-24)" d="M18.628 37.484h-.2l-.21-.084a.575.575 0 0 1-.182-.14.238.238 0 0 1-.07-.168.519.519 0 0 1 .14-.309.982.982 0 0 1 .491-.266 5.374 5.374 0 0 1 .968-.126H22.5a.407.407 0 0 1 .323.1.379.379 0 0 1 0 .21.463.463 0 0 1-.238.435.869.869 0 0 1-.491.14h-1.068v.954l.084 1.066a3.483 3.483 0 0 0 .1 1.024 3.961 3.961 0 0 1 .1.827.252.252 0 0 1 0 .224.294.294 0 0 1-.252.1.5.5 0 0 1-.477-.393 6.718 6.718 0 0 1-.407-1.725 4.348 4.348 0 0 1-1.641.631 3.3 3.3 0 0 1-1.4 0 2.062 2.062 0 0 1-1.024-.6 1.5 1.5 0 0 1-.393-1.066 3.955 3.955 0 0 1 .21-1.29 5.5 5.5 0 0 1 .617-1.332 5.876 5.876 0 0 1 .94-1.178A3.955 3.955 0 0 1 18.7 33.7a.912.912 0 0 1 .435 0 .968.968 0 0 1 .393.154 1.921 1.921 0 0 1 .323.266 1.823 1.823 0 0 1 .252.323.463.463 0 0 1 .1.224.309.309 0 0 1-.1.238.266.266 0 0 1-.365 0 1.178 1.178 0 0 0-.449-.379.533.533 0 0 0-.477.126 3.675 3.675 0 0 0-.673.645 7.588 7.588 0 0 0-.687.968 5.442 5.442 0 0 0-.491 1.094 2.188 2.188 0 0 0-.126 1.038.7.7 0 0 0 .463.589 2.146 2.146 0 0 0 .94.168 3.339 3.339 0 0 0 1.052-.21 2.006 2.006 0 0 0 .827-.491V37.4h-.687z" transform="translate(-15.709 -33.671)"/>
                            <path id="Path_191976" fill="url(#linear-gradient-25)" d="M26.005 35.685l-.575.323a5.609 5.609 0 0 0-.6.393 3.914 3.914 0 0 0-.561.519 3.59 3.59 0 0 0-.491.715 4 4 0 0 0-.407 1.192 8.415 8.415 0 0 0-.14 1.192 1.248 1.248 0 0 1-.126.547.421.421 0 0 1-.365.295.561.561 0 0 1-.463-.28A1.894 1.894 0 0 1 22.05 40a21.518 21.518 0 0 1-.435-2.146c-.112-.743-.21-1.4-.295-2.132a.281.281 0 0 1 .126-.281.575.575 0 0 1 .309 0 1.094 1.094 0 0 1 .351.1.309.309 0 0 1 .2.238 9.586 9.586 0 0 0 .154 1.192c.056.421.126.771.182 1.066a2.539 2.539 0 0 1 .337-1.01 3.913 3.913 0 0 1 .687-.9 4.012 4.012 0 0 1 .926-.673 3.03 3.03 0 0 1 1.052-.365.869.869 0 0 1 .379 0 .3.3 0 0 1 .21.1.323.323 0 0 1 0 .252.575.575 0 0 1-.228.244z" transform="translate(-13.452 -33.106)"/>
                            <path id="Path_191977" fill="url(#linear-gradient-26)" d="M29.11 37.251a5.484 5.484 0 0 1-1.29.547 6.017 6.017 0 0 1-1.487.2 1.3 1.3 0 0 0 .295.842 1.094 1.094 0 0 0 .7.379 1.4 1.4 0 0 0 .491 0 1.866 1.866 0 0 0 .477-.14 3.772 3.772 0 0 0 .407-.224 1.824 1.824 0 0 0 .323-.252.743.743 0 0 1 .295-.154.449.449 0 0 1 .238 0c.14 0 .182.21.154.463a2.44 2.44 0 0 1-.715.842 2.23 2.23 0 0 1-1.024.435 2.44 2.44 0 0 1-1.01 0 2.132 2.132 0 0 1-.94-.547 2.272 2.272 0 0 1-.533-.827 3.352 3.352 0 0 1-.238-.982 2.412 2.412 0 0 1 .084-.9 2.258 2.258 0 0 1 .407-.771 2.118 2.118 0 0 1 .687-.533 2.356 2.356 0 0 1 .968-.252 2.258 2.258 0 0 1 1.206.252 1.557 1.557 0 0 1 .743.813.771.771 0 0 1 .07.5.743.743 0 0 1-.309.309zm-1.809-1a1.4 1.4 0 0 0-.659.295 1.6 1.6 0 0 0-.266.266.645.645 0 0 0-.126.323 3.825 3.825 0 0 0 .575 0l.617-.112a3.533 3.533 0 0 0 .547-.168 1.935 1.935 0 0 0 .421-.2.547.547 0 0 0-.449-.365 1.739 1.739 0 0 0-.659 0z" transform="translate(-11.872 -32.989)"/>
                            <path id="Path_191978" fill="url(#linear-gradient-27)" d="M33.054 35.485c0 .295.084.6.112.926s0 .645 0 .968v1.781a1.557 1.557 0 0 1 .6.6.659.659 0 0 1 0 .463.365.365 0 0 1-.323.281.968.968 0 0 1-.547-.168c-.14.112-.309.21-.491.337l-.589.337-.6.281a2.076 2.076 0 0 1-.575.168 1.234 1.234 0 0 1-.884-.182 1.29 1.29 0 0 1-.533-.785 2.062 2.062 0 0 1 .182-1.4 2.805 2.805 0 0 1 .5-.631 2.314 2.314 0 0 1 .743-.421 1.165 1.165 0 0 1 .295-.084h.407l.449.014a1.08 1.08 0 0 1 .393.266v-2.3a.323.323 0 0 0-.182-.295.645.645 0 0 0-.365 0 3.422 3.422 0 0 0-.856.477c-.323.238-.631.491-.94.757a.351.351 0 0 1-.309.112.5.5 0 0 1-.309-.126.463.463 0 0 1-.232-.296.421.421 0 0 1 .112-.337l.589-.575a6.244 6.244 0 0 1 .7-.491 4.025 4.025 0 0 1 .729-.393 2.132 2.132 0 0 1 .729-.168 1.178 1.178 0 0 1 .827.238 1.024 1.024 0 0 1 .368.646zM31.287 38.8a1.3 1.3 0 0 0-.435.182 1.921 1.921 0 0 0-.449.393 1.319 1.319 0 0 0-.266.449.771.771 0 0 0 0 .5.252.252 0 0 0 .126.14.407.407 0 0 0 .224 0 4.208 4.208 0 0 0 .842-.295 3.254 3.254 0 0 0 .743-.491.5.5 0 0 0-.1-.238c0-.1-.14-.2-.21-.295l-.266-.252a.379.379 0 0 0-.266-.084z" transform="translate(-10.36 -33.299)"/>
                            <path id="Path_191979" fill="url(#linear-gradient-28)" d="M36.681 37.272a1.08 1.08 0 0 1 .589.14.477.477 0 0 1 .281.477.337.337 0 0 1-.266.295 1.893 1.893 0 0 1-.407 0H35.5V40.5a1.207 1.207 0 0 0 0 .224 3.128 3.128 0 0 0 .729-.21 7.687 7.687 0 0 0 .785-.323l.771-.365.715-.365a.393.393 0 0 1 .28 0 .182.182 0 0 1 .168.14.8.8 0 0 1 0 .407.982.982 0 0 1-.266.449c-.2.154-.407.295-.6.421a9.191 9.191 0 0 1-.813.449c-.281.14-.575.266-.87.379a2.974 2.974 0 0 1-.771.2.856.856 0 0 1-.771-.28 1.4 1.4 0 0 1-.295-.813v-2.545h-1.08a1.136 1.136 0 0 1-.435-.084.351.351 0 0 1-.238-.365.673.673 0 0 1 .07-.238.547.547 0 0 1 .351-.238c.407 0 .884-.126 1.4-.182a5.863 5.863 0 0 1 .112-1.4c.112-.463 0-.87.1-1.234a.883.883 0 0 1 .112-.323.252.252 0 0 1 .2-.14.9.9 0 0 1 .5.126.449.449 0 0 1 .238.337c0 .351-.084.743-.112 1.178s-.07.9-.112 1.4h.6z" transform="translate(-8.826 -33.515)"/>
                        </g>
                        <g id="Group_30859" transform="translate(16.682 56.564)">
                            <path id="Path_191980" fill="url(#linear-gradient-29)" d="M17.359 43.121a3.141 3.141 0 0 1 .743 1.122 3.787 3.787 0 0 1 .252 1.4 4.811 4.811 0 0 1-.323 1.711 6.129 6.129 0 0 1-.884 1.6 4.754 4.754 0 0 1-1.262 1.164 2.4 2.4 0 0 1-1.276.393 1.613 1.613 0 0 1-1.08-.379 2.188 2.188 0 0 1-.687-1.108 5.4 5.4 0 0 1-.238-1.613 6.873 6.873 0 0 1 .084-1.08 1.052 1.052 0 0 1-.295 0c-.323 0-.491-.112-.491-.323a.393.393 0 0 1 0-.182 6.255 6.255 0 0 1 1.4-2.342 2.973 2.973 0 0 1 2.216-1h.561a2.412 2.412 0 0 1 1.28.637zm-.673 2.805a2.959 2.959 0 0 0-.21-1.164 1.907 1.907 0 0 0-.687-.87.94.94 0 0 0-.589-.224.631.631 0 0 0-.281 0 .224.224 0 0 1 .126.2.8.8 0 0 1 0 .2 6.521 6.521 0 0 0-.519 1.4 6.41 6.41 0 0 0-.182 1.4 5.147 5.147 0 0 0 .252 1.6 3.128 3.128 0 0 0 .365.673.561.561 0 0 0 .168.14 2.889 2.889 0 0 0 .743-.8 5.751 5.751 0 0 0 .547-1.052 3.8 3.8 0 0 0 .323-1.571z" transform="translate(-11.892 -39.461)"/>
                            <path id="Path_191981" fill="url(#linear-gradient-30)" d="M22.348 47.26a2.048 2.048 0 0 1 .715-.168q.463 0 .463.295a.561.561 0 0 1 0 .21 15.582 15.582 0 0 0-.884 2.623.94.94 0 0 1-.407.519.954.954 0 0 1-.435.309 1.262 1.262 0 0 1-.561.126.631.631 0 0 1-.393-.1.379.379 0 0 1-.154-.309 3.31 3.31 0 0 0-.6-1.683 2.524 2.524 0 0 0-1.4-.982l-.14 2.048c0 .182-.154.337-.435.491a1.7 1.7 0 0 1-.827.224.477.477 0 0 1-.337-.084.238.238 0 0 1-.126-.238v-1.95a.323.323 0 0 1-.182-.295.463.463 0 0 1 .21-.379q0-2.567.168-5.133a.673.673 0 0 1 .393-.519 1.571 1.571 0 0 1 .851-.265.561.561 0 0 1 .435.14c1.024.28 2.09.589 3.184.926h.351a.6.6 0 0 1 .379.112.379.379 0 0 1 .14.309 1.641 1.641 0 0 1-.393 1.066 7.658 7.658 0 0 1-1.052 1.08l-.281.266c-.449.435-.9.828-1.318 1.164a3.38 3.38 0 0 1 1.865 1.29l.295-.715a.982.982 0 0 1 .476-.378zm-2.805-1.585c.309-.252.6-.5.9-.785a2.693 2.693 0 0 0 .519-.673l-2.262-.659v2.805l.5-.421z" transform="translate(-9.981 -39.659)"/>
                            <path id="Path_191982" fill="url(#linear-gradient-31)" d="M26.879 44.825c.2.842.449 1.809.743 2.9l.533 2.062a.393.393 0 0 1 0 .126.715.715 0 0 1-.309.519 1.487 1.487 0 0 1-.8.238.715.715 0 0 1-.519-.182c-.266-.295-.561-.575-.856-.842s-.7-.589-1.192-.968l-.463-.379c-.393.842-.7 1.473-.926 1.879a.856.856 0 0 1-.5.379 2.132 2.132 0 0 1-.771.182c-.266 0-.393-.084-.393-.252a.294.294 0 0 1 0-.168c.281-.7.617-1.5 1-2.412l.295-.715-.351-.351a.337.337 0 0 1-.1-.224.631.631 0 0 1 .309-.463 2.075 2.075 0 0 1 .7-.295c.449-1.08.87-2.174 1.262-3.3a.6.6 0 0 1 .365-.351 2.034 2.034 0 0 1 .645-.2 1.893 1.893 0 0 1 .407-.07c.252 0 .407.1.435.309a15.313 15.313 0 0 0 .486 2.578zm-2.118 1.6l-.112.28 1 .827-.1-.407c-.07-.252-.2-.813-.407-1.683z" transform="translate(-8.061 -39.678)"/>
                            <path id="Path_191983" fill="url(#linear-gradient-32)" d="M30.787 43.023a1.094 1.094 0 0 1 .337.379.519.519 0 0 1 .112.309c0 .21-.126.337-.393.379h-.491l-.729.1q-.252 2.244-.379 3.913c-.1 1.122-.154 2.216-.2 3.3a.337.337 0 0 1-.154.295.659.659 0 0 1-.393.1 1.753 1.753 0 0 1-.842-.224c-.281-.154-.407-.337-.393-.533 0-1 .084-2.02.168-3.058s.2-2.244.337-3.619l-.9.112a.7.7 0 0 1-.295 0 .463.463 0 0 1-.21-.154 2.679 2.679 0 0 1-.2-.295.491.491 0 0 1-.112-.309.28.28 0 0 1 .1-.224.561.561 0 0 1 .295-.126l.715-.1.729-.1.252-2.44c0-.266.224-.393.575-.393a1.7 1.7 0 0 1 .827.224c.266.154.393.337.379.533l-.182 1.893h.575a.758.758 0 0 1 .472.038z" transform="translate(-6.19 -40.33)"/>
                            <path id="Path_191984" fill="url(#linear-gradient-33)" d="M34.446 43.12a3.338 3.338 0 0 1 .743 1.122 3.787 3.787 0 0 1 .252 1.4 4.811 4.811 0 0 1-.323 1.711 5.792 5.792 0 0 1-.9 1.6 4.7 4.7 0 0 1-1.248 1.164 2.567 2.567 0 0 1-1.276.393 1.669 1.669 0 0 1-1.08-.379 2.188 2.188 0 0 1-.687-1.108 5.5 5.5 0 0 1-.238-1.613 6.831 6.831 0 0 1 .084-1.066 1.052 1.052 0 0 1-.295 0c-.323 0-.477-.112-.477-.323a.267.267 0 0 1 0-.182 6.325 6.325 0 0 1 1.4-2.342 2.973 2.973 0 0 1 2.216-1 3.62 3.62 0 0 1 .561 0 2.412 2.412 0 0 1 1.268.623zm-.673 2.805a2.959 2.959 0 0 0-.21-1.164 1.907 1.907 0 0 0-.687-.87.94.94 0 0 0-.589-.224.729.729 0 0 0-.295 0 .182.182 0 0 1 .126.2.323.323 0 0 1 0 .2 6.48 6.48 0 0 0-.5 1.4 5.722 5.722 0 0 0-.182 1.4 5.147 5.147 0 0 0 .252 1.6 3.072 3.072 0 0 0 .351.673l.182.14a2.651 2.651 0 0 0 .729-.8 5.821 5.821 0 0 0 .561-1.052 4.039 4.039 0 0 0 .323-1.571z" transform="translate(-5.011 -39.46)"/>
                            <path id="Path_191985" fill="url(#linear-gradient-34)" d="M39.406 47.244a2.048 2.048 0 0 1 .7-.168c.323 0 .477.1.477.295v.21a15.581 15.581 0 0 0-.9 2.623.94.94 0 0 1-.407.519.954.954 0 0 1-.435.309 1.262 1.262 0 0 1-.561.126.631.631 0 0 1-.393-.1.379.379 0 0 1-.154-.309 3.31 3.31 0 0 0-.6-1.683 2.511 2.511 0 0 0-1.4-.982v2.048c0 .182-.154.337-.435.491a1.739 1.739 0 0 1-.827.224.477.477 0 0 1-.337-.084.238.238 0 0 1-.126-.238v-1.95a.365.365 0 0 1-.2-.295.519.519 0 0 1 .224-.379q0-2.567.168-5.133a.673.673 0 0 1 .393-.519 1.571 1.571 0 0 1 .785-.21.519.519 0 0 1 .421.14c1.038.28 2.09.589 3.2.926h.351a.6.6 0 0 1 .379.112.365.365 0 0 1 .126.309 1.627 1.627 0 0 1-.379 1.066 8.513 8.513 0 0 1-1.052 1.08l-.281.266c-.463.435-.9.827-1.318 1.164a3.492 3.492 0 0 1 1.865 1.29l.295-.715a.982.982 0 0 1 .421-.435zM36.6 45.66c.309-.252.6-.5.9-.785a3.072 3.072 0 0 0 .519-.673c-.5-.14-1.262-.351-2.258-.659l-.07 2.805.491-.421z" transform="translate(-3.07 -39.643)"/>
                        </g>
                    </g>
                </g>
            </g>
        </g>
    </g>
</svg>
