<svg xmlns="http://www.w3.org/2000/svg" width="24.804" height="21.017" viewBox="0 0 24.804 21.017">
    <defs>
        <style>
            .cls-1{fill:#0a3f6e}
        </style>
    </defs>
    <g id="cursor-on-laptop-computer-screen" transform="translate(0 -33.592)">
        <g id="Group_36002" transform="translate(0 33.592)">
            <g id="Group_36001">
                <path id="Path_232670" d="M24.76 53.273l-1.541-6.163a1.035 1.035 0 0 0-.109-.268 2.3 2.3 0 0 0 .136-.782V35.9a2.313 2.313 0 0 0-2.31-2.31H3.867a2.313 2.313 0 0 0-2.31 2.31v10.16a2.3 2.3 0 0 0 .137.782 1.032 1.032 0 0 0-.11.268L.031 53.322a1.035 1.035 0 0 0 1 1.286h22.738a1.036 1.036 0 0 0 .991-1.336zm-9.734-.283H9.778a.2.2 0 0 1-.2-.241l.409-2.269a.2.2 0 0 1 .2-.168h4.429a.2.2 0 0 1 .2.168l.405 2.251a.2.2 0 0 1-.2.259zm6.2-6.93a.293.293 0 0 1-.171.266H3.746a.293.293 0 0 1-.172-.266V35.9a.293.293 0 0 1 .293-.292h17.069a.293.293 0 0 1 .292.292v10.16z" class="cls-1" transform="translate(0 -33.592)"/>
                <path id="Path_232671" d="M184.4 125.115l.647-.176a.307.307 0 0 0 .028-.582l-2.982-1.131a.307.307 0 0 0-.4.4l1.131 2.982a.307.307 0 0 0 .582-.028l.176-.647 1.509 1.509a.306.306 0 0 0 .433 0l.379-.379a.307.307 0 0 0 0-.434z" class="cls-1" transform="translate(-171.436 -118.153)"/>
            </g>
        </g>
    </g>
</svg>
