<svg xmlns="http://www.w3.org/2000/svg" xmlns:xlink="http://www.w3.org/1999/xlink" width="47.905" height="45.962" viewBox="0 0 47.905 45.962"><defs><style>.a{fill:url(#a);}.b{fill:url(#b);}.c{fill:#ebe7f2;}.d{fill:url(#e);}.e{fill:url(#h);}.f{fill:url(#i);}.g{fill:url(#j);}</style><linearGradient id="a" y1="0.5" x2="1" y2="0.5" gradientUnits="objectBoundingBox"><stop offset="0" stop-color="#6211c1"/><stop offset="1" stop-color="#a507a5"/></linearGradient><linearGradient id="b" x1="0" y1="0.5" x2="1" y2="0.5" xlink:href="#a"/><linearGradient id="e" y1="0.5" x2="1" y2="0.5" gradientUnits="objectBoundingBox"><stop offset="0" stop-color="#8639b0"/><stop offset="0.527" stop-color="#f71e25"/><stop offset="1" stop-color="#fcac44"/></linearGradient><linearGradient id="h" x1="0.5" x2="0.5" y2="1" gradientUnits="objectBoundingBox"><stop offset="0" stop-color="#f411a8"/><stop offset="1" stop-color="#ff1717"/></linearGradient><linearGradient id="i" x1="0.5" y1="0" x2="0.5" y2="1" xlink:href="#h"/><linearGradient id="j" x1="0.5" y1="0" x2="0.5" y2="1" xlink:href="#h"/></defs><g transform="translate(-618.077 -20.361)"><path class="a" d="M639.384,31.973H627.076a.915.915,0,0,1,0-1.829h12.308a.915.915,0,0,1,0,1.829Z"/><path class="b" d="M639.384,36.246H627.076a.914.914,0,1,1,0-1.828h12.308a.914.914,0,1,1,0,1.828Z"/><path class="b" d="M639.384,40.519H627.076a.914.914,0,1,1,0-1.828h12.308a.914.914,0,1,1,0,1.828Z"/><path class="b" d="M635.3,50.965c0-.093,0-.187,0-.28a15.133,15.133,0,0,1,.294-2.978,15.057,15.057,0,0,1-16.835-13.32,15.009,15.009,0,0,0,4.659,12.576l-4.424,3.722,6.27-2.237h0A15.087,15.087,0,0,0,635.3,50.965Z"/><path class="c" d="M664.911,30.934l-3.635-3.053v1.871l3.635,3.053a.292.292,0,0,0,.48-.224v-1.87A.292.292,0,0,1,664.911,30.934Z"/><path class="d" d="M660.546,31.338h-13a.731.731,0,0,1-.73-.731v1.87a.73.73,0,0,0,.73.731h13a.73.73,0,0,0,.73-.731v-1.87A.731.731,0,0,1,660.546,31.338Z"/><path class="d" d="M665.392,50.685a15.335,15.335,0,0,0-.087-1.613,15.048,15.048,0,0,1-29.922,0A15.047,15.047,0,0,0,658.8,63.132h0l6.27,2.237-4.424-3.722a15,15,0,0,0,4.747-10.963Z"/><path class="b" d="M665.472,24.181a.873.873,0,0,0-.94.124l-2.665,2.238V25.084a1.323,1.323,0,0,0-1.321-1.321h-13a1.322,1.322,0,0,0-1.321,1.321v7.393a1.322,1.322,0,0,0,1.321,1.321h13a1.322,1.322,0,0,0,1.321-1.321V31.018l2.665,2.239a.883.883,0,0,0,1.45-.676v-7.6a.873.873,0,0,0-.51-.8Zm-.671,7.76L661.656,29.3a.59.59,0,0,0-.97.453v2.725a.141.141,0,0,1-.14.141h-13a.141.141,0,0,1-.141-.141V25.084a.141.141,0,0,1,.141-.14h13a.14.14,0,0,1,.14.14V27.81a.59.59,0,0,0,.97.452L664.8,25.62Zm.49-6.731h0Zm-8.954,2.876-3.031-2.054a.809.809,0,0,0-1.262.67V30.81a.808.808,0,0,0,1.262.669l3.031-2.054a.809.809,0,0,0,0-1.339Zm-3.112,2.022V27.4l1.995,1.353ZM619.258,36a14.387,14.387,0,0,0,2.463,8.073.588.588,0,0,1,.066.529l-1.822,5.108,5.1-1.819a.591.591,0,0,1,.53.068,14.42,14.42,0,0,0,7.151,2.466A.59.59,0,0,1,632.7,51.6h-.04a15.6,15.6,0,0,1-7.485-2.5l-5.991,2.138a.591.591,0,0,1-.754-.755l2.142-6A15.639,15.639,0,0,1,645.031,25.2a.59.59,0,1,1-.854.815A14.458,14.458,0,0,0,619.258,36Zm31.086-.954a15.638,15.638,0,1,0,8.536,28.743l5.991,2.137a.591.591,0,0,0,.754-.754l-2.142-6a15.641,15.641,0,0,0-13.139-24.122Zm11.928,24.241,1.823,5.108L659,62.577a.593.593,0,0,0-.531.068,14.451,14.451,0,1,1,3.872-3.887A.592.592,0,0,0,662.272,59.287Z"/><path class="e" d="M642.554,53.015a.857.857,0,0,1,.87-.864h3.461a.864.864,0,1,1,0,1.728h-3.461A.857.857,0,0,1,642.554,53.015Z"/><path class="f" d="M644.288,44.358a2.594,2.594,0,0,1,5.189,0v1.023a6.72,6.72,0,0,1-1.985,4.779.844.844,0,0,1-1.213,0,.834.834,0,0,1,0-1.213A5.157,5.157,0,0,0,647.5,46.87a2.682,2.682,0,0,1-.619.085A2.591,2.591,0,0,1,644.288,44.358Z"/><path class="g" d="M651.211,56.531a.856.856,0,0,1-.864.87h-6.923a.867.867,0,1,1,0-1.733h6.923A.855.855,0,0,1,651.211,56.531Z"/><path class="f" d="M653.2,48.947a5.158,5.158,0,0,0,1.225-2.077,2.637,2.637,0,0,1-.618.085,2.595,2.595,0,1,1,2.6-2.6v1.023a6.722,6.722,0,0,1-1.991,4.779.844.844,0,0,1-1.213,0A.834.834,0,0,1,653.2,48.947Z"/><path class="g" d="M658.134,56.531a.856.856,0,0,1-.864.87h-3.461a.867.867,0,1,1,0-1.733h3.461A.855.855,0,0,1,658.134,56.531Z"/><path class="e" d="M658.134,53.015a.855.855,0,0,1-.864.864h-6.923a.864.864,0,1,1,0-1.728h6.923A.855.855,0,0,1,658.134,53.015Z"/></g></svg>