<svg xmlns="http://www.w3.org/2000/svg" xmlns:xlink="http://www.w3.org/1999/xlink" width="54.566" height="47.454" viewBox="0 0 54.566 47.454"><defs><style>.a{fill:#efefd2;}.b{fill:#4e5660;}.c{fill:#8daee1;}.d{fill:#6a95d6;}.e{fill:#fff;}.f{fill:#7acdf9;}.g{fill:#a2ddfd;}.h{fill:url(#a);}</style><linearGradient id="a" y1="0.5" x2="1" y2="0.5" gradientUnits="objectBoundingBox"><stop offset="0" stop-color="#6211c1"/><stop offset="1" stop-color="#a507a5"/></linearGradient></defs><g transform="translate(-664.901 -14.348)"><circle class="a" cx="19.263" cy="19.263" r="19.263" transform="translate(664.901 14.348)"/><path class="b" d="M678.983,61.005h-3.568a1.13,1.13,0,0,1-1.13-1.13v-2.3h5.828v2.3A1.13,1.13,0,0,1,678.983,61.005Z"/><path class="b" d="M705.523,61.005h3.567a1.13,1.13,0,0,0,1.131-1.13v-2.3h-5.829v2.3a1.131,1.131,0,0,0,1.131,1.13Z"/><path class="c" d="M710.876,48.393H673.63V36.823a6.93,6.93,0,0,1,6.929-6.93h23.387a6.93,6.93,0,0,1,6.93,6.93v11.57Z"/><path class="d" d="M710.876,36.823a6.93,6.93,0,0,0-.453-2.466,8.319,8.319,0,0,0-5.854,7.859h-10.4a4.183,4.183,0,0,1-3.822,0h-10.4a8.32,8.32,0,0,0-5.854-7.859,6.912,6.912,0,0,0-.453,2.466v11.57h37.246V36.823Z"/><path class="c" d="M712.655,36.284a5.977,5.977,0,0,0-5.813,6.01v5.315H677.663V42.294a5.976,5.976,0,0,0-5.812-6.01A5.914,5.914,0,0,0,669.4,47.623v5.55a4.4,4.4,0,0,0,4.4,4.4H710.71a4.4,4.4,0,0,0,4.4-4.4v-5.55a5.914,5.914,0,0,0-2.453-11.339Z"/><ellipse class="e" cx="3.505" cy="2.791" rx="3.505" ry="2.791" transform="translate(679.248 37.057)"/><ellipse class="e" cx="3.505" cy="2.791" rx="3.505" ry="2.791" transform="translate(698.247 37.057)"/><path class="c" d="M712.655,36.284a5.977,5.977,0,0,0-5.813,6.01v5.315H677.663V42.294a5.976,5.976,0,0,0-5.812-6.01A5.914,5.914,0,0,0,669.4,47.623v5.55a4.4,4.4,0,0,0,4.4,4.4H710.71a4.4,4.4,0,0,0,4.4-4.4v-5.55a5.914,5.914,0,0,0-2.453-11.339Z"/><path class="f" d="M690.342,52.3H675.486a1.91,1.91,0,0,1-1.911-1.911V47.708a3.218,3.218,0,0,1,3.218-3.218h12.242a3.218,3.218,0,0,1,3.218,3.218v2.677A1.911,1.911,0,0,1,690.342,52.3Z"/><path class="g" d="M709.02,52.3H694.164a1.91,1.91,0,0,1-1.911-1.911V47.708a3.218,3.218,0,0,1,3.218-3.218h12.242a3.218,3.218,0,0,1,3.218,3.218v2.677A1.911,1.911,0,0,1,709.02,52.3Z"/><path class="h" d="M685.593,37.127V35.763a.8.8,0,1,0-1.6,0v1.364a.8.8,0,0,0,1.6,0Zm13.6-.038a.784.784,0,1,1,1.567,0,.8.8,0,1,0,1.594,0,2.378,2.378,0,0,0-4.756,0,.8.8,0,0,0,1.6,0Zm12.382-1.495a7.722,7.722,0,0,0-7.626-6.5H681.419a.8.8,0,0,0,0,1.595h22.527a6.128,6.128,0,0,1,6.085,5.387,6.849,6.849,0,0,0-3.986,6.216v1.4H695.471a4.011,4.011,0,0,1-6.436,0H678.461v-1.4a6.849,6.849,0,0,0-3.985-6.216,6.177,6.177,0,0,1,3.574-4.852.8.8,0,1,0-.654-1.454,7.784,7.784,0,0,0-4.461,5.822A6.709,6.709,0,0,0,668.6,48.123v5.05a5.2,5.2,0,0,0,4.887,5.185v1.517a1.929,1.929,0,0,0,1.927,1.927h3.568a1.929,1.929,0,0,0,1.928-1.927V58.368h22.684v1.507a1.93,1.93,0,0,0,1.928,1.927h3.568a1.929,1.929,0,0,0,1.927-1.927V58.359a5.138,5.138,0,0,0,1.884-.475.8.8,0,1,0-.674-1.445,3.565,3.565,0,0,1-1.517.335H673.795a3.6,3.6,0,0,1-3.6-3.6v-5.55a.8.8,0,0,0-.48-.732,5.116,5.116,0,0,1,2.122-9.81,5.188,5.188,0,0,1,5.029,5.212v1.4h-.073a4.02,4.02,0,0,0-4.016,4.016v2.677a2.712,2.712,0,0,0,2.709,2.709h14.856a2.7,2.7,0,0,1,3.822,0H709.02a2.712,2.712,0,0,0,2.708-2.709V47.708a4.02,4.02,0,0,0-4.015-4.016h-.073v-1.4a5.188,5.188,0,0,1,5.028-5.212,5.116,5.116,0,0,1,2.122,9.81.8.8,0,0,0-.48.732c-.032,5.608.078,5.678-.1,6.416a.8.8,0,1,0,1.548.381c.254-1.032.108-1.365.151-6.3a6.709,6.709,0,0,0-4.333-12.529ZM705.19,58.368h4.233v1.507a.334.334,0,0,1-.333.333h-3.567a.334.334,0,0,1-.333-.333Zm-30.108,0h4.234v1.507a.334.334,0,0,1-.333.333h-3.568a.334.334,0,0,1-.333-.333V58.368Zm16.374-7.983a1.115,1.115,0,0,1-1.114,1.114H675.486a1.115,1.115,0,0,1-1.114-1.114V47.708a2.424,2.424,0,0,1,2.421-2.421h12.241a2.424,2.424,0,0,1,2.421,2.421v2.677Zm16.257-5.1a2.424,2.424,0,0,1,2.421,2.421v2.677A1.115,1.115,0,0,1,709.02,51.5H694.164a1.115,1.115,0,0,1-1.114-1.114V47.708a2.424,2.424,0,0,1,2.421-2.421Zm-15.46-6.476a3.405,3.405,0,0,0,2.567-1.169.8.8,0,1,0-1.2-1.047,1.809,1.809,0,0,1-2.73,0,.8.8,0,1,0-1.2,1.047,3.4,3.4,0,0,0,2.567,1.169Z"/></g></svg>