<svg xmlns="http://www.w3.org/2000/svg" id="Group_35998" width="21.261" height="21.261" viewBox="0 0 21.261 21.261">
    <defs>
        <style>
            .cls-1{fill:#0a3f6e}
        </style>
    </defs>
    <path id="Path_232654" d="M2074.548 268.263h-9.135l4.567 3.528z" class="cls-1" transform="translate(-2059.349 -261.648)"/>
    <path id="Path_232655" d="M2068.357 274.307a.536.536 0 0 1-.323-.108l-5.08-3.926v6.085a.582.582 0 0 0 .581.58h9.644a.579.579 0 0 0 .577-.58v-6.085l-5.08 3.926a.532.532 0 0 1-.319.108z" class="cls-1" transform="translate(-2057.725 -262.975)"/>
    <path id="Path_232656" d="M2058.186 248.783a10.631 10.631 0 1 0 10.629 10.632 10.633 10.633 0 0 0-10.629-10.632zm6.452 13.383a1.636 1.636 0 0 1-1.63 1.633h-9.644a1.636 1.636 0 0 1-1.633-1.633v-6.191a1.634 1.634 0 0 1 1.633-1.63h9.644a1.633 1.633 0 0 1 1.63 1.63z" class="cls-1" transform="translate(-2047.554 -248.783)"/>
</svg>
