<svg xmlns="http://www.w3.org/2000/svg" id="Group_35997" width="21.727" height="21.727" viewBox="0 0 21.727 21.727">
    <defs>
        <style>
            .cls-1{fill:#0a3f6e}
        </style>
    </defs>
    <path id="Path_232657" d="M2159.806 298.345a.656.656 0 1 0 .656.656.657.657 0 0 0-.656-.656z" class="cls-1" transform="translate(-2148.943 -282.747)"/>
    <path id="Path_232658" d="M2156.506 265.992h2.935c.072 0 .133-.112.133-.248s-.061-.248-.133-.248h-2.935c-.075 0-.136.109-.136.248s.061.248.136.248z" class="cls-1" transform="translate(-2147.108 -261.07)"/>
    <path id="Rectangle_1046" d="M0 0H6.459V9.126H0z" class="cls-1" transform="translate(7.636 5.537)"/>
    <path id="Path_232659" d="M2140 252.485a10.864 10.864 0 1 0 10.864 10.864A10.864 10.864 0 0 0 2140 252.485zm4 16.9a1.029 1.029 0 0 1-1.027 1.031h-5.945a1.029 1.029 0 0 1-1.027-1.031v-12.07a1.029 1.029 0 0 1 1.027-1.031h5.945a1.029 1.029 0 0 1 1.027 1.031z" class="cls-1" transform="translate(-2129.14 -252.485)"/>
</svg>
