<svg xmlns="http://www.w3.org/2000/svg" xmlns:xlink="http://www.w3.org/1999/xlink" viewBox="0 0 32.28 32.28"><defs><linearGradient id="linear-gradient" x1="2.93" y1="30.49" x2="-0.13" y2="30.49" gradientUnits="userSpaceOnUse"><stop offset="0" stop-color="#350335"/><stop offset="1" stop-color="#0c8290"/></linearGradient><linearGradient id="linear-gradient-2" x1="28.69" y1="6.59" x2="19.52" y2="6.59" gradientUnits="userSpaceOnUse"><stop offset="0" stop-color="#72e1f3"/><stop offset="1" stop-color="#f8d299"/></linearGradient><linearGradient id="linear-gradient-3" x1="27.84" y1="6.82" x2="27.84" y2="0.87" gradientUnits="userSpaceOnUse"><stop offset="0" stop-color="#ec018c"/><stop offset="1" stop-color="#fc6667"/></linearGradient><linearGradient id="linear-gradient-4" x1="12.56" y1="15.47" x2="18.15" y2="21.07" gradientUnits="userSpaceOnUse"><stop offset="0" stop-color="#ffe259"/><stop offset="1" stop-color="#ffa751"/></linearGradient><linearGradient id="linear-gradient-5" x1="18.02" y1="20.93" x2="14.77" y2="17.68" gradientUnits="userSpaceOnUse"><stop offset="0" stop-color="#ff4f50"/><stop offset="1" stop-color="#f9d323"/></linearGradient><linearGradient id="linear-gradient-6" x1="27.02" y1="29.94" x2="12.97" y2="15.88" gradientUnits="userSpaceOnUse"><stop offset="0" stop-color="#ff8109"/><stop offset="1" stop-color="#ffc837"/></linearGradient></defs><g id="Layer_2" data-name="Layer 2"><g id="Layer_1-2" data-name="Layer 1"><path d="M.86,28.71.17,30.07a1.52,1.52,0,0,0,2,2l1.36-.69Z" fill="url(#linear-gradient)"/><path d="M23.39,2.63l6.26,6.25L28,10.55,21.72,4.29Z" fill="url(#linear-gradient-2)"/><path d="M8.74,29.68l-.16.09a2.43,2.43,0,0,1-.37.16h0L3.57,31.42.86,28.71l1.49-4.63h0a2.43,2.43,0,0,1,.16-.37.51.51,0,0,1,.09-.16Z" fill="#f1d59d"/><path d="M29.65,8.88,23.39,2.63l2-2a2.19,2.19,0,0,1,3.12,0l3.13,3.13a2.19,2.19,0,0,1,0,3.12Z" fill="url(#linear-gradient-3)"/><path d="M23.81,6.38,4.63,25.57l-.3.3a.61.61,0,0,0-.52-.17l-.87.15a.6.6,0,0,1-.68-.68l.25-1.47a.51.51,0,0,1,.09-.16A2.4,2.4,0,0,1,3,23L21.73,4.3Z" fill="url(#linear-gradient-4)"/><path d="M28,10.55,9.24,29.29a2.69,2.69,0,0,1-.5.39l-.16.09L7.11,30a.6.6,0,0,1-.68-.68l.15-.87A.61.61,0,0,0,6.41,28l.3-.3L25.9,8.47Z" fill="url(#linear-gradient-5)"/><path d="M23.81,6.38,4.33,25.87a.55.55,0,0,1,.16.51l-.14.87a.59.59,0,0,0,.68.68l.87-.14a.55.55,0,0,1,.51.16L25.9,8.47Z" fill="url(#linear-gradient-6)"/></g></g></svg>