<svg xmlns="http://www.w3.org/2000/svg" xmlns:xlink="http://www.w3.org/1999/xlink" width="34.525" height="34.525" viewBox="0 0 34.525 34.525"><defs><style>.a{fill:url(#a);}</style><linearGradient id="a" y1="0.24" x2="1" y2="0.5" gradientUnits="objectBoundingBox"><stop offset="0" stop-color="#e77e00"/><stop offset="1" stop-color="#f09103"/></linearGradient></defs><g transform="translate(-1031.92 -809.432)"><g transform="translate(1031.92 809.432)"><g transform="translate(0 0)"><path class="a" d="M.424.422A1.441,1.441,0,0,1,1.986.107L33.634,13.054a1.44,1.44,0,0,1-.288,2.748L18.5,18.5,15.8,33.344a1.438,1.438,0,0,1-1.264,1.174c-.05,0-.1.007-.15.007a1.441,1.441,0,0,1-1.332-.895L.108,1.983A1.439,1.439,0,0,1,.424.422Z" transform="translate(-0.002 -0.001)"/></g></g></g></svg>