<svg xmlns="http://www.w3.org/2000/svg" width="36.874" height="37.961" viewBox="0 0 36.874 37.961">
    <defs>
        <style>
            .cls-1{fill:#f9f9f9}
        </style>
    </defs>
    <g id="Group_35853" transform="translate(-2120.669 200.42)">
        <g id="Group_35852" transform="translate(2120.669 -200.42)">
            <path id="Path_232532" d="M2128.313-188.408h-5.239a2.411 2.411 0 0 0-2.405 2.4v26.609a2.408 2.408 0 0 0 2.405 2.4h5.239a2.407 2.407 0 0 0 2.4-2.4V-186a2.412 2.412 0 0 0-2.4-2.408z" class="cls-1" transform="translate(-2120.669 194.951)"/>
            <path id="Path_232533" d="M2177.558-169.107h-5.226a2.408 2.408 0 0 0-2.411 2.4v16.1a2.409 2.409 0 0 0 2.411 2.4h5.226a2.408 2.408 0 0 0 2.411-2.4v-16.1a2.412 2.412 0 0 0-2.411-2.4z" class="cls-1" transform="translate(-2143.094 186.162)"/>
            <path id="Path_232534" d="M2155.488-198.018v33.154a2.406 2.406 0 0 1-2.4 2.4h-5.229a2.408 2.408 0 0 1-2.408-2.4v-33.154a2.4 2.4 0 0 1 2.408-2.4h5.229a2.406 2.406 0 0 1 2.4 2.4z" class="cls-1" transform="translate(-2131.952 200.42)"/>
        </g>
    </g>
</svg>
