<svg xmlns="http://www.w3.org/2000/svg" xmlns:xlink="http://www.w3.org/1999/xlink" viewBox="0 0 29.93 28.6"><defs><linearGradient id="linear-gradient" x1="14.96" y1="9.03" x2="28.12" y2="9.03" gradientUnits="userSpaceOnUse"><stop offset="0" stop-color="#00f99f"/><stop offset="1" stop-color="#00d8fc"/></linearGradient><linearGradient id="linear-gradient-2" x1="1.81" y1="9.03" x2="26.31" y2="9.03" xlink:href="#linear-gradient"/></defs><g id="Layer_2" data-name="Layer 2"><g id="Layer_1-2" data-name="Layer 1"><path d="M16.59,23.48l-5.06,1.81-.2.67A2.53,2.53,0,0,1,9,27.7v.45H19.54Z" fill="#adaca7"/><path d="M18.59,26l-.71-2.48L15,21.68,12,23.48l-.51,1.81h5.06l.2.67a2.53,2.53,0,0,0,2.3,1.74l.9.45.9-.45A2.54,2.54,0,0,1,18.59,26Z" fill="#8f8f8b"/><path d="M26.31,23.48h1.81a1.81,1.81,0,0,0,1.81-1.8V18.06l-3.62-3.61Z" fill="#adaca7"/><path d="M0,21.68a1.81,1.81,0,0,0,1.81,1.8h24.5a1.81,1.81,0,0,0,1.81-1.8V10.84L0,18.06Z" fill="#cbc9c2"/><path d="M28.12,0H26.31l1.81,18.06h1.81V1.81A1.82,1.82,0,0,0,28.12,0Z" fill="#404242"/><path d="M28.12,1.81A1.81,1.81,0,0,0,26.31,0H1.81A1.81,1.81,0,0,0,0,1.81V18.06H28.12v-1.8L15,9Z" fill="#565959"/><path d="M28.12,1.81H26.31L15,9l11.35,7.23h1.81V1.81Z" fill="url(#linear-gradient)"/><path d="M26.31,1.81H1.81V16.26h24.5V1.81Z" fill="url(#linear-gradient-2)"/><circle cx="14.96" cy="20.77" r="0.9" fill="#fff"/><path d="M24.3,28.6H5.63a.45.45,0,1,1,0-.9H24.3a.45.45,0,0,1,0,.9Z" fill="#8f8f8b"/><g id="Solid_Copy_2" data-name="Solid Copy 2"><path id="Shape-34" d="M13.41,8.16l1.05-1v5.15a.49.49,0,0,0,.5.47.5.5,0,0,0,.51-.47V7.19l1,1a.52.52,0,0,0,.49.13A.48.48,0,0,0,17.36,8a.42.42,0,0,0-.13-.45L15.32,5.72a.53.53,0,0,0-.71,0L12.7,7.5a.44.44,0,0,0-.14.45.51.51,0,0,0,.36.34A.53.53,0,0,0,13.41,8.16Z" fill="#404242"/></g></g></g></svg>