<svg xmlns="http://www.w3.org/2000/svg" width="38.48" height="38.257" viewBox="0 0 38.48 38.257"><defs><style>.a{fill:#a97c50;}.b{fill:#e6e7e8;}.c{fill:#d8d7da;}.d{fill:#8b5e3c;}.e{fill:#ffa733;}.f{fill:#d1d3d4;}.g{fill:#787680;}.h{fill:#898890;}.i{fill:#00ccb3;}.j{fill:#00b39d;}.k{fill:#ff5023;}.l{fill:#ff9811;}.m{fill:#ffd422;}.n{fill:#cc7400;}.o{fill:#ee8700;}.p{fill:#d80027;}.q{fill:#c6c5ca;}</style></defs><g transform="translate(-345.906 -542.055)"><path class="a" d="M380.865,549.97v27.7a2.638,2.638,0,0,1-2.638,2.639H355.8a2.636,2.636,0,0,1-1.583-.528,2.452,2.452,0,0,1-.481-.468,2.65,2.65,0,0,1-.574-1.643v-27.7a2.639,2.639,0,0,1,2.638-2.639h22.427A2.639,2.639,0,0,1,380.865,549.97Z"/><path class="b" d="M378.227,550.63V572.4h-3.958a1.323,1.323,0,0,0-1.319,1.319v3.957H356.46a.66.66,0,0,1-.66-.659V550.63a.66.66,0,0,1,.66-.66h21.107A.659.659,0,0,1,378.227,550.63Z"/><path class="c" d="M369.54,568.775l-.468,2.335-1.4,1.4a1.32,1.32,0,0,0,1.866,1.867h0l1.4-1.4,2.335-.468.462-.469,4.492-4.492v-7.453Z"/><path class="d" d="M380.865,557.456l-2.638,2.638v7.454l2.638-2.638Z"/><path class="c" d="M362.185,574.685a6.424,6.424,0,0,1-.719,1.729l.944,1.259h-5.95a.66.66,0,0,1-.66-.659V564.481h1.319l.31,2.19a6.487,6.487,0,0,1,1.729.719l1.774-1.332,1.867,1.866-1.333,1.775a6.417,6.417,0,0,1,.719,1.728l2.19.31v2.638Z"/><path class="b" d="M383.609,555.8a2.626,2.626,0,0,0-1.86-.778,2.519,2.519,0,0,0-.884.158,2.572,2.572,0,0,0-.982.62l-.937.93,1.919,1.919,1.814,1.814.93-.936a2.624,2.624,0,0,0,.016-3.711Z"/><path class="e" d="M380.865,558.65l-1.919-1.919-.719.719v.006l-.679.673.679.68L379.414,560l1.451,1.451.416.416,1.4-1.4Z"/><path class="f" d="M378.227,572.4l-5.277,5.276v-3.957a1.323,1.323,0,0,1,1.319-1.319Z"/><path class="b" d="M378.227,572.4v4.617a.659.659,0,0,1-.66.659H372.95Z"/><path class="g" d="M369.619,571.658l-1.4,1.4a1.32,1.32,0,0,1-1.867-1.866l1.4-1.4Z"/><path class="h" d="M372.416,570.721l-.462.469-2.335.468-1.867-1.867.469-2.335.468-.462,1.86,1.867h.007Z"/><path class="i" d="M378.227,558.809l-.679-.68-8.859,8.865,1.86,1.867h.007l7.671-7.678L379.414,560Z"/><path class="j" d="M380.865,561.447,379.414,560l-1.187,1.187-7.671,7.678,1.86,1.86,5.811-5.811,2.638-2.638.416-.409Z"/><path class="k" d="M364.56,557.7a2.638,2.638,0,1,1-2.164-1.135A2.638,2.638,0,0,1,364.56,557.7Z"/><path class="e" d="M359.758,550.63h14.511v1.978H359.758Z"/><path class="l" d="M373.372,547.331a2.639,2.639,0,0,0-1.741-.659h-1.979v-1.979a2.639,2.639,0,0,0-5.277,0v1.979H362.4a2.644,2.644,0,0,0-2.638,2.638v1.32h14.511v-1.32A2.626,2.626,0,0,0,373.372,547.331Z"/><path class="d" d="M362.8,578.188l-.805.8-1.062,1.062-1.412-1.062-.362-.271a5.491,5.491,0,0,1-.508.271,6.286,6.286,0,0,1-1.221.448l-.125.871h-1.5a2.636,2.636,0,0,1-1.583-.528l-.046-.343c-.145-.039-.3-.079-.435-.125a2.65,2.65,0,0,1-.574-1.643V567.027a5.925,5.925,0,0,1,1.009-.356l.31-2.19H355.8v12.533a.66.66,0,0,0,.66.659h5.95Z"/><path class="l" d="M360.866,573.366a6.482,6.482,0,0,1-.719,1.728l1.332,1.775-.8.8-1.062,1.062-1.412-1.062-.363-.27a5.343,5.343,0,0,1-.507.27,6.274,6.274,0,0,1-1.221.449l-.31,2.19h-2.638l-.31-2.19a6.484,6.484,0,0,1-1.728-.719l-1.775,1.332-1.866-1.866,1.332-1.775a6.482,6.482,0,0,1-.719-1.728l-2.19-.31v-2.638l2.19-.31a6.483,6.483,0,0,1,.719-1.728l-1.332-1.775,1.866-1.866,1.775,1.332a6.484,6.484,0,0,1,1.728-.719l.31-2.19H355.8l.31,2.19a6.485,6.485,0,0,1,1.728.719l1.775-1.332,1.866,1.866-1.332,1.775a6.483,6.483,0,0,1,.719,1.728l2.19.31v2.638Z"/><path class="m" d="M355.8,568.709a3.357,3.357,0,0,0-2.638,0,3.306,3.306,0,0,0,0,6.056,3.357,3.357,0,0,0,2.638,0,3.306,3.306,0,0,0,0-6.056Z"/><path class="n" d="M366.354,544.033h1.319v1.32h-1.319Z"/><path class="o" d="M353.821,565.141h1.32v1.319h-1.32Z"/><path class="o" d="M349.347,567.537l.933-.932.932.932-.932.933Z"/><path class="o" d="M347.885,571.077H349.2v1.32h-1.319Z"/><path class="o" d="M349.346,575.932l.933-.933.932.933-.932.933Z"/><path class="o" d="M353.821,577.014h1.32v1.319h-1.32Z"/><path class="o" d="M357.741,575.933l.932-.933.933.933-.933.932Z"/><path class="o" d="M359.758,571.077h1.319v1.32h-1.319Z"/><path class="o" d="M357.741,567.538l.933-.933.933.933-.933.933Z"/><path class="p" d="M361.926,559.4l3.3-3.3.932.933-3.3,3.3Z"/><path class="q" d="M367.014,557.226h1.319v1.319h-1.319Z"/><path class="q" d="M369.652,557.226h2.638v1.319h-2.638Z"/><path class="q" d="M367.014,559.864h3.957v1.319h-3.957Z"/></g></svg>