<svg xmlns="http://www.w3.org/2000/svg" width="27.436" height="27.436" viewBox="0 0 27.436 27.436">
    <defs>
        <linearGradient id="d2sqcmnsza" x2="1" y1=".5" y2=".5" gradientUnits="objectBoundingBox">
            <stop offset="0" stop-color="#ff5030"/>
            <stop offset="1" stop-color="#dd2475"/>
        </linearGradient>
    </defs>
    <g transform="translate(-1924.122 -395.857)">
        <circle cx="9.7" cy="9.7" r="9.7" fill="url(#d2sqcmnsza)" transform="rotate(-45 1456.462 -2117.833)"/>
        <g>
            <path fill="#fff" d="M1942.019 413.977a1.246 1.246 0 0 1-.921.387 1.292 1.292 0 0 1-.916-.4l-2.312-2.312-2.16 2.161a1.453 1.453 0 0 1-1.054.463 1.625 1.625 0 0 1-1.546-1.545 1.428 1.428 0 0 1 .454-1.065l2.16-2.16-2.262-2.262a1.284 1.284 0 0 1-.394-.928 1.269 1.269 0 0 1 .4-.923 1.193 1.193 0 0 1 .907-.38 1.323 1.323 0 0 1 .909.411l2.263 2.262 2.458-2.458a1.4 1.4 0 0 1 1.075-.443 1.533 1.533 0 0 1 1.075.478 1.423 1.423 0 0 1 0 2.111l-2.459 2.459 2.304 2.307a1.3 1.3 0 0 1 .4.917 1.241 1.241 0 0 1-.381.92z"/>
        </g>
    </g>
</svg>
