<svg xmlns="http://www.w3.org/2000/svg" id="Group_36004" width="21.727" height="21.727" viewBox="0 0 21.727 21.727">
    <defs>
        <style>
            .cls-1{fill:#0a3f6e}
        </style>
    </defs>
    <path id="Path_232673" d="M2044.634 432.375h-2.175a.252.252 0 0 0-.251.276.263.263 0 0 0 .27.229h2.175a.25.25 0 0 0 .251-.276.261.261 0 0 0-.27-.229z" class="cls-1" transform="translate(-2032.727 -420.824)"/>
    <path id="Path_232674" d="M2029.539 440.633a.266.266 0 0 0-.229.27v.511a.266.266 0 0 0 .229.27.253.253 0 0 0 .276-.254v-.543a.253.253 0 0 0-.276-.254z" class="cls-1" transform="translate(-2023.925 -426.459)"/>
    <path id="Path_232675" d="M2033.629 433.953a.266.266 0 0 0-.229.27v.508a.267.267 0 0 0 .229.273.253.253 0 0 0 .276-.254v-.543a.253.253 0 0 0-.276-.254z" class="cls-1" transform="translate(-2026.717 -421.9)"/>
    <path id="Path_232676" d="M2033.629 440.633a.266.266 0 0 0-.229.27v.511a.266.266 0 0 0 .229.27.253.253 0 0 0 .276-.254v-.543a.253.253 0 0 0-.276-.254z" class="cls-1" transform="translate(-2026.717 -426.459)"/>
    <path id="Path_232677" d="M2029.539 433.953a.266.266 0 0 0-.229.27v.508a.267.267 0 0 0 .229.273.253.253 0 0 0 .276-.254v-.543a.253.253 0 0 0-.276-.254z" class="cls-1" transform="translate(-2023.925 -421.9)"/>
    <path id="Path_232678" d="M2058.394 433.955a.255.255 0 0 0-.254.254v.543a.254.254 0 0 0 .508 0v-.543a.255.255 0 0 0-.254-.254z" class="cls-1" transform="translate(-2043.601 -421.902)"/>
    <path id="Path_232679" d="M2062.384 433.955a.255.255 0 0 0-.254.254v.543a.254.254 0 1 0 .508 0v-.543a.255.255 0 0 0-.254-.254z" class="cls-1" transform="translate(-2046.324 -421.902)"/>
    <path id="Path_232680" d="M2058.394 440.635a.255.255 0 0 0-.254.254v.543a.254.254 0 1 0 .508 0v-.543a.255.255 0 0 0-.254-.254z" class="cls-1" transform="translate(-2043.601 -426.461)"/>
    <path id="Path_232681" d="M2023.215 395.995a10.864 10.864 0 1 0 10.862 10.862 10.864 10.864 0 0 0-10.862-10.862zm-.254 3.312a.255.255 0 0 1 .257-.251h2a.25.25 0 0 1 .2.41l-.384.508.387.511a.25.25 0 0 1 .054.152.255.255 0 0 1-.254.254h-1.746v.47a.2.2 0 0 1-.2.2h-.114a.2.2 0 0 1-.2-.2zm-2.724 12.669a.383.383 0 0 1-.384.384h-2.432a.384.384 0 0 1-.384-.384v-4.566a.378.378 0 0 1 .378-.371h2.438a.383.383 0 0 1 .384.384zm3.769.1a.283.283 0 0 1-.282.283h-1.08a.286.286 0 0 1-.286-.283v-1.806a.287.287 0 0 1 .286-.286h1.08a.284.284 0 0 1 .282.286zm1.584.054a.228.228 0 0 1-.229.229h-.616a.228.228 0 0 1-.232-.229v-2.43a.234.234 0 0 0-.238-.229h-2.191a.238.238 0 0 0-.232.244v2.41a.23.23 0 0 1-.232.229h-.648a.228.228 0 0 1-.229-.229v-6.255a.643.643 0 0 1 .225-.489l1.788-1.521a.644.644 0 0 1 .832 0l1.775 1.518a.648.648 0 0 1 .226.489zm-2.01-8.957a.606.606 0 0 0-.787 0l-2.508 2.137a.345.345 0 0 1-.225.086.36.36 0 0 1-.27-.124.349.349 0 0 1 .038-.5l3.131-2.68a.348.348 0 0 1 .457 0l3.124 2.677a.353.353 0 0 1 .038.5l-.006.006a.354.354 0 0 1-.492.035zm5.814 8.811a.375.375 0 0 1-.375.375h-2.546a.375.375 0 0 1-.375-.375v-4.572a.375.375 0 0 1 .375-.375h2.55a.375.375 0 0 1 .372.378z" class="cls-1" transform="translate(-2012.35 -395.995)"/>
    <path id="Path_232682" d="M2062.384 440.635a.255.255 0 0 0-.254.254v.543a.254.254 0 1 0 .508 0v-.543a.255.255 0 0 0-.254-.254z" class="cls-1" transform="translate(-2046.324 -426.461)"/>
</svg>
