<?xml version="1.0" encoding="utf-8"?>
<!-- Generator: Adobe Illustrator 25.0.1, SVG Export Plug-In . SVG Version: 6.00 Build 0)  -->
<svg version="1.1" id="Layer_1" xmlns="http://www.w3.org/2000/svg" xmlns:xlink="http://www.w3.org/1999/xlink" x="0px" y="0px"
	 viewBox="0 0 37 36.9" style="enable-background:new 0 0 37 36.9;" xml:space="preserve">
<style type="text/css">
	.st0{fill:#FFEFBF;}
	.st1{opacity:0.79;fill:url(#SVGID_1_);enable-background:new    ;}
	.st2{opacity:0.79;fill:url(#SVGID_2_);enable-background:new    ;}
	.st3{opacity:0.79;fill:url(#SVGID_3_);enable-background:new    ;}
	.st4{opacity:0.79;fill:url(#SVGID_4_);enable-background:new    ;}
	.st5{opacity:0.81;fill:url(#SVGID_5_);enable-background:new    ;}
	.st6{opacity:0.81;fill:url(#SVGID_6_);enable-background:new    ;}
	.st7{opacity:0.81;fill:url(#SVGID_7_);enable-background:new    ;}
	.st8{opacity:0.52;fill:url(#SVGID_8_);enable-background:new    ;}
	.st9{fill:url(#Path_192063_1_);}
	.st10{fill:url(#Path_192064_1_);}
	.st11{fill:url(#Path_192065_1_);}
	.st12{fill:url(#Path_192066_1_);}
	.st13{fill:url(#Path_192067_1_);}
	.st14{fill:url(#Path_192068_1_);}
	.st15{fill:url(#Path_192069_1_);}
	.st16{fill:url(#Path_192070_1_);}
	.st17{fill:url(#Path_192071_1_);}
	.st18{fill:url(#Path_192072_1_);}
	.st19{fill:url(#Path_192073_1_);}
	.st20{fill:url(#Path_192074_1_);}
</style>
<g id="Layer_2_1_">
	<g id="svg3837">
		<g id="Group_30767">
			<g id="Group_30768">
				<g id="Group_30767-2">
					<path id="Path_191978" class="st0" d="M23.6,36.6h-0.2H23.6z"/>
					<path id="Path_191979" class="st0" d="M16,36.8h-0.2H16z"/>
					<path id="Path_191980" class="st0" d="M26.6,35.9l-0.2,0.1C26.5,35.9,26.6,35.9,26.6,35.9z"/>
					<path id="Path_191981" class="st0" d="M23.4,36.6h-0.2H23.4z"/>
					<path id="Path_191982" class="st0" d="M15.8,36.8h-0.3H15.8z"/>
					<path id="Path_191983" class="st0" d="M28.1,35.3L28.1,35.3L28.1,35.3z"/>
					<path id="Path_191984" class="st0" d="M23.9,36.5h-0.2H23.9z"/>
					<path id="Path_191986" class="st0" d="M16.6,36.9h-0.2H16.6z"/>
					<path id="Path_191987" class="st0" d="M24.1,36.5h-0.2H24.1z"/>
					<path id="Path_191988" class="st0" d="M23.1,36.6h-0.2H23.1z"/>
					<path id="Path_191989" class="st0" d="M26.8,35.8l-0.2,0.1L26.8,35.8z"/>
					<path id="Path_191990" class="st0" d="M22.9,36.7h-0.2H22.9z"/>
					<path id="Path_191991" class="st0" d="M16.3,36.9L16.3,36.9z"/>
					<path id="Path_191992" class="st0" d="M22.4,36.7h-0.2H22.4z"/>
					<path id="Path_191993" class="st0" d="M25.3,36.2l-0.2,0.1L25.3,36.2z"/>
					<path id="Path_191994" class="st0" d="M28.4,35.1L28.4,35.1z"/>
					<path id="Path_191995" class="st0" d="M26.4,35.9L26.2,36L26.4,35.9z"/>
					<path id="Path_191996" class="st0" d="M26.2,36L26,36.1L26.2,36z"/>
					<path class="st0" d="M28.3,35.2L28.3,35.2C28.2,35.2,28.2,35.2,28.3,35.2L28.3,35.2z"/>
					<path id="Path_191998" class="st0" d="M25.8,36.1h-0.2H25.8z"/>
					<path id="Path_191999" class="st0" d="M25.6,36.2l-0.2,0L25.6,36.2z"/>
					<path id="Path_192000" class="st0" d="M25.1,36.3l-0.2,0L25.1,36.3z"/>
					<path class="st0" d="M24.6,36.4c0,0-0.1,0-0.1,0h0c0,0-0.1,0-0.1,0H24.6z"/>
					<path id="Path_192002" class="st0" d="M24.4,36.4l-0.2,0L24.4,36.4z"/>
					<path id="Path_192003" class="st0" d="M28.6,35L28.6,35z"/>
					<path id="Path_192004" class="st0" d="M27.6,35.5l-0.1,0L27.6,35.5z"/>
					<path id="Path_192005" class="st0" d="M24.9,36.3h-0.2H24.9z"/>
					<path id="Path_192006" class="st0" d="M19.7,36.9L19.7,36.9z"/>
					<path id="Path_192007" class="st0" d="M27.8,35.4l-0.1,0L27.8,35.4z"/>
					<path id="Path_192008" class="st0" d="M26,36l-0.2,0.1L26,36z"/>
					<path id="Path_192009" class="st0" d="M27.2,35.6h-0.2H27.2z"/>
					<path id="Path_192010" class="st0" d="M20.3,36.9L20.3,36.9z"/>
					<path id="Path_192011" class="st0" d="M17.9,36.9L17.9,36.9z"/>
					<path id="Path_192012" class="st0" d="M20,36.9L20,36.9z"/>
					<path id="Path_192013" class="st0" d="M19.2,36.9L19.2,36.9z"/>
					<path class="st0" d="M7,33.1c0,0.1,0,0.1,0.1,0.2c0,0,0,0,0,0C7,33.2,7,33.1,7,33.1z"/>
					<path class="st0" d="M15.5,36.8c-4-0.4-7.4-1.5-8.3-3.3c0,0,0,0,0,0c0-0.1-0.1-0.2-0.1-0.3c0,0,0,0.1,0.1,0.1c0,0,0,0,0,0v0
						C7.9,35.2,11.5,36.4,15.5,36.8z"/>
					<linearGradient id="SVGID_1_" gradientUnits="userSpaceOnUse" x1="18.67" y1="20.525" x2="34.33" y2="20.525">
						<stop  offset="0" style="stop-color:#FFE259"/>
						<stop  offset="1" style="stop-color:#FFA751"/>
					</linearGradient>
					<path class="st1" d="M34.3,12.2L34.3,12.2L31,29l-0.7,3.5l0,0.2v-0.2c0-0.2,0-0.4-0.1-0.6c0-0.1-0.1-0.3-0.2-0.4L29.6,31
						L18.7,17.7l0,0l0,0L20,16l6.3-7.6L34.3,12.2z"/>
					<path id="Path_192016" class="st0" d="M27.4,35.6l-0.1,0L27.4,35.6z"/>
					<path id="Path_192017" class="st0" d="M20.5,36.9L20.5,36.9z"/>
					<path id="Path_192018" class="st0" d="M21.6,36.8h-0.2H21.6z"/>
					<path id="Path_192019" class="st0" d="M17.1,36.9L17.1,36.9z"/>
					<path id="Path_192020" class="st0" d="M27.9,35.3L27.9,35.3L27.9,35.3z"/>
					<path id="Path_192021" class="st0" d="M21.3,36.8L21.3,36.8z"/>
					<path id="Path_192022" class="st0" d="M21.8,36.8h-0.2H21.8z"/>
					<path id="Path_192023" class="st0" d="M16.8,36.9L16.8,36.9z"/>
					<path id="Path_192024" class="st0" d="M20.8,36.9L20.8,36.9z"/>
					<path id="Path_192025" class="st0" d="M22.1,36.8h-0.2H22.1z"/>
					<path id="Path_192026" class="st0" d="M17.6,36.9L17.6,36.9z"/>
					<path id="Path_192027" class="st0" d="M27.1,35.7l-0.2,0.1L27.1,35.7z"/>
					<path id="Path_192028" class="st0" d="M21.1,36.9h-0.2H21.1z"/>
					<path id="Path_192029" class="st0" d="M17.3,36.9L17.3,36.9z"/>
					<path id="Path_192030" class="st0" d="M27.7,35.5L27.7,35.5L27.7,35.5z"/>
					<path id="Path_192032" class="st0" d="M28.1,35.3L28.1,35.3L28.1,35.3z"/>
					<path id="Path_192033" class="st0" d="M28.2,35.2l-0.1,0L28.2,35.2z"/>
					<path id="Path_192034" class="st0" d="M28.4,35.1l-0.1,0.1L28.4,35.1z"/>
					<path id="Path_192035" class="st0" d="M16.9,36.9L16.9,36.9z"/>
					<path id="Path_192036" class="st0" d="M28.7,34.9L28.6,35L28.7,34.9z"/>
					<path id="Path_192037" class="st0" d="M28.5,35l-0.1,0.1L28.5,35z"/>
					<path id="Path_192038" class="st0" d="M21.1,36.9L21.1,36.9z"/>
					<path id="Path_192039" class="st0" d="M21.4,36.8L21.4,36.8z"/>
					<path id="Path_192040" class="st0" d="M20.6,36.9L20.6,36.9z"/>
					<path id="Path_192041" class="st0" d="M21.6,36.8L21.6,36.8z"/>
					<path id="Path_192042" class="st0" d="M20.9,36.9L20.9,36.9z"/>
					<path id="Path_192043" class="st0" d="M22.4,36.7L22.4,36.7z"/>
					<path id="Path_192044" class="st0" d="M22.7,36.7L22.7,36.7z"/>
					<path id="Path_192045" class="st0" d="M22.1,36.8L22.1,36.8z"/>
					<path id="Path_192046" class="st0" d="M21.9,36.8L21.9,36.8z"/>
					<path id="Path_192047" class="st0" d="M20.1,36.9L20.1,36.9z"/>
					<linearGradient id="SVGID_2_" gradientUnits="userSpaceOnUse" x1="6.9644" y1="32.6367" x2="6.9888" y2="32.6367">
						<stop  offset="0" style="stop-color:#FFE259"/>
						<stop  offset="1" style="stop-color:#FFA751"/>
					</linearGradient>
					<path class="st2" d="M7,32.6C7,32.6,7,32.6,7,32.6C7,32.6,7,32.6,7,32.6l0,0.1L7,32.6z"/>
					<linearGradient id="SVGID_3_" gradientUnits="userSpaceOnUse" x1="2.99" y1="20.48" x2="18.69" y2="20.48">
						<stop  offset="0" style="stop-color:#FFE259"/>
						<stop  offset="1" style="stop-color:#FFA751"/>
					</linearGradient>
					<path class="st3" d="M18.7,17.7L18.7,17.7L7.7,31l-0.4,0.5l-0.1,0.3c0,0,0,0.1,0,0.1c0,0,0,0,0,0v0c0,0,0,0,0,0s0,0,0,0
						c0,0.1,0,0.2-0.1,0.3c0,0,0,0,0,0c0,0.1,0,0.1,0,0.2c0,0,0,0,0,0l0,0l-0.6-3l-0.4-2L3,12.3L7.8,10l0.7-0.3l2.6-1.3v0h0l6.5,7.9
						L18.7,17.7L18.7,17.7z"/>
					<linearGradient id="SVGID_4_" gradientUnits="userSpaceOnUse" x1="18.6737" y1="17.66" x2="18.7136" y2="17.66">
						<stop  offset="0" style="stop-color:#FFE259"/>
						<stop  offset="1" style="stop-color:#FFA751"/>
					</linearGradient>
					<polygon class="st4" points="18.7,17.7 18.7,17.7 18.7,17.7 18.7,17.6 					"/>
					<path class="st0" d="M30,33.8c-0.1,0.2-0.3,0.4-0.4,0.6C29.7,34.1,29.9,34,30,33.8z"/>
					<path class="st0" d="M30.1,33.6L30.1,33.6c0,0,0,0.1,0,0.1C30,33.7,30.1,33.6,30.1,33.6z"/>
					<path class="st0" d="M30.2,33.2c0-0.1,0-0.1,0.1-0.2C30.3,33.1,30.3,33.2,30.2,33.2z"/>
					<path class="st0" d="M30.4,32.8L30.4,32.8c0,0.1,0,0.2-0.1,0.3C30.3,32.9,30.3,32.8,30.4,32.8z"/>
					<path class="st0" d="M30.1,33.6c0.1-0.1,0.1-0.2,0.1-0.4c0,0.1,0,0.1,0,0.2C30.2,33.5,30.1,33.5,30.1,33.6z"/>
					<path class="st0" d="M30.4,32.7L30.4,32.7L30.4,32.7C30.4,32.7,30.4,32.7,30.4,32.7z"/>
					<path id="Path_192050" class="st0" d="M22.9,36.7L22.9,36.7z"/>
					<path id="Path_192051" class="st0" d="M19.6,36.9L19.6,36.9z"/>
					<path id="Path_192052" class="st0" d="M20.3,36.9L20.3,36.9z"/>
					<path id="Path_192053" class="st0" d="M19.8,36.9h-0.1C19.8,36.9,19.8,36.9,19.8,36.9z"/>
					<path id="Path_192054" class="st0" d="M26.5,35.9L26.5,35.9z"/>
					<path id="Path_192055" class="st0" d="M26.2,36L26.2,36z"/>
					<path id="Path_192056" class="st0" d="M27.1,35.7L27.1,35.7z"/>
					<path id="Path_192057" class="st0" d="M27.3,35.6L27.3,35.6z"/>
					<path id="Path_192058" class="st0" d="M26.7,35.8L26.7,35.8C26.7,35.8,26.7,35.8,26.7,35.8z"/>
					<path id="Path_192059" class="st0" d="M26.9,35.8L26.9,35.8z"/>
					<path id="Path_192060" class="st0" d="M27.5,35.5L27.5,35.5L27.5,35.5z"/>
				</g>
				<linearGradient id="SVGID_5_" gradientUnits="userSpaceOnUse" x1="28.2239" y1="35.1767" x2="28.2851" y2="35.1767">
					<stop  offset="0" style="stop-color:#FFB65D"/>
					<stop  offset="1" style="stop-color:#EE9006"/>
				</linearGradient>
				<path class="st5" d="M28.2,35.2L28.2,35.2L28.2,35.2C28.2,35.2,28.2,35.2,28.2,35.2z"/>
				<linearGradient id="SVGID_6_" gradientUnits="userSpaceOnUse" x1="29.6382" y1="34.0317" x2="30.0667" y2="34.0317">
					<stop  offset="0" style="stop-color:#FFB65D"/>
					<stop  offset="1" style="stop-color:#EE9006"/>
				</linearGradient>
				<path class="st6" d="M29.6,34.3c0.2-0.2,0.3-0.4,0.4-0.6C29.9,34,29.7,34.2,29.6,34.3z"/>
				<linearGradient id="SVGID_7_" gradientUnits="userSpaceOnUse" x1="9.8767" y1="27.315" x2="33.7281" y2="27.315">
					<stop  offset="0" style="stop-color:#FFB65D"/>
					<stop  offset="1" style="stop-color:#EE9006"/>
				</linearGradient>
				<path class="st7" d="M30.4,32.6v0.1h0c0,0.2-0.1,0.4-0.2,0.7c0,0.1-0.1,0.1-0.1,0.2h0c-0.1,0-0.1,0-0.1,0.1c0,0,0,0,0.1,0.1
					c-0.7,1-2.3,1.8-4.4,2.4c-0.3,0.1-0.6,0.2-0.9,0.2c-0.1,0-0.1,0-0.2,0h0.1c0,0-0.1,0-0.1,0h0c-0.1,0-0.3,0.1-0.5,0.1
					c-0.1,0-0.2,0-0.2,0c-0.1,0-0.1,0-0.2,0c-0.1,0-0.2,0-0.2,0c-0.1,0-0.2,0-0.3,0c-0.1,0-0.2,0-0.3,0c-0.1,0-0.1,0-0.2,0
					c0,0,0,0,0,0c-0.1,0-0.1,0-0.2,0c-0.1,0-0.2,0-0.3,0c-0.1,0-0.2,0-0.3,0c-0.1,0-0.2,0-0.2,0c-0.2,0-0.4,0-0.6,0
					c-0.4,0-0.8,0.1-1.3,0.1c-0.4,0-0.7,0-1.1,0c-0.7,0-1.4,0-2.1-0.1c-0.2,0-0.3,0-0.5,0c-0.1,0-0.2,0-0.3,0h-0.2
					c-4-0.4-7.4-1.5-8.3-3.3c0,0,0,0,0,0c0,0,0-0.1,0-0.1v0c0,0,0,0,0,0C7,33.1,7,32.9,7,32.7v-0.2c0-0.2,0-0.3,0.1-0.5c0,0,0,0,0,0
					s0,0,0,0v0c0,0,0,0,0,0c0,0,0-0.1,0-0.1l0.1-0.3L7.7,31l11-13.3L29.6,31l0.4,0.5c0.1,0.1,0.1,0.2,0.2,0.4
					c0.1,0.2,0.1,0.4,0.1,0.6L30.4,32.6l0-0.2C30.4,32.5,30.4,32.6,30.4,32.6z"/>
				<linearGradient id="SVGID_8_" gradientUnits="userSpaceOnUse" x1="-0.3342" y1="32.6367" x2="40.4163" y2="32.6367">
					<stop  offset="0" style="stop-color:#C31600"/>
					<stop  offset="1" style="stop-color:#FFC500"/>
				</linearGradient>
				<path class="st8" d="M30.4,32.6L30.4,32.6c0,0.1,0,0.1,0,0.1c0,0.2-0.1,0.4-0.2,0.7c0,0.1-0.1,0.1-0.1,0.2h0c0,0,0,0.1-0.1,0.1
					c-0.7,1-2.3,1.8-4.4,2.4c-0.3,0.1-0.6,0.2-0.9,0.2c-0.1,0-0.2,0-0.2,0c0,0,0,0,0,0h0c-0.2,0-0.3,0.1-0.5,0.1c-0.1,0-0.1,0-0.2,0
					c-0.1,0-0.2,0-0.2,0c-0.1,0-0.1,0-0.2,0c-0.1,0-0.2,0-0.3,0c-0.1,0-0.2,0-0.3,0c-0.1,0-0.1,0-0.2,0c0,0,0,0,0,0
					c-0.1,0-0.1,0-0.2,0c-0.1,0-0.2,0-0.3,0s-0.2,0-0.3,0c-0.1,0-0.1,0-0.2,0c-0.2,0-0.4,0-0.6,0c-0.4,0-0.8,0.1-1.3,0.1
					c-0.4,0-0.7,0-1.1,0c-0.7,0-1.4,0-2.1-0.1c-0.2,0-0.3,0-0.5,0c-0.1,0-0.2,0-0.3,0c-4.4-0.4-7.8-1.8-8.6-3.4c0,0,0,0,0,0
					c0,0,0-0.1-0.1-0.1c0,0,0-0.1,0-0.2s0-0.1,0-0.1c0-0.1,0-0.2,0-0.3c0,0,0,0,0,0c0,0,0,0,0,0l0,0l0,0c0-0.1,0-0.1,0-0.2
					c0,0,0,0,0,0c0-0.1,0-0.2,0.1-0.3c0,0,0,0,0,0s0,0,0,0v0c0,0,0,0,0,0c0.9-2,5.7-3.6,11.6-3.6c5.8,0,10.5,1.5,11.5,3.5
					c0.1,0.2,0.2,0.4,0.2,0.6C30.4,32.5,30.4,32.6,30.4,32.6z"/>
				<linearGradient id="Path_192063_1_" gradientUnits="userSpaceOnUse" x1="29.0213" y1="4.7979" x2="36.916" y2="4.7979">
					<stop  offset="0" style="stop-color:#1B2A81"/>
					<stop  offset="1" style="stop-color:#26CCCC"/>
				</linearGradient>
				<path id="Path_192063" class="st9" d="M36.8,5.3l-1.9,3.9c-0.1,0.2-0.3,0.3-0.5,0.4c-0.1,0-0.2,0-0.3-0.1l-0.3-0.1h-0.1
					l-5.2-2.5c-0.3-0.1-0.4-0.5-0.3-0.8l1.8-3.9c0.9-1.8,3.2-2.5,5-1.6c1.7,0.9,2.4,2.8,1.8,4.6L36.8,5.3z"/>
				
					<linearGradient id="Path_192064_1_" gradientUnits="userSpaceOnUse" x1="-1360.2888" y1="121.0253" x2="-1359.2892" y2="121.0253" gradientTransform="matrix(10.38 0 0 6.9 14142.3604 -826.0201)">
					<stop  offset="0" style="stop-color:#350335"/>
					<stop  offset="1" style="stop-color:#0C8290"/>
				</linearGradient>
				<path id="Path_192064" class="st10" d="M35.8,10.8c0,0.5-0.1,0.9-0.3,1.3c-0.1,0.2-0.3,0.3-0.5,0.4c-0.1,0-0.2,0-0.3-0.1
					l-0.3-0.2l-1.2-0.6L27.4,9l-1.1-0.6l-0.5-0.2c-0.3-0.1-0.4-0.5-0.3-0.8c0,0,0,0,0,0l0,0c0.7-1.4,2.3-2.1,3.7-1.6
					c0,0,0.1,0,0.1,0l5,2.4l0.1,0.1C35.3,8.8,35.8,9.8,35.8,10.8z"/>
				<linearGradient id="Path_192065_1_" gradientUnits="userSpaceOnUse" x1="0.5957" y1="4.8452" x2="7.9149" y2="4.8452">
					<stop  offset="0" style="stop-color:#1B2A81"/>
					<stop  offset="1" style="stop-color:#26CCCC"/>
				</linearGradient>
				<path id="Path_192065" class="st11" d="M9.1,6.7C9,6.8,8.9,6.9,8.8,7L8.5,7.1l-5,2.4l0,0L3.2,9.7C3.2,9.7,3.1,9.7,3,9.7
					c-0.2,0-0.4-0.1-0.5-0.4L0.5,5.5c-1-1.8-0.3-4.1,1.5-5s4.1-0.3,5,1.5v0.2c0,0,0,0.1,0.1,0.2l1.9,3.9C9.2,6.3,9.2,6.5,9.1,6.7z"
					/>
				
					<linearGradient id="Path_192066_1_" gradientUnits="userSpaceOnUse" x1="-1360.2888" y1="121.1424" x2="-1359.2888" y2="121.1424" gradientTransform="matrix(10.38 0 0 6.91 14118.1406 -828.02)">
					<stop  offset="0" style="stop-color:#350335"/>
					<stop  offset="1" style="stop-color:#0C8290"/>
				</linearGradient>
				<path id="Path_192066" class="st12" d="M11.5,8.2l-0.4,0.2L9.9,9l-5.9,2.8l-1.1,0.6l-0.3,0.2c-0.3,0.1-0.6,0-0.8-0.3
					c0,0,0,0,0,0l0,0c-0.7-1.4-0.2-3,1.1-3.9L3,8.2l5-2.4h0.1c1.5-0.5,3.1,0.2,3.7,1.6C11.9,7.7,11.8,8,11.5,8.2z"/>
			</g>
			<g id="Group_30772">
				<g id="Group_30769">
					
						<linearGradient id="Path_192067_1_" gradientUnits="userSpaceOnUse" x1="-321.1198" y1="279.285" x2="-323.2798" y2="278.575" gradientTransform="matrix(1.03 0 0 2.64 335.67 -723.83)">
						<stop  offset="0" style="stop-color:#FF1717"/>
						<stop  offset="1" style="stop-color:#FFC522"/>
					</linearGradient>
					<path id="Path_192067" class="st13" d="M6.3,13.1c0,0.1,0,0.1,0,0.2l-0.4,2c0,0.2-0.2,0.3-0.3,0.3c-0.2,0-0.3-0.2-0.3-0.3l0,0
						l0,0l0.4-2c0-0.2,0.1-0.3,0.3-0.3c0,0,0.1,0,0.1,0C6.2,12.9,6.2,13,6.3,13.1L6.3,13.1z"/>
				</g>
				<g id="Group_30770">
					
						<linearGradient id="Path_192068_1_" gradientUnits="userSpaceOnUse" x1="-564.8109" y1="286.4086" x2="-566.6808" y2="286.3286" gradientTransform="matrix(1.3 0 0 2.56 737.84 -719.52)">
						<stop  offset="0" style="stop-color:#FF1717"/>
						<stop  offset="1" style="stop-color:#FFC522"/>
					</linearGradient>
					<path id="Path_192068" class="st14" d="M8.5,12.9c0.1,0,0.1,0.1,0.1,0.1L9.3,15c0.1,0.2,0,0.3-0.1,0.4c0,0,0,0,0,0
						c-0.1,0.1-0.3,0-0.4-0.1c0,0,0,0,0,0l0,0L8,13.3c-0.1-0.2,0-0.3,0.2-0.4c0,0,0,0,0,0C8.3,12.8,8.4,12.8,8.5,12.9L8.5,12.9z"/>
				</g>
				<g id="Group_30771">
					
						<linearGradient id="Path_192069_1_" gradientUnits="userSpaceOnUse" x1="-971.1874" y1="434.9396" x2="-971.9974" y2="435.9096" gradientTransform="matrix(2.34 0 0 1.67 2269.21 -701.91)">
						<stop  offset="0" style="stop-color:#FF1717"/>
						<stop  offset="1" style="stop-color:#FFC522"/>
					</linearGradient>
					<path id="Path_192069" class="st15" d="M10,11.5c0.1,0,0.1,0,0.2,0l1.8,1.1c0.1,0.1,0.2,0.3,0.1,0.4c-0.1,0.1-0.2,0.2-0.4,0.1
						l-1.8-1c-0.1-0.1-0.2-0.3-0.1-0.4C9.8,11.5,9.9,11.5,10,11.5z"/>
				</g>
			</g>
			<g id="Group_30776">
				<g id="Group_30773">
					
						<linearGradient id="Path_192070_1_" gradientUnits="userSpaceOnUse" x1="118.6556" y1="287.1062" x2="115.7956" y2="286.4062" gradientTransform="matrix(0.74 0 0 2.54 -62 -719.82)">
						<stop  offset="0" style="stop-color:#FF1717"/>
						<stop  offset="1" style="stop-color:#FFC522"/>
					</linearGradient>
					<path id="Path_192070" class="st16" d="M31.1,13c0,0.1,0,0.1,0,0.2l0.2,2c0,0.2,0.1,0.3,0.3,0.3c0,0,0,0,0,0
						c0.2,0,0.3-0.2,0.3-0.3l-0.2-2c0-0.2-0.2-0.3-0.3-0.3C31.2,12.9,31.1,12.9,31.1,13z"/>
				</g>
				<g id="Group_30774">
					
						<linearGradient id="Path_192071_1_" gradientUnits="userSpaceOnUse" x1="-665.0402" y1="310.3249" x2="-666.6302" y2="310.2449" gradientTransform="matrix(1.46 0 0 2.35 996.1301 -715.82)">
						<stop  offset="0" style="stop-color:#FF1717"/>
						<stop  offset="1" style="stop-color:#FFC522"/>
					</linearGradient>
					<path id="Path_192071" class="st17" d="M29.1,12.6c-0.1,0-0.1,0.1-0.1,0.1l-0.9,1.8c-0.1,0.1,0,0.3,0.1,0.4
						c0.1,0.1,0.3,0,0.4-0.1l0,0l0.9-1.7c0.1-0.1,0-0.3-0.1-0.4c0,0,0,0,0,0C29.2,12.6,29.2,12.6,29.1,12.6z"/>
				</g>
				<g id="Group_30775">
					
						<linearGradient id="Path_192072_1_" gradientUnits="userSpaceOnUse" x1="-978.119" y1="518.7459" x2="-978.899" y2="519.8659" gradientTransform="matrix(2.36 0 0 1.39 2316.96 -693.92)">
						<stop  offset="0" style="stop-color:#FF1717"/>
						<stop  offset="1" style="stop-color:#FFC522"/>
					</linearGradient>
					<path id="Path_192072" class="st18" d="M27.8,11.1c-0.1,0-0.1,0-0.2,0l-1.8,0.8c-0.1,0.1-0.2,0.3-0.1,0.4
						c0.1,0.1,0.2,0.2,0.3,0.1l1.8-0.8c0.1-0.1,0.2-0.2,0.2-0.4C28,11.1,27.9,11.1,27.8,11.1L27.8,11.1z"/>
				</g>
			</g>
			
				<linearGradient id="Path_192073_1_" gradientUnits="userSpaceOnUse" x1="-1075.0693" y1="382.7646" x2="-1075.4393" y2="381.9946" gradientTransform="matrix(2.98 0 0 1.88 3211.97 -707.59)">
				<stop  offset="0" style="stop-color:#F8D224"/>
				<stop  offset="1" style="stop-color:#E151AB"/>
			</linearGradient>
			<path id="Path_192073" class="st19" d="M5.9,11.5c0.7,0.7,1.8,0.6,2.5-0.1c0.3-0.4,0.5-0.8,0.5-1.3L5.9,11.5z"/>
			
				<linearGradient id="Path_192074_1_" gradientUnits="userSpaceOnUse" x1="-1075.7139" y1="383.0524" x2="-1075.3439" y2="382.2724" gradientTransform="matrix(2.98 0 0 1.88 3234.8301 -707.96)">
				<stop  offset="0" style="stop-color:#F8D224"/>
				<stop  offset="1" style="stop-color:#E151AB"/>
			</linearGradient>
			<path id="Path_192074" class="st20" d="M31.7,11.6c-0.7,0.7-1.8,0.6-2.5-0.1c-0.3-0.4-0.5-0.8-0.5-1.3L31.7,11.6z"/>
		</g>
	</g>
</g>
</svg>
