<svg xmlns="http://www.w3.org/2000/svg" xmlns:xlink="http://www.w3.org/1999/xlink" width="39.637" height="39.637" viewBox="0 0 39.637 39.637"><defs><style>.a{fill:url(#a);}.b{fill:#fff;}.c{fill:url(#b);}.d{fill:#e1e6e9;}.e{fill:#cfd0d1;}.f{fill:#f16051;}.g{fill:url(#c);}.h{fill:url(#e);}.i{fill:#193651;}</style><linearGradient id="a" y1="0.5" x2="1" y2="0.5" gradientUnits="objectBoundingBox"><stop offset="0" stop-color="#f8d224"/><stop offset="1" stop-color="#e151ab"/></linearGradient><linearGradient id="b" y1="0.5" x2="1" y2="0.5" gradientUnits="objectBoundingBox"><stop offset="0" stop-color="#6211c1"/><stop offset="1" stop-color="#a507a5"/></linearGradient><linearGradient id="c" x1="0.024" y1="0.5" x2="1.577" y2="0.5" gradientUnits="objectBoundingBox"><stop offset="0" stop-color="#2ec1e4"/><stop offset="1" stop-color="#e7ebc6"/></linearGradient><linearGradient id="e" y1="0.5" x2="1" y2="0.5" gradientUnits="objectBoundingBox"><stop offset="0" stop-color="#ff8109"/><stop offset="1" stop-color="#ffc837"/></linearGradient></defs><g transform="translate(-293.165 -166.906)"><circle class="a" cx="19.819" cy="19.819" r="19.819" transform="translate(293.165 166.906)"/><path class="b" d="M297.364,178.143v22.226a2.055,2.055,0,0,0,2.037,2.038h27.351a2.055,2.055,0,0,0,2.037-2.038V178.143Z"/><path class="c" d="M328.728,177.525H297.364a.584.584,0,0,0-.618.618v22.226a2.635,2.635,0,0,0,2.655,2.655h27.351a2.635,2.635,0,0,0,2.655-2.655V178.143A.674.674,0,0,0,328.728,177.525Zm-.618,22.844a1.4,1.4,0,0,1-1.42,1.42H299.4a1.4,1.4,0,0,1-1.42-1.42V178.76H328.11v21.609Z"/><rect class="d" width="27.351" height="4.075" transform="translate(299.401 196.294)"/><rect class="e" width="21.177" height="0.617" transform="translate(305.513 198.023)"/><rect class="f" width="6.112" height="0.617" transform="translate(299.401 198.023)"/><rect class="g" width="27.351" height="16.114" transform="translate(299.401 180.18)"/><path class="b" d="M326.69,171.043H299.4a2.055,2.055,0,0,0-2.037,2.037v5.063h31.364V173.08A2.056,2.056,0,0,0,326.69,171.043Z"/><path class="c" d="M326.69,170.425H299.4a2.635,2.635,0,0,0-2.655,2.655v5.063a.583.583,0,0,0,.618.617h31.364a.583.583,0,0,0,.617-.617V173.08A2.635,2.635,0,0,0,326.69,170.425Zm1.42,7.1H297.981V173.08a1.4,1.4,0,0,1,1.42-1.42h27.351a1.4,1.4,0,0,1,1.42,1.42v4.445Z"/><rect class="h" width="27.351" height="3.025" transform="translate(299.401 173.08)"/><rect class="i" width="0.864" height="1.544" transform="translate(305.205 197.591)"/><path class="b" d="M311.255,185.984v4.507l3.581-2.284Z"/><rect class="i" width="1.235" height="1.235" transform="translate(318.417 173.944)"/><rect class="i" width="1.235" height="1.235" transform="translate(321.134 173.944)"/><rect class="i" width="1.235" height="1.235" transform="translate(323.85 173.944)"/></g></svg>