<svg xmlns="http://www.w3.org/2000/svg" id="Group_19555" width="103.029" height="105.86" viewBox="0 0 103.029 105.86">
    <defs>
        <linearGradient id="linear-gradient" x1=".146" x2=".854" y1=".146" y2=".854" gradientUnits="objectBoundingBox">
            <stop offset="0" stop-color="#ffdc52"/>
            <stop offset=".995" stop-color="#feb101"/>
        </linearGradient>
        <style>
            .cls-2{fill:#542a18}.cls-3{fill:#5fa5e0}
        </style>
    </defs>
    <path id="Path_125661" fill="url(#linear-gradient)" d="M1867.615 2336.156a49.52 49.52 0 1 1-49.52-49.52 49.52 49.52 0 0 1 49.52 49.52z" transform="translate(-1764.587 -2279.818)"/>
    <g id="Group_19551" transform="translate(16.94 45.996)">
        <g id="Group_19549">
            <path id="Path_125662" d="M1798.606 2325.357c-1.144 2.847-3.274 5.822-6.613 5.947-3.368.125-5.567-3.448-6.615-6.157-1.052-2.729-5.487-1.544-4.42 1.22 1.9 4.924 5.377 9.313 11.034 9.524 5.5.205 9.209-4.771 11.033-9.314 1.105-2.746-3.333-3.928-4.421-1.219z" class="cls-2" transform="translate(-1780.795 -2323.601)"/>
        </g>
        <g id="Group_19550" transform="translate(50.73)">
            <path id="Path_125663" d="M1846.47 2325.357c-1.143 2.847-3.273 5.822-6.613 5.947-3.367.125-5.567-3.448-6.615-6.157-1.052-2.729-5.486-1.544-4.42 1.22 1.9 4.924 5.378 9.313 11.034 9.524 5.5.205 9.21-4.771 11.034-9.314 1.1-2.746-3.334-3.928-4.422-1.219z" class="cls-2" transform="translate(-1828.659 -2323.601)"/>
        </g>
    </g>
    <path id="Path_125664" d="M1825.286 2351.726c0 6.1-3.99 11.049-8.915 11.049s-8.913-4.948-8.913-11.049 3.99-11.049 8.913-11.049 8.915 4.946 8.915 11.049z" class="cls-2" transform="translate(-1762.259 -2276.583)"/>
    <g id="Group_19552" transform="translate(0 18.036)">
        <path id="Path_125665" d="M1778.521 2297.22a1.934 1.934 0 0 1 1.162.428 1.356 1.356 0 0 1 .574 1.149 1.7 1.7 0 0 1-.374 1.015l-10.235 13.148-.32-.106h8.925a1.687 1.687 0 0 1 1.163.415 1.408 1.408 0 0 1 .468 1.109 1.459 1.459 0 0 1-.468 1.109 1.627 1.627 0 0 1-1.163.441h-11.732a1.664 1.664 0 0 1-1.2-.495 1.486 1.486 0 0 1-.507-1.081 1.7 1.7 0 0 1 .374-1.017l10.262-13.2.24.16h-8.1a1.653 1.653 0 0 1-1.162-.427 1.449 1.449 0 0 1-.467-1.122 1.41 1.41 0 0 1 .467-1.11 1.687 1.687 0 0 1 1.162-.414z" class="cls-3" transform="translate(-1764.812 -2297.22)"/>
    </g>
    <g id="Group_19553" transform="translate(53.006 21.869)">
        <path id="Path_125666" d="M1823.968 2300.837a1.289 1.289 0 0 1 .776.286.905.905 0 0 1 .384.767 1.138 1.138 0 0 1-.25.677l-6.827 8.769-.214-.071h5.953a1.129 1.129 0 0 1 .776.277.937.937 0 0 1 .312.739.973.973 0 0 1-.312.74 1.091 1.091 0 0 1-.776.295h-7.825a1.114 1.114 0 0 1-.8-.33 1 1 0 0 1-.338-.723 1.134 1.134 0 0 1 .249-.676l6.846-8.805.16.106h-5.4a1.1 1.1 0 0 1-.776-.285.965.965 0 0 1-.312-.748.941.941 0 0 1 .312-.74 1.127 1.127 0 0 1 .776-.277z" class="cls-3" transform="translate(-1814.824 -2300.837)"/>
    </g>
    <g id="Group_19554" transform="translate(21.863)">
        <path id="Path_125667" d="M1806.723 2280.2a3.006 3.006 0 0 1 1.8.664 2.111 2.111 0 0 1 .892 1.784 2.65 2.65 0 0 1-.581 1.577l-15.89 20.411-.5-.165h13.857a2.627 2.627 0 0 1 1.805.642 2.187 2.187 0 0 1 .726 1.722 2.263 2.263 0 0 1-.726 1.721 2.53 2.53 0 0 1-1.805.685H1788.1a2.584 2.584 0 0 1-1.868-.767 2.31 2.31 0 0 1-.789-1.68 2.652 2.652 0 0 1 .581-1.576l15.931-20.494.374.249h-12.571a2.567 2.567 0 0 1-1.8-.665 2.247 2.247 0 0 1-.727-1.742 2.186 2.186 0 0 1 .727-1.721 2.617 2.617 0 0 1 1.8-.644z" class="cls-3" transform="translate(-1785.44 -2280.203)"/>
    </g>
</svg>
