<svg xmlns="http://www.w3.org/2000/svg" width="42.582" height="34.756" viewBox="0 0 42.582 34.756">
    <defs>
        <style>
            .cls-1{fill:#333}
        </style>
    </defs>
    <g id="Group_31005" transform="translate(-354.562 -223.773)">
        <g id="Group_31004" transform="translate(354.562 223.773)">
            <g id="Group_31001">
                <path id="Path_192241" d="M366.984 224.81c-7.049 1.6-11.5 7.222-12.314 14.287-.874 7.623 3.626 13.983 10.291 17.212a20.131 20.131 0 0 0 11.264 2.08 15.153 15.153 0 0 0 5.073-1.69 12.546 12.546 0 0 0 1.939-1.279c.349-.276 1.479-1.625 1.8-1.668l11.7-1.6c.463-.063.508-.679.254-.963q-2.944-3.3-5.881-6.6l-1.166-1.311c-.459-.517.01-1.7.008-2.5a19.377 19.377 0 0 0-2.534-9.213c-5.281-9.613-17.282-9.342-25.752-4.487-.3.17-.036.606.266.455a23.266 23.266 0 0 1 14.95-2.463c5.8 1.152 9.7 5.782 11.306 11.278a18.056 18.056 0 0 1 .635 4.431c.026.733-.474 2.407.034 2.979l1.9 2.138q2.713 3.054 5.42 6.115.2-.492.407-.984l-10.553 1.4-1.224.162c-.389.051-.522.275-.8.565a13.908 13.908 0 0 1-2.4 1.921c-3.581 2.347-8.008 2.53-12.051 1.5-7.144-1.825-12.978-7.1-13.613-14.688a16.1 16.1 0 0 1 11.13-16.77.152.152 0 0 0-.081-.293z" class="cls-1" transform="translate(-354.562 -223.773)"/>
            </g>
            <g id="Group_31002" transform="translate(4.979 4.615)">
                <path id="Path_192242" d="M381.037 235.824a9.674 9.674 0 0 0-9.241 1.735c-2.732 2.279-4.956 5.96-4.736 9.614a.368.368 0 0 0 .719.1c1.036-3.013 1.883-5.788 4.083-8.2a9.641 9.641 0 0 1 9.075-2.889.187.187 0 0 0 .1-.361z" class="cls-1" transform="translate(-367.044 -235.344)"/>
            </g>
            <g id="Group_31003" transform="translate(5.235 18.363)">
                <path id="Path_192243" d="M367.72 270.284c-.008.44-.207 1.6.491 1.6s.5-1.162.491-1.6a.491.491 0 0 0-.982 0z" class="cls-1" transform="translate(-367.688 -269.81)"/>
            </g>
        </g>
    </g>
</svg>
