<svg xmlns="http://www.w3.org/2000/svg" width="51.803" height="45.489" viewBox="0 0 51.803 45.489">
    <defs>
        <style>
            .cls-1{fill:#333}
        </style>
    </defs>
    <g id="Group_30996" transform="translate(-37.8 -221.286)">
        <g id="Group_30995" transform="translate(37.8 221.286)">
            <g id="Group_30984">
                <g id="Group_30978" transform="translate(10.913)">
                    <path id="Path_192225" d="M68.905 233.231c-4.049-1.007-.532-9.023 1.731-10.4 2.687-1.634 6.291-.083 7.941 2.235 1.853 2.6 1.324 5.9-.31 8.436-.123.191.17.422.317.245 4.872-5.853-1.17-14.555-8.409-12.008-2.75.968-4.206 4.684-4.491 7.317-.222 2.048.33 5.578 3.22 4.7a.278.278 0 0 0 0-.531z" class="cls-1" transform="translate(-65.642 -221.286)"/>
                </g>
                <g id="Group_30979" transform="translate(.764 7.972)">
                    <path id="Path_192226" d="M50.589 243.567c.066-2.669-3.265-1.993-4.918-1.428a8.422 8.422 0 0 0-5.435 5.233c-1.815 5 1.6 11.843 7.527 9.221.282-.124.07-.523-.2-.47-2.2.434-4.27.214-5.571-1.8a8.033 8.033 0 0 1-.741-5.888 6.631 6.631 0 0 1 3.069-4.286c1.364-.838 5-2.656 6.027-.517.058.121.236.055.239-.065z" class="cls-1" transform="translate(-39.748 -241.623)"/>
                </g>
                <g id="Group_30980" transform="translate(0 21.139)">
                    <path id="Path_192227" d="M40.541 275.292c-4.087 3.807-3.471 9.623.974 12.825 4.553 3.28 10.277.881 12.28-4.007.127-.308-.336-.449-.5-.212-2.684 3.809-6.825 5.657-11.01 2.908-4.048-2.659-3.643-7.548-1.308-11.18.175-.272-.21-.542-.433-.334z" class="cls-1" transform="translate(-37.8 -275.218)"/>
                </g>
                <g id="Group_30981" transform="translate(14.282 24.091)">
                    <path id="Path_192228" d="M74.3 290.042c-.95 5.634 8.349 6.412 11.909 4.973 4.985-2.016 8.726-9.635 2.19-12.25-.262-.1-.4.3-.184.437 2.444 1.567 3.472 3.741 2.13 6.451a9.1 9.1 0 0 1-5.327 4.356c-3.3 1.056-9.4.1-10.08-3.967a.333.333 0 0 0-.638 0z" class="cls-1" transform="translate(-74.237 -282.748)"/>
                </g>
                <g id="Group_30982" transform="translate(25.223 6.627)">
                    <path id="Path_192229" d="M104.812 246.032c2.723.74 3.472-2.162 3.055-4.291-.444-2.27-3.712-5.071-5.687-2.558-.053.068-.029.2.078.188 1.017-.067 1.952-.474 2.913.064a3.92 3.92 0 0 1 1.456 2.247c.481 1.465.423 4.288-1.77 4.025-.189-.022-.219.277-.044.325z" class="cls-1" transform="translate(-102.152 -238.193)"/>
                </g>
                <g id="Group_30983" transform="translate(30.263 11.237)">
                    <path id="Path_192230" d="M115.691 251.145c3.942-.617 6.434 1.873 6.408 5.75a8.3 8.3 0 0 1-6.248 8.086c-.5.111-.285.854.21.762 8.879-1.65 9.983-17.459-.657-15.643-.691.118-.393 1.152.288 1.046z" class="cls-1" transform="translate(-115.01 -249.954)"/>
                </g>
            </g>
            <g id="Group_30990" transform="translate(36.649 24.588)">
                <g id="Group_30985" transform="translate(0 2.305)">
                    <path id="Path_192231" d="M136.353 290.6a3.46 3.46 0 0 0-4.092-.052 3.037 3.037 0 0 0-.867 3.045 3.483 3.483 0 0 0 1.937 2.465 2.646 2.646 0 0 0 3.144-.936.2.2 0 0 0-.228-.3c-.93.225-1.573.967-2.583.445a2.574 2.574 0 0 1-1.194-1.869 2.191 2.191 0 0 1 .526-1.98c.794-.763 2.3-.552 3.288-.564a.139.139 0 0 0 .07-.257z" class="cls-1" transform="translate(-131.304 -289.899)"/>
                </g>
                <g id="Group_30986" transform="translate(3.208 7.779)">
                    <path id="Path_192232" d="M139.58 304.1a3.122 3.122 0 0 0 6.022 1.651c.1-.367-.368-.507-.571-.241-.742.971-1.642 1.771-2.948 1.5a2.665 2.665 0 0 1-1.872-2.823.323.323 0 0 0-.631-.085z" class="cls-1" transform="translate(-139.49 -303.866)"/>
                </g>
                <g id="Group_30987" transform="translate(7.898 3.722)">
                    <path id="Path_192233" d="M151.461 297.718a2.406 2.406 0 0 0 2.024 2.739 3.828 3.828 0 0 0 3.689-1.969 3.32 3.32 0 0 0-.577-4.256 2.882 2.882 0 0 0-4.124.335.3.3 0 0 0 .356.462c1-.46 2.075-.839 3.029-.058a2.349 2.349 0 0 1 .4 2.982c-1.067 1.961-3.876 2.026-4.526-.27a.138.138 0 0 0-.27.036z" class="cls-1" transform="translate(-151.454 -293.515)"/>
                </g>
                <g id="Group_30988" transform="translate(3.654)">
                    <path id="Path_192234" d="M141.092 286.83a2.179 2.179 0 0 1 1.91-1.812c1.319-.067 1.961 1.181 2.362 2.235a.332.332 0 0 0 .649-.088 2.875 2.875 0 0 0-3.013-3.146 2.2 2.2 0 0 0-2.246 2.81.176.176 0 0 0 .337 0z" class="cls-1" transform="translate(-140.628 -284.018)"/>
                </g>
                <g id="Group_30989" transform="translate(7.996 .919)">
                    <path id="Path_192235" d="M152.121 287.511a2.668 2.668 0 0 1 2.119.149c.714.428.682 1.292.653 2.013a.471.471 0 0 0 .873.236 2.463 2.463 0 0 0-.75-3 2.6 2.6 0 0 0-3.157-.017c-.308.209-.125.736.262.621z" class="cls-1" transform="translate(-151.704 -286.364)"/>
                </g>
            </g>
            <g id="Group_30994" transform="translate(44.193 38.247)">
                <g id="Group_30991" transform="translate(0 .276)">
                    <path id="Path_192236" d="M154.763 319.98a2.743 2.743 0 0 0-4.138 1.727 2.269 2.269 0 0 0 .546 2.17 1.971 1.971 0 0 0 2.553.1.333.333 0 0 0-.146-.553c-.5-.143-1.175.017-1.607-.343a1.151 1.151 0 0 1-.251-1.166 2.094 2.094 0 0 1 2.809-1.377.3.3 0 0 0 .234-.554z" class="cls-1" transform="translate(-150.55 -319.57)"/>
                </g>
                <g id="Group_30992" transform="translate(.911 2.884)">
                    <path id="Path_192237" d="M153.8 327.547c-.716.463-1.247 1.273-.691 2.086a2.894 2.894 0 0 0 2.375.949 2.319 2.319 0 0 0 1.546-4.287c-.212-.169-.586-.021-.492.286.218.711.882 1.633.47 2.372a1.748 1.748 0 0 1-1.458.682 2.5 2.5 0 0 1-1.646-.429c-.439-.357-.162-.925.158-1.395.11-.16-.1-.367-.264-.264z" class="cls-1" transform="translate(-152.874 -326.224)"/>
                </g>
                <g id="Group_30993" transform="translate(2.505)">
                    <path id="Path_192238" d="M160.114 323.768a2.493 2.493 0 0 0 1.848-1.921 2.375 2.375 0 0 0-1.164-2.693c-1.842-1.106-4.632 1.194-3.654 3.178.165.334.6.132.633-.171.121-1.17 1.132-2.786 2.53-2.168 1.491.659.687 2.7-.385 3.322-.259.151-.073.495.191.454z" class="cls-1" transform="translate(-156.943 -318.866)"/>
                </g>
            </g>
        </g>
    </g>
</svg>
