<svg width="60" height="70" viewBox="0 0 74 87" fill="none" xmlns="http://www.w3.org/2000/svg">
<path d="M11.2688 71.808C13.3968 72.496 14.4608 73.968 14.4608 76.224C14.4608 77.728 13.9728 78.904 12.9968 79.752C12.0208 80.584 10.6848 81 8.98881 81H1.98081V64.2H8.31681C11.5168 64.2 13.1168 65.552 13.1168 68.256C13.1168 69.92 12.5008 71.104 11.2688 71.808ZM5.05281 70.8H7.86081C8.61281 70.8 9.17281 70.648 9.54081 70.344C9.90881 70.024 10.0928 69.536 10.0928 68.88C10.0928 68.192 9.90881 67.696 9.54081 67.392C9.17281 67.088 8.61281 66.936 7.86081 66.936H5.05281V70.8ZM8.53281 78.264C9.42881 78.264 10.1088 78.088 10.5728 77.736C11.0528 77.368 11.2928 76.752 11.2928 75.888C11.2928 75.04 11.0448 74.44 10.5488 74.088C10.0688 73.72 9.39681 73.536 8.53281 73.536H5.05281V78.264H8.53281ZM17.0043 64.2H23.1483C24.9403 64.2 26.3483 64.632 27.3723 65.496C28.4123 66.344 28.9323 67.608 28.9323 69.288C28.9323 70.456 28.6843 71.416 28.1883 72.168C27.6923 72.904 26.9883 73.496 26.0763 73.944L29.8683 81H26.4363L23.1963 74.76H23.0763H20.0763V81H17.0043V64.2ZM22.3323 72.192C24.5883 72.192 25.7163 71.28 25.7163 69.456C25.7163 68.576 25.4603 67.912 24.9483 67.464C24.4363 67 23.6043 66.768 22.4523 66.768H20.0763V72.192H22.3323ZM32.0277 64.2H42.7797V67.176H35.1717V70.752H41.0757V73.728H35.1717V78.024H43.0197V81H32.0277V64.2ZM54.3803 77.016H48.2603L46.8683 81H43.8923L49.8683 64.2H52.7723L58.7483 81H55.7723L54.3803 77.016ZM53.4203 74.328L51.3323 68.328L49.2203 74.328H53.4203ZM60.6683 64.2H63.7403V81H60.6683V64.2ZM63.9803 72.12L70.1963 64.2H73.7963L67.5323 72.12L73.7963 81H70.1963L63.9803 72.12Z" fill="#EE452B"/>
<path d="M52 6H20V26C20 30.42 23.58 34 28 34H40C44.42 34 48 30.42 48 26V20H52C54.21 20 56 18.21 56 16V10C56 7.79 54.21 6 52 6ZM52 16H48V10H52V16ZM16 42H52V38H16V42Z" fill="#FF764E"/>
<rect x="16" y="38" width="36" height="4" fill="#EE452B"/>
</svg>
