<svg width="82" height="86" viewBox="0 0 103 107" fill="none" xmlns="http://www.w3.org/2000/svg">
<path d="M40.7815 91.808C42.9095 92.496 43.9735 93.968 43.9735 96.224C43.9735 97.728 43.4855 98.904 42.5095 99.752C41.5335 100.584 40.1975 101 38.5015 101H31.4935V84.2H37.8295C41.0295 84.2 42.6295 85.552 42.6295 88.256C42.6295 89.92 42.0135 91.104 40.7815 91.808ZM34.5655 90.8H37.3735C38.1255 90.8 38.6855 90.648 39.0535 90.344C39.4215 90.024 39.6055 89.536 39.6055 88.88C39.6055 88.192 39.4215 87.696 39.0535 87.392C38.6855 87.088 38.1255 86.936 37.3735 86.936H34.5655V90.8ZM38.0455 98.264C38.9415 98.264 39.6215 98.088 40.0855 97.736C40.5655 97.368 40.8055 96.752 40.8055 95.888C40.8055 95.04 40.5575 94.44 40.0615 94.088C39.5815 93.72 38.9095 93.536 38.0455 93.536H34.5655V98.264H38.0455ZM58.6538 84.2L52.7498 94.208V101H49.6778V94.208L43.7738 84.2H47.1338L51.2138 91.448L55.2938 84.2H58.6538ZM60.2982 84.2H71.0502V87.176H63.4422V90.752H69.3462V93.728H63.4422V98.024H71.2902V101H60.2982V84.2Z" fill="#5072CE"/>
<path d="M21.2357 42.8698C27.5305 42.8698 32.6335 37.7669 32.6335 31.472C32.6335 25.1772 27.5305 20.0742 21.2357 20.0742C14.9409 20.0742 9.83789 25.1772 9.83789 31.472C9.83789 37.7669 14.9409 42.8698 21.2357 42.8698Z" fill="#5C84EE"/>
<path d="M81.2381 42.8698C87.533 42.8698 92.636 37.7669 92.636 31.472C92.636 25.1772 87.533 20.0742 81.2381 20.0742C74.9433 20.0742 69.8403 25.1772 69.8403 31.472C69.8403 37.7669 74.9433 42.8698 81.2381 42.8698Z" fill="#5C84EE"/>
<path d="M53.595 11.0345V2.64992C53.595 1.33982 52.5469 0.291748 51.2368 0.291748C49.9267 0.291748 48.8787 1.33982 48.8787 2.64992V11.0345C48.8787 12.3446 49.9267 13.3927 51.2368 13.3927C52.5469 13.3927 53.595 12.3446 53.595 11.0345Z" fill="#5072CE"/>
<path d="M39.8391 16.799C40.2321 17.3231 40.8872 17.4541 41.5422 17.4541C42.1972 17.4541 42.7213 17.1921 43.2453 16.799C44.1624 15.882 44.1624 14.4409 43.2453 13.5238L37.2189 7.49737C36.3018 6.5803 34.8607 6.5803 33.9437 7.49737C33.0266 8.41443 33.0266 9.85554 33.9437 10.7726L39.8391 16.799Z" fill="#5072CE"/>
<path d="M60.9315 17.4539C61.5866 17.4539 62.1106 17.1919 62.6347 16.7989L68.5301 10.9035C69.4471 9.9864 69.4471 8.54529 68.5301 7.62823C67.613 6.71116 66.1719 6.71116 65.2548 7.62823L59.3594 13.5236C58.4424 14.4407 58.4424 15.8818 59.3594 16.7989C59.7525 17.1919 60.4075 17.4539 60.9315 17.4539Z" fill="#5072CE"/>
<path fill-rule="evenodd" clip-rule="evenodd" d="M92.2519 59.901C92.1611 59.7689 92.0706 59.6377 91.9808 59.508L91.999 59.901H72.0573L71.5434 54.3987C66.434 53.4816 60.6696 49.8134 57.9184 46.4071C53.6424 40.9992 52.6261 30.279 52.4357 28.2706C52.4278 28.1868 52.4213 28.1182 52.416 28.0658C52.285 25.7076 54.1191 23.6115 56.4773 23.4805C58.8355 23.3495 60.9316 25.1836 61.0626 27.5418C61.3247 31.6031 62.6348 38.5465 64.7309 41.0357C66.565 43.2629 71.2814 45.8831 73.6395 45.8831H88.0506C92.5049 45.8831 94.863 48.6343 96.4352 51.1234C96.8282 51.6475 97.4832 52.5645 98.1383 53.4816C98.2772 53.6701 98.4184 53.8609 98.561 54.0537C99.931 55.9051 101.435 57.9383 102.368 59.901H92.2519Z" fill="#5C84EE"/>
<path fill-rule="evenodd" clip-rule="evenodd" d="M45.9964 23.2183C43.6383 23.0873 41.5421 24.9214 41.4111 27.2796C41.1491 31.3409 39.839 38.2843 37.7429 40.7735C35.9087 43.0007 31.1924 45.6209 28.8342 45.6209H14.4232C9.83788 45.6209 7.61072 48.3721 6.03861 50.8612C5.79395 51.269 5.44775 51.7275 5.06323 52.2369C4.83004 52.5457 4.58277 52.8732 4.33549 53.2194C2.70688 55.3909 0.988284 57.7423 0 59.9009H10.1997C10.2979 59.7685 10.3958 59.6373 10.4929 59.5079L10.4748 59.9009H30.2981L30.7994 54.1365C35.9087 53.2194 41.5421 49.6822 44.4243 46.1449C49.0097 40.5115 49.9267 28.9827 49.9267 27.8036C50.1887 25.4454 48.3546 23.4803 45.9964 23.2183Z" fill="#5C84EE"/>
</svg>
