<svg width="61" height="92" viewBox="0 0 76 115" fill="none" xmlns="http://www.w3.org/2000/svg">
<path d="M4.03159 92.2H7.10359V106.264H14.0156V109H4.03159V92.2ZM16.0316 92.2H26.7836V95.176H19.1756V98.752H25.0796V101.728H19.1756V106.024H27.0236V109H16.0316V92.2ZM38.3842 105.016H32.2642L30.8722 109H27.8962L33.8722 92.2H36.7762L42.7522 109H39.7762L38.3842 105.016ZM37.4242 102.328L35.3362 96.328L33.2242 102.328H37.4242ZM44.6722 92.2H50.8162C52.6082 92.2 54.0162 92.632 55.0402 93.496C56.0802 94.344 56.6002 95.608 56.6002 97.288C56.6002 98.456 56.3522 99.416 55.8562 100.168C55.3602 100.904 54.6562 101.496 53.7442 101.944L57.5362 109H54.1042L50.8642 102.76H50.7442H47.7442V109H44.6722V92.2ZM50.0002 100.192C52.2562 100.192 53.3842 99.28 53.3842 97.456C53.3842 96.576 53.1282 95.912 52.6162 95.464C52.1042 95 51.2722 94.768 50.1202 94.768H47.7442V100.192H50.0002ZM59.6957 92.2H62.7197L69.8957 103.048V92.2H72.9677V109H70.4477L62.7677 97.48V109H59.6957V92.2Z" fill="#CCB847"/>
<path d="M64.7583 17.3058L60.2774 12.825L54.5933 18.5092L59.0741 22.99L64.7583 17.3058ZM41.1666 4.90833H34.8333V14.25H41.1666V4.90833ZM63.3333 42.75H72.8333V36.4167H63.3333V42.75ZM28.4999 56.0183V71.25H47.4999V56.0183C53.1683 52.725 56.9999 46.6133 56.9999 39.5833C56.9999 29.0858 48.4974 20.5833 37.9999 20.5833C27.5024 20.5833 18.9999 29.0858 18.9999 39.5833C18.9999 46.6133 22.8316 52.7408 28.4999 56.0183ZM12.6666 42.75L12.6666 36.4167H3.16659V42.75H12.6666ZM21.3908 18.5092L15.7066 12.825L11.2258 17.3058L16.9099 22.99L21.3908 18.5092Z" fill="#FAE675"/>
<path d="M29.3749 73.8749C29.3749 75.5478 30.7437 76.9166 32.4166 76.9166H44.5833C46.2562 76.9166 47.6249 75.5478 47.6249 73.8749V70.8333H29.3749V73.8749ZM38.4999 16.0833C26.7439 16.0833 17.2083 25.6189 17.2083 37.3749C17.2083 44.6141 20.8278 50.9864 26.3333 54.8341V61.7083C26.3333 63.3812 27.702 64.7499 29.3749 64.7499H47.6249C49.2978 64.7499 50.6666 63.3812 50.6666 61.7083V54.8341C56.172 50.9864 59.7916 44.6141 59.7916 37.3749C59.7916 25.6189 50.256 16.0833 38.4999 16.0833ZM47.1839 49.8458L44.5833 51.6555V58.6666H32.4166V51.6708L29.816 49.861C25.7249 47.0018 23.2916 42.348 23.2916 37.3901C23.2916 29.0103 30.1201 22.1818 38.4999 22.1818C46.8797 22.1818 53.7083 29.0103 53.7083 37.3901C53.7083 42.3328 51.2749 46.9866 47.1839 49.8458Z" fill="#CCB847"/>
</svg>
