<svg width="140" height="36" viewBox="0 0 140 36" fill="none" xmlns="http://www.w3.org/2000/svg">
<g filter="url(#filter0_dd)">
<path d="M11.72 20.336C10.776 20.336 9.76 20.208 8.672 19.952C7.6 19.696 6.76 19.416 6.152 19.112L6.512 15.848C8.624 16.872 10.48 17.384 12.08 17.384C12.928 17.384 13.592 17.224 14.072 16.904C14.552 16.568 14.792 16.08 14.792 15.44C14.792 14.96 14.656 14.568 14.384 14.264C14.128 13.944 13.752 13.68 13.256 13.472C12.76 13.248 11.968 12.944 10.88 12.56C9.856 12.208 9.008 11.84 8.336 11.456C7.664 11.056 7.128 10.552 6.728 9.944C6.344 9.32 6.152 8.56 6.152 7.664C6.152 6.224 6.68 5.064 7.736 4.184C8.792 3.304 10.304 2.864 12.272 2.864C13.2 2.864 14.12 2.968 15.032 3.176C15.96 3.384 16.808 3.64 17.576 3.944L17.264 7.088C16.272 6.656 15.36 6.336 14.528 6.128C13.712 5.904 12.896 5.792 12.08 5.792C11.168 5.792 10.472 5.944 9.992 6.248C9.512 6.552 9.272 6.992 9.272 7.568C9.272 8.016 9.4 8.384 9.656 8.672C9.912 8.96 10.256 9.2 10.688 9.392C11.136 9.584 11.792 9.816 12.656 10.088C14.592 10.696 16 11.4 16.88 12.2C17.776 12.984 18.224 14.064 18.224 15.44C18.224 16.752 17.768 17.896 16.856 18.872C15.944 19.848 14.232 20.336 11.72 20.336ZM23.9446 20.24C22.8886 20.24 22.0886 19.936 21.5446 19.328C21.0006 18.704 20.7286 17.96 20.7286 17.096V10.448H19.0246L19.2886 8H20.7286V5.36L23.7046 5.048V8H26.3446V10.448H23.7046V15.872C23.7046 16.512 23.7366 16.96 23.8006 17.216C23.8806 17.456 24.0326 17.616 24.2566 17.696C24.4966 17.76 24.9206 17.792 25.5286 17.792H26.3446L26.0806 20.24H23.9446ZM30.8746 20.24C29.8826 20.24 29.0506 19.92 28.3786 19.28C27.7226 18.624 27.3946 17.744 27.3946 16.64C27.3946 15.6 27.7706 14.768 28.5226 14.144C29.2746 13.504 30.1626 13.056 31.1866 12.8C32.2106 12.528 33.1946 12.376 34.1386 12.344C34.1066 11.64 33.9226 11.136 33.5866 10.832C33.2666 10.528 32.7306 10.376 31.9786 10.376C31.4506 10.376 30.9306 10.448 30.4186 10.592C29.9226 10.736 29.3466 10.968 28.6906 11.288L28.4266 8.864C29.8826 8.16 31.3386 7.808 32.7946 7.808C34.2026 7.808 35.2746 8.192 36.0106 8.96C36.7626 9.728 37.1386 10.952 37.1386 12.632V15.872C37.1386 16.48 37.1626 16.92 37.2106 17.192C37.2746 17.448 37.3706 17.616 37.4986 17.696C37.6426 17.76 37.8746 17.792 38.1946 17.792H38.5786L38.3146 20.24H37.2346C36.5786 20.24 36.0266 20.12 35.5786 19.88C35.1306 19.624 34.7866 19.28 34.5466 18.848C34.1626 19.28 33.6346 19.624 32.9626 19.88C32.3066 20.12 31.6106 20.24 30.8746 20.24ZM32.1226 17.96C32.4266 17.96 32.7706 17.888 33.1546 17.744C33.5386 17.584 33.8746 17.368 34.1626 17.096V14.36C33.2026 14.408 32.3546 14.616 31.6186 14.984C30.8826 15.352 30.5146 15.864 30.5146 16.52C30.5146 17.016 30.6426 17.384 30.8986 17.624C31.1546 17.848 31.5626 17.96 32.1226 17.96ZM43.3441 19.208L38.3521 8H41.6641L44.7361 15.728L47.8561 8H51.1681L43.6561 25.808H40.6801L43.3441 19.208ZM84.9545 8H87.7385L87.8105 9.272C88.1625 8.872 88.6105 8.52 89.1545 8.216C89.7145 7.912 90.2985 7.76 90.9065 7.76C91.0985 7.76 91.2745 7.776 91.4345 7.808L91.2185 10.736C90.9145 10.656 90.5705 10.616 90.1865 10.616C89.6905 10.616 89.2345 10.736 88.8185 10.976C88.4025 11.2 88.1065 11.48 87.9305 11.816V20H84.9545V8ZM92.8764 3.2H95.8524V6.176H92.8764V3.2ZM92.8764 8H95.8524V20H92.8764V8ZM104.09 20.24C102.826 20.24 101.73 19.96 100.802 19.4C99.874 18.84 99.162 18.088 98.666 17.144C98.17 16.2 97.922 15.16 97.922 14.024C97.922 12.888 98.17 11.84 98.666 10.88C99.162 9.92 99.874 9.16 100.802 8.6C101.73 8.04 102.826 7.76 104.09 7.76C105.354 7.76 106.45 8.04 107.378 8.6C108.306 9.16 109.018 9.92 109.514 10.88C110.01 11.84 110.258 12.888 110.258 14.024C110.258 15.16 110.01 16.2 109.514 17.144C109.018 18.088 108.306 18.84 107.378 19.4C106.45 19.96 105.354 20.24 104.09 20.24ZM104.09 17.792C105.066 17.792 105.826 17.448 106.37 16.76C106.93 16.072 107.21 15.16 107.21 14.024C107.21 12.872 106.93 11.952 106.37 11.264C105.826 10.56 105.066 10.208 104.09 10.208C103.114 10.208 102.346 10.56 101.786 11.264C101.242 11.952 100.97 12.872 100.97 14.024C100.97 15.16 101.242 16.072 101.786 16.76C102.346 17.448 103.114 17.792 104.09 17.792ZM122.794 8V20H120.01L119.962 19.28C119.594 19.552 119.17 19.784 118.69 19.976C118.21 20.152 117.746 20.24 117.298 20.24C115.522 20.24 114.226 19.728 113.41 18.704C112.61 17.68 112.21 16.264 112.21 14.456V8H115.186V14.456C115.186 15.576 115.37 16.408 115.738 16.952C116.122 17.48 116.73 17.744 117.562 17.744C118.49 17.744 119.242 17.408 119.818 16.736V8H122.794ZM128.98 20.24C128.212 20.24 127.508 20.168 126.868 20.024C126.244 19.88 125.596 19.656 124.924 19.352L125.188 16.808C125.86 17.208 126.484 17.512 127.06 17.72C127.652 17.912 128.26 18.008 128.884 18.008C130.1 18.008 130.708 17.608 130.708 16.808C130.708 16.376 130.548 16.048 130.228 15.824C129.908 15.584 129.332 15.304 128.5 14.984C127.316 14.552 126.444 14.064 125.884 13.52C125.324 12.96 125.044 12.208 125.044 11.264C125.044 10.224 125.444 9.384 126.244 8.744C127.044 8.088 128.124 7.76 129.484 7.76C130.844 7.76 132.084 8.072 133.204 8.696L132.94 11.24C132.332 10.824 131.756 10.504 131.212 10.28C130.684 10.056 130.124 9.944 129.532 9.944C129.02 9.944 128.62 10.048 128.332 10.256C128.06 10.464 127.924 10.76 127.924 11.144C127.924 11.448 128.004 11.696 128.164 11.888C128.34 12.08 128.58 12.256 128.884 12.416C129.188 12.56 129.692 12.768 130.396 13.04C131.564 13.488 132.404 13.984 132.916 14.528C133.428 15.056 133.684 15.768 133.684 16.664C133.684 17.8 133.276 18.68 132.46 19.304C131.644 19.928 130.484 20.24 128.98 20.24Z" fill="#EFEFEF"/>
</g>
<defs>
<filter id="filter0_dd" x="0.152" y="0.864014" width="139.532" height="34.944" filterUnits="userSpaceOnUse" color-interpolation-filters="sRGB">
<feFlood flood-opacity="0" result="BackgroundImageFix"/>
<feColorMatrix in="SourceAlpha" type="matrix" values="0 0 0 0 0 0 0 0 0 0 0 0 0 0 0 0 0 0 127 0"/>
<feOffset/>
<feGaussianBlur stdDeviation="1"/>
<feColorMatrix type="matrix" values="0 0 0 0 0 0 0 0 0 0 0 0 0 0 0 0 0 0 0.25 0"/>
<feBlend mode="normal" in2="BackgroundImageFix" result="effect1_dropShadow"/>
<feColorMatrix in="SourceAlpha" type="matrix" values="0 0 0 0 0 0 0 0 0 0 0 0 0 0 0 0 0 0 127 0"/>
<feOffset dy="4"/>
<feGaussianBlur stdDeviation="3"/>
<feColorMatrix type="matrix" values="0 0 0 0 0 0 0 0 0 0 0 0 0 0 0 0 0 0 0.15 0"/>
<feBlend mode="normal" in2="effect1_dropShadow" result="effect2_dropShadow"/>
<feBlend mode="normal" in="SourceGraphic" in2="effect2_dropShadow" result="shape"/>
</filter>
</defs>
</svg>
