<svg width="51" height="53" viewBox="0 0 51 53" fill="none" xmlns="http://www.w3.org/2000/svg">
<g filter="url(#filter0_dd)">
<rect width="5.6" height="2.76923" rx="1.38461" transform="matrix(0.906308 -0.422618 -0.422618 -0.906308 31.365 41.7271)" fill="white"/>
<path fill-rule="evenodd" clip-rule="evenodd" d="M13.2227 16.7869C12.1726 16.4112 11.0026 16.9669 10.7982 18.0633C10.2897 20.7901 10.5949 23.6873 11.8516 26.3824C14.1988 31.4159 19.2198 34.36 24.4772 34.3427C25.7819 34.3384 26.4993 32.949 25.9479 31.7666L25.1052 29.9594C24.7736 29.2482 24.0527 28.8179 23.276 28.7061C20.5878 28.3192 18.1512 26.6412 16.927 24.0157C16.303 22.6777 16.07 21.2566 16.181 19.8791C16.2678 18.8017 15.751 17.6914 14.7333 17.3273L13.2227 16.7869ZM17.724 15.6739C17.1048 16.5389 16.0166 17.047 15.0149 16.6887L13.5071 16.1493C12.4406 15.7678 11.8924 14.568 12.4622 13.589C13.856 11.1944 15.9767 9.18131 18.6883 7.91684C25.6959 4.64916 33.9965 7.61851 37.2283 14.5491C39.82 20.107 38.3647 26.5247 34.0725 30.534C33.3762 31.1844 33.102 32.2015 33.5047 33.0651L33.8396 33.7833C34.3064 34.7844 33.8733 35.9743 32.8722 36.4411L31.4221 37.1173C30.4211 37.5841 29.2311 37.151 28.7643 36.1499L26.5045 31.3037C25.9224 30.0554 26.7889 28.5811 28.0381 28.001L28.0637 27.9891C32.2592 26.0244 34.09 21.0699 32.1529 16.9158C30.2139 12.7574 25.2335 10.9758 21.029 12.9364C19.6602 13.5747 18.5423 14.5309 17.724 15.6739Z" fill="white"/>
</g>
<defs>
<filter id="filter0_dd" x="0" y="0" width="52.5909" height="56.4604" filterUnits="userSpaceOnUse" color-interpolation-filters="sRGB">
<feFlood flood-opacity="0" result="BackgroundImageFix"/>
<feColorMatrix in="SourceAlpha" type="matrix" values="0 0 0 0 0 0 0 0 0 0 0 0 0 0 0 0 0 0 127 0"/>
<feOffset/>
<feGaussianBlur stdDeviation="1"/>
<feColorMatrix type="matrix" values="0 0 0 0 0 0 0 0 0 0 0 0 0 0 0 0 0 0 0.25 0"/>
<feBlend mode="normal" in2="BackgroundImageFix" result="effect1_dropShadow"/>
<feColorMatrix in="SourceAlpha" type="matrix" values="0 0 0 0 0 0 0 0 0 0 0 0 0 0 0 0 0 0 127 0"/>
<feOffset dy="4"/>
<feGaussianBlur stdDeviation="3"/>
<feColorMatrix type="matrix" values="0 0 0 0 0 0 0 0 0 0 0 0 0 0 0 0 0 0 0.15 0"/>
<feBlend mode="normal" in2="effect1_dropShadow" result="effect2_dropShadow"/>
<feBlend mode="normal" in="SourceGraphic" in2="effect2_dropShadow" result="shape"/>
</filter>
</defs>
</svg>
