<svg width="66" height="90" viewBox="0 0 82 113" fill="none" xmlns="http://www.w3.org/2000/svg">
<mask id="path-1-outside-1" maskUnits="userSpaceOnUse" x="11.6746" y="25.8083" width="39" height="47" fill="black">
<rect fill="white" x="11.6746" y="25.8083" width="39" height="47"/>
<path fill-rule="evenodd" clip-rule="evenodd" d="M48.8306 58.7684V35.5974C48.8306 34.271 47.7599 33.2004 46.4336 33.2004C45.1072 33.2004 44.0366 34.271 44.0366 35.5974V44.3864H42.4386V30.8034C42.4386 29.477 41.3679 28.4064 40.0416 28.4064C38.7152 28.4064 37.6446 29.477 37.6446 30.8034V44.3864H36.0466V29.2054C36.0466 27.879 34.9759 26.8083 33.6496 26.8083C32.3232 26.8083 31.2526 27.879 31.2526 29.2054V44.3864H29.6546V33.2004C29.6546 31.874 28.5839 30.8034 27.2576 30.8034C25.9312 30.8034 24.8606 31.874 24.8606 33.2004V52.2325C24.8606 52.2325 18.0371 48.3174 17.9732 48.3015C17.6855 48.1417 17.3659 48.0458 17.0144 48.0458C16.535 48.0458 16.1035 48.2056 15.752 48.5092C15.688 48.5412 13.6746 50.5067 13.6746 50.5067L26.2189 63.2588C27.3431 64.398 28.847 65.0732 30.4535 65.1525V70.5524C30.4535 71.1047 30.9013 71.5524 31.4535 71.5524H44.6346C45.1868 71.5524 45.6345 71.1047 45.6345 70.5524V64.2983C47.5415 63.1889 48.8306 61.1219 48.8306 58.7684Z"/>
</mask>
<path fill-rule="evenodd" clip-rule="evenodd" d="M48.8306 58.7684V35.5974C48.8306 34.271 47.7599 33.2004 46.4336 33.2004C45.1072 33.2004 44.0366 34.271 44.0366 35.5974V44.3864H42.4386V30.8034C42.4386 29.477 41.3679 28.4064 40.0416 28.4064C38.7152 28.4064 37.6446 29.477 37.6446 30.8034V44.3864H36.0466V29.2054C36.0466 27.879 34.9759 26.8083 33.6496 26.8083C32.3232 26.8083 31.2526 27.879 31.2526 29.2054V44.3864H29.6546V33.2004C29.6546 31.874 28.5839 30.8034 27.2576 30.8034C25.9312 30.8034 24.8606 31.874 24.8606 33.2004V52.2325C24.8606 52.2325 18.0371 48.3174 17.9732 48.3015C17.6855 48.1417 17.3659 48.0458 17.0144 48.0458C16.535 48.0458 16.1035 48.2056 15.752 48.5092C15.688 48.5412 13.6746 50.5067 13.6746 50.5067L26.2189 63.2588C27.3431 64.398 28.847 65.0732 30.4535 65.1525V70.5524C30.4535 71.1047 30.9013 71.5524 31.4535 71.5524H44.6346C45.1868 71.5524 45.6345 71.1047 45.6345 70.5524V64.2983C47.5415 63.1889 48.8306 61.1219 48.8306 58.7684Z" fill="#5C84EE"/>
<path d="M44.0366 44.3864V45.3864H45.0366V44.3864H44.0366ZM42.4386 44.3864H41.4386V45.3864H42.4386V44.3864ZM37.6446 44.3864V45.3864H38.6446V44.3864H37.6446ZM36.0466 44.3864H35.0466V45.3864H36.0466V44.3864ZM31.2526 44.3864V45.3864H32.2526V44.3864H31.2526ZM29.6546 44.3864H28.6546V45.3864H29.6546V44.3864ZM24.8606 52.2325L24.3629 53.0999L25.8606 53.9592V52.2325H24.8606ZM17.9732 48.3015L17.4875 49.1756L17.6028 49.2396L17.7307 49.2716L17.9732 48.3015ZM15.752 48.5092L16.1992 49.4036L16.311 49.3477L16.4056 49.266L15.752 48.5092ZM13.6746 50.5067L12.976 49.7911L12.2577 50.4924L12.9617 51.208L13.6746 50.5067ZM26.2189 63.2588L25.506 63.96L25.5071 63.9612L26.2189 63.2588ZM30.4535 65.1525H31.4535V64.2006L30.5028 64.1537L30.4535 65.1525ZM45.6345 64.2983L45.1317 63.4339L44.6345 63.7231V64.2983H45.6345ZM47.8306 35.5974V58.7684H49.8306V35.5974H47.8306ZM46.4336 34.2004C47.2076 34.2004 47.8306 34.8233 47.8306 35.5974H49.8306C49.8306 33.7187 48.3122 32.2004 46.4336 32.2004V34.2004ZM45.0366 35.5974C45.0366 34.8233 45.6595 34.2004 46.4336 34.2004V32.2004C44.555 32.2004 43.0366 33.7187 43.0366 35.5974H45.0366ZM45.0366 44.3864V35.5974H43.0366V44.3864H45.0366ZM42.4386 45.3864H44.0366V43.3864H42.4386V45.3864ZM41.4386 30.8034V44.3864H43.4386V30.8034H41.4386ZM40.0416 29.4064C40.8156 29.4064 41.4386 30.0293 41.4386 30.8034H43.4386C43.4386 28.9247 41.9202 27.4064 40.0416 27.4064V29.4064ZM38.6446 30.8034C38.6446 30.0293 39.2675 29.4064 40.0416 29.4064V27.4064C38.163 27.4064 36.6446 28.9247 36.6446 30.8034H38.6446ZM38.6446 44.3864V30.8034H36.6446V44.3864H38.6446ZM36.0466 45.3864H37.6446V43.3864H36.0466V45.3864ZM35.0466 29.2054V44.3864H37.0466V29.2054H35.0466ZM33.6496 27.8083C34.4236 27.8083 35.0466 28.4313 35.0466 29.2054H37.0466C37.0466 27.3267 35.5282 25.8083 33.6496 25.8083V27.8083ZM32.2526 29.2054C32.2526 28.4313 32.8755 27.8083 33.6496 27.8083V25.8083C31.771 25.8083 30.2526 27.3267 30.2526 29.2054H32.2526ZM32.2526 44.3864V29.2054H30.2526V44.3864H32.2526ZM29.6546 45.3864H31.2526V43.3864H29.6546V45.3864ZM28.6546 33.2004V44.3864H30.6546V33.2004H28.6546ZM27.2576 31.8034C28.0316 31.8034 28.6546 32.4263 28.6546 33.2004H30.6546C30.6546 31.3217 29.1362 29.8034 27.2576 29.8034V31.8034ZM25.8606 33.2004C25.8606 32.4263 26.4835 31.8034 27.2576 31.8034V29.8034C25.3789 29.8034 23.8606 31.3217 23.8606 33.2004H25.8606ZM25.8606 52.2325V33.2004H23.8606V52.2325H25.8606ZM17.7307 49.2716C17.6649 49.2552 17.6157 49.2354 17.6048 49.2311C17.5856 49.2235 17.5708 49.2168 17.5633 49.2134C17.5479 49.2065 17.5368 49.201 17.5339 49.1995C17.5267 49.1959 17.5237 49.1942 17.5284 49.1967C17.5363 49.201 17.552 49.2095 17.5775 49.2235C17.6272 49.251 17.7008 49.2922 17.7966 49.3462C17.9873 49.4536 18.2575 49.607 18.5816 49.7915C19.2292 50.1602 20.0874 50.6506 20.9442 51.1409C21.8008 51.6311 22.6555 52.1209 23.2961 52.4881C23.6163 52.6717 23.8831 52.8247 24.0697 52.9317C24.163 52.9853 24.2363 53.0273 24.2863 53.056C24.3113 53.0703 24.3305 53.0813 24.3434 53.0887C24.3498 53.0924 24.3547 53.0952 24.358 53.0971C24.3596 53.098 24.3608 53.0987 24.3617 53.0992C24.3621 53.0994 24.3624 53.0996 24.3626 53.0997C24.3627 53.0998 24.3628 53.0998 24.3628 53.0999C24.3629 53.0999 24.3629 53.0999 24.8606 52.2325C25.3582 51.3652 25.3582 51.3652 25.3582 51.3651C25.3581 51.3651 25.358 51.3651 25.3579 51.365C25.3577 51.3649 25.3574 51.3647 25.357 51.3645C25.3562 51.364 25.3549 51.3633 25.3533 51.3623C25.35 51.3604 25.3451 51.3576 25.3386 51.3539C25.3257 51.3465 25.3065 51.3355 25.2815 51.3212C25.2315 51.2925 25.1582 51.2504 25.0648 51.1968C24.878 51.0897 24.6112 50.9367 24.2907 50.753C23.6499 50.3856 22.7948 49.8956 21.9375 49.4051C21.0805 48.9146 20.2207 48.4233 19.571 48.0534C19.2464 47.8686 18.9731 47.7135 18.7784 47.6038C18.6814 47.5491 18.6019 47.5046 18.5447 47.473C18.5166 47.4575 18.4904 47.4431 18.4687 47.4316C18.4587 47.4262 18.444 47.4185 18.4283 47.4106C18.4211 47.407 18.4065 47.3998 18.3886 47.3917C18.3797 47.3877 18.3638 47.3806 18.3437 47.3726C18.3319 47.3679 18.282 47.3479 18.2157 47.3313L17.7307 49.2716ZM17.0144 49.0458C17.1762 49.0458 17.3301 49.0882 17.4875 49.1756L18.4588 47.4273C18.041 47.1952 17.5557 47.0458 17.0144 47.0458V49.0458ZM16.4056 49.266C16.5716 49.1226 16.7698 49.0458 17.0144 49.0458V47.0458C16.3002 47.0458 15.6354 47.2885 15.0983 47.7524L16.4056 49.266ZM13.6746 50.5067C14.3731 51.2223 14.3731 51.2223 14.3731 51.2223C14.3731 51.2222 14.3731 51.2222 14.3732 51.2222C14.3732 51.2221 14.3733 51.2221 14.3734 51.2219C14.3737 51.2217 14.374 51.2214 14.3745 51.2209C14.3755 51.22 14.3769 51.2186 14.3788 51.2167C14.3826 51.213 14.3882 51.2075 14.3955 51.2004C14.4102 51.186 14.4318 51.165 14.4593 51.1381C14.5144 51.0845 14.5931 51.0078 14.6878 50.9156C14.8772 50.7311 15.1302 50.4851 15.3851 50.2382C15.6403 49.9909 15.8959 49.7443 16.0909 49.5582C16.1888 49.4646 16.2688 49.389 16.3248 49.337C16.3535 49.3104 16.3715 49.294 16.3807 49.2859C16.386 49.2812 16.3826 49.2843 16.3741 49.2913C16.3701 49.2946 16.3582 49.3043 16.3414 49.3167C16.3382 49.319 16.2809 49.3628 16.1992 49.4036L15.3048 47.6148C15.2211 47.6566 15.1608 47.7023 15.1537 47.7075C15.133 47.7228 15.1163 47.7363 15.1067 47.7442C15.0868 47.7605 15.0685 47.7764 15.0555 47.7879C15.0282 47.8121 14.9964 47.8412 14.9639 47.8714C14.8976 47.933 14.8097 48.0162 14.7099 48.1114C14.5094 48.3028 14.2496 48.5536 13.9935 48.8017C13.737 49.0502 13.4827 49.2975 13.2925 49.4826C13.1975 49.5752 13.1184 49.6523 13.0631 49.7062C13.0354 49.7332 13.0137 49.7544 12.9988 49.7689C12.9914 49.7761 12.9857 49.7817 12.9819 49.7854C12.98 49.7873 12.9785 49.7887 12.9775 49.7897C12.977 49.7901 12.9767 49.7905 12.9764 49.7908C12.9763 49.7909 12.9762 49.791 12.9761 49.791C12.9761 49.7911 12.9761 49.7911 12.9761 49.7911C12.976 49.7911 12.976 49.7911 13.6746 50.5067ZM26.9318 62.5575L14.3875 49.8054L12.9617 51.208L25.506 63.96L26.9318 62.5575ZM30.5028 64.1537C29.1468 64.0868 27.8792 63.5176 26.9306 62.5563L25.5071 63.9612C26.807 65.2784 28.5472 66.0596 30.4042 66.1513L30.5028 64.1537ZM31.4535 70.5524V65.1525H29.4535V70.5524H31.4535ZM31.4535 70.5524L31.4535 70.5524H29.4535C29.4535 71.6569 30.349 72.5524 31.4535 72.5524V70.5524ZM44.6346 70.5524H31.4535V72.5524H44.6346V70.5524ZM44.6345 70.5524L44.6346 70.5524V72.5524C45.7391 72.5524 46.6345 71.6569 46.6345 70.5524H44.6345ZM44.6345 64.2983V70.5524H46.6345V64.2983H44.6345ZM47.8306 58.7684C47.8306 60.7485 46.7461 62.4947 45.1317 63.4339L46.1374 65.1627C48.3369 63.8831 49.8306 61.4953 49.8306 58.7684H47.8306Z" fill="white" mask="url(#path-1-outside-1)"/>
<mask id="path-3-outside-2" maskUnits="userSpaceOnUse" x="23.0727" y="7.0054" width="60.2032" height="57.275" fill="black">
<rect fill="white" x="23.0727" y="7.0054" width="60.2032" height="57.275"/>
<path fill-rule="evenodd" clip-rule="evenodd" d="M52.5389 15.6223L32.4722 27.2078C31.3236 27.871 30.9317 29.3335 31.5948 30.4822C32.258 31.6308 33.7206 32.0227 34.8692 31.3596L42.4807 26.9651L43.2797 28.349L31.5165 35.1405C30.3678 35.8036 29.976 37.2662 30.6391 38.4148C31.3023 39.5635 32.7648 39.9554 33.9135 39.2922L45.6767 32.5007L46.4757 33.8846L33.3286 41.4751C32.1799 42.1383 31.788 43.6008 32.4512 44.7495C33.1144 45.8981 34.5769 46.29 35.7256 45.6268L48.8727 38.0363L49.6717 39.4202L39.9844 45.0132C38.8357 45.6764 38.4438 47.139 39.107 48.2876C39.7702 49.4363 41.2327 49.8281 42.3814 49.165L58.8637 39.6489C58.8637 39.6489 58.8849 47.5157 58.903 47.5791C58.9084 47.9081 58.9852 48.2328 59.161 48.5373C59.4007 48.9524 59.7548 49.2462 60.1935 49.3988C60.2531 49.4382 62.9621 50.1992 62.9621 50.1992L67.7335 32.9594C68.158 31.4162 67.9908 29.7762 67.2562 28.3452L71.9326 25.6453C72.4109 25.3691 72.5748 24.7575 72.2986 24.2793L65.7081 12.8642C65.432 12.3859 64.8204 12.222 64.3421 12.4981L58.9259 15.6252C57.0117 14.5284 54.5771 14.4456 52.5389 15.6223Z"/>
</mask>
<path fill-rule="evenodd" clip-rule="evenodd" d="M52.5389 15.6223L32.4722 27.2078C31.3236 27.871 30.9317 29.3335 31.5948 30.4822C32.258 31.6308 33.7206 32.0227 34.8692 31.3596L42.4807 26.9651L43.2797 28.349L31.5165 35.1405C30.3678 35.8036 29.976 37.2662 30.6391 38.4148C31.3023 39.5635 32.7648 39.9554 33.9135 39.2922L45.6767 32.5007L46.4757 33.8846L33.3286 41.4751C32.1799 42.1383 31.788 43.6008 32.4512 44.7495C33.1144 45.8981 34.5769 46.29 35.7256 45.6268L48.8727 38.0363L49.6717 39.4202L39.9844 45.0132C38.8357 45.6764 38.4438 47.139 39.107 48.2876C39.7702 49.4363 41.2327 49.8281 42.3814 49.165L58.8637 39.6489C58.8637 39.6489 58.8849 47.5157 58.903 47.5791C58.9084 47.9081 58.9852 48.2328 59.161 48.5373C59.4007 48.9524 59.7548 49.2462 60.1935 49.3988C60.2531 49.4382 62.9621 50.1992 62.9621 50.1992L67.7335 32.9594C68.158 31.4162 67.9908 29.7762 67.2562 28.3452L71.9326 25.6453C72.4109 25.3691 72.5748 24.7575 72.2986 24.2793L65.7081 12.8642C65.432 12.3859 64.8204 12.222 64.3421 12.4981L58.9259 15.6252C57.0117 14.5284 54.5771 14.4456 52.5389 15.6223Z" fill="url(#paint0_linear)"/>
<path d="M42.4807 26.9651L43.3467 26.4651L42.8467 25.599L41.9807 26.099L42.4807 26.9651ZM43.2797 28.349L43.7797 29.215L44.6457 28.715L44.1457 27.849L43.2797 28.349ZM31.5165 35.1405L31.0165 34.2744L31.5165 35.1405ZM33.9135 39.2922L33.4135 38.4262L33.9135 39.2922ZM45.6767 32.5007L46.5427 32.0007L46.0427 31.1347L45.1767 31.6347L45.6767 32.5007ZM46.4757 33.8846L46.9757 34.7506L47.8417 34.2506L47.3417 33.3846L46.4757 33.8846ZM35.7256 45.6268L35.2256 44.7608L35.7256 45.6268ZM48.8727 38.0363L49.7387 37.5363L49.2387 36.6703L48.3727 37.1703L48.8727 38.0363ZM49.6717 39.4202L50.1717 40.2863L51.0377 39.7863L50.5377 38.9202L49.6717 39.4202ZM39.9844 45.0132L39.4844 44.1472L39.9844 45.0132ZM42.3814 49.165L41.8814 48.2989L42.3814 49.165ZM58.8637 39.6489L59.8637 39.6462L59.8591 37.9195L58.3637 38.7828L58.8637 39.6489ZM58.903 47.5791L59.9029 47.5626L59.9007 47.4308L59.8644 47.304L58.903 47.5791ZM60.1935 49.3988L60.7445 48.5643L60.6402 48.4954L60.5221 48.4544L60.1935 49.3988ZM62.9621 50.1992L62.6917 51.1619L63.6581 51.4334L63.9259 50.4659L62.9621 50.1992ZM67.7335 32.9594L68.6973 33.2262L68.6977 33.2247L67.7335 32.9594ZM67.2562 28.3452L66.7562 27.4792L65.9319 27.9551L66.3666 28.8019L67.2562 28.3452ZM71.9326 25.6453L72.4326 26.5113L71.9326 25.6453ZM64.3421 12.4981L64.8421 13.3642L64.3421 12.4981ZM58.9259 15.6252L58.4288 16.4928L58.9278 16.7788L59.4259 16.4912L58.9259 15.6252ZM32.9722 28.0739L53.0389 16.4883L52.0389 14.7563L31.9722 26.3418L32.9722 28.0739ZM32.4609 29.9822C32.0738 29.3118 32.3019 28.4609 32.9722 28.0739L31.9722 26.3418C30.3453 27.2811 29.7895 29.3553 30.7288 30.9822L32.4609 29.9822ZM34.3692 30.4935C33.6989 30.8806 32.8479 30.6525 32.4609 29.9822L30.7288 30.9822C31.6681 32.6091 33.7423 33.1649 35.3692 32.2256L34.3692 30.4935ZM41.9807 26.099L34.3692 30.4935L35.3692 32.2256L42.9807 27.8311L41.9807 26.099ZM44.1457 27.849L43.3467 26.4651L41.6147 27.4651L42.4137 28.849L44.1457 27.849ZM32.0165 36.0065L43.7797 29.215L42.7797 27.4829L31.0165 34.2744L32.0165 36.0065ZM31.5051 37.9148C31.1181 37.2445 31.3461 36.3935 32.0165 36.0065L31.0165 34.2744C29.3895 35.2138 28.8338 37.2879 29.7731 38.9148L31.5051 37.9148ZM33.4135 38.4262C32.7431 38.8132 31.8922 38.5852 31.5051 37.9148L29.7731 38.9148C30.7124 40.5418 32.7865 41.0975 34.4135 40.1582L33.4135 38.4262ZM45.1767 31.6347L33.4135 38.4262L34.4135 40.1582L46.1767 33.3667L45.1767 31.6347ZM47.3417 33.3846L46.5427 32.0007L44.8107 33.0007L45.6097 34.3846L47.3417 33.3846ZM33.8286 42.3411L46.9757 34.7506L45.9757 33.0186L32.8286 40.6091L33.8286 42.3411ZM33.3172 44.2495C32.9302 43.5791 33.1582 42.7282 33.8286 42.3411L32.8286 40.6091C31.2016 41.5484 30.6459 43.6225 31.5852 45.2495L33.3172 44.2495ZM35.2256 44.7608C34.5552 45.1478 33.7043 44.9198 33.3172 44.2495L31.5852 45.2495C32.5245 46.8764 34.5986 47.4322 36.2256 46.4929L35.2256 44.7608ZM48.3727 37.1703L35.2256 44.7608L36.2256 46.4929L49.3727 38.9024L48.3727 37.1703ZM50.5377 38.9202L49.7387 37.5363L48.0067 38.5363L48.8057 39.9202L50.5377 38.9202ZM40.4844 45.8793L50.1717 40.2863L49.1717 38.5542L39.4844 44.1472L40.4844 45.8793ZM39.973 47.7876C39.586 47.1173 39.814 46.2663 40.4844 45.8793L39.4844 44.1472C37.8574 45.0865 37.3017 47.1607 38.241 48.7876L39.973 47.7876ZM41.8814 48.2989C41.211 48.686 40.36 48.458 39.973 47.7876L38.241 48.7876C39.1803 50.4145 41.2544 50.9703 42.8814 50.031L41.8814 48.2989ZM58.3637 38.7828L41.8814 48.2989L42.8814 50.031L59.3637 40.5149L58.3637 38.7828ZM59.8644 47.304C59.8831 47.3692 59.8906 47.4217 59.8923 47.4333C59.8952 47.4537 59.8969 47.4699 59.8977 47.4781C59.8994 47.4948 59.9001 47.5072 59.9003 47.5105C59.9008 47.5186 59.9009 47.522 59.9007 47.5166C59.9004 47.5076 59.8999 47.4898 59.8994 47.4607C59.8983 47.4039 59.8972 47.3195 59.896 47.2097C59.8938 46.9908 59.8915 46.68 59.8892 46.3072C59.8847 45.5619 59.8803 44.5735 59.8766 43.5864C59.8728 42.5994 59.8696 41.6144 59.8673 40.876C59.8662 40.5068 59.8653 40.1993 59.8647 39.9842C59.8644 39.8766 59.8641 39.7921 59.864 39.7345C59.8639 39.7057 59.8638 39.6836 59.8638 39.6687C59.8638 39.6613 59.8637 39.6556 59.8637 39.6519C59.8637 39.65 59.8637 39.6486 59.8637 39.6476C59.8637 39.6471 59.8637 39.6468 59.8637 39.6465C59.8637 39.6464 59.8637 39.6463 59.8637 39.6463C59.8637 39.6462 59.8637 39.6462 58.8637 39.6489C57.8637 39.6516 57.8637 39.6516 57.8637 39.6517C57.8637 39.6517 57.8637 39.6518 57.8637 39.6519C57.8637 39.6522 57.8637 39.6525 57.8637 39.653C57.8637 39.654 57.8637 39.6554 57.8637 39.6573C57.8637 39.6611 57.8638 39.6667 57.8638 39.6742C57.8638 39.6891 57.8639 39.7112 57.864 39.74C57.8641 39.7977 57.8644 39.8822 57.8647 39.9899C57.8653 40.2052 57.8662 40.5128 57.8673 40.8821C57.8696 41.6208 57.8728 42.6064 57.8766 43.594C57.8803 44.5815 57.8847 45.5717 57.8892 46.3193C57.8915 46.6929 57.8938 47.0072 57.8962 47.2306C57.8973 47.3419 57.8985 47.433 57.8997 47.4984C57.9003 47.5304 57.901 47.5604 57.9019 47.5849C57.9023 47.5963 57.9029 47.6128 57.9039 47.6304C57.9044 47.6384 57.9055 47.6546 57.9074 47.6742C57.9083 47.6839 57.9102 47.7013 57.9133 47.7227C57.9151 47.7352 57.9228 47.7884 57.9416 47.8541L59.8644 47.304ZM60.027 48.0373C59.9461 47.8971 59.9058 47.7426 59.9029 47.5626L57.9031 47.5956C57.911 48.0735 58.0243 48.5684 58.2949 49.0373L60.027 48.0373ZM60.5221 48.4544C60.3149 48.3823 60.1493 48.2491 60.027 48.0373L58.2949 49.0373C58.652 49.6558 59.1947 50.1101 59.8649 50.3433L60.5221 48.4544ZM62.9621 50.1992C63.2325 49.2364 63.2325 49.2364 63.2325 49.2364C63.2325 49.2364 63.2325 49.2364 63.2324 49.2364C63.2323 49.2364 63.2322 49.2363 63.2321 49.2363C63.2318 49.2362 63.2313 49.2361 63.2306 49.2359C63.2293 49.2355 63.2274 49.235 63.2249 49.2343C63.2198 49.2328 63.2122 49.2307 63.2023 49.2279C63.1826 49.2224 63.1535 49.2142 63.1166 49.2038C63.0426 49.183 62.9367 49.1532 62.8096 49.1173C62.5551 49.0454 62.2155 48.9493 61.8743 48.8521C61.5325 48.7547 61.1912 48.6567 60.9325 48.5808C60.8025 48.5428 60.6971 48.5114 60.624 48.4888C60.5866 48.4773 60.5635 48.4699 60.5518 48.466C60.5451 48.4638 60.5494 48.4651 60.5598 48.469C60.5646 48.4708 60.5789 48.4763 60.5981 48.4846C60.6017 48.4862 60.6683 48.514 60.7445 48.5643L59.6425 50.2333C59.7206 50.2849 59.7903 50.3143 59.7984 50.3178C59.8219 50.3281 59.842 50.3358 59.8536 50.3402C59.8777 50.3493 59.9007 50.3571 59.9171 50.3626C59.9516 50.3742 59.9928 50.3872 60.0352 50.4002C60.1217 50.4268 60.2377 50.4613 60.3701 50.5001C60.636 50.5781 60.9831 50.6777 61.3261 50.7755C61.6695 50.8734 62.0109 50.97 62.2662 51.042C62.3939 51.0781 62.5002 51.108 62.5746 51.129C62.6118 51.1394 62.641 51.1477 62.661 51.1533C62.6709 51.1561 62.6786 51.1582 62.6838 51.1597C62.6864 51.1604 62.6883 51.161 62.6896 51.1613C62.6903 51.1615 62.6908 51.1617 62.6911 51.1618C62.6913 51.1618 62.6914 51.1618 62.6915 51.1619C62.6916 51.1619 62.6916 51.1619 62.6916 51.1619C62.6916 51.1619 62.6917 51.1619 62.9621 50.1992ZM66.7698 32.6927L61.9983 49.9324L63.9259 50.4659L68.6973 33.2262L66.7698 32.6927ZM66.3666 28.8019C66.9867 30.0098 67.1275 31.3921 66.7694 32.6942L68.6977 33.2247C69.1885 31.4403 68.995 29.5426 68.1458 27.8885L66.3666 28.8019ZM71.4326 24.7793L66.7562 27.4792L67.7562 29.2112L72.4326 26.5113L71.4326 24.7793ZM71.4326 24.7793L71.4326 24.7793L72.4326 26.5113C73.3892 25.959 73.7169 24.7358 73.1646 23.7793L71.4326 24.7793ZM64.8421 13.3642L71.4326 24.7793L73.1646 23.7793L66.5741 12.3642L64.8421 13.3642ZM64.8421 13.3642L64.8421 13.3642L66.5741 12.3642C66.0219 11.4076 64.7987 11.0798 63.8421 11.6321L64.8421 13.3642ZM59.4259 16.4912L64.8421 13.3642L63.8421 11.6321L58.4259 14.7591L59.4259 16.4912ZM53.0389 16.4883C54.7537 15.4983 56.8082 15.5643 58.4288 16.4928L59.423 14.7575C57.2152 13.4925 54.4004 13.3929 52.0389 14.7563L53.0389 16.4883Z" fill="white" mask="url(#path-3-outside-2)"/>
<mask id="path-5-outside-3" maskUnits="userSpaceOnUse" x="-2.00978" y="-2.35998" width="60.2032" height="57.275" fill="black">
<rect fill="white" x="-2.00978" y="-2.35998" width="60.2032" height="57.275"/>
<path fill-rule="evenodd" clip-rule="evenodd" d="M11.0712 36.8381L31.1379 48.4236C32.2865 49.0867 33.7491 48.6949 34.4122 47.5462C35.0754 46.3976 34.6835 44.935 33.5349 44.2718L25.9234 39.8773L26.7224 38.4934L38.4856 45.2849C39.6343 45.9481 41.0968 45.5562 41.76 44.4076C42.4231 43.2589 42.0313 41.7964 40.8826 41.1332L29.1194 34.3417L29.9184 32.9578L43.0655 40.5483C44.2142 41.2115 45.6767 40.8196 46.3399 39.6709C47.0031 38.5223 46.6112 37.0597 45.4625 36.3966L32.3154 28.8061L33.1144 27.4222L42.8017 33.0152C43.9504 33.6783 45.4129 33.2864 46.0761 32.1378C46.7393 30.9892 46.3474 29.5266 45.1988 28.8634L28.7164 19.3473C28.7164 19.3473 35.5187 15.3956 35.5645 15.3482C35.8467 15.179 36.0895 14.9502 36.2653 14.6457C36.505 14.2306 36.5824 13.777 36.4952 13.3207C36.4995 13.2494 35.804 10.5229 35.804 10.5229L18.4883 15.0106C16.9396 15.4146 15.6029 16.3793 14.7309 17.731L10.0545 15.031C9.57622 14.7549 8.96463 14.9188 8.68849 15.3971L2.09798 26.8122C1.82184 27.2905 1.98571 27.902 2.464 28.1782L7.88015 31.3052C7.8874 33.5114 9.03298 35.6613 11.0712 36.8381Z"/>
</mask>
<path fill-rule="evenodd" clip-rule="evenodd" d="M11.0712 36.8381L31.1379 48.4236C32.2865 49.0867 33.7491 48.6949 34.4122 47.5462C35.0754 46.3976 34.6835 44.935 33.5349 44.2718L25.9234 39.8773L26.7224 38.4934L38.4856 45.2849C39.6343 45.9481 41.0968 45.5562 41.76 44.4076C42.4231 43.2589 42.0313 41.7964 40.8826 41.1332L29.1194 34.3417L29.9184 32.9578L43.0655 40.5483C44.2142 41.2115 45.6767 40.8196 46.3399 39.6709C47.0031 38.5223 46.6112 37.0597 45.4625 36.3966L32.3154 28.8061L33.1144 27.4222L42.8017 33.0152C43.9504 33.6783 45.4129 33.2864 46.0761 32.1378C46.7393 30.9892 46.3474 29.5266 45.1988 28.8634L28.7164 19.3473C28.7164 19.3473 35.5187 15.3956 35.5645 15.3482C35.8467 15.179 36.0895 14.9502 36.2653 14.6457C36.505 14.2306 36.5824 13.777 36.4952 13.3207C36.4995 13.2494 35.804 10.5229 35.804 10.5229L18.4883 15.0106C16.9396 15.4146 15.6029 16.3793 14.7309 17.731L10.0545 15.031C9.57622 14.7549 8.96463 14.9188 8.68849 15.3971L2.09798 26.8122C1.82184 27.2905 1.98571 27.902 2.464 28.1782L7.88015 31.3052C7.8874 33.5114 9.03298 35.6613 11.0712 36.8381Z" fill="#5C84EE"/>
<path d="M31.1379 48.4236L30.6379 49.2896L31.1379 48.4236ZM11.0712 36.8381L11.5712 35.972L11.0712 36.8381ZM33.5349 44.2718L34.0349 43.4058L33.5349 44.2718ZM25.9234 39.8773L25.0574 39.3773L24.5574 40.2434L25.4234 40.7434L25.9234 39.8773ZM26.7224 38.4934L27.2224 37.6274L26.3564 37.1274L25.8564 37.9934L26.7224 38.4934ZM29.1194 34.3417L28.2534 33.8417L27.7534 34.7077L28.6194 35.2077L29.1194 34.3417ZM29.9184 32.9578L30.4184 32.0918L29.5524 31.5918L29.0524 32.4578L29.9184 32.9578ZM43.0655 40.5483L43.5655 39.6823L43.0655 40.5483ZM32.3154 28.8061L31.4494 28.3061L30.9494 29.1721L31.8154 29.6721L32.3154 28.8061ZM33.1144 27.4222L33.6144 26.5561L32.7484 26.0561L32.2484 26.9222L33.1144 27.4222ZM28.7164 19.3473L28.2141 18.4827L26.721 19.35L28.2164 20.2134L28.7164 19.3473ZM35.5645 15.3482L35.0503 14.4906L34.9372 14.5584L34.8456 14.6531L35.5645 15.3482ZM36.4952 13.3207L35.497 13.2608L35.4895 13.3856L35.513 13.5084L36.4952 13.3207ZM35.804 10.5229L36.773 10.2757L36.5249 9.30303L35.5531 9.55487L35.804 10.5229ZM18.4883 15.0106L18.2374 14.0425L18.2358 14.0429L18.4883 15.0106ZM14.7309 17.731L14.2309 18.597L15.0552 19.0729L15.5712 18.2731L14.7309 17.731ZM10.0545 15.031L9.55451 15.8971L10.0545 15.031ZM8.68849 15.3971L7.82246 14.8971L8.68849 15.3971ZM2.09798 26.8122L2.96401 27.3122L2.09798 26.8122ZM2.464 28.1782L2.964 27.3122L2.464 28.1782ZM7.88015 31.3052L8.88015 31.3019L8.87826 30.7268L8.38015 30.4392L7.88015 31.3052ZM31.6379 47.5576L11.5712 35.972L10.5712 37.7041L30.6379 49.2896L31.6379 47.5576ZM33.5462 47.0462C33.1592 47.7166 32.3082 47.9446 31.6379 47.5576L30.6379 49.2896C32.2648 50.2289 34.339 49.6732 35.2783 48.0462L33.5462 47.0462ZM33.0349 45.1379C33.7052 45.5249 33.9332 46.3759 33.5462 47.0462L35.2783 48.0462C36.2176 46.4193 35.6618 44.3451 34.0349 43.4058L33.0349 45.1379ZM25.4234 40.7434L33.0349 45.1379L34.0349 43.4058L26.4234 39.0113L25.4234 40.7434ZM25.8564 37.9934L25.0574 39.3773L26.7894 40.3773L27.5884 38.9934L25.8564 37.9934ZM38.9856 44.4189L27.2224 37.6274L26.2224 39.3595L37.9856 46.151L38.9856 44.4189ZM40.8939 43.9076C40.5069 44.5779 39.656 44.8059 38.9856 44.4189L37.9856 46.151C39.6125 47.0903 41.6867 46.5345 42.626 44.9076L40.8939 43.9076ZM40.3826 41.9992C41.053 42.3863 41.281 43.2372 40.8939 43.9076L42.626 44.9076C43.5653 43.2806 43.0095 41.2065 41.3826 40.2672L40.3826 41.9992ZM28.6194 35.2077L40.3826 41.9992L41.3826 40.2672L29.6194 33.4757L28.6194 35.2077ZM29.0524 32.4578L28.2534 33.8417L29.9854 34.8417L30.7844 33.4578L29.0524 32.4578ZM43.5655 39.6823L30.4184 32.0918L29.4184 33.8238L42.5655 41.4143L43.5655 39.6823ZM45.4739 39.1709C45.0868 39.8413 44.2359 40.0693 43.5655 39.6823L42.5655 41.4143C44.1925 42.3536 46.2666 41.7979 47.2059 40.1709L45.4739 39.1709ZM44.9625 37.2626C45.6329 37.6496 45.8609 38.5006 45.4739 39.1709L47.2059 40.1709C48.1452 38.544 47.5895 36.4699 45.9625 35.5305L44.9625 37.2626ZM31.8154 29.6721L44.9625 37.2626L45.9625 35.5305L32.8154 27.94L31.8154 29.6721ZM32.2484 26.9222L31.4494 28.3061L33.1814 29.3061L33.9804 27.9222L32.2484 26.9222ZM43.3017 32.1491L33.6144 26.5561L32.6144 28.2882L42.3017 33.8812L43.3017 32.1491ZM45.2101 31.6378C44.8231 32.3082 43.9721 32.5362 43.3017 32.1491L42.3017 33.8812C43.9287 34.8205 46.0028 34.2647 46.9421 32.6378L45.2101 31.6378ZM44.6988 29.7295C45.3691 30.1165 45.5971 30.9674 45.2101 31.6378L46.9421 32.6378C47.8815 31.0109 47.3257 28.9367 45.6988 27.9974L44.6988 29.7295ZM28.2164 20.2134L44.6988 29.7295L45.6988 27.9974L29.2164 18.4813L28.2164 20.2134ZM34.8456 14.6531C34.8927 14.6044 34.9344 14.5717 34.9436 14.5644C34.9598 14.5516 34.973 14.5421 34.9797 14.5372C34.9933 14.5274 35.0037 14.5206 35.0065 14.5188C35.0132 14.5143 35.0161 14.5126 35.0116 14.5154C35.0039 14.5202 34.9887 14.5295 34.9638 14.5445C34.9152 14.5738 34.8426 14.617 34.7481 14.6729C34.5596 14.7844 34.2917 14.9417 33.9699 15.1301C33.3268 15.5066 32.473 16.0046 31.62 16.5014C30.7671 16.9982 29.9156 17.4935 29.2773 17.8647C28.9582 18.0502 28.6923 18.2047 28.5063 18.3128C28.4133 18.3669 28.3402 18.4094 28.2904 18.4383C28.2655 18.4528 28.2464 18.4639 28.2335 18.4713C28.2271 18.4751 28.2222 18.4779 28.219 18.4798C28.2173 18.4808 28.2161 18.4815 28.2153 18.4819C28.2149 18.4822 28.2146 18.4824 28.2144 18.4825C28.2143 18.4825 28.2142 18.4826 28.2141 18.4826C28.2141 18.4826 28.2141 18.4827 28.7164 19.3473C29.2187 20.212 29.2187 20.212 29.2188 20.212C29.2188 20.2119 29.2189 20.2119 29.219 20.2118C29.2192 20.2117 29.2195 20.2115 29.22 20.2113C29.2208 20.2108 29.222 20.2101 29.2237 20.2091C29.2269 20.2072 29.2318 20.2044 29.2383 20.2007C29.2511 20.1932 29.2703 20.1821 29.2952 20.1676C29.345 20.1386 29.4182 20.0961 29.5112 20.042C29.6974 19.9339 29.9633 19.7793 30.2826 19.5936C30.9212 19.2223 31.7731 18.7268 32.6266 18.2297C33.4799 17.7326 34.3352 17.2338 34.9804 16.856C35.3028 16.6673 35.5738 16.5082 35.7661 16.3944C35.8619 16.3378 35.9402 16.2912 35.9963 16.2574C36.0237 16.2409 36.0493 16.2253 36.0701 16.2123C36.0798 16.2063 36.0938 16.1975 36.1084 16.1878C36.1152 16.1833 36.1287 16.1743 36.1447 16.1629C36.1526 16.1572 36.1667 16.1469 36.1837 16.1335C36.1937 16.1257 36.2359 16.0924 36.2834 16.0433L34.8456 14.6531ZM35.3993 14.1457C35.3184 14.2858 35.2047 14.398 35.0503 14.4906L36.0787 16.2059C36.4887 15.9601 36.8607 15.6145 37.1313 15.1457L35.3993 14.1457ZM35.513 13.5084C35.5541 13.7239 35.5216 13.9339 35.3993 14.1457L37.1313 15.1457C37.4885 14.5272 37.6106 13.8301 37.4774 13.1331L35.513 13.5084ZM35.804 10.5229C34.835 10.7701 34.835 10.7701 34.835 10.7701C34.8351 10.7701 34.8351 10.7701 34.8351 10.7702C34.8351 10.7702 34.8351 10.7704 34.8352 10.7705C34.8352 10.7708 34.8354 10.7713 34.8355 10.772C34.8359 10.7733 34.8364 10.7752 34.837 10.7778C34.8383 10.7829 34.8403 10.7905 34.8428 10.8004C34.8479 10.8203 34.8553 10.8496 34.8648 10.8868C34.8837 10.9613 34.9108 11.0678 34.9433 11.1959C35.0083 11.4522 35.0949 11.7944 35.1813 12.1385C35.2678 12.4832 35.3536 12.8278 35.4173 13.0898C35.4493 13.2213 35.4748 13.3284 35.4919 13.4029C35.5006 13.4411 35.5058 13.4648 35.5082 13.4769C35.5096 13.4838 35.5086 13.4793 35.5068 13.4684C35.506 13.4634 35.5035 13.4482 35.5012 13.4275C35.5007 13.4235 35.4915 13.352 35.497 13.2608L37.4934 13.3806C37.499 13.2872 37.4896 13.2122 37.4886 13.2035C37.4857 13.1779 37.4824 13.1567 37.4804 13.1444C37.4762 13.119 37.4715 13.0952 37.4681 13.0782C37.4608 13.0425 37.4515 13.0004 37.4416 12.9571C37.4214 12.8689 37.3933 12.7512 37.3607 12.6172C37.2952 12.3479 37.2079 11.9975 37.1211 11.6516C37.0342 11.3052 36.9472 10.9613 36.8819 10.7041C36.8493 10.5755 36.8221 10.4684 36.803 10.3936C36.7935 10.3561 36.786 10.3267 36.7809 10.3066C36.7783 10.2966 36.7763 10.2889 36.775 10.2837C36.7743 10.2811 36.7738 10.2791 36.7735 10.2778C36.7733 10.2771 36.7732 10.2766 36.7731 10.2763C36.7731 10.2761 36.773 10.276 36.773 10.2759C36.773 10.2758 36.773 10.2758 36.773 10.2758C36.773 10.2757 36.773 10.2757 35.804 10.5229ZM18.7391 15.9786L36.0549 11.4909L35.5531 9.55487L18.2374 14.0425L18.7391 15.9786ZM15.5712 18.2731C16.3072 17.1322 17.434 16.319 18.7407 15.9782L18.2358 14.0429C16.4451 14.5101 14.8985 15.6265 13.8906 17.1889L15.5712 18.2731ZM9.55451 15.8971L14.2309 18.597L15.2309 16.8649L10.5545 14.165L9.55451 15.8971ZM9.55451 15.8971L9.55451 15.8971L10.5545 14.165C9.59792 13.6127 8.37474 13.9405 7.82246 14.8971L9.55451 15.8971ZM2.96401 27.3122L9.55451 15.8971L7.82246 14.8971L1.23196 26.3122L2.96401 27.3122ZM2.964 27.3122L2.96401 27.3122L1.23196 26.3122C0.679673 27.2687 1.00742 28.4919 1.964 29.0442L2.964 27.3122ZM8.38015 30.4392L2.964 27.3122L1.964 29.0442L7.38015 32.1712L8.38015 30.4392ZM11.5712 35.972C9.85635 34.982 8.88629 33.1697 8.88015 31.3019L6.88016 31.3085C6.88852 33.8531 8.2096 36.3406 10.5712 37.7041L11.5712 35.972Z" fill="white" mask="url(#path-5-outside-3)"/>
<path d="M23.0213 107L21.5813 95.744L17.2853 103.472L12.9653 95.768L11.5253 107H8.33334L10.6613 90.2H13.1813L17.2853 97.856L21.3653 90.2H23.8853L26.2133 107H23.0213ZM29.0003 90.2H39.7523V93.176H32.1443V96.752H38.0483V99.728H32.1443V104.024H39.9923V107H29.0003V90.2ZM42.641 90.2H53.393V93.176H45.785V96.752H51.689V99.728H45.785V104.024H53.633V107H42.641V90.2ZM59.5456 93.176H54.7936V90.2H67.3696V93.176H62.6176V107H59.5456V93.176Z" fill="#5072CE"/>
<defs>
<linearGradient id="paint0_linear" x1="33.6497" y1="46.8253" x2="72.3992" y2="24.4533" gradientUnits="userSpaceOnUse">
<stop stop-color="#5C84EE"/>
<stop offset="1" stop-color="#5579DA"/>
</linearGradient>
</defs>
</svg>
