<svg width="32" height="32" viewBox="0 0 46 46" fill="none" xmlns="http://www.w3.org/2000/svg"><g filter="url(#filter0_dd)"><path d="M13.668 3H7v6.668L26.674 29.34l6.667-6.667L13.668 3zm18.144 31.48a1.781 1.781 0 002.516 0l4.152-4.152a1.781 1.781 0 000-2.516l-3.254-3.253-6.668 6.667 3.254 3.254z" fill="#000"/><path d="M13.668 3H7v6.668L26.674 29.34l6.667-6.667L13.668 3zm18.144 31.48a1.781 1.781 0 002.516 0l4.152-4.152a1.781 1.781 0 000-2.516l-3.254-3.253-6.668 6.667 3.254 3.254z" stroke="#fff" stroke-width="1.5"/></g><defs><filter id="filter0_dd" x=".25" y=".25" width="45.5" height="45.5" filterUnits="userSpaceOnUse" color-interpolation-filters="sRGB"><feFlood flood-opacity="0" result="BackgroundImageFix"/><feColorMatrix in="SourceAlpha" values="0 0 0 0 0 0 0 0 0 0 0 0 0 0 0 0 0 0 127 0"/><feOffset/><feGaussianBlur stdDeviation="1"/><feColorMatrix values="0 0 0 0 0 0 0 0 0 0 0 0 0 0 0 0 0 0 0.25 0"/><feBlend in2="BackgroundImageFix" result="effect1_dropShadow"/><feColorMatrix in="SourceAlpha" values="0 0 0 0 0 0 0 0 0 0 0 0 0 0 0 0 0 0 127 0"/><feOffset dy="4"/><feGaussianBlur stdDeviation="3"/><feColorMatrix values="0 0 0 0 0 0 0 0 0 0 0 0 0 0 0 0 0 0 0.15 0"/><feBlend in2="effect1_dropShadow" result="effect2_dropShadow"/><feBlend in="SourceGraphic" in2="effect2_dropShadow" result="shape"/></filter></defs></svg>
