<svg width="58" height="81" viewBox="0 0 72 101" fill="none" xmlns="http://www.w3.org/2000/svg">
<path d="M2.18784 78.2H8.33184C10.1238 78.2 11.5318 78.632 12.5558 79.496C13.5958 80.344 14.1158 81.608 14.1158 83.288C14.1158 84.456 13.8678 85.416 13.3718 86.168C12.8758 86.904 12.1718 87.496 11.2598 87.944L15.0518 95H11.6198L8.37984 88.76H8.25984H5.25984V95H2.18784V78.2ZM7.51584 86.192C9.77184 86.192 10.8998 85.28 10.8998 83.456C10.8998 82.576 10.6438 81.912 10.1318 81.464C9.61984 81 8.78784 80.768 7.63584 80.768H5.25984V86.192H7.51584ZM17.2113 78.2H27.9633V81.176H20.3553V84.752H26.2593V87.728H20.3553V92.024H28.2033V95H17.2113V78.2ZM39.5639 91.016H33.4439L32.0519 95H29.0759L35.0519 78.2H37.9559L43.9319 95H40.9559L39.5639 91.016ZM38.6039 88.328L36.5159 82.328L34.4039 88.328H38.6039ZM53.2021 95.336C51.5061 95.336 50.0021 94.976 48.6901 94.256C47.3941 93.536 46.3861 92.52 45.6661 91.208C44.9461 89.88 44.5861 88.344 44.5861 86.6C44.5861 84.872 44.9541 83.352 45.6901 82.04C46.4421 80.712 47.4741 79.688 48.7861 78.968C50.1141 78.232 51.6181 77.864 53.2981 77.864C54.9141 77.864 56.3621 78.192 57.6421 78.848L57.3061 81.776C56.6181 81.472 55.9541 81.24 55.3141 81.08C54.6901 80.904 54.0101 80.816 53.2741 80.816C51.5621 80.816 50.2421 81.344 49.3141 82.4C48.4021 83.456 47.9461 84.856 47.9461 86.6C47.9461 88.344 48.3941 89.744 49.2901 90.8C50.2021 91.856 51.5061 92.384 53.2021 92.384C53.9541 92.384 54.6421 92.304 55.2661 92.144C55.9061 91.984 56.5861 91.744 57.3061 91.424L57.6421 94.352C56.2501 95.008 54.7701 95.336 53.2021 95.336ZM63.4831 81.176H58.7311V78.2H71.3071V81.176H66.5551V95H63.4831V81.176Z" fill="#199C16"/>
<path d="M65.98 4C65.98 1.79 64.21 0 62 0H30C27.79 0 26 1.79 26 4V28C26 30.21 27.79 32 30 32H58L66 40L65.98 4Z" fill="#199C16"/>
<path d="M42 18H10C7.79 18 6.02 19.79 6.02 22L6 58L14 50H42C44.21 50 46 48.21 46 46V22C46 19.79 44.21 18 42 18ZM20 36H16V32H20V36ZM28 36H24V32H28V36ZM36 36H32V32H36V36Z" fill="#74CC66"/>
</svg>
