<svg width="77" height="77" viewBox="0 0 97 96" fill="none" xmlns="http://www.w3.org/2000/svg">
<path d="M2.14878 73.2H8.29278C10.0848 73.2 11.4928 73.632 12.5168 74.496C13.5568 75.344 14.0768 76.608 14.0768 78.288C14.0768 79.456 13.8288 80.416 13.3328 81.168C12.8368 81.904 12.1328 82.496 11.2208 82.944L15.0128 90H11.5808L8.34078 83.76H8.22078H5.22078V90H2.14878V73.2ZM7.47678 81.192C9.73278 81.192 10.8608 80.28 10.8608 78.456C10.8608 77.576 10.6048 76.912 10.0928 76.464C9.58078 76 8.74878 75.768 7.59678 75.768H5.22078V81.192H7.47678ZM17.1722 73.2H27.9242V76.176H20.3162V79.752H26.2202V82.728H20.3162V87.024H28.1642V90H17.1722V73.2ZM38.2099 90.336C36.5139 90.336 35.0099 89.976 33.6979 89.256C32.4019 88.536 31.3939 87.52 30.6739 86.208C29.9539 84.88 29.5939 83.344 29.5939 81.6C29.5939 79.872 29.9619 78.352 30.6979 77.04C31.4499 75.712 32.4819 74.688 33.7939 73.968C35.1219 73.232 36.6259 72.864 38.3059 72.864C39.9219 72.864 41.3699 73.192 42.6499 73.848L42.3139 76.776C41.6259 76.472 40.9619 76.24 40.3219 76.08C39.6979 75.904 39.0179 75.816 38.2819 75.816C36.5699 75.816 35.2499 76.344 34.3219 77.4C33.4099 78.456 32.9539 79.856 32.9539 81.6C32.9539 83.344 33.4019 84.744 34.2979 85.8C35.2099 86.856 36.5139 87.384 38.2099 87.384C38.9619 87.384 39.6499 87.304 40.2739 87.144C40.9139 86.984 41.5939 86.744 42.3139 86.424L42.6499 89.352C41.2579 90.008 39.7779 90.336 38.2099 90.336ZM52.288 90.336C50.704 90.336 49.28 89.976 48.016 89.256C46.768 88.52 45.784 87.496 45.064 86.184C44.36 84.856 44.008 83.328 44.008 81.6C44.008 79.872 44.36 78.352 45.064 77.04C45.784 75.712 46.768 74.688 48.016 73.968C49.28 73.232 50.704 72.864 52.288 72.864C53.872 72.864 55.288 73.232 56.536 73.968C57.8 74.688 58.784 75.712 59.488 77.04C60.208 78.352 60.568 79.872 60.568 81.6C60.568 83.328 60.208 84.856 59.488 86.184C58.784 87.496 57.8 88.52 56.536 89.256C55.288 89.976 53.872 90.336 52.288 90.336ZM52.288 87.36C53.92 87.36 55.168 86.832 56.032 85.776C56.912 84.72 57.352 83.328 57.352 81.6C57.352 79.872 56.912 78.48 56.032 77.424C55.168 76.368 53.92 75.84 52.288 75.84C50.656 75.84 49.4 76.368 48.52 77.424C47.656 78.48 47.224 79.872 47.224 81.6C47.224 83.328 47.656 84.72 48.52 85.776C49.4 86.832 50.656 87.36 52.288 87.36ZM63.2503 73.2H69.3943C71.1863 73.2 72.5943 73.632 73.6183 74.496C74.6583 75.344 75.1783 76.608 75.1783 78.288C75.1783 79.456 74.9303 80.416 74.4343 81.168C73.9383 81.904 73.2343 82.496 72.3223 82.944L76.1143 90H72.6823L69.4423 83.76H69.3223H66.3223V90H63.2503V73.2ZM68.5783 81.192C70.8343 81.192 71.9623 80.28 71.9623 78.456C71.9623 77.576 71.7063 76.912 71.1943 76.464C70.6823 76 69.8503 75.768 68.6983 75.768H66.3223V81.192H68.5783ZM78.2738 73.2H84.5618C86.1618 73.2 87.5858 73.536 88.8338 74.208C90.0978 74.88 91.0818 75.848 91.7858 77.112C92.4898 78.376 92.8418 79.872 92.8418 81.6C92.8418 83.328 92.4898 84.824 91.7858 86.088C91.0818 87.352 90.0978 88.32 88.8338 88.992C87.5858 89.664 86.1618 90 84.5618 90H78.2738V73.2ZM84.5618 87.264C86.1618 87.264 87.3778 86.768 88.2098 85.776C89.0578 84.768 89.4818 83.376 89.4818 81.6C89.4818 79.824 89.0578 78.44 88.2098 77.448C87.3778 76.44 86.1618 75.936 84.5618 75.936H81.3458V87.264H84.5618Z" fill="#ED5E5E"/>
<path d="M67 30C72.525 30 77 25.5125 77 20C77 14.475 72.525 10 67 10C61.475 10 57 14.475 57 20C57 25.5125 61.475 30 67 30ZM67 35C60.3375 35 47 38.3375 47 45V50H87V45C87 38.3375 73.6625 35 67 35Z" fill="#CC3333"/>
<path d="M34.9167 16.625V11.0833C34.9167 10.2125 34.2042 9.5 33.3333 9.5H14.3333C13.4625 9.5 12.75 10.2125 12.75 11.0833V26.9167C12.75 27.7875 13.4625 28.5 14.3333 28.5H33.3333C34.2042 28.5 34.9167 27.7875 34.9167 26.9167V21.375L41.25 27.7083V10.2917L34.9167 16.625Z" fill="#ED5E5E"/>
</svg>
