<svg width="76" height="89" viewBox="0 0 95 111" fill="none" xmlns="http://www.w3.org/2000/svg">
<path d="M2.03941 88.2H8.18341C9.97541 88.2 11.3834 88.632 12.4074 89.496C13.4474 90.344 13.9674 91.608 13.9674 93.288C13.9674 94.456 13.7194 95.416 13.2234 96.168C12.7274 96.904 12.0234 97.496 11.1114 97.944L14.9034 105H11.4714L8.23141 98.76H8.11141H5.11141V105H2.03941V88.2ZM7.36741 96.192C9.62341 96.192 10.7514 95.28 10.7514 93.456C10.7514 92.576 10.4954 91.912 9.98341 91.464C9.47141 91 8.63941 90.768 7.48741 90.768H5.11141V96.192H7.36741ZM17.0628 88.2H27.8148V91.176H20.2068V94.752H26.1108V97.728H20.2068V102.024H28.0548V105H17.0628V88.2ZM30.7035 88.2H41.0475V91.176H33.7755V94.752H39.3915V97.728H33.7755V105H30.7035V88.2ZM43.3128 88.2H46.3848V102.264H53.2968V105H43.3128V88.2ZM55.3128 88.2H66.0648V91.176H58.4568V94.752H64.3608V97.728H58.4568V102.024H66.3048V105H55.3128V88.2ZM76.3505 105.336C74.6545 105.336 73.1505 104.976 71.8385 104.256C70.5425 103.536 69.5345 102.52 68.8145 101.208C68.0945 99.88 67.7345 98.344 67.7345 96.6C67.7345 94.872 68.1025 93.352 68.8385 92.04C69.5905 90.712 70.6225 89.688 71.9345 88.968C73.2625 88.232 74.7665 87.864 76.4465 87.864C78.0625 87.864 79.5105 88.192 80.7905 88.848L80.4545 91.776C79.7665 91.472 79.1025 91.24 78.4625 91.08C77.8385 90.904 77.1585 90.816 76.4225 90.816C74.7105 90.816 73.3905 91.344 72.4625 92.4C71.5505 93.456 71.0945 94.856 71.0945 96.6C71.0945 98.344 71.5425 99.744 72.4385 100.8C73.3505 101.856 74.6545 102.384 76.3505 102.384C77.1025 102.384 77.7905 102.304 78.4145 102.144C79.0545 101.984 79.7345 101.744 80.4545 101.424L80.7905 104.352C79.3985 105.008 77.9185 105.336 76.3505 105.336ZM86.6315 91.176H81.8795V88.2H94.4555V91.176H89.7035V105H86.6315V91.176Z" fill="#CCB847"/>
<path d="M70 21.3938C72.755 21.3938 74.9875 23.5675 74.9875 26.25C74.9875 28.9325 72.755 31.1063 70 31.1063C67.245 31.1063 65.0125 28.9325 65.0125 26.25C65.0125 23.5675 67.245 21.3938 70 21.3938ZM70 42.2062C77.0656 42.2062 84.4875 45.5709 84.4875 47.0625V49.6063H55.5125V47.0625C55.5125 45.5709 62.9344 42.2062 70 42.2062ZM70 17C64.7513 17 60.5 21.1394 60.5 26.25C60.5 31.3491 64.7513 35.5 70 35.5C75.2488 35.5 79.5 31.3491 79.5 26.25C79.5 21.1394 75.2488 17 70 17ZM70 37.8125C63.6706 37.8125 51 40.8997 51 47.0625V54H89V47.0625C89 40.8997 76.3294 37.8125 70 37.8125Z" fill="#CCB847"/>
<path fill-rule="evenodd" clip-rule="evenodd" d="M51 54V2L59 2V54H51Z" fill="white"/>
<path d="M24 35C29.2488 35 33.5 30.7369 33.5 25.5C33.5 20.2512 29.2488 16 24 16C18.7513 16 14.5 20.2512 14.5 25.5C14.5 30.7369 18.7513 35 24 35ZM24 39.75C17.6706 39.75 5 42.9206 5 49.25V54H43V49.25C43 42.9206 30.3294 39.75 24 39.75Z" fill="#FAE675"/>
<path fill-rule="evenodd" clip-rule="evenodd" d="M37 62V10H43V62H37Z" fill="white"/>
<path fill-rule="evenodd" clip-rule="evenodd" d="M43 66L43 0L51 0L51 66H43Z" fill="#CCB847"/>
</svg>
