<svg width="43" height="82" viewBox="0 0 54 102" fill="none" xmlns="http://www.w3.org/2000/svg">
<path d="M18.2729 90.792C18.2729 89.944 18.4409 89.232 18.7769 88.656C19.1129 88.064 19.6009 87.448 20.2409 86.808C20.9769 86.072 21.4809 85.504 21.7529 85.104C22.0409 84.688 22.1849 84.2 22.1849 83.64C22.1849 83.064 21.9929 82.616 21.6089 82.296C21.2249 81.976 20.7049 81.816 20.0489 81.816C19.4409 81.816 18.8649 81.896 18.3209 82.056C17.7929 82.2 17.2169 82.424 16.5929 82.728L16.2569 79.896C16.9609 79.56 17.6569 79.304 18.3449 79.128C19.0489 78.952 19.8569 78.864 20.7689 78.864C21.7449 78.864 22.5929 79.048 23.3129 79.416C24.0329 79.784 24.5849 80.288 24.9689 80.928C25.3529 81.568 25.5449 82.296 25.5449 83.112C25.5449 83.896 25.3529 84.608 24.9689 85.248C24.6009 85.872 24.0329 86.568 23.2649 87.336C22.6569 87.944 22.1929 88.496 21.8729 88.992C21.5689 89.472 21.4169 90.024 21.4169 90.648V91.032H18.2729V90.792ZM18.2729 92.736H21.3929V96H18.2729V92.736ZM29.476 90.792C29.476 89.944 29.644 89.232 29.98 88.656C30.316 88.064 30.804 87.448 31.444 86.808C32.18 86.072 32.684 85.504 32.956 85.104C33.244 84.688 33.388 84.2 33.388 83.64C33.388 83.064 33.196 82.616 32.812 82.296C32.428 81.976 31.908 81.816 31.252 81.816C30.644 81.816 30.068 81.896 29.524 82.056C28.996 82.2 28.42 82.424 27.796 82.728L27.46 79.896C28.164 79.56 28.86 79.304 29.548 79.128C30.252 78.952 31.06 78.864 31.972 78.864C32.948 78.864 33.796 79.048 34.516 79.416C35.236 79.784 35.788 80.288 36.172 80.928C36.556 81.568 36.748 82.296 36.748 83.112C36.748 83.896 36.556 84.608 36.172 85.248C35.804 85.872 35.236 86.568 34.468 87.336C33.86 87.944 33.396 88.496 33.076 88.992C32.772 89.472 32.62 90.024 32.62 90.648V91.032H29.476V90.792ZM29.476 92.736H32.596V96H29.476V92.736Z" fill="#ED5E5E"/>
<rect x="3" y="3.08472" width="47.5219" height="47.5219" rx="9" stroke="#CC3333" stroke-width="6"/>
<path d="M34.2498 21.3332H32.9582V18.7498C32.9582 15.1848 30.0648 12.2915 26.4998 12.2915C22.9348 12.2915 20.0415 15.1848 20.0415 18.7498V21.3332H18.7498C17.3225 21.3332 16.1665 22.4892 16.1665 23.9165V36.8332C16.1665 38.2605 17.3225 39.4165 18.7498 39.4165H34.2498C35.6771 39.4165 36.8332 38.2605 36.8332 36.8332V23.9165C36.8332 22.4892 35.6771 21.3332 34.2498 21.3332ZM26.4998 32.9582C25.0725 32.9582 23.9165 31.8021 23.9165 30.3748C23.9165 28.9475 25.0725 27.7915 26.4998 27.7915C27.9271 27.7915 29.0832 28.9475 29.0832 30.3748C29.0832 31.8021 27.9271 32.9582 26.4998 32.9582ZM30.504 21.3332H22.4957V18.7498C22.4957 16.5411 24.2911 14.7457 26.4998 14.7457C28.7086 14.7457 30.504 16.5411 30.504 18.7498V21.3332Z" fill="#ED5E5E"/>
</svg>
