<svg xmlns="http://www.w3.org/2000/svg" width="192.858" height="83.366" viewBox="0 0 192.858 83.366">
    <g opacity="0.26">
        <g>
            <path d="M196.109-119.975a.507.507 0 0 1-.086-.007.594.594 0 0 1-.5-.673l.032-.216a10.357 10.357 0 0 0 .148-1.508 12.287 12.287 0 0 0-12.273-12.272 12.137 12.137 0 0 0-5.434 1.324.593.593 0 0 1-.589-.034.6.6 0 0 1-.271-.525c.009-.177.021-.353.033-.529.019-.276.039-.551.039-.83a30.8 30.8 0 0 0-30.766-30.764 30.818 30.818 0 0 0-7.876 1.057.6.6 0 0 1-.714-.379 18.919 18.919 0 0 0-17.831-12.675A18.819 18.819 0 0 0 101.2-160.92a.594.594 0 0 1-.592.538 25.167 25.167 0 0 0-25.14 25.137c0 .356.007.709.023 1.062a.6.6 0 0 1-.568.622.6.6 0 0 1-.621-.568c-.017-.371-.024-.743-.024-1.116a26.357 26.357 0 0 1 25.793-26.322 20.007 20.007 0 0 1 19.946-17.633 20.111 20.111 0 0 1 18.768 12.958 31.806 31.806 0 0 1 7.653-.961 31.991 31.991 0 0 1 31.956 31.954c0 .145 0 .289-.011.433a13.067 13.067 0 0 1 5.043-1.029 13.477 13.477 0 0 1 13.463 13.462 11.408 11.408 0 0 1-.161 1.682l-.031.212a.6.6 0 0 1-.588.514z" transform="translate(-74.279 194.268)"/>
        </g>
        <g>
            <path d="M266.541-162.737H247.3a.6.6 0 0 1-.588-.5 13.5 13.5 0 0 0-11.154-11.2.6.6 0 0 1-.493-.672 15.669 15.669 0 0 0 .182-2.27 15.712 15.712 0 0 0-15.693-15.7 15.66 15.66 0 0 0-14.482 9.647.588.588 0 0 1-.675.352 15.354 15.354 0 0 0-3.236-.352 15.261 15.261 0 0 0-15.244 15.244 15.245 15.245 0 0 0 .608 4.259h19.93a.6.6 0 0 1 .6.6.6.6 0 0 1-.6.6H186.08a.6.6 0 0 1-.567-.414 16.508 16.508 0 0 1-.791-5.036 16.454 16.454 0 0 1 16.435-16.434 16.45 16.45 0 0 1 3.008.282 16.844 16.844 0 0 1 15.385-9.929 16.9 16.9 0 0 1 16.883 16.885 15.6 15.6 0 0 1-.119 1.873 14.68 14.68 0 0 1 11.48 11.582h18.747a.6.6 0 0 1 .6.6.6.6 0 0 1-.6.583z" transform="translate(-74.279 194.268)"/>
        </g>
        <g>
            <path d="M196.108-119.975h-22.773a.6.6 0 0 1-.6-.6.6.6 0 0 1 .6-.6h22.773a.6.6 0 0 1 .6.6.6.6 0 0 1-.6.6z" transform="translate(-74.279 194.268)"/>
        </g>
        <g>
            <path d="M167.235-110.9h-37.818a.594.594 0 0 1-.6-.6.594.594 0 0 1 .6-.6h37.818a.6.6 0 0 1 .6.6.6.6 0 0 1-.6.6z" transform="translate(-74.279 194.268)"/>
        </g>
        <g>
            <path d="M255.728-152.935h-49.277a.594.594 0 0 1-.6-.6.6.6 0 0 1 .6-.6h49.277a.6.6 0 0 1 .6.6.6.6 0 0 1-.6.6z" transform="translate(-74.279 194.268)"/>
        </g>
    </g>
</svg>
