<svg xmlns="http://www.w3.org/2000/svg" width="227.828" height="194.241" viewBox="0 0 227.828 194.241">
    <defs>
        <style>
            .cls-2{opacity:.3}
        </style>
    </defs>
    <g id="Group_2027" opacity="0.51" transform="translate(-1143.259 326.49)">
        <g id="Group_2018" class="cls-2">
            <g id="Group_1997">
                <path id="Path_12621" d="M1265.089-182.675a.632.632 0 0 1-.086-.006.6.6 0 0 1-.5-.674l.032-.216a10.324 10.324 0 0 0 .148-1.508 12.286 12.286 0 0 0-12.273-12.271 12.124 12.124 0 0 0-5.434 1.324.6.6 0 0 1-.59-.035.6.6 0 0 1-.27-.525c.009-.177.021-.353.033-.529.019-.275.039-.55.039-.83a30.8 30.8 0 0 0-30.766-30.764 30.818 30.818 0 0 0-7.876 1.057.6.6 0 0 1-.714-.379A18.919 18.919 0 0 0 1189-240.705a18.819 18.819 0 0 0-18.816 17.086.594.594 0 0 1-.592.538 25.167 25.167 0 0 0-25.14 25.136c0 .356.007.71.023 1.063a.6.6 0 0 1-.568.621.6.6 0 0 1-.622-.568c-.016-.37-.023-.742-.023-1.116a26.356 26.356 0 0 1 25.793-26.321A20.007 20.007 0 0 1 1189-241.9a20.11 20.11 0 0 1 18.767 12.959 31.771 31.771 0 0 1 7.654-.962 31.991 31.991 0 0 1 31.956 31.954c0 .145 0 .289-.011.433a13.083 13.083 0 0 1 5.043-1.028 13.477 13.477 0 0 1 13.463 13.461 11.4 11.4 0 0 1-.161 1.682l-.031.212a.6.6 0 0 1-.591.514z"/>
            </g>
            <g id="Group_1998">
                <path id="Path_12622" d="M1363.043-213.256H1343.8a.594.594 0 0 1-.587-.5 13.5 13.5 0 0 0-11.155-11.2.6.6 0 0 1-.492-.673 15.643 15.643 0 0 0 .182-2.27 15.711 15.711 0 0 0-15.693-15.694 15.657 15.657 0 0 0-14.482 9.647.59.59 0 0 1-.675.352 15.361 15.361 0 0 0-3.236-.352 15.262 15.262 0 0 0-15.245 15.244 15.294 15.294 0 0 0 .608 4.259h19.931a.594.594 0 0 1 .595.6.594.594 0 0 1-.595.6h-20.371a.6.6 0 0 1-.567-.413 16.482 16.482 0 0 1-.791-5.036 16.453 16.453 0 0 1 16.435-16.434 16.37 16.37 0 0 1 3.008.282 16.843 16.843 0 0 1 15.385-9.93 16.9 16.9 0 0 1 16.883 16.885 15.6 15.6 0 0 1-.119 1.873 14.681 14.681 0 0 1 11.48 11.583h18.747a.6.6 0 0 1 .6.6.6.6 0 0 1-.603.577z"/>
            </g>
            <g id="Group_2009">
                <g id="Group_1999">
                    <path id="Path_12623" d="M1349.068-132.249h-42.381a.6.6 0 0 1-.6-.6.6.6 0 0 1 .6-.6h42.381a20.853 20.853 0 0 0 20.829-20.829 20.853 20.853 0 0 0-20.829-20.829h-63.492a.6.6 0 0 1-.6-.6.6.6 0 0 1 .6-.6h63.492a22.045 22.045 0 0 1 22.019 22.02 22.044 22.044 0 0 1-22.019 22.038z"/>
                </g>
                <g id="Group_2000">
                    <path id="Path_12624" d="M1349.135-139.6a14.687 14.687 0 0 1-14.67-14.669 14.686 14.686 0 0 1 14.67-14.669 14.687 14.687 0 0 1 14.671 14.669 14.687 14.687 0 0 1-14.671 14.669zm0-28.148a13.5 13.5 0 0 0-13.48 13.479 13.5 13.5 0 0 0 13.48 13.479 13.5 13.5 0 0 0 13.481-13.479 13.5 13.5 0 0 0-13.481-13.478z"/>
                </g>
                <g id="Group_2001">
                    <path id="Path_12625" d="M1324.828-163.839h-19.862a.594.594 0 0 1-.595-.6.594.594 0 0 1 .595-.6h19.862a.594.594 0 0 1 .595.6.594.594 0 0 1-.595.6z"/>
                </g>
                <g id="Group_2002">
                    <path id="Path_12626" d="M1324.828-153.673h-28.983a.6.6 0 0 1-.595-.6.6.6 0 0 1 .595-.6h28.983a.594.594 0 0 1 .595.6.594.594 0 0 1-.595.6z"/>
                </g>
                <g id="Group_2003">
                    <path id="Path_12627" d="M1324.828-143.508h-43.369a.594.594 0 0 1-.595-.6.6.6 0 0 1 .595-.6h43.369a.6.6 0 0 1 .595.6.594.594 0 0 1-.595.6z"/>
                </g>
                <g id="Group_2004">
                    <path id="Path_12628" d="M1296.68-163.839h-13.138a.594.594 0 0 1-.595-.6.594.594 0 0 1 .595-.6h13.138a.6.6 0 0 1 .6.6.6.6 0 0 1-.6.6z"/>
                </g>
                <g id="Group_2005">
                    <path id="Path_12629" d="M1287.506-153.673h-13.136a.594.594 0 0 1-.595-.6.594.594 0 0 1 .595-.6h13.136a.594.594 0 0 1 .595.6.594.594 0 0 1-.595.6z"/>
                </g>
                <g id="Group_2006">
                    <path id="Path_12630" d="M1363.211-153.673h-11.276a.6.6 0 0 1-.6-.6.6.6 0 0 1 .6-.6h11.276a.594.594 0 0 1 .595.6.594.594 0 0 1-.595.6z"/>
                </g>
                <g id="Group_2007">
                    <path id="Path_12631" d="M1360.451-145.3h-5.6a.6.6 0 0 1-.6-.6.6.6 0 0 1 .6-.6h5.6a.6.6 0 0 1 .595.6.594.594 0 0 1-.595.6z"/>
                </g>
                <g id="Group_2008">
                    <path id="Path_12632" d="M1360.451-162.034h-15.5a.6.6 0 0 1-.6-.6.6.6 0 0 1 .6-.6h15.5a.594.594 0 0 1 .595.6.6.6 0 0 1-.595.6z"/>
                </g>
            </g>
            <g id="Group_2010">
                <path id="Path_12633" d="M1265.088-182.675h-22.773a.594.594 0 0 1-.595-.6.594.594 0 0 1 .595-.6h22.773a.594.594 0 0 1 .595.6.594.594 0 0 1-.595.6z"/>
            </g>
            <g id="Group_2011">
                <path id="Path_12634" d="M1236.215-173.6H1198.4a.594.594 0 0 1-.595-.6.594.594 0 0 1 .595-.6h37.818a.6.6 0 0 1 .6.6.6.6 0 0 1-.603.6z"/>
            </g>
            <g id="Group_2012">
                <path id="Path_12635" d="M1352.23-203.454h-49.277a.594.594 0 0 1-.595-.6.594.594 0 0 1 .595-.6h49.277a.594.594 0 0 1 .595.6.594.594 0 0 1-.595.6z"/>
            </g>
        </g>
        <g id="Group_2026" class="cls-2">
            <g id="Group_2019">
                <path id="Path_12641" d="M1241.328-246.2a40.145 40.145 0 0 1-40.026-37.785.942.942 0 0 1 .457-.866.95.95 0 0 1 .979 0 176.768 176.768 0 0 0 32.745 15.143 176.67 176.67 0 0 0 35.026 8.668.944.944 0 0 1 .766.61.946.946 0 0 1-.185.962 40.206 40.206 0 0 1-29.762 13.268zm-37.99-36.084a38.254 38.254 0 0 0 37.99 34.193 38.293 38.293 0 0 0 27.106-11.322 181.489 181.489 0 0 1-33.578-8.509 181.647 181.647 0 0 1-31.518-14.36z"/>
            </g>
            <g id="Group_2020">
                <path id="Path_12642" d="M1282.272-258.311a94.55 94.55 0 0 1-12.005-.849.944.944 0 0 1-.765-.61.946.946 0 0 1 .185-.962 38.163 38.163 0 0 0 9.9-25.612c0-.547-.037-1.087-.072-1.625l-.041-.629a.945.945 0 0 1 .458-.865.949.949 0 0 1 .978 0c14.985 9.128 22.332 17.913 20.156 24.1-1.623 4.615-8.12 7.052-18.794 7.052zm-10.008-2.511a89.02 89.02 0 0 0 10.007.619c9.657 0 15.7-2.053 17.006-5.78 1.729-4.922-5.067-12.86-17.813-20.906.006.181.01.363.01.545a40.024 40.024 0 0 1-9.21 25.522z"/>
            </g>
            <g id="Group_2021">
                <path id="Path_12643" d="M1202.245-283.093a.949.949 0 0 1-.492-.138c-14.985-9.124-22.332-17.91-20.155-24.1 1.618-4.608 8.116-7.043 18.794-7.043a94.435 94.435 0 0 1 12 .847.945.945 0 0 1 .766.61.947.947 0 0 1-.185.962 38.151 38.151 0 0 0-9.9 25.613c0 .55.037 1.09.073 1.628l.039.623a.94.94 0 0 1-.457.865.945.945 0 0 1-.483.133zm-1.853-29.392c-9.661 0-15.7 2.052-17.009 5.779-1.731 4.924 5.064 12.862 17.812 20.9-.006-.179-.01-.36-.01-.541a40.01 40.01 0 0 1 9.21-25.523 89.184 89.184 0 0 0-10.003-.615z"/>
            </g>
            <g id="Group_2022">
                <path id="Path_12644" d="M1270.388-259.152a.971.971 0 0 1-.121-.008 178.623 178.623 0 0 1-35.411-8.76 178.678 178.678 0 0 1-33.1-15.311.942.942 0 0 1-.451-.753l-.039-.6c-.039-.581-.078-1.163-.078-1.755a40.04 40.04 0 0 1 10.384-26.881 40.207 40.207 0 0 1 29.759-13.265 40.15 40.15 0 0 1 40.029 37.782l.04.613c.039.58.077 1.16.077 1.751a40.052 40.052 0 0 1-10.384 26.879.943.943 0 0 1-.705.308zm-67.23-25.44a177.5 177.5 0 0 0 32.325 14.888 177.511 177.511 0 0 0 34.532 8.6 38.149 38.149 0 0 0 9.567-25.243c0-.547-.037-1.087-.072-1.625l-.041-.629a38.257 38.257 0 0 0-38.141-36 38.308 38.308 0 0 0-28.355 12.641 38.151 38.151 0 0 0-9.9 25.613c0 .55.037 1.09.073 1.628z"/>
            </g>
            <g id="Group_2023">
                <path id="Path_12645" d="M1295.041-295.326a7.318 7.318 0 0 1-7.31-7.308 7.318 7.318 0 0 1 7.31-7.309 7.316 7.316 0 0 1 7.307 7.309 7.315 7.315 0 0 1-7.307 7.308zm0-12.725a5.424 5.424 0 0 0-5.419 5.417 5.424 5.424 0 0 0 5.419 5.417 5.422 5.422 0 0 0 5.416-5.417 5.422 5.422 0 0 0-5.416-5.417z"/>
            </g>
            <g id="Group_2024">
                <path id="Path_12646" d="M1185.076-270.888a6.3 6.3 0 0 1-6.291-6.291 6.3 6.3 0 0 1 6.291-6.293 6.3 6.3 0 0 1 6.291 6.293 6.3 6.3 0 0 1-6.291 6.291zm0-10.692a4.4 4.4 0 0 0-4.4 4.4 4.4 4.4 0 0 0 4.4 4.4 4.4 4.4 0 0 0 4.4-4.4 4.4 4.4 0 0 0-4.4-4.4z"/>
            </g>
            <g id="Group_2025">
                <path id="Path_12647" fill="#fff" d="M1233.98-273.162a10.106 10.106 0 0 1-10.106 10.108 10.11 10.11 0 0 1-10.111-10.108 10.111 10.111 0 0 1 10.111-10.108 10.107 10.107 0 0 1 10.106 10.108z"/>
                <path id="Path_12648" d="M1223.874-262.108a11.068 11.068 0 0 1-11.056-11.054 11.068 11.068 0 0 1 11.056-11.054 11.066 11.066 0 0 1 11.052 11.054 11.066 11.066 0 0 1-11.052 11.054zm0-20.217a9.174 9.174 0 0 0-9.165 9.163 9.174 9.174 0 0 0 9.165 9.163 9.172 9.172 0 0 0 9.161-9.163 9.173 9.173 0 0 0-9.161-9.163z"/>
            </g>
        </g>
    </g>
</svg>
