<svg width="72" height="72" viewBox="0 0 72 72" fill="none" xmlns="http://www.w3.org/2000/svg">
<rect x="2" y="2" width="68" height="68" rx="6" fill="white" stroke="url(#paint0_linear)" stroke-width="4"/>
<path d="M38 55H37V56H38V55ZM38 41.0153H39V39.2836L37.5002 40.1491L38 41.0153ZM37.8929 41.0728L38.3393 41.9677L38.3393 41.9677L37.8929 41.0728ZM33.8929 43.0685L33.4464 42.1736H33.4464L33.8929 43.0685ZM33.9008 27.8588L34.3512 26.966L33.9008 27.8588ZM37.9008 29.8766L37.4504 30.7695H37.4504L37.9008 29.8766ZM38 29.9302L37.5002 30.7964L39 31.6619V29.9302H38ZM38 14V13H37V14H38ZM59 18C59 15.2386 56.7614 13 54 13V15C55.6569 15 57 16.3431 57 18H59ZM59 51V18H57V51H59ZM54 56C56.7614 56 59 53.7614 59 51H57C57 52.6569 55.6569 54 54 54V56ZM38 56H54V54H38V56ZM37 41.0153V55H39V41.0153H37ZM37.5002 40.1491C37.4827 40.1592 37.4648 40.1689 37.4464 40.178L38.3393 41.9677C38.3938 41.9404 38.4474 41.9117 38.4998 41.8814L37.5002 40.1491ZM37.4464 40.178L33.4464 42.1736L34.3393 43.9633L38.3393 41.9677L37.4464 40.178ZM33.4464 42.1736C32.7816 42.5053 32 42.0218 32 41.2788H30C30 43.5078 32.3447 44.9584 34.3393 43.9633L33.4464 42.1736ZM32 41.2788V29.6444H30V41.2788H32ZM32 29.6444C32 28.8995 32.7853 28.4161 33.4504 28.7516L34.3512 26.966C32.3559 25.9594 30 27.4096 30 29.6444H32ZM33.4504 28.7516L37.4504 30.7695L38.3512 28.9838L34.3512 26.966L33.4504 28.7516ZM37.4504 30.7695C37.4673 30.778 37.4839 30.787 37.5002 30.7964L38.4998 29.0641C38.4512 29.0361 38.4017 29.0093 38.3512 28.9838L37.4504 30.7695ZM37 14V29.9302H39V14H37ZM54 13H38V15H54V13Z" fill="url(#paint1_linear)"/>
<path fill-rule="evenodd" clip-rule="evenodd" d="M14 17C14 14.7909 15.7909 13 18 13H38V29.7051C37.9787 29.6928 37.9571 29.6809 37.9353 29.6693L33.9353 27.553C32.6033 26.8483 31 27.8139 31 29.3208V41.6963C31 43.1992 32.5956 44.1651 33.9272 43.4684L37.9272 41.3754C37.9518 41.3625 37.9761 41.3492 38 41.3354V56H32.8261C32.1489 58.8667 29.5736 61 26.5 61C23.4264 61 20.8511 58.8667 20.1739 56H18C15.7909 56 14 54.2091 14 52V17Z" fill="url(#paint2_linear)"/>
<defs>
<linearGradient id="paint0_linear" x1="36" y1="0" x2="36" y2="72" gradientUnits="userSpaceOnUse">
<stop stop-color="#3D39AC"/>
<stop offset="1" stop-color="#292673"/>
</linearGradient>
<linearGradient id="paint1_linear" x1="44.5" y1="14" x2="44.5" y2="55" gradientUnits="userSpaceOnUse">
<stop stop-color="#3D39AC"/>
<stop offset="1" stop-color="#292673"/>
</linearGradient>
<linearGradient id="paint2_linear" x1="26" y1="13" x2="26" y2="61" gradientUnits="userSpaceOnUse">
<stop stop-color="#3D39AC"/>
<stop offset="1" stop-color="#292673"/>
</linearGradient>
</defs>
</svg>
