<svg width="64" height="64" viewBox="0 0 64 64" fill="none" xmlns="http://www.w3.org/2000/svg">
<circle cx="32" cy="32" r="29" fill="white" stroke="#5C84EE" stroke-width="6"/>
<path d="M21.2568 16.8333H51.5902V47.1666H21.2568V16.8333Z" fill="white"/>
<path d="M41.4791 30.7362C43.5708 30.7362 45.2581 29.0362 45.2581 26.9445C45.2581 24.8528 43.5708 23.1528 41.4791 23.1528C39.3873 23.1528 37.6874 24.8528 37.6874 26.9445C37.6874 29.0362 39.3873 30.7362 41.4791 30.7362ZM31.368 30.7362C33.4597 30.7362 35.147 29.0362 35.147 26.9445C35.147 24.8528 33.4597 23.1528 31.368 23.1528C29.2762 23.1528 27.5763 24.8528 27.5763 26.9445C27.5763 29.0362 29.2762 30.7362 31.368 30.7362ZM31.368 33.2639C28.4168 33.2639 22.5208 34.7427 22.5208 37.6876V40.8473H40.2152V37.6876C40.2152 34.7427 34.3192 33.2639 31.368 33.2639ZM41.4791 33.2639C41.1126 33.2639 40.7018 33.2892 40.2594 33.3335C41.7255 34.3888 42.743 35.8107 42.743 37.6876V40.8473H50.3263V37.6876C50.3263 34.7427 44.4303 33.2639 41.4791 33.2639Z" fill="#5C84EE"/>
<path d="M21.257 30.7362C19.1653 30.7362 17.478 29.0362 17.478 26.9445C17.478 24.8528 19.1653 23.1528 21.257 23.1528C23.3487 23.1528 25.0487 24.8528 25.0487 26.9445C25.0487 29.0362 23.3487 30.7362 21.257 30.7362ZM31.3681 30.7362C29.2764 30.7362 27.5891 29.0362 27.5891 26.9445C27.5891 24.8528 29.2764 23.1528 31.3681 23.1528C33.4598 23.1528 35.1598 24.8528 35.1598 26.9445C35.1598 29.0362 33.4598 30.7362 31.3681 30.7362ZM31.3681 33.2639C34.3193 33.2639 40.2153 34.7427 40.2153 37.6876V40.8473H22.5209V37.6876C22.5209 34.7427 28.4169 33.2639 31.3681 33.2639ZM21.257 33.2639C21.6235 33.2639 22.0343 33.2892 22.4767 33.3335C21.0105 34.3888 19.9931 35.8107 19.9931 37.6876V40.8473H12.4098V37.6876C12.4098 34.7427 18.3058 33.2639 21.257 33.2639Z" fill="#5C84EE"/>
</svg>
