<svg width="64" height="64" viewBox="0 0 64 64" fill="none" xmlns="http://www.w3.org/2000/svg">
<rect x="3" y="3" width="58" height="58" rx="5" fill="white" stroke="#74CC66" stroke-width="6"/>
<g clip-path="url(#clip0)">
<path d="M35.5556 40.889H17.7778V44.4446H35.5556V40.889ZM46.2223 26.6668H17.7778V30.2223H46.2223V26.6668ZM17.7778 37.3334H46.2223V33.7779H17.7778V37.3334ZM17.7778 19.5557V23.1112H46.2223V19.5557H17.7778Z" fill="#74CC66"/>
<path d="M11.6667 52.0604V41.1111C11.6667 40.5588 12.1145 40.1111 12.6667 40.1111H24.6667C25.219 40.1111 25.6667 40.5588 25.6667 41.1111V49.5555C25.6667 50.1078 25.219 50.5555 24.6667 50.5555H16.8285C16.0329 50.5555 15.2698 50.8716 14.7072 51.4342L13.3739 52.7675C12.7439 53.3975 11.6667 52.9513 11.6667 52.0604Z" fill="#74CC66" stroke="white" stroke-width="2"/>
<path d="M52.3335 24.505V13.5557C52.3335 13.0034 51.8858 12.5557 51.3335 12.5557H39.3335C38.7812 12.5557 38.3335 13.0034 38.3335 13.5557V22.0001C38.3335 22.5524 38.7812 23.0001 39.3335 23.0001H47.1717C47.9674 23.0001 48.7304 23.3162 49.2931 23.8788L50.6264 25.2121C51.2564 25.8421 52.3335 25.3959 52.3335 24.505Z" fill="#74CC66" stroke="white" stroke-width="2"/>
</g>
<defs>
<clipPath id="clip0">
<rect x="10.6667" y="10.6667" width="42.6667" height="42.6667" fill="white"/>
</clipPath>
</defs>
</svg>
