<svg width="64" height="64" viewBox="0 0 64 64" fill="none" xmlns="http://www.w3.org/2000/svg">
<rect x="3" y="3" width="58" height="58" rx="5" fill="white" stroke="#74CC66" stroke-width="6"/>
<g clip-path="url(#clip0)">
<path d="M35.5556 40.889H17.7778V44.4446H35.5556V40.889ZM46.2223 26.6668H17.7778V30.2223H46.2223V26.6668ZM17.7778 37.3334H46.2223V33.7779H17.7778V37.3334ZM17.7778 19.5557V23.1112H46.2223V19.5557H17.7778Z" fill="#74CC66"/>
<path d="M53.2224 24.505V13.5557C53.2224 13.0034 52.7747 12.5557 52.2224 12.5557H40.2224C39.6701 12.5557 39.2224 13.0034 39.2224 13.5557V22.0001C39.2224 22.5524 39.6701 23.0001 40.2224 23.0001H48.0607C48.8563 23.0001 49.6194 23.3162 50.182 23.8788L51.5153 25.2121C52.1453 25.8421 53.2224 25.3959 53.2224 24.505Z" fill="#74CC66" stroke="white" stroke-width="2"/>
</g>
<defs>
<clipPath id="clip0">
<rect x="10.6667" y="10.6667" width="42.6667" height="42.6667" fill="white"/>
</clipPath>
</defs>
</svg>
