<svg width="64" height="64" viewBox="0 0 64 64" fill="none" xmlns="http://www.w3.org/2000/svg">
<rect x="3" y="3" width="58" height="58" rx="5" fill="white" stroke="#74CC66" stroke-width="6"/>
<path d="M47.1912 39.8699L45.4596 41.5749C44.6639 42.3583 44.6639 43.6417 45.4596 44.4251L47.1912 46.1301C48.3767 47.2974 50.3531 46.5289 50.4922 44.9253C52.1612 45.3564 53.375 46.847 53.375 48.6C53.375 50.6852 51.6558 52.4 49.5 52.4C47.5703 52.4 45.9865 51.0229 45.6793 49.2392C45.5388 48.4229 44.848 47.6 43.8125 47.6C42.8509 47.6 41.915 48.4092 42.0597 49.538C42.5288 53.1955 45.6903 56 49.5 56C53.6289 56 57 52.7028 57 48.6C57 44.8627 54.2017 41.7931 50.583 41.2766C50.5648 41.274 50.5473 41.2684 50.5318 41.2604C50.5166 41.2527 50.5061 41.2442 50.4999 41.2379C50.4859 39.5245 48.4163 38.6637 47.1912 39.8699Z" fill="#74CC66" stroke="white" stroke-width="2"/>
<g clip-path="url(#clip0)">
<path d="M35.5556 40.889H17.7778V44.4446H35.5556V40.889ZM46.2223 26.6668H17.7778V30.2223H46.2223V26.6668ZM17.7778 37.3334H46.2223V33.7779H17.7778V37.3334ZM17.7778 19.5557V23.1112H46.2223V19.5557H17.7778Z" fill="#74CC66"/>
<path d="M11.6667 52.0604V41.1111C11.6667 40.5588 12.1145 40.1111 12.6667 40.1111H24.6667C25.219 40.1111 25.6667 40.5588 25.6667 41.1111V49.5555C25.6667 50.1078 25.219 50.5555 24.6667 50.5555H16.8285C16.0329 50.5555 15.2698 50.8716 14.7072 51.4342L13.3739 52.7675C12.7439 53.3975 11.6667 52.9513 11.6667 52.0604Z" fill="#74CC66" stroke="white" stroke-width="2"/>
<path d="M52.3335 24.505V13.5557C52.3335 13.0034 51.8858 12.5557 51.3335 12.5557H39.3335C38.7812 12.5557 38.3335 13.0034 38.3335 13.5557V22.0001C38.3335 22.5524 38.7812 23.0001 39.3335 23.0001H47.1717C47.9674 23.0001 48.7304 23.3162 49.2931 23.8788L50.6264 25.2121C51.2564 25.8421 52.3335 25.3959 52.3335 24.505Z" fill="#74CC66" stroke="white" stroke-width="2"/>
</g>
<defs>
<clipPath id="clip0">
<rect x="10.6667" y="10.6667" width="42.6667" height="42.6667" fill="white"/>
</clipPath>
</defs>
</svg>
